# BubbleTankChamberCollar_V2
o BubbleTankChamberCollar_V2
v 2.760000 0.110000 0.000000
v 2.580000 -0.110000 0.000000
v 2.726020 0.110000 0.431759
v 2.548236 -0.110000 0.403601
v 2.624916 0.110000 0.852887
v 2.453726 -0.110000 0.797264
v 2.459178 0.110000 1.253014
v 2.298797 -0.110000 1.171295
v 2.232887 0.110000 1.622287
v 2.087264 -0.110000 1.516486
v 1.951615 0.110000 1.951615
v 1.824335 -0.110000 1.824335
v 1.622287 0.110000 2.232887
v 1.516486 -0.110000 2.087264
v 1.253014 0.110000 2.459178
v 1.171295 -0.110000 2.298797
v 0.852887 0.110000 2.624916
v 0.797264 -0.110000 2.453726
v 0.431759 0.110000 2.726020
v 0.403601 -0.110000 2.548236
v 0.000000 0.110000 2.760000
v 0.000000 -0.110000 2.580000
v -0.431759 0.110000 2.726020
v -0.403601 -0.110000 2.548236
v -0.852887 0.110000 2.624916
v -0.797264 -0.110000 2.453726
v -1.253014 0.110000 2.459178
v -1.171295 -0.110000 2.298797
v -1.622287 0.110000 2.232887
v -1.516486 -0.110000 2.087264
v -1.951615 0.110000 1.951615
v -1.824335 -0.110000 1.824335
v -2.232887 0.110000 1.622287
v -2.087264 -0.110000 1.516486
v -2.459178 0.110000 1.253014
v -2.298797 -0.110000 1.171295
v -2.624916 0.110000 0.852887
v -2.453726 -0.110000 0.797264
v -2.726020 0.110000 0.431759
v -2.548236 -0.110000 0.403601
v -2.760000 0.110000 0.000000
v -2.580000 -0.110000 0.000000
v -2.726020 0.110000 -0.431759
v -2.548236 -0.110000 -0.403601
v -2.624916 0.110000 -0.852887
v -2.453726 -0.110000 -0.797264
v -2.459178 0.110000 -1.253014
v -2.298797 -0.110000 -1.171295
v -2.232887 0.110000 -1.622287
v -2.087264 -0.110000 -1.516486
v -1.951615 0.110000 -1.951615
v -1.824335 -0.110000 -1.824335
v -1.622287 0.110000 -2.232887
v -1.516486 -0.110000 -2.087264
v -1.253014 0.110000 -2.459178
v -1.171295 -0.110000 -2.298797
v -0.852887 0.110000 -2.624916
v -0.797264 -0.110000 -2.453726
v -0.431759 0.110000 -2.726020
v -0.403601 -0.110000 -2.548236
v -0.000000 0.110000 -2.760000
v -0.000000 -0.110000 -2.580000
v 0.431759 0.110000 -2.726020
v 0.403601 -0.110000 -2.548236
v 0.852887 0.110000 -2.624916
v 0.797264 -0.110000 -2.453726
v 1.253014 0.110000 -2.459178
v 1.171295 -0.110000 -2.298797
v 1.622287 0.110000 -2.232887
v 1.516486 -0.110000 -2.087264
v 1.951615 0.110000 -1.951615
v 1.824335 -0.110000 -1.824335
v 2.232887 0.110000 -1.622287
v 2.087264 -0.110000 -1.516486
v 2.459178 0.110000 -1.253014
v 2.298797 -0.110000 -1.171295
v 2.624916 0.110000 -0.852887
v 2.453726 -0.110000 -0.797264
v 2.726020 0.110000 -0.431759
v 2.548236 -0.110000 -0.403601
v 2.570000 0.100000 0.000000
v 2.553923 0.160000 0.000000
v 2.510000 0.203923 0.000000
v 2.450000 0.220000 0.000000
v 2.390000 0.203923 0.000000
v 2.346077 0.160000 0.000000
v 2.330000 0.100000 0.000000
v 2.346077 0.040000 0.000000
v 2.390000 -0.003923 0.000000
v 2.450000 -0.020000 0.000000
v 2.510000 -0.003923 0.000000
v 2.553923 0.040000 0.000000
v 2.530956 0.100000 0.446276
v 2.515123 0.160000 0.443484
v 2.471867 0.203923 0.435857
v 2.412779 0.220000 0.425438
v 2.353691 0.203923 0.415019
v 2.310435 0.160000 0.407392
v 2.294602 0.100000 0.404600
v 2.310435 0.040000 0.407392
v 2.353691 -0.003923 0.415019
v 2.412779 -0.020000 0.425438
v 2.471867 -0.003923 0.435857
v 2.515123 0.040000 0.443484
v 2.415010 0.100000 0.878992
v 2.399903 0.160000 0.873493
v 2.358628 0.203923 0.858471
v 2.302247 0.220000 0.837949
v 2.245865 0.203923 0.817428
v 2.204591 0.160000 0.802406
v 2.189484 0.100000 0.796907
v 2.204591 0.040000 0.802406
v 2.245865 -0.003923 0.817428
v 2.302247 -0.020000 0.837949
v 2.358628 -0.003923 0.858471
v 2.399903 0.040000 0.873493
v 2.225685 0.100000 1.285000
v 2.211762 0.160000 1.276962
v 2.173724 0.203923 1.255000
v 2.121762 0.220000 1.225000
v 2.069801 0.203923 1.195000
v 2.031762 0.160000 1.173038
v 2.017839 0.100000 1.165000
v 2.031762 0.040000 1.173038
v 2.069801 -0.003923 1.195000
v 2.121762 -0.020000 1.225000
v 2.173724 -0.003923 1.255000
v 2.211762 0.040000 1.276962
v 1.968734 0.100000 1.651964
v 1.956419 0.160000 1.641630
v 1.922772 0.203923 1.613397
v 1.876809 0.220000 1.574830
v 1.830846 0.203923 1.536262
v 1.797199 0.160000 1.508029
v 1.784884 0.100000 1.497695
v 1.797199 0.040000 1.508029
v 1.830846 -0.003923 1.536262
v 1.876809 -0.020000 1.574830
v 1.922772 -0.003923 1.613397
v 1.956419 0.040000 1.641630
v 1.651964 0.100000 1.968734
v 1.641630 0.160000 1.956419
v 1.613397 0.203923 1.922772
v 1.574830 0.220000 1.876809
v 1.536262 0.203923 1.830846
v 1.508029 0.160000 1.797199
v 1.497695 0.100000 1.784884
v 1.508029 0.040000 1.797199
v 1.536262 -0.003923 1.830846
v 1.574830 -0.020000 1.876809
v 1.613397 -0.003923 1.922772
v 1.641630 0.040000 1.956419
v 1.285000 0.100000 2.225685
v 1.276962 0.160000 2.211762
v 1.255000 0.203923 2.173724
v 1.225000 0.220000 2.121762
v 1.195000 0.203923 2.069801
v 1.173038 0.160000 2.031762
v 1.165000 0.100000 2.017839
v 1.173038 0.040000 2.031762
v 1.195000 -0.003923 2.069801
v 1.225000 -0.020000 2.121762
v 1.255000 -0.003923 2.173724
v 1.276962 0.040000 2.211762
v 0.878992 0.100000 2.415010
v 0.873493 0.160000 2.399903
v 0.858471 0.203923 2.358628
v 0.837949 0.220000 2.302247
v 0.817428 0.203923 2.245865
v 0.802406 0.160000 2.204591
v 0.796907 0.100000 2.189484
v 0.802406 0.040000 2.204591
v 0.817428 -0.003923 2.245865
v 0.837949 -0.020000 2.302247
v 0.858471 -0.003923 2.358628
v 0.873493 0.040000 2.399903
v 0.446276 0.100000 2.530956
v 0.443484 0.160000 2.515123
v 0.435857 0.203923 2.471867
v 0.425438 0.220000 2.412779
v 0.415019 0.203923 2.353691
v 0.407392 0.160000 2.310435
v 0.404600 0.100000 2.294602
v 0.407392 0.040000 2.310435
v 0.415019 -0.003923 2.353691
v 0.425438 -0.020000 2.412779
v 0.435857 -0.003923 2.471867
v 0.443484 0.040000 2.515123
v 0.000000 0.100000 2.570000
v 0.000000 0.160000 2.553923
v 0.000000 0.203923 2.510000
v 0.000000 0.220000 2.450000
v 0.000000 0.203923 2.390000
v 0.000000 0.160000 2.346077
v 0.000000 0.100000 2.330000
v 0.000000 0.040000 2.346077
v 0.000000 -0.003923 2.390000
v 0.000000 -0.020000 2.450000
v 0.000000 -0.003923 2.510000
v 0.000000 0.040000 2.553923
v -0.446276 0.100000 2.530956
v -0.443484 0.160000 2.515123
v -0.435857 0.203923 2.471867
v -0.425438 0.220000 2.412779
v -0.415019 0.203923 2.353691
v -0.407392 0.160000 2.310435
v -0.404600 0.100000 2.294602
v -0.407392 0.040000 2.310435
v -0.415019 -0.003923 2.353691
v -0.425438 -0.020000 2.412779
v -0.435857 -0.003923 2.471867
v -0.443484 0.040000 2.515123
v -0.878992 0.100000 2.415010
v -0.873493 0.160000 2.399903
v -0.858471 0.203923 2.358628
v -0.837949 0.220000 2.302247
v -0.817428 0.203923 2.245865
v -0.802406 0.160000 2.204591
v -0.796907 0.100000 2.189484
v -0.802406 0.040000 2.204591
v -0.817428 -0.003923 2.245865
v -0.837949 -0.020000 2.302247
v -0.858471 -0.003923 2.358628
v -0.873493 0.040000 2.399903
v -1.285000 0.100000 2.225685
v -1.276962 0.160000 2.211762
v -1.255000 0.203923 2.173724
v -1.225000 0.220000 2.121762
v -1.195000 0.203923 2.069801
v -1.173038 0.160000 2.031762
v -1.165000 0.100000 2.017839
v -1.173038 0.040000 2.031762
v -1.195000 -0.003923 2.069801
v -1.225000 -0.020000 2.121762
v -1.255000 -0.003923 2.173724
v -1.276962 0.040000 2.211762
v -1.651964 0.100000 1.968734
v -1.641630 0.160000 1.956419
v -1.613397 0.203923 1.922772
v -1.574830 0.220000 1.876809
v -1.536262 0.203923 1.830846
v -1.508029 0.160000 1.797199
v -1.497695 0.100000 1.784884
v -1.508029 0.040000 1.797199
v -1.536262 -0.003923 1.830846
v -1.574830 -0.020000 1.876809
v -1.613397 -0.003923 1.922772
v -1.641630 0.040000 1.956419
v -1.968734 0.100000 1.651964
v -1.956419 0.160000 1.641630
v -1.922772 0.203923 1.613397
v -1.876809 0.220000 1.574830
v -1.830846 0.203923 1.536262
v -1.797199 0.160000 1.508029
v -1.784884 0.100000 1.497695
v -1.797199 0.040000 1.508029
v -1.830846 -0.003923 1.536262
v -1.876809 -0.020000 1.574830
v -1.922772 -0.003923 1.613397
v -1.956419 0.040000 1.641630
v -2.225685 0.100000 1.285000
v -2.211762 0.160000 1.276962
v -2.173724 0.203923 1.255000
v -2.121762 0.220000 1.225000
v -2.069801 0.203923 1.195000
v -2.031762 0.160000 1.173038
v -2.017839 0.100000 1.165000
v -2.031762 0.040000 1.173038
v -2.069801 -0.003923 1.195000
v -2.121762 -0.020000 1.225000
v -2.173724 -0.003923 1.255000
v -2.211762 0.040000 1.276962
v -2.415010 0.100000 0.878992
v -2.399903 0.160000 0.873493
v -2.358628 0.203923 0.858471
v -2.302247 0.220000 0.837949
v -2.245865 0.203923 0.817428
v -2.204591 0.160000 0.802406
v -2.189484 0.100000 0.796907
v -2.204591 0.040000 0.802406
v -2.245865 -0.003923 0.817428
v -2.302247 -0.020000 0.837949
v -2.358628 -0.003923 0.858471
v -2.399903 0.040000 0.873493
v -2.530956 0.100000 0.446276
v -2.515123 0.160000 0.443484
v -2.471867 0.203923 0.435857
v -2.412779 0.220000 0.425438
v -2.353691 0.203923 0.415019
v -2.310435 0.160000 0.407392
v -2.294602 0.100000 0.404600
v -2.310435 0.040000 0.407392
v -2.353691 -0.003923 0.415019
v -2.412779 -0.020000 0.425438
v -2.471867 -0.003923 0.435857
v -2.515123 0.040000 0.443484
v -2.570000 0.100000 0.000000
v -2.553923 0.160000 0.000000
v -2.510000 0.203923 0.000000
v -2.450000 0.220000 0.000000
v -2.390000 0.203923 0.000000
v -2.346077 0.160000 0.000000
v -2.330000 0.100000 0.000000
v -2.346077 0.040000 0.000000
v -2.390000 -0.003923 0.000000
v -2.450000 -0.020000 0.000000
v -2.510000 -0.003923 0.000000
v -2.553923 0.040000 0.000000
v -2.530956 0.100000 -0.446276
v -2.515123 0.160000 -0.443484
v -2.471867 0.203923 -0.435857
v -2.412779 0.220000 -0.425438
v -2.353691 0.203923 -0.415019
v -2.310435 0.160000 -0.407392
v -2.294602 0.100000 -0.404600
v -2.310435 0.040000 -0.407392
v -2.353691 -0.003923 -0.415019
v -2.412779 -0.020000 -0.425438
v -2.471867 -0.003923 -0.435857
v -2.515123 0.040000 -0.443484
v -2.415010 0.100000 -0.878992
v -2.399903 0.160000 -0.873493
v -2.358628 0.203923 -0.858471
v -2.302247 0.220000 -0.837949
v -2.245865 0.203923 -0.817428
v -2.204591 0.160000 -0.802406
v -2.189484 0.100000 -0.796907
v -2.204591 0.040000 -0.802406
v -2.245865 -0.003923 -0.817428
v -2.302247 -0.020000 -0.837949
v -2.358628 -0.003923 -0.858471
v -2.399903 0.040000 -0.873493
v -2.225685 0.100000 -1.285000
v -2.211762 0.160000 -1.276962
v -2.173724 0.203923 -1.255000
v -2.121762 0.220000 -1.225000
v -2.069801 0.203923 -1.195000
v -2.031762 0.160000 -1.173038
v -2.017839 0.100000 -1.165000
v -2.031762 0.040000 -1.173038
v -2.069801 -0.003923 -1.195000
v -2.121762 -0.020000 -1.225000
v -2.173724 -0.003923 -1.255000
v -2.211762 0.040000 -1.276962
v -1.968734 0.100000 -1.651964
v -1.956419 0.160000 -1.641630
v -1.922772 0.203923 -1.613397
v -1.876809 0.220000 -1.574830
v -1.830846 0.203923 -1.536262
v -1.797199 0.160000 -1.508029
v -1.784884 0.100000 -1.497695
v -1.797199 0.040000 -1.508029
v -1.830846 -0.003923 -1.536262
v -1.876809 -0.020000 -1.574830
v -1.922772 -0.003923 -1.613397
v -1.956419 0.040000 -1.641630
v -1.651964 0.100000 -1.968734
v -1.641630 0.160000 -1.956419
v -1.613397 0.203923 -1.922772
v -1.574830 0.220000 -1.876809
v -1.536262 0.203923 -1.830846
v -1.508029 0.160000 -1.797199
v -1.497695 0.100000 -1.784884
v -1.508029 0.040000 -1.797199
v -1.536262 -0.003923 -1.830846
v -1.574830 -0.020000 -1.876809
v -1.613397 -0.003923 -1.922772
v -1.641630 0.040000 -1.956419
v -1.285000 0.100000 -2.225685
v -1.276962 0.160000 -2.211762
v -1.255000 0.203923 -2.173724
v -1.225000 0.220000 -2.121762
v -1.195000 0.203923 -2.069801
v -1.173038 0.160000 -2.031762
v -1.165000 0.100000 -2.017839
v -1.173038 0.040000 -2.031762
v -1.195000 -0.003923 -2.069801
v -1.225000 -0.020000 -2.121762
v -1.255000 -0.003923 -2.173724
v -1.276962 0.040000 -2.211762
v -0.878992 0.100000 -2.415010
v -0.873493 0.160000 -2.399903
v -0.858471 0.203923 -2.358628
v -0.837949 0.220000 -2.302247
v -0.817428 0.203923 -2.245865
v -0.802406 0.160000 -2.204591
v -0.796907 0.100000 -2.189484
v -0.802406 0.040000 -2.204591
v -0.817428 -0.003923 -2.245865
v -0.837949 -0.020000 -2.302247
v -0.858471 -0.003923 -2.358628
v -0.873493 0.040000 -2.399903
v -0.446276 0.100000 -2.530956
v -0.443484 0.160000 -2.515123
v -0.435857 0.203923 -2.471867
v -0.425438 0.220000 -2.412779
v -0.415019 0.203923 -2.353691
v -0.407392 0.160000 -2.310435
v -0.404600 0.100000 -2.294602
v -0.407392 0.040000 -2.310435
v -0.415019 -0.003923 -2.353691
v -0.425438 -0.020000 -2.412779
v -0.435857 -0.003923 -2.471867
v -0.443484 0.040000 -2.515123
v -0.000000 0.100000 -2.570000
v -0.000000 0.160000 -2.553923
v -0.000000 0.203923 -2.510000
v -0.000000 0.220000 -2.450000
v -0.000000 0.203923 -2.390000
v -0.000000 0.160000 -2.346077
v -0.000000 0.100000 -2.330000
v -0.000000 0.040000 -2.346077
v -0.000000 -0.003923 -2.390000
v -0.000000 -0.020000 -2.450000
v -0.000000 -0.003923 -2.510000
v -0.000000 0.040000 -2.553923
v 0.446276 0.100000 -2.530956
v 0.443484 0.160000 -2.515123
v 0.435857 0.203923 -2.471867
v 0.425438 0.220000 -2.412779
v 0.415019 0.203923 -2.353691
v 0.407392 0.160000 -2.310435
v 0.404600 0.100000 -2.294602
v 0.407392 0.040000 -2.310435
v 0.415019 -0.003923 -2.353691
v 0.425438 -0.020000 -2.412779
v 0.435857 -0.003923 -2.471867
v 0.443484 0.040000 -2.515123
v 0.878992 0.100000 -2.415010
v 0.873493 0.160000 -2.399903
v 0.858471 0.203923 -2.358628
v 0.837949 0.220000 -2.302247
v 0.817428 0.203923 -2.245865
v 0.802406 0.160000 -2.204591
v 0.796907 0.100000 -2.189484
v 0.802406 0.040000 -2.204591
v 0.817428 -0.003923 -2.245865
v 0.837949 -0.020000 -2.302247
v 0.858471 -0.003923 -2.358628
v 0.873493 0.040000 -2.399903
v 1.285000 0.100000 -2.225685
v 1.276962 0.160000 -2.211762
v 1.255000 0.203923 -2.173724
v 1.225000 0.220000 -2.121762
v 1.195000 0.203923 -2.069801
v 1.173038 0.160000 -2.031762
v 1.165000 0.100000 -2.017839
v 1.173038 0.040000 -2.031762
v 1.195000 -0.003923 -2.069801
v 1.225000 -0.020000 -2.121762
v 1.255000 -0.003923 -2.173724
v 1.276962 0.040000 -2.211762
v 1.651964 0.100000 -1.968734
v 1.641630 0.160000 -1.956419
v 1.613397 0.203923 -1.922772
v 1.574830 0.220000 -1.876809
v 1.536262 0.203923 -1.830846
v 1.508029 0.160000 -1.797199
v 1.497695 0.100000 -1.784884
v 1.508029 0.040000 -1.797199
v 1.536262 -0.003923 -1.830846
v 1.574830 -0.020000 -1.876809
v 1.613397 -0.003923 -1.922772
v 1.641630 0.040000 -1.956419
v 1.968734 0.100000 -1.651964
v 1.956419 0.160000 -1.641630
v 1.922772 0.203923 -1.613397
v 1.876809 0.220000 -1.574830
v 1.830846 0.203923 -1.536262
v 1.797199 0.160000 -1.508029
v 1.784884 0.100000 -1.497695
v 1.797199 0.040000 -1.508029
v 1.830846 -0.003923 -1.536262
v 1.876809 -0.020000 -1.574830
v 1.922772 -0.003923 -1.613397
v 1.956419 0.040000 -1.641630
v 2.225685 0.100000 -1.285000
v 2.211762 0.160000 -1.276962
v 2.173724 0.203923 -1.255000
v 2.121762 0.220000 -1.225000
v 2.069801 0.203923 -1.195000
v 2.031762 0.160000 -1.173038
v 2.017839 0.100000 -1.165000
v 2.031762 0.040000 -1.173038
v 2.069801 -0.003923 -1.195000
v 2.121762 -0.020000 -1.225000
v 2.173724 -0.003923 -1.255000
v 2.211762 0.040000 -1.276962
v 2.415010 0.100000 -0.878992
v 2.399903 0.160000 -0.873493
v 2.358628 0.203923 -0.858471
v 2.302247 0.220000 -0.837949
v 2.245865 0.203923 -0.817428
v 2.204591 0.160000 -0.802406
v 2.189484 0.100000 -0.796907
v 2.204591 0.040000 -0.802406
v 2.245865 -0.003923 -0.817428
v 2.302247 -0.020000 -0.837949
v 2.358628 -0.003923 -0.858471
v 2.399903 0.040000 -0.873493
v 2.530956 0.100000 -0.446276
v 2.515123 0.160000 -0.443484
v 2.471867 0.203923 -0.435857
v 2.412779 0.220000 -0.425438
v 2.353691 0.203923 -0.415019
v 2.310435 0.160000 -0.407392
v 2.294602 0.100000 -0.404600
v 2.310435 0.040000 -0.407392
v 2.353691 -0.003923 -0.415019
v 2.412779 -0.020000 -0.425438
v 2.471867 -0.003923 -0.435857
v 2.515123 0.040000 -0.443484
f 2 4 3 1
f 4 6 5 3
f 6 8 7 5
f 8 10 9 7
f 10 12 11 9
f 12 14 13 11
f 14 16 15 13
f 16 18 17 15
f 18 20 19 17
f 20 22 21 19
f 22 24 23 21
f 24 26 25 23
f 26 28 27 25
f 28 30 29 27
f 30 32 31 29
f 32 34 33 31
f 34 36 35 33
f 36 38 37 35
f 38 40 39 37
f 40 42 41 39
f 42 44 43 41
f 44 46 45 43
f 46 48 47 45
f 48 50 49 47
f 50 52 51 49
f 52 54 53 51
f 54 56 55 53
f 56 58 57 55
f 58 60 59 57
f 60 62 61 59
f 62 64 63 61
f 64 66 65 63
f 66 68 67 65
f 68 70 69 67
f 70 72 71 69
f 72 74 73 71
f 74 76 75 73
f 76 78 77 75
f 78 80 79 77
f 80 2 1 79
f 81 82 94 93
f 82 83 95 94
f 83 84 96 95
f 84 85 97 96
f 85 86 98 97
f 86 87 99 98
f 87 88 100 99
f 88 89 101 100
f 89 90 102 101
f 90 91 103 102
f 91 92 104 103
f 92 81 93 104
f 93 94 106 105
f 94 95 107 106
f 95 96 108 107
f 96 97 109 108
f 97 98 110 109
f 98 99 111 110
f 99 100 112 111
f 100 101 113 112
f 101 102 114 113
f 102 103 115 114
f 103 104 116 115
f 104 93 105 116
f 105 106 118 117
f 106 107 119 118
f 107 108 120 119
f 108 109 121 120
f 109 110 122 121
f 110 111 123 122
f 111 112 124 123
f 112 113 125 124
f 113 114 126 125
f 114 115 127 126
f 115 116 128 127
f 116 105 117 128
f 117 118 130 129
f 118 119 131 130
f 119 120 132 131
f 120 121 133 132
f 121 122 134 133
f 122 123 135 134
f 123 124 136 135
f 124 125 137 136
f 125 126 138 137
f 126 127 139 138
f 127 128 140 139
f 128 117 129 140
f 129 130 142 141
f 130 131 143 142
f 131 132 144 143
f 132 133 145 144
f 133 134 146 145
f 134 135 147 146
f 135 136 148 147
f 136 137 149 148
f 137 138 150 149
f 138 139 151 150
f 139 140 152 151
f 140 129 141 152
f 141 142 154 153
f 142 143 155 154
f 143 144 156 155
f 144 145 157 156
f 145 146 158 157
f 146 147 159 158
f 147 148 160 159
f 148 149 161 160
f 149 150 162 161
f 150 151 163 162
f 151 152 164 163
f 152 141 153 164
f 153 154 166 165
f 154 155 167 166
f 155 156 168 167
f 156 157 169 168
f 157 158 170 169
f 158 159 171 170
f 159 160 172 171
f 160 161 173 172
f 161 162 174 173
f 162 163 175 174
f 163 164 176 175
f 164 153 165 176
f 165 166 178 177
f 166 167 179 178
f 167 168 180 179
f 168 169 181 180
f 169 170 182 181
f 170 171 183 182
f 171 172 184 183
f 172 173 185 184
f 173 174 186 185
f 174 175 187 186
f 175 176 188 187
f 176 165 177 188
f 177 178 190 189
f 178 179 191 190
f 179 180 192 191
f 180 181 193 192
f 181 182 194 193
f 182 183 195 194
f 183 184 196 195
f 184 185 197 196
f 185 186 198 197
f 186 187 199 198
f 187 188 200 199
f 188 177 189 200
f 189 190 202 201
f 190 191 203 202
f 191 192 204 203
f 192 193 205 204
f 193 194 206 205
f 194 195 207 206
f 195 196 208 207
f 196 197 209 208
f 197 198 210 209
f 198 199 211 210
f 199 200 212 211
f 200 189 201 212
f 201 202 214 213
f 202 203 215 214
f 203 204 216 215
f 204 205 217 216
f 205 206 218 217
f 206 207 219 218
f 207 208 220 219
f 208 209 221 220
f 209 210 222 221
f 210 211 223 222
f 211 212 224 223
f 212 201 213 224
f 213 214 226 225
f 214 215 227 226
f 215 216 228 227
f 216 217 229 228
f 217 218 230 229
f 218 219 231 230
f 219 220 232 231
f 220 221 233 232
f 221 222 234 233
f 222 223 235 234
f 223 224 236 235
f 224 213 225 236
f 225 226 238 237
f 226 227 239 238
f 227 228 240 239
f 228 229 241 240
f 229 230 242 241
f 230 231 243 242
f 231 232 244 243
f 232 233 245 244
f 233 234 246 245
f 234 235 247 246
f 235 236 248 247
f 236 225 237 248
f 237 238 250 249
f 238 239 251 250
f 239 240 252 251
f 240 241 253 252
f 241 242 254 253
f 242 243 255 254
f 243 244 256 255
f 244 245 257 256
f 245 246 258 257
f 246 247 259 258
f 247 248 260 259
f 248 237 249 260
f 249 250 262 261
f 250 251 263 262
f 251 252 264 263
f 252 253 265 264
f 253 254 266 265
f 254 255 267 266
f 255 256 268 267
f 256 257 269 268
f 257 258 270 269
f 258 259 271 270
f 259 260 272 271
f 260 249 261 272
f 261 262 274 273
f 262 263 275 274
f 263 264 276 275
f 264 265 277 276
f 265 266 278 277
f 266 267 279 278
f 267 268 280 279
f 268 269 281 280
f 269 270 282 281
f 270 271 283 282
f 271 272 284 283
f 272 261 273 284
f 273 274 286 285
f 274 275 287 286
f 275 276 288 287
f 276 277 289 288
f 277 278 290 289
f 278 279 291 290
f 279 280 292 291
f 280 281 293 292
f 281 282 294 293
f 282 283 295 294
f 283 284 296 295
f 284 273 285 296
f 285 286 298 297
f 286 287 299 298
f 287 288 300 299
f 288 289 301 300
f 289 290 302 301
f 290 291 303 302
f 291 292 304 303
f 292 293 305 304
f 293 294 306 305
f 294 295 307 306
f 295 296 308 307
f 296 285 297 308
f 297 298 310 309
f 298 299 311 310
f 299 300 312 311
f 300 301 313 312
f 301 302 314 313
f 302 303 315 314
f 303 304 316 315
f 304 305 317 316
f 305 306 318 317
f 306 307 319 318
f 307 308 320 319
f 308 297 309 320
f 309 310 322 321
f 310 311 323 322
f 311 312 324 323
f 312 313 325 324
f 313 314 326 325
f 314 315 327 326
f 315 316 328 327
f 316 317 329 328
f 317 318 330 329
f 318 319 331 330
f 319 320 332 331
f 320 309 321 332
f 321 322 334 333
f 322 323 335 334
f 323 324 336 335
f 324 325 337 336
f 325 326 338 337
f 326 327 339 338
f 327 328 340 339
f 328 329 341 340
f 329 330 342 341
f 330 331 343 342
f 331 332 344 343
f 332 321 333 344
f 333 334 346 345
f 334 335 347 346
f 335 336 348 347
f 336 337 349 348
f 337 338 350 349
f 338 339 351 350
f 339 340 352 351
f 340 341 353 352
f 341 342 354 353
f 342 343 355 354
f 343 344 356 355
f 344 333 345 356
f 345 346 358 357
f 346 347 359 358
f 347 348 360 359
f 348 349 361 360
f 349 350 362 361
f 350 351 363 362
f 351 352 364 363
f 352 353 365 364
f 353 354 366 365
f 354 355 367 366
f 355 356 368 367
f 356 345 357 368
f 357 358 370 369
f 358 359 371 370
f 359 360 372 371
f 360 361 373 372
f 361 362 374 373
f 362 363 375 374
f 363 364 376 375
f 364 365 377 376
f 365 366 378 377
f 366 367 379 378
f 367 368 380 379
f 368 357 369 380
f 369 370 382 381
f 370 371 383 382
f 371 372 384 383
f 372 373 385 384
f 373 374 386 385
f 374 375 387 386
f 375 376 388 387
f 376 377 389 388
f 377 378 390 389
f 378 379 391 390
f 379 380 392 391
f 380 369 381 392
f 381 382 394 393
f 382 383 395 394
f 383 384 396 395
f 384 385 397 396
f 385 386 398 397
f 386 387 399 398
f 387 388 400 399
f 388 389 401 400
f 389 390 402 401
f 390 391 403 402
f 391 392 404 403
f 392 381 393 404
f 393 394 406 405
f 394 395 407 406
f 395 396 408 407
f 396 397 409 408
f 397 398 410 409
f 398 399 411 410
f 399 400 412 411
f 400 401 413 412
f 401 402 414 413
f 402 403 415 414
f 403 404 416 415
f 404 393 405 416
f 405 406 418 417
f 406 407 419 418
f 407 408 420 419
f 408 409 421 420
f 409 410 422 421
f 410 411 423 422
f 411 412 424 423
f 412 413 425 424
f 413 414 426 425
f 414 415 427 426
f 415 416 428 427
f 416 405 417 428
f 417 418 430 429
f 418 419 431 430
f 419 420 432 431
f 420 421 433 432
f 421 422 434 433
f 422 423 435 434
f 423 424 436 435
f 424 425 437 436
f 425 426 438 437
f 426 427 439 438
f 427 428 440 439
f 428 417 429 440
f 429 430 442 441
f 430 431 443 442
f 431 432 444 443
f 432 433 445 444
f 433 434 446 445
f 434 435 447 446
f 435 436 448 447
f 436 437 449 448
f 437 438 450 449
f 438 439 451 450
f 439 440 452 451
f 440 429 441 452
f 441 442 454 453
f 442 443 455 454
f 443 444 456 455
f 444 445 457 456
f 445 446 458 457
f 446 447 459 458
f 447 448 460 459
f 448 449 461 460
f 449 450 462 461
f 450 451 463 462
f 451 452 464 463
f 452 441 453 464
f 453 454 466 465
f 454 455 467 466
f 455 456 468 467
f 456 457 469 468
f 457 458 470 469
f 458 459 471 470
f 459 460 472 471
f 460 461 473 472
f 461 462 474 473
f 462 463 475 474
f 463 464 476 475
f 464 453 465 476
f 465 466 478 477
f 466 467 479 478
f 467 468 480 479
f 468 469 481 480
f 469 470 482 481
f 470 471 483 482
f 471 472 484 483
f 472 473 485 484
f 473 474 486 485
f 474 475 487 486
f 475 476 488 487
f 476 465 477 488
f 477 478 490 489
f 478 479 491 490
f 479 480 492 491
f 480 481 493 492
f 481 482 494 493
f 482 483 495 494
f 483 484 496 495
f 484 485 497 496
f 485 486 498 497
f 486 487 499 498
f 487 488 500 499
f 488 477 489 500
f 489 490 502 501
f 490 491 503 502
f 491 492 504 503
f 492 493 505 504
f 493 494 506 505
f 494 495 507 506
f 495 496 508 507
f 496 497 509 508
f 497 498 510 509
f 498 499 511 510
f 499 500 512 511
f 500 489 501 512
f 501 502 82 81
f 502 503 83 82
f 503 504 84 83
f 504 505 85 84
f 505 506 86 85
f 506 507 87 86
f 507 508 88 87
f 508 509 89 88
f 509 510 90 89
f 510 511 91 90
f 511 512 92 91
f 512 501 81 92
