# BubbleTankBase_V2
o BubbleTankBase_V2
v 2.900000 0.280000 0.000000
v 2.900000 -0.280000 0.000000
v 2.864296 0.280000 0.453660
v 2.864296 -0.280000 0.453660
v 2.758064 0.280000 0.896149
v 2.758064 -0.280000 0.896149
v 2.583919 0.280000 1.316572
v 2.583919 -0.280000 1.316572
v 2.346149 0.280000 1.704577
v 2.346149 -0.280000 1.704577
v 2.050610 0.280000 2.050610
v 2.050610 -0.280000 2.050610
v 1.704577 0.280000 2.346149
v 1.704577 -0.280000 2.346149
v 1.316572 0.280000 2.583919
v 1.316572 -0.280000 2.583919
v 0.896149 0.280000 2.758064
v 0.896149 -0.280000 2.758064
v 0.453660 0.280000 2.864296
v 0.453660 -0.280000 2.864296
v 0.000000 0.280000 2.900000
v 0.000000 -0.280000 2.900000
v -0.453660 0.280000 2.864296
v -0.453660 -0.280000 2.864296
v -0.896149 0.280000 2.758064
v -0.896149 -0.280000 2.758064
v -1.316572 0.280000 2.583919
v -1.316572 -0.280000 2.583919
v -1.704577 0.280000 2.346149
v -1.704577 -0.280000 2.346149
v -2.050610 0.280000 2.050610
v -2.050610 -0.280000 2.050610
v -2.346149 0.280000 1.704577
v -2.346149 -0.280000 1.704577
v -2.583919 0.280000 1.316572
v -2.583919 -0.280000 1.316572
v -2.758064 0.280000 0.896149
v -2.758064 -0.280000 0.896149
v -2.864296 0.280000 0.453660
v -2.864296 -0.280000 0.453660
v -2.900000 0.280000 0.000000
v -2.900000 -0.280000 0.000000
v -2.864296 0.280000 -0.453660
v -2.864296 -0.280000 -0.453660
v -2.758064 0.280000 -0.896149
v -2.758064 -0.280000 -0.896149
v -2.583919 0.280000 -1.316572
v -2.583919 -0.280000 -1.316572
v -2.346149 0.280000 -1.704577
v -2.346149 -0.280000 -1.704577
v -2.050610 0.280000 -2.050610
v -2.050610 -0.280000 -2.050610
v -1.704577 0.280000 -2.346149
v -1.704577 -0.280000 -2.346149
v -1.316572 0.280000 -2.583919
v -1.316572 -0.280000 -2.583919
v -0.896149 0.280000 -2.758064
v -0.896149 -0.280000 -2.758064
v -0.453660 0.280000 -2.864296
v -0.453660 -0.280000 -2.864296
v -0.000000 0.280000 -2.900000
v -0.000000 -0.280000 -2.900000
v 0.453660 0.280000 -2.864296
v 0.453660 -0.280000 -2.864296
v 0.896149 0.280000 -2.758064
v 0.896149 -0.280000 -2.758064
v 1.316572 0.280000 -2.583919
v 1.316572 -0.280000 -2.583919
v 1.704577 0.280000 -2.346149
v 1.704577 -0.280000 -2.346149
v 2.050610 0.280000 -2.050610
v 2.050610 -0.280000 -2.050610
v 2.346149 0.280000 -1.704577
v 2.346149 -0.280000 -1.704577
v 2.583919 0.280000 -1.316572
v 2.583919 -0.280000 -1.316572
v 2.758064 0.280000 -0.896149
v 2.758064 -0.280000 -0.896149
v 2.864296 0.280000 -0.453660
v 2.864296 -0.280000 -0.453660
v 0.000000 0.280000 0.000000
v 0.000000 -0.280000 0.000000
v 2.350000 0.530000 0.000000
v 2.350000 0.150000 0.000000
v 2.321068 0.530000 0.367621
v 2.321068 0.150000 0.367621
v 2.234983 0.530000 0.726190
v 2.234983 0.150000 0.726190
v 2.093865 0.530000 1.066878
v 2.093865 0.150000 1.066878
v 1.901190 0.530000 1.381295
v 1.901190 0.150000 1.381295
v 1.661701 0.530000 1.661701
v 1.661701 0.150000 1.661701
v 1.381295 0.530000 1.901190
v 1.381295 0.150000 1.901190
v 1.066878 0.530000 2.093865
v 1.066878 0.150000 2.093865
v 0.726190 0.530000 2.234983
v 0.726190 0.150000 2.234983
v 0.367621 0.530000 2.321068
v 0.367621 0.150000 2.321068
v 0.000000 0.530000 2.350000
v 0.000000 0.150000 2.350000
v -0.367621 0.530000 2.321068
v -0.367621 0.150000 2.321068
v -0.726190 0.530000 2.234983
v -0.726190 0.150000 2.234983
v -1.066878 0.530000 2.093865
v -1.066878 0.150000 2.093865
v -1.381295 0.530000 1.901190
v -1.381295 0.150000 1.901190
v -1.661701 0.530000 1.661701
v -1.661701 0.150000 1.661701
v -1.901190 0.530000 1.381295
v -1.901190 0.150000 1.381295
v -2.093865 0.530000 1.066878
v -2.093865 0.150000 1.066878
v -2.234983 0.530000 0.726190
v -2.234983 0.150000 0.726190
v -2.321068 0.530000 0.367621
v -2.321068 0.150000 0.367621
v -2.350000 0.530000 0.000000
v -2.350000 0.150000 0.000000
v -2.321068 0.530000 -0.367621
v -2.321068 0.150000 -0.367621
v -2.234983 0.530000 -0.726190
v -2.234983 0.150000 -0.726190
v -2.093865 0.530000 -1.066878
v -2.093865 0.150000 -1.066878
v -1.901190 0.530000 -1.381295
v -1.901190 0.150000 -1.381295
v -1.661701 0.530000 -1.661701
v -1.661701 0.150000 -1.661701
v -1.381295 0.530000 -1.901190
v -1.381295 0.150000 -1.901190
v -1.066878 0.530000 -2.093865
v -1.066878 0.150000 -2.093865
v -0.726190 0.530000 -2.234983
v -0.726190 0.150000 -2.234983
v -0.367621 0.530000 -2.321068
v -0.367621 0.150000 -2.321068
v -0.000000 0.530000 -2.350000
v -0.000000 0.150000 -2.350000
v 0.367621 0.530000 -2.321068
v 0.367621 0.150000 -2.321068
v 0.726190 0.530000 -2.234983
v 0.726190 0.150000 -2.234983
v 1.066878 0.530000 -2.093865
v 1.066878 0.150000 -2.093865
v 1.381295 0.530000 -1.901190
v 1.381295 0.150000 -1.901190
v 1.661701 0.530000 -1.661701
v 1.661701 0.150000 -1.661701
v 1.901190 0.530000 -1.381295
v 1.901190 0.150000 -1.381295
v 2.093865 0.530000 -1.066878
v 2.093865 0.150000 -1.066878
v 2.234983 0.530000 -0.726190
v 2.234983 0.150000 -0.726190
v 2.321068 0.530000 -0.367621
v 2.321068 0.150000 -0.367621
v 0.000000 0.530000 0.000000
v 0.000000 0.150000 0.000000
v 2.360000 0.560000 0.000000
v 2.342174 0.638099 0.000000
v 2.292228 0.700730 0.000000
v 2.220054 0.735487 0.000000
v 2.139946 0.735487 0.000000
v 2.067772 0.700730 0.000000
v 2.017826 0.638099 0.000000
v 2.000000 0.560000 0.000000
v 2.017826 0.481901 0.000000
v 2.067772 0.419270 0.000000
v 2.139946 0.384513 0.000000
v 2.220054 0.384513 0.000000
v 2.292228 0.419270 0.000000
v 2.342174 0.481901 0.000000
v 2.324146 0.560000 0.409810
v 2.306592 0.638099 0.406714
v 2.257404 0.700730 0.398041
v 2.186326 0.735487 0.385508
v 2.107436 0.735487 0.371598
v 2.036358 0.700730 0.359065
v 1.987170 0.638099 0.350392
v 1.969616 0.560000 0.347296
v 1.987170 0.481901 0.350392
v 2.036358 0.419270 0.359065
v 2.107436 0.384513 0.371598
v 2.186326 0.384513 0.385508
v 2.257404 0.419270 0.398041
v 2.306592 0.481901 0.406714
v 2.217675 0.560000 0.807168
v 2.200924 0.638099 0.801071
v 2.153990 0.700730 0.783988
v 2.086168 0.735487 0.759303
v 2.010892 0.735487 0.731905
v 1.943070 0.700730 0.707220
v 1.896136 0.638099 0.690137
v 1.879385 0.560000 0.684040
v 1.896136 0.481901 0.690137
v 1.943070 0.419270 0.707220
v 2.010892 0.384513 0.731905
v 2.086168 0.384513 0.759303
v 2.153990 0.419270 0.783988
v 2.200924 0.481901 0.801071
v 2.043820 0.560000 1.180000
v 2.028383 0.638099 1.171087
v 1.985128 0.700730 1.146114
v 1.922623 0.735487 1.110027
v 1.853248 0.735487 1.069973
v 1.790743 0.700730 1.033886
v 1.747488 0.638099 1.008913
v 1.732051 0.560000 1.000000
v 1.747488 0.481901 1.008913
v 1.790743 0.419270 1.033886
v 1.853248 0.384513 1.069973
v 1.922623 0.384513 1.110027
v 1.985128 0.419270 1.146114
v 2.028383 0.481901 1.171087
v 1.807865 0.560000 1.516979
v 1.794210 0.638099 1.505521
v 1.755949 0.700730 1.473416
v 1.700660 0.735487 1.427023
v 1.639294 0.735487 1.375531
v 1.584005 0.700730 1.329138
v 1.545744 0.638099 1.297033
v 1.532089 0.560000 1.285575
v 1.545744 0.481901 1.297033
v 1.584005 0.419270 1.329138
v 1.639294 0.384513 1.375531
v 1.700660 0.384513 1.427023
v 1.755949 0.419270 1.473416
v 1.794210 0.481901 1.505521
v 1.516979 0.560000 1.807865
v 1.505521 0.638099 1.794210
v 1.473416 0.700730 1.755949
v 1.427023 0.735487 1.700660
v 1.375531 0.735487 1.639294
v 1.329138 0.700730 1.584005
v 1.297033 0.638099 1.545744
v 1.285575 0.560000 1.532089
v 1.297033 0.481901 1.545744
v 1.329138 0.419270 1.584005
v 1.375531 0.384513 1.639294
v 1.427023 0.384513 1.700660
v 1.473416 0.419270 1.755949
v 1.505521 0.481901 1.794210
v 1.180000 0.560000 2.043820
v 1.171087 0.638099 2.028383
v 1.146114 0.700730 1.985128
v 1.110027 0.735487 1.922623
v 1.069973 0.735487 1.853248
v 1.033886 0.700730 1.790743
v 1.008913 0.638099 1.747488
v 1.000000 0.560000 1.732051
v 1.008913 0.481901 1.747488
v 1.033886 0.419270 1.790743
v 1.069973 0.384513 1.853248
v 1.110027 0.384513 1.922623
v 1.146114 0.419270 1.985128
v 1.171087 0.481901 2.028383
v 0.807168 0.560000 2.217675
v 0.801071 0.638099 2.200924
v 0.783988 0.700730 2.153990
v 0.759303 0.735487 2.086168
v 0.731905 0.735487 2.010892
v 0.707220 0.700730 1.943070
v 0.690137 0.638099 1.896136
v 0.684040 0.560000 1.879385
v 0.690137 0.481901 1.896136
v 0.707220 0.419270 1.943070
v 0.731905 0.384513 2.010892
v 0.759303 0.384513 2.086168
v 0.783988 0.419270 2.153990
v 0.801071 0.481901 2.200924
v 0.409810 0.560000 2.324146
v 0.406714 0.638099 2.306592
v 0.398041 0.700730 2.257404
v 0.385508 0.735487 2.186326
v 0.371598 0.735487 2.107436
v 0.359065 0.700730 2.036358
v 0.350392 0.638099 1.987170
v 0.347296 0.560000 1.969616
v 0.350392 0.481901 1.987170
v 0.359065 0.419270 2.036358
v 0.371598 0.384513 2.107436
v 0.385508 0.384513 2.186326
v 0.398041 0.419270 2.257404
v 0.406714 0.481901 2.306592
v 0.000000 0.560000 2.360000
v 0.000000 0.638099 2.342174
v 0.000000 0.700730 2.292228
v 0.000000 0.735487 2.220054
v 0.000000 0.735487 2.139946
v 0.000000 0.700730 2.067772
v 0.000000 0.638099 2.017826
v 0.000000 0.560000 2.000000
v 0.000000 0.481901 2.017826
v 0.000000 0.419270 2.067772
v 0.000000 0.384513 2.139946
v 0.000000 0.384513 2.220054
v 0.000000 0.419270 2.292228
v 0.000000 0.481901 2.342174
v -0.409810 0.560000 2.324146
v -0.406714 0.638099 2.306592
v -0.398041 0.700730 2.257404
v -0.385508 0.735487 2.186326
v -0.371598 0.735487 2.107436
v -0.359065 0.700730 2.036358
v -0.350392 0.638099 1.987170
v -0.347296 0.560000 1.969616
v -0.350392 0.481901 1.987170
v -0.359065 0.419270 2.036358
v -0.371598 0.384513 2.107436
v -0.385508 0.384513 2.186326
v -0.398041 0.419270 2.257404
v -0.406714 0.481901 2.306592
v -0.807168 0.560000 2.217675
v -0.801071 0.638099 2.200924
v -0.783988 0.700730 2.153990
v -0.759303 0.735487 2.086168
v -0.731905 0.735487 2.010892
v -0.707220 0.700730 1.943070
v -0.690137 0.638099 1.896136
v -0.684040 0.560000 1.879385
v -0.690137 0.481901 1.896136
v -0.707220 0.419270 1.943070
v -0.731905 0.384513 2.010892
v -0.759303 0.384513 2.086168
v -0.783988 0.419270 2.153990
v -0.801071 0.481901 2.200924
v -1.180000 0.560000 2.043820
v -1.171087 0.638099 2.028383
v -1.146114 0.700730 1.985128
v -1.110027 0.735487 1.922623
v -1.069973 0.735487 1.853248
v -1.033886 0.700730 1.790743
v -1.008913 0.638099 1.747488
v -1.000000 0.560000 1.732051
v -1.008913 0.481901 1.747488
v -1.033886 0.419270 1.790743
v -1.069973 0.384513 1.853248
v -1.110027 0.384513 1.922623
v -1.146114 0.419270 1.985128
v -1.171087 0.481901 2.028383
v -1.516979 0.560000 1.807865
v -1.505521 0.638099 1.794210
v -1.473416 0.700730 1.755949
v -1.427023 0.735487 1.700660
v -1.375531 0.735487 1.639294
v -1.329138 0.700730 1.584005
v -1.297033 0.638099 1.545744
v -1.285575 0.560000 1.532089
v -1.297033 0.481901 1.545744
v -1.329138 0.419270 1.584005
v -1.375531 0.384513 1.639294
v -1.427023 0.384513 1.700660
v -1.473416 0.419270 1.755949
v -1.505521 0.481901 1.794210
v -1.807865 0.560000 1.516979
v -1.794210 0.638099 1.505521
v -1.755949 0.700730 1.473416
v -1.700660 0.735487 1.427023
v -1.639294 0.735487 1.375531
v -1.584005 0.700730 1.329138
v -1.545744 0.638099 1.297033
v -1.532089 0.560000 1.285575
v -1.545744 0.481901 1.297033
v -1.584005 0.419270 1.329138
v -1.639294 0.384513 1.375531
v -1.700660 0.384513 1.427023
v -1.755949 0.419270 1.473416
v -1.794210 0.481901 1.505521
v -2.043820 0.560000 1.180000
v -2.028383 0.638099 1.171087
v -1.985128 0.700730 1.146114
v -1.922623 0.735487 1.110027
v -1.853248 0.735487 1.069973
v -1.790743 0.700730 1.033886
v -1.747488 0.638099 1.008913
v -1.732051 0.560000 1.000000
v -1.747488 0.481901 1.008913
v -1.790743 0.419270 1.033886
v -1.853248 0.384513 1.069973
v -1.922623 0.384513 1.110027
v -1.985128 0.419270 1.146114
v -2.028383 0.481901 1.171087
v -2.217675 0.560000 0.807168
v -2.200924 0.638099 0.801071
v -2.153990 0.700730 0.783988
v -2.086168 0.735487 0.759303
v -2.010892 0.735487 0.731905
v -1.943070 0.700730 0.707220
v -1.896136 0.638099 0.690137
v -1.879385 0.560000 0.684040
v -1.896136 0.481901 0.690137
v -1.943070 0.419270 0.707220
v -2.010892 0.384513 0.731905
v -2.086168 0.384513 0.759303
v -2.153990 0.419270 0.783988
v -2.200924 0.481901 0.801071
v -2.324146 0.560000 0.409810
v -2.306592 0.638099 0.406714
v -2.257404 0.700730 0.398041
v -2.186326 0.735487 0.385508
v -2.107436 0.735487 0.371598
v -2.036358 0.700730 0.359065
v -1.987170 0.638099 0.350392
v -1.969616 0.560000 0.347296
v -1.987170 0.481901 0.350392
v -2.036358 0.419270 0.359065
v -2.107436 0.384513 0.371598
v -2.186326 0.384513 0.385508
v -2.257404 0.419270 0.398041
v -2.306592 0.481901 0.406714
v -2.360000 0.560000 0.000000
v -2.342174 0.638099 0.000000
v -2.292228 0.700730 0.000000
v -2.220054 0.735487 0.000000
v -2.139946 0.735487 0.000000
v -2.067772 0.700730 0.000000
v -2.017826 0.638099 0.000000
v -2.000000 0.560000 0.000000
v -2.017826 0.481901 0.000000
v -2.067772 0.419270 0.000000
v -2.139946 0.384513 0.000000
v -2.220054 0.384513 0.000000
v -2.292228 0.419270 0.000000
v -2.342174 0.481901 0.000000
v -2.324146 0.560000 -0.409810
v -2.306592 0.638099 -0.406714
v -2.257404 0.700730 -0.398041
v -2.186326 0.735487 -0.385508
v -2.107436 0.735487 -0.371598
v -2.036358 0.700730 -0.359065
v -1.987170 0.638099 -0.350392
v -1.969616 0.560000 -0.347296
v -1.987170 0.481901 -0.350392
v -2.036358 0.419270 -0.359065
v -2.107436 0.384513 -0.371598
v -2.186326 0.384513 -0.385508
v -2.257404 0.419270 -0.398041
v -2.306592 0.481901 -0.406714
v -2.217675 0.560000 -0.807168
v -2.200924 0.638099 -0.801071
v -2.153990 0.700730 -0.783988
v -2.086168 0.735487 -0.759303
v -2.010892 0.735487 -0.731905
v -1.943070 0.700730 -0.707220
v -1.896136 0.638099 -0.690137
v -1.879385 0.560000 -0.684040
v -1.896136 0.481901 -0.690137
v -1.943070 0.419270 -0.707220
v -2.010892 0.384513 -0.731905
v -2.086168 0.384513 -0.759303
v -2.153990 0.419270 -0.783988
v -2.200924 0.481901 -0.801071
v -2.043820 0.560000 -1.180000
v -2.028383 0.638099 -1.171087
v -1.985128 0.700730 -1.146114
v -1.922623 0.735487 -1.110027
v -1.853248 0.735487 -1.069973
v -1.790743 0.700730 -1.033886
v -1.747488 0.638099 -1.008913
v -1.732051 0.560000 -1.000000
v -1.747488 0.481901 -1.008913
v -1.790743 0.419270 -1.033886
v -1.853248 0.384513 -1.069973
v -1.922623 0.384513 -1.110027
v -1.985128 0.419270 -1.146114
v -2.028383 0.481901 -1.171087
v -1.807865 0.560000 -1.516979
v -1.794210 0.638099 -1.505521
v -1.755949 0.700730 -1.473416
v -1.700660 0.735487 -1.427023
v -1.639294 0.735487 -1.375531
v -1.584005 0.700730 -1.329138
v -1.545744 0.638099 -1.297033
v -1.532089 0.560000 -1.285575
v -1.545744 0.481901 -1.297033
v -1.584005 0.419270 -1.329138
v -1.639294 0.384513 -1.375531
v -1.700660 0.384513 -1.427023
v -1.755949 0.419270 -1.473416
v -1.794210 0.481901 -1.505521
v -1.516979 0.560000 -1.807865
v -1.505521 0.638099 -1.794210
v -1.473416 0.700730 -1.755949
v -1.427023 0.735487 -1.700660
v -1.375531 0.735487 -1.639294
v -1.329138 0.700730 -1.584005
v -1.297033 0.638099 -1.545744
v -1.285575 0.560000 -1.532089
v -1.297033 0.481901 -1.545744
v -1.329138 0.419270 -1.584005
v -1.375531 0.384513 -1.639294
v -1.427023 0.384513 -1.700660
v -1.473416 0.419270 -1.755949
v -1.505521 0.481901 -1.794210
v -1.180000 0.560000 -2.043820
v -1.171087 0.638099 -2.028383
v -1.146114 0.700730 -1.985128
v -1.110027 0.735487 -1.922623
v -1.069973 0.735487 -1.853248
v -1.033886 0.700730 -1.790743
v -1.008913 0.638099 -1.747488
v -1.000000 0.560000 -1.732051
v -1.008913 0.481901 -1.747488
v -1.033886 0.419270 -1.790743
v -1.069973 0.384513 -1.853248
v -1.110027 0.384513 -1.922623
v -1.146114 0.419270 -1.985128
v -1.171087 0.481901 -2.028383
v -0.807168 0.560000 -2.217675
v -0.801071 0.638099 -2.200924
v -0.783988 0.700730 -2.153990
v -0.759303 0.735487 -2.086168
v -0.731905 0.735487 -2.010892
v -0.707220 0.700730 -1.943070
v -0.690137 0.638099 -1.896136
v -0.684040 0.560000 -1.879385
v -0.690137 0.481901 -1.896136
v -0.707220 0.419270 -1.943070
v -0.731905 0.384513 -2.010892
v -0.759303 0.384513 -2.086168
v -0.783988 0.419270 -2.153990
v -0.801071 0.481901 -2.200924
v -0.409810 0.560000 -2.324146
v -0.406714 0.638099 -2.306592
v -0.398041 0.700730 -2.257404
v -0.385508 0.735487 -2.186326
v -0.371598 0.735487 -2.107436
v -0.359065 0.700730 -2.036358
v -0.350392 0.638099 -1.987170
v -0.347296 0.560000 -1.969616
v -0.350392 0.481901 -1.987170
v -0.359065 0.419270 -2.036358
v -0.371598 0.384513 -2.107436
v -0.385508 0.384513 -2.186326
v -0.398041 0.419270 -2.257404
v -0.406714 0.481901 -2.306592
v -0.000000 0.560000 -2.360000
v -0.000000 0.638099 -2.342174
v -0.000000 0.700730 -2.292228
v -0.000000 0.735487 -2.220054
v -0.000000 0.735487 -2.139946
v -0.000000 0.700730 -2.067772
v -0.000000 0.638099 -2.017826
v -0.000000 0.560000 -2.000000
v -0.000000 0.481901 -2.017826
v -0.000000 0.419270 -2.067772
v -0.000000 0.384513 -2.139946
v -0.000000 0.384513 -2.220054
v -0.000000 0.419270 -2.292228
v -0.000000 0.481901 -2.342174
v 0.409810 0.560000 -2.324146
v 0.406714 0.638099 -2.306592
v 0.398041 0.700730 -2.257404
v 0.385508 0.735487 -2.186326
v 0.371598 0.735487 -2.107436
v 0.359065 0.700730 -2.036358
v 0.350392 0.638099 -1.987170
v 0.347296 0.560000 -1.969616
v 0.350392 0.481901 -1.987170
v 0.359065 0.419270 -2.036358
v 0.371598 0.384513 -2.107436
v 0.385508 0.384513 -2.186326
v 0.398041 0.419270 -2.257404
v 0.406714 0.481901 -2.306592
v 0.807168 0.560000 -2.217675
v 0.801071 0.638099 -2.200924
v 0.783988 0.700730 -2.153990
v 0.759303 0.735487 -2.086168
v 0.731905 0.735487 -2.010892
v 0.707220 0.700730 -1.943070
v 0.690137 0.638099 -1.896136
v 0.684040 0.560000 -1.879385
v 0.690137 0.481901 -1.896136
v 0.707220 0.419270 -1.943070
v 0.731905 0.384513 -2.010892
v 0.759303 0.384513 -2.086168
v 0.783988 0.419270 -2.153990
v 0.801071 0.481901 -2.200924
v 1.180000 0.560000 -2.043820
v 1.171087 0.638099 -2.028383
v 1.146114 0.700730 -1.985128
v 1.110027 0.735487 -1.922623
v 1.069973 0.735487 -1.853248
v 1.033886 0.700730 -1.790743
v 1.008913 0.638099 -1.747488
v 1.000000 0.560000 -1.732051
v 1.008913 0.481901 -1.747488
v 1.033886 0.419270 -1.790743
v 1.069973 0.384513 -1.853248
v 1.110027 0.384513 -1.922623
v 1.146114 0.419270 -1.985128
v 1.171087 0.481901 -2.028383
v 1.516979 0.560000 -1.807865
v 1.505521 0.638099 -1.794210
v 1.473416 0.700730 -1.755949
v 1.427023 0.735487 -1.700660
v 1.375531 0.735487 -1.639294
v 1.329138 0.700730 -1.584005
v 1.297033 0.638099 -1.545744
v 1.285575 0.560000 -1.532089
v 1.297033 0.481901 -1.545744
v 1.329138 0.419270 -1.584005
v 1.375531 0.384513 -1.639294
v 1.427023 0.384513 -1.700660
v 1.473416 0.419270 -1.755949
v 1.505521 0.481901 -1.794210
v 1.807865 0.560000 -1.516979
v 1.794210 0.638099 -1.505521
v 1.755949 0.700730 -1.473416
v 1.700660 0.735487 -1.427023
v 1.639294 0.735487 -1.375531
v 1.584005 0.700730 -1.329138
v 1.545744 0.638099 -1.297033
v 1.532089 0.560000 -1.285575
v 1.545744 0.481901 -1.297033
v 1.584005 0.419270 -1.329138
v 1.639294 0.384513 -1.375531
v 1.700660 0.384513 -1.427023
v 1.755949 0.419270 -1.473416
v 1.794210 0.481901 -1.505521
v 2.043820 0.560000 -1.180000
v 2.028383 0.638099 -1.171087
v 1.985128 0.700730 -1.146114
v 1.922623 0.735487 -1.110027
v 1.853248 0.735487 -1.069973
v 1.790743 0.700730 -1.033886
v 1.747488 0.638099 -1.008913
v 1.732051 0.560000 -1.000000
v 1.747488 0.481901 -1.008913
v 1.790743 0.419270 -1.033886
v 1.853248 0.384513 -1.069973
v 1.922623 0.384513 -1.110027
v 1.985128 0.419270 -1.146114
v 2.028383 0.481901 -1.171087
v 2.217675 0.560000 -0.807168
v 2.200924 0.638099 -0.801071
v 2.153990 0.700730 -0.783988
v 2.086168 0.735487 -0.759303
v 2.010892 0.735487 -0.731905
v 1.943070 0.700730 -0.707220
v 1.896136 0.638099 -0.690137
v 1.879385 0.560000 -0.684040
v 1.896136 0.481901 -0.690137
v 1.943070 0.419270 -0.707220
v 2.010892 0.384513 -0.731905
v 2.086168 0.384513 -0.759303
v 2.153990 0.419270 -0.783988
v 2.200924 0.481901 -0.801071
v 2.324146 0.560000 -0.409810
v 2.306592 0.638099 -0.406714
v 2.257404 0.700730 -0.398041
v 2.186326 0.735487 -0.385508
v 2.107436 0.735487 -0.371598
v 2.036358 0.700730 -0.359065
v 1.987170 0.638099 -0.350392
v 1.969616 0.560000 -0.347296
v 1.987170 0.481901 -0.350392
v 2.036358 0.419270 -0.359065
v 2.107436 0.384513 -0.371598
v 2.186326 0.384513 -0.385508
v 2.257404 0.419270 -0.398041
v 2.306592 0.481901 -0.406714
v 2.550000 0.295000 0.000000
v 2.200000 -0.055000 0.000000
v 2.518605 0.295000 0.398908
v 2.172914 -0.055000 0.344156
v 2.425194 0.295000 0.787993
v 2.092324 -0.055000 0.679837
v 2.272067 0.295000 1.157676
v 1.960214 -0.055000 0.998779
v 2.062993 0.295000 1.498852
v 1.779837 -0.055000 1.293128
v 1.803122 0.295000 1.803122
v 1.555635 -0.055000 1.555635
v 1.498852 0.295000 2.062993
v 1.293128 -0.055000 1.779837
v 1.157676 0.295000 2.272067
v 0.998779 -0.055000 1.960214
v 0.787993 0.295000 2.425194
v 0.679837 -0.055000 2.092324
v 0.398908 0.295000 2.518605
v 0.344156 -0.055000 2.172914
v 0.000000 0.295000 2.550000
v 0.000000 -0.055000 2.200000
v -0.398908 0.295000 2.518605
v -0.344156 -0.055000 2.172914
v -0.787993 0.295000 2.425194
v -0.679837 -0.055000 2.092324
v -1.157676 0.295000 2.272067
v -0.998779 -0.055000 1.960214
v -1.498852 0.295000 2.062993
v -1.293128 -0.055000 1.779837
v -1.803122 0.295000 1.803122
v -1.555635 -0.055000 1.555635
v -2.062993 0.295000 1.498852
v -1.779837 -0.055000 1.293128
v -2.272067 0.295000 1.157676
v -1.960214 -0.055000 0.998779
v -2.425194 0.295000 0.787993
v -2.092324 -0.055000 0.679837
v -2.518605 0.295000 0.398908
v -2.172914 -0.055000 0.344156
v -2.550000 0.295000 0.000000
v -2.200000 -0.055000 0.000000
v -2.518605 0.295000 -0.398908
v -2.172914 -0.055000 -0.344156
v -2.425194 0.295000 -0.787993
v -2.092324 -0.055000 -0.679837
v -2.272067 0.295000 -1.157676
v -1.960214 -0.055000 -0.998779
v -2.062993 0.295000 -1.498852
v -1.779837 -0.055000 -1.293128
v -1.803122 0.295000 -1.803122
v -1.555635 -0.055000 -1.555635
v -1.498852 0.295000 -2.062993
v -1.293128 -0.055000 -1.779837
v -1.157676 0.295000 -2.272067
v -0.998779 -0.055000 -1.960214
v -0.787993 0.295000 -2.425194
v -0.679837 -0.055000 -2.092324
v -0.398908 0.295000 -2.518605
v -0.344156 -0.055000 -2.172914
v -0.000000 0.295000 -2.550000
v -0.000000 -0.055000 -2.200000
v 0.398908 0.295000 -2.518605
v 0.344156 -0.055000 -2.172914
v 0.787993 0.295000 -2.425194
v 0.679837 -0.055000 -2.092324
v 1.157676 0.295000 -2.272067
v 0.998779 -0.055000 -1.960214
v 1.498852 0.295000 -2.062993
v 1.293128 -0.055000 -1.779837
v 1.803122 0.295000 -1.803122
v 1.555635 -0.055000 -1.555635
v 2.062993 0.295000 -1.498852
v 1.779837 -0.055000 -1.293128
v 2.272067 0.295000 -1.157676
v 1.960214 -0.055000 -0.998779
v 2.425194 0.295000 -0.787993
v 2.092324 -0.055000 -0.679837
v 2.518605 0.295000 -0.398908
v 2.172914 -0.055000 -0.344156
f 2 4 3 1
f 81 1 3
f 82 4 2
f 4 6 5 3
f 81 3 5
f 82 6 4
f 6 8 7 5
f 81 5 7
f 82 8 6
f 8 10 9 7
f 81 7 9
f 82 10 8
f 10 12 11 9
f 81 9 11
f 82 12 10
f 12 14 13 11
f 81 11 13
f 82 14 12
f 14 16 15 13
f 81 13 15
f 82 16 14
f 16 18 17 15
f 81 15 17
f 82 18 16
f 18 20 19 17
f 81 17 19
f 82 20 18
f 20 22 21 19
f 81 19 21
f 82 22 20
f 22 24 23 21
f 81 21 23
f 82 24 22
f 24 26 25 23
f 81 23 25
f 82 26 24
f 26 28 27 25
f 81 25 27
f 82 28 26
f 28 30 29 27
f 81 27 29
f 82 30 28
f 30 32 31 29
f 81 29 31
f 82 32 30
f 32 34 33 31
f 81 31 33
f 82 34 32
f 34 36 35 33
f 81 33 35
f 82 36 34
f 36 38 37 35
f 81 35 37
f 82 38 36
f 38 40 39 37
f 81 37 39
f 82 40 38
f 40 42 41 39
f 81 39 41
f 82 42 40
f 42 44 43 41
f 81 41 43
f 82 44 42
f 44 46 45 43
f 81 43 45
f 82 46 44
f 46 48 47 45
f 81 45 47
f 82 48 46
f 48 50 49 47
f 81 47 49
f 82 50 48
f 50 52 51 49
f 81 49 51
f 82 52 50
f 52 54 53 51
f 81 51 53
f 82 54 52
f 54 56 55 53
f 81 53 55
f 82 56 54
f 56 58 57 55
f 81 55 57
f 82 58 56
f 58 60 59 57
f 81 57 59
f 82 60 58
f 60 62 61 59
f 81 59 61
f 82 62 60
f 62 64 63 61
f 81 61 63
f 82 64 62
f 64 66 65 63
f 81 63 65
f 82 66 64
f 66 68 67 65
f 81 65 67
f 82 68 66
f 68 70 69 67
f 81 67 69
f 82 70 68
f 70 72 71 69
f 81 69 71
f 82 72 70
f 72 74 73 71
f 81 71 73
f 82 74 72
f 74 76 75 73
f 81 73 75
f 82 76 74
f 76 78 77 75
f 81 75 77
f 82 78 76
f 78 80 79 77
f 81 77 79
f 82 80 78
f 80 2 1 79
f 81 79 1
f 82 2 80
f 84 86 85 83
f 163 83 85
f 164 86 84
f 86 88 87 85
f 163 85 87
f 164 88 86
f 88 90 89 87
f 163 87 89
f 164 90 88
f 90 92 91 89
f 163 89 91
f 164 92 90
f 92 94 93 91
f 163 91 93
f 164 94 92
f 94 96 95 93
f 163 93 95
f 164 96 94
f 96 98 97 95
f 163 95 97
f 164 98 96
f 98 100 99 97
f 163 97 99
f 164 100 98
f 100 102 101 99
f 163 99 101
f 164 102 100
f 102 104 103 101
f 163 101 103
f 164 104 102
f 104 106 105 103
f 163 103 105
f 164 106 104
f 106 108 107 105
f 163 105 107
f 164 108 106
f 108 110 109 107
f 163 107 109
f 164 110 108
f 110 112 111 109
f 163 109 111
f 164 112 110
f 112 114 113 111
f 163 111 113
f 164 114 112
f 114 116 115 113
f 163 113 115
f 164 116 114
f 116 118 117 115
f 163 115 117
f 164 118 116
f 118 120 119 117
f 163 117 119
f 164 120 118
f 120 122 121 119
f 163 119 121
f 164 122 120
f 122 124 123 121
f 163 121 123
f 164 124 122
f 124 126 125 123
f 163 123 125
f 164 126 124
f 126 128 127 125
f 163 125 127
f 164 128 126
f 128 130 129 127
f 163 127 129
f 164 130 128
f 130 132 131 129
f 163 129 131
f 164 132 130
f 132 134 133 131
f 163 131 133
f 164 134 132
f 134 136 135 133
f 163 133 135
f 164 136 134
f 136 138 137 135
f 163 135 137
f 164 138 136
f 138 140 139 137
f 163 137 139
f 164 140 138
f 140 142 141 139
f 163 139 141
f 164 142 140
f 142 144 143 141
f 163 141 143
f 164 144 142
f 144 146 145 143
f 163 143 145
f 164 146 144
f 146 148 147 145
f 163 145 147
f 164 148 146
f 148 150 149 147
f 163 147 149
f 164 150 148
f 150 152 151 149
f 163 149 151
f 164 152 150
f 152 154 153 151
f 163 151 153
f 164 154 152
f 154 156 155 153
f 163 153 155
f 164 156 154
f 156 158 157 155
f 163 155 157
f 164 158 156
f 158 160 159 157
f 163 157 159
f 164 160 158
f 160 162 161 159
f 163 159 161
f 164 162 160
f 162 84 83 161
f 163 161 83
f 164 84 162
f 165 166 180 179
f 166 167 181 180
f 167 168 182 181
f 168 169 183 182
f 169 170 184 183
f 170 171 185 184
f 171 172 186 185
f 172 173 187 186
f 173 174 188 187
f 174 175 189 188
f 175 176 190 189
f 176 177 191 190
f 177 178 192 191
f 178 165 179 192
f 179 180 194 193
f 180 181 195 194
f 181 182 196 195
f 182 183 197 196
f 183 184 198 197
f 184 185 199 198
f 185 186 200 199
f 186 187 201 200
f 187 188 202 201
f 188 189 203 202
f 189 190 204 203
f 190 191 205 204
f 191 192 206 205
f 192 179 193 206
f 193 194 208 207
f 194 195 209 208
f 195 196 210 209
f 196 197 211 210
f 197 198 212 211
f 198 199 213 212
f 199 200 214 213
f 200 201 215 214
f 201 202 216 215
f 202 203 217 216
f 203 204 218 217
f 204 205 219 218
f 205 206 220 219
f 206 193 207 220
f 207 208 222 221
f 208 209 223 222
f 209 210 224 223
f 210 211 225 224
f 211 212 226 225
f 212 213 227 226
f 213 214 228 227
f 214 215 229 228
f 215 216 230 229
f 216 217 231 230
f 217 218 232 231
f 218 219 233 232
f 219 220 234 233
f 220 207 221 234
f 221 222 236 235
f 222 223 237 236
f 223 224 238 237
f 224 225 239 238
f 225 226 240 239
f 226 227 241 240
f 227 228 242 241
f 228 229 243 242
f 229 230 244 243
f 230 231 245 244
f 231 232 246 245
f 232 233 247 246
f 233 234 248 247
f 234 221 235 248
f 235 236 250 249
f 236 237 251 250
f 237 238 252 251
f 238 239 253 252
f 239 240 254 253
f 240 241 255 254
f 241 242 256 255
f 242 243 257 256
f 243 244 258 257
f 244 245 259 258
f 245 246 260 259
f 246 247 261 260
f 247 248 262 261
f 248 235 249 262
f 249 250 264 263
f 250 251 265 264
f 251 252 266 265
f 252 253 267 266
f 253 254 268 267
f 254 255 269 268
f 255 256 270 269
f 256 257 271 270
f 257 258 272 271
f 258 259 273 272
f 259 260 274 273
f 260 261 275 274
f 261 262 276 275
f 262 249 263 276
f 263 264 278 277
f 264 265 279 278
f 265 266 280 279
f 266 267 281 280
f 267 268 282 281
f 268 269 283 282
f 269 270 284 283
f 270 271 285 284
f 271 272 286 285
f 272 273 287 286
f 273 274 288 287
f 274 275 289 288
f 275 276 290 289
f 276 263 277 290
f 277 278 292 291
f 278 279 293 292
f 279 280 294 293
f 280 281 295 294
f 281 282 296 295
f 282 283 297 296
f 283 284 298 297
f 284 285 299 298
f 285 286 300 299
f 286 287 301 300
f 287 288 302 301
f 288 289 303 302
f 289 290 304 303
f 290 277 291 304
f 291 292 306 305
f 292 293 307 306
f 293 294 308 307
f 294 295 309 308
f 295 296 310 309
f 296 297 311 310
f 297 298 312 311
f 298 299 313 312
f 299 300 314 313
f 300 301 315 314
f 301 302 316 315
f 302 303 317 316
f 303 304 318 317
f 304 291 305 318
f 305 306 320 319
f 306 307 321 320
f 307 308 322 321
f 308 309 323 322
f 309 310 324 323
f 310 311 325 324
f 311 312 326 325
f 312 313 327 326
f 313 314 328 327
f 314 315 329 328
f 315 316 330 329
f 316 317 331 330
f 317 318 332 331
f 318 305 319 332
f 319 320 334 333
f 320 321 335 334
f 321 322 336 335
f 322 323 337 336
f 323 324 338 337
f 324 325 339 338
f 325 326 340 339
f 326 327 341 340
f 327 328 342 341
f 328 329 343 342
f 329 330 344 343
f 330 331 345 344
f 331 332 346 345
f 332 319 333 346
f 333 334 348 347
f 334 335 349 348
f 335 336 350 349
f 336 337 351 350
f 337 338 352 351
f 338 339 353 352
f 339 340 354 353
f 340 341 355 354
f 341 342 356 355
f 342 343 357 356
f 343 344 358 357
f 344 345 359 358
f 345 346 360 359
f 346 333 347 360
f 347 348 362 361
f 348 349 363 362
f 349 350 364 363
f 350 351 365 364
f 351 352 366 365
f 352 353 367 366
f 353 354 368 367
f 354 355 369 368
f 355 356 370 369
f 356 357 371 370
f 357 358 372 371
f 358 359 373 372
f 359 360 374 373
f 360 347 361 374
f 361 362 376 375
f 362 363 377 376
f 363 364 378 377
f 364 365 379 378
f 365 366 380 379
f 366 367 381 380
f 367 368 382 381
f 368 369 383 382
f 369 370 384 383
f 370 371 385 384
f 371 372 386 385
f 372 373 387 386
f 373 374 388 387
f 374 361 375 388
f 375 376 390 389
f 376 377 391 390
f 377 378 392 391
f 378 379 393 392
f 379 380 394 393
f 380 381 395 394
f 381 382 396 395
f 382 383 397 396
f 383 384 398 397
f 384 385 399 398
f 385 386 400 399
f 386 387 401 400
f 387 388 402 401
f 388 375 389 402
f 389 390 404 403
f 390 391 405 404
f 391 392 406 405
f 392 393 407 406
f 393 394 408 407
f 394 395 409 408
f 395 396 410 409
f 396 397 411 410
f 397 398 412 411
f 398 399 413 412
f 399 400 414 413
f 400 401 415 414
f 401 402 416 415
f 402 389 403 416
f 403 404 418 417
f 404 405 419 418
f 405 406 420 419
f 406 407 421 420
f 407 408 422 421
f 408 409 423 422
f 409 410 424 423
f 410 411 425 424
f 411 412 426 425
f 412 413 427 426
f 413 414 428 427
f 414 415 429 428
f 415 416 430 429
f 416 403 417 430
f 417 418 432 431
f 418 419 433 432
f 419 420 434 433
f 420 421 435 434
f 421 422 436 435
f 422 423 437 436
f 423 424 438 437
f 424 425 439 438
f 425 426 440 439
f 426 427 441 440
f 427 428 442 441
f 428 429 443 442
f 429 430 444 443
f 430 417 431 444
f 431 432 446 445
f 432 433 447 446
f 433 434 448 447
f 434 435 449 448
f 435 436 450 449
f 436 437 451 450
f 437 438 452 451
f 438 439 453 452
f 439 440 454 453
f 440 441 455 454
f 441 442 456 455
f 442 443 457 456
f 443 444 458 457
f 444 431 445 458
f 445 446 460 459
f 446 447 461 460
f 447 448 462 461
f 448 449 463 462
f 449 450 464 463
f 450 451 465 464
f 451 452 466 465
f 452 453 467 466
f 453 454 468 467
f 454 455 469 468
f 455 456 470 469
f 456 457 471 470
f 457 458 472 471
f 458 445 459 472
f 459 460 474 473
f 460 461 475 474
f 461 462 476 475
f 462 463 477 476
f 463 464 478 477
f 464 465 479 478
f 465 466 480 479
f 466 467 481 480
f 467 468 482 481
f 468 469 483 482
f 469 470 484 483
f 470 471 485 484
f 471 472 486 485
f 472 459 473 486
f 473 474 488 487
f 474 475 489 488
f 475 476 490 489
f 476 477 491 490
f 477 478 492 491
f 478 479 493 492
f 479 480 494 493
f 480 481 495 494
f 481 482 496 495
f 482 483 497 496
f 483 484 498 497
f 484 485 499 498
f 485 486 500 499
f 486 473 487 500
f 487 488 502 501
f 488 489 503 502
f 489 490 504 503
f 490 491 505 504
f 491 492 506 505
f 492 493 507 506
f 493 494 508 507
f 494 495 509 508
f 495 496 510 509
f 496 497 511 510
f 497 498 512 511
f 498 499 513 512
f 499 500 514 513
f 500 487 501 514
f 501 502 516 515
f 502 503 517 516
f 503 504 518 517
f 504 505 519 518
f 505 506 520 519
f 506 507 521 520
f 507 508 522 521
f 508 509 523 522
f 509 510 524 523
f 510 511 525 524
f 511 512 526 525
f 512 513 527 526
f 513 514 528 527
f 514 501 515 528
f 515 516 530 529
f 516 517 531 530
f 517 518 532 531
f 518 519 533 532
f 519 520 534 533
f 520 521 535 534
f 521 522 536 535
f 522 523 537 536
f 523 524 538 537
f 524 525 539 538
f 525 526 540 539
f 526 527 541 540
f 527 528 542 541
f 528 515 529 542
f 529 530 544 543
f 530 531 545 544
f 531 532 546 545
f 532 533 547 546
f 533 534 548 547
f 534 535 549 548
f 535 536 550 549
f 536 537 551 550
f 537 538 552 551
f 538 539 553 552
f 539 540 554 553
f 540 541 555 554
f 541 542 556 555
f 542 529 543 556
f 543 544 558 557
f 544 545 559 558
f 545 546 560 559
f 546 547 561 560
f 547 548 562 561
f 548 549 563 562
f 549 550 564 563
f 550 551 565 564
f 551 552 566 565
f 552 553 567 566
f 553 554 568 567
f 554 555 569 568
f 555 556 570 569
f 556 543 557 570
f 557 558 572 571
f 558 559 573 572
f 559 560 574 573
f 560 561 575 574
f 561 562 576 575
f 562 563 577 576
f 563 564 578 577
f 564 565 579 578
f 565 566 580 579
f 566 567 581 580
f 567 568 582 581
f 568 569 583 582
f 569 570 584 583
f 570 557 571 584
f 571 572 586 585
f 572 573 587 586
f 573 574 588 587
f 574 575 589 588
f 575 576 590 589
f 576 577 591 590
f 577 578 592 591
f 578 579 593 592
f 579 580 594 593
f 580 581 595 594
f 581 582 596 595
f 582 583 597 596
f 583 584 598 597
f 584 571 585 598
f 585 586 600 599
f 586 587 601 600
f 587 588 602 601
f 588 589 603 602
f 589 590 604 603
f 590 591 605 604
f 591 592 606 605
f 592 593 607 606
f 593 594 608 607
f 594 595 609 608
f 595 596 610 609
f 596 597 611 610
f 597 598 612 611
f 598 585 599 612
f 599 600 614 613
f 600 601 615 614
f 601 602 616 615
f 602 603 617 616
f 603 604 618 617
f 604 605 619 618
f 605 606 620 619
f 606 607 621 620
f 607 608 622 621
f 608 609 623 622
f 609 610 624 623
f 610 611 625 624
f 611 612 626 625
f 612 599 613 626
f 613 614 628 627
f 614 615 629 628
f 615 616 630 629
f 616 617 631 630
f 617 618 632 631
f 618 619 633 632
f 619 620 634 633
f 620 621 635 634
f 621 622 636 635
f 622 623 637 636
f 623 624 638 637
f 624 625 639 638
f 625 626 640 639
f 626 613 627 640
f 627 628 642 641
f 628 629 643 642
f 629 630 644 643
f 630 631 645 644
f 631 632 646 645
f 632 633 647 646
f 633 634 648 647
f 634 635 649 648
f 635 636 650 649
f 636 637 651 650
f 637 638 652 651
f 638 639 653 652
f 639 640 654 653
f 640 627 641 654
f 641 642 656 655
f 642 643 657 656
f 643 644 658 657
f 644 645 659 658
f 645 646 660 659
f 646 647 661 660
f 647 648 662 661
f 648 649 663 662
f 649 650 664 663
f 650 651 665 664
f 651 652 666 665
f 652 653 667 666
f 653 654 668 667
f 654 641 655 668
f 655 656 166 165
f 656 657 167 166
f 657 658 168 167
f 658 659 169 168
f 659 660 170 169
f 660 661 171 170
f 661 662 172 171
f 662 663 173 172
f 663 664 174 173
f 664 665 175 174
f 665 666 176 175
f 666 667 177 176
f 667 668 178 177
f 668 655 165 178
f 670 672 671 669
f 672 674 673 671
f 674 676 675 673
f 676 678 677 675
f 678 680 679 677
f 680 682 681 679
f 682 684 683 681
f 684 686 685 683
f 686 688 687 685
f 688 690 689 687
f 690 692 691 689
f 692 694 693 691
f 694 696 695 693
f 696 698 697 695
f 698 700 699 697
f 700 702 701 699
f 702 704 703 701
f 704 706 705 703
f 706 708 707 705
f 708 710 709 707
f 710 712 711 709
f 712 714 713 711
f 714 716 715 713
f 716 718 717 715
f 718 720 719 717
f 720 722 721 719
f 722 724 723 721
f 724 726 725 723
f 726 728 727 725
f 728 730 729 727
f 730 732 731 729
f 732 734 733 731
f 734 736 735 733
f 736 738 737 735
f 738 740 739 737
f 740 742 741 739
f 742 744 743 741
f 744 746 745 743
f 746 748 747 745
f 748 670 669 747
