# BubbleDecoCluster_V2
o BubbleDecoCluster_V2
v -0.900000 0.760000 0.000000
v -0.723966 0.724985 0.000000
v -0.757585 0.724985 0.103470
v -0.845602 0.724985 0.167419
v -0.954398 0.724985 0.167419
v -1.042415 0.724985 0.103470
v -1.076034 0.724985 0.000000
v -1.042415 0.724985 -0.103470
v -0.954398 0.724985 -0.167419
v -0.845602 0.724985 -0.167419
v -0.757585 0.724985 -0.103470
v -0.574731 0.625269 0.000000
v -0.636852 0.625269 0.191188
v -0.799486 0.625269 0.309349
v -1.000514 0.625269 0.309349
v -1.163148 0.625269 0.191188
v -1.225269 0.625269 0.000000
v -1.163148 0.625269 -0.191188
v -1.000514 0.625269 -0.309349
v -0.799486 0.625269 -0.309349
v -0.636852 0.625269 -0.191188
v -0.475015 0.476034 0.000000
v -0.556180 0.476034 0.249800
v -0.768673 0.476034 0.404184
v -1.031327 0.476034 0.404184
v -1.243820 0.476034 0.249800
v -1.324985 0.476034 0.000000
v -1.243820 0.476034 -0.249800
v -1.031327 0.476034 -0.404184
v -0.768673 0.476034 -0.404184
v -0.556180 0.476034 -0.249800
v -0.440000 0.300000 0.000000
v -0.527852 0.300000 0.270381
v -0.757852 0.300000 0.437486
v -1.042148 0.300000 0.437486
v -1.272148 0.300000 0.270381
v -1.360000 0.300000 0.000000
v -1.272148 0.300000 -0.270381
v -1.042148 0.300000 -0.437486
v -0.757852 0.300000 -0.437486
v -0.527852 0.300000 -0.270381
v -0.475015 0.123966 0.000000
v -0.556180 0.123966 0.249800
v -0.768673 0.123966 0.404184
v -1.031327 0.123966 0.404184
v -1.243820 0.123966 0.249800
v -1.324985 0.123966 0.000000
v -1.243820 0.123966 -0.249800
v -1.031327 0.123966 -0.404184
v -0.768673 0.123966 -0.404184
v -0.556180 0.123966 -0.249800
v -0.574731 -0.025269 0.000000
v -0.636852 -0.025269 0.191188
v -0.799486 -0.025269 0.309349
v -1.000514 -0.025269 0.309349
v -1.163148 -0.025269 0.191188
v -1.225269 -0.025269 0.000000
v -1.163148 -0.025269 -0.191188
v -1.000514 -0.025269 -0.309349
v -0.799486 -0.025269 -0.309349
v -0.636852 -0.025269 -0.191188
v -0.723966 -0.124985 0.000000
v -0.757585 -0.124985 0.103470
v -0.845602 -0.124985 0.167419
v -0.954398 -0.124985 0.167419
v -1.042415 -0.124985 0.103470
v -1.076034 -0.124985 0.000000
v -1.042415 -0.124985 -0.103470
v -0.954398 -0.124985 -0.167419
v -0.845602 -0.124985 -0.167419
v -0.757585 -0.124985 -0.103470
v -0.900000 -0.160000 0.000000
v -0.100000 1.180000 0.120000
v 0.121956 1.135850 0.120000
v 0.079566 1.135850 0.250463
v -0.031412 1.135850 0.331093
v -0.168588 1.135850 0.331093
v -0.279566 1.135850 0.250463
v -0.321956 1.135850 0.120000
v -0.279566 1.135850 -0.010463
v -0.168588 1.135850 -0.091093
v -0.031412 1.135850 -0.091093
v 0.079566 1.135850 -0.010463
v 0.310122 1.010122 0.120000
v 0.231796 1.010122 0.361064
v 0.026735 1.010122 0.510049
v -0.226735 1.010122 0.510049
v -0.431796 1.010122 0.361064
v -0.510122 1.010122 0.120000
v -0.431796 1.010122 -0.121064
v -0.226735 1.010122 -0.270049
v 0.026735 1.010122 -0.270049
v 0.231796 1.010122 -0.121064
v 0.435850 0.821956 0.120000
v 0.333512 0.821956 0.434965
v 0.065587 0.821956 0.629624
v -0.265587 0.821956 0.629624
v -0.533512 0.821956 0.434965
v -0.635850 0.821956 0.120000
v -0.533512 0.821956 -0.194965
v -0.265587 0.821956 -0.389624
v 0.065587 0.821956 -0.389624
v 0.333512 0.821956 -0.194965
v 0.480000 0.600000 0.120000
v 0.369230 0.600000 0.460915
v 0.079230 0.600000 0.671613
v -0.279230 0.600000 0.671613
v -0.569230 0.600000 0.460915
v -0.680000 0.600000 0.120000
v -0.569230 0.600000 -0.220915
v -0.279230 0.600000 -0.431613
v 0.079230 0.600000 -0.431613
v 0.369230 0.600000 -0.220915
v 0.435850 0.378044 0.120000
v 0.333512 0.378044 0.434965
v 0.065587 0.378044 0.629624
v -0.265587 0.378044 0.629624
v -0.533512 0.378044 0.434965
v -0.635850 0.378044 0.120000
v -0.533512 0.378044 -0.194965
v -0.265587 0.378044 -0.389624
v 0.065587 0.378044 -0.389624
v 0.333512 0.378044 -0.194965
v 0.310122 0.189878 0.120000
v 0.231796 0.189878 0.361064
v 0.026735 0.189878 0.510049
v -0.226735 0.189878 0.510049
v -0.431796 0.189878 0.361064
v -0.510122 0.189878 0.120000
v -0.431796 0.189878 -0.121064
v -0.226735 0.189878 -0.270049
v 0.026735 0.189878 -0.270049
v 0.231796 0.189878 -0.121064
v 0.121956 0.064150 0.120000
v 0.079566 0.064150 0.250463
v -0.031412 0.064150 0.331093
v -0.168588 0.064150 0.331093
v -0.279566 0.064150 0.250463
v -0.321956 0.064150 0.120000
v -0.279566 0.064150 -0.010463
v -0.168588 0.064150 -0.091093
v -0.031412 0.064150 -0.091093
v 0.079566 0.064150 -0.010463
v -0.100000 0.020000 0.120000
v 0.850000 0.650000 -0.050000
v 1.003073 0.619552 -0.050000
v 0.973839 0.619552 0.039974
v 0.897302 0.619552 0.095581
v 0.802698 0.619552 0.095581
v 0.726161 0.619552 0.039974
v 0.696927 0.619552 -0.050000
v 0.726161 0.619552 -0.139974
v 0.802698 0.619552 -0.195581
v 0.897302 0.619552 -0.195581
v 0.973839 0.619552 -0.139974
v 1.132843 0.532843 -0.050000
v 1.078825 0.532843 0.116251
v 0.937403 0.532843 0.218999
v 0.762597 0.532843 0.218999
v 0.621175 0.532843 0.116251
v 0.567157 0.532843 -0.050000
v 0.621175 0.532843 -0.216251
v 0.762597 0.532843 -0.318999
v 0.937403 0.532843 -0.318999
v 1.078825 0.532843 -0.216251
v 1.219552 0.403073 -0.050000
v 1.148974 0.403073 0.167217
v 0.964198 0.403073 0.301465
v 0.735802 0.403073 0.301465
v 0.551026 0.403073 0.167217
v 0.480448 0.403073 -0.050000
v 0.551026 0.403073 -0.267217
v 0.735802 0.403073 -0.401465
v 0.964198 0.403073 -0.401465
v 1.148974 0.403073 -0.267217
v 1.250000 0.250000 -0.050000
v 1.173607 0.250000 0.185114
v 0.973607 0.250000 0.330423
v 0.726393 0.250000 0.330423
v 0.526393 0.250000 0.185114
v 0.450000 0.250000 -0.050000
v 0.526393 0.250000 -0.285114
v 0.726393 0.250000 -0.430423
v 0.973607 0.250000 -0.430423
v 1.173607 0.250000 -0.285114
v 1.219552 0.096927 -0.050000
v 1.148974 0.096927 0.167217
v 0.964198 0.096927 0.301465
v 0.735802 0.096927 0.301465
v 0.551026 0.096927 0.167217
v 0.480448 0.096927 -0.050000
v 0.551026 0.096927 -0.267217
v 0.735802 0.096927 -0.401465
v 0.964198 0.096927 -0.401465
v 1.148974 0.096927 -0.267217
v 1.132843 -0.032843 -0.050000
v 1.078825 -0.032843 0.116251
v 0.937403 -0.032843 0.218999
v 0.762597 -0.032843 0.218999
v 0.621175 -0.032843 0.116251
v 0.567157 -0.032843 -0.050000
v 0.621175 -0.032843 -0.216251
v 0.762597 -0.032843 -0.318999
v 0.937403 -0.032843 -0.318999
v 1.078825 -0.032843 -0.216251
v 1.003073 -0.119552 -0.050000
v 0.973839 -0.119552 0.039974
v 0.897302 -0.119552 0.095581
v 0.802698 -0.119552 0.095581
v 0.726161 -0.119552 0.039974
v 0.696927 -0.119552 -0.050000
v 0.726161 -0.119552 -0.139974
v 0.802698 -0.119552 -0.195581
v 0.897302 -0.119552 -0.195581
v 0.973839 -0.119552 -0.139974
v 0.850000 -0.150000 -0.050000
v 0.200000 -0.080000 0.070000
v 0.314805 -0.102836 0.070000
v 0.292879 -0.102836 0.137481
v 0.235477 -0.102836 0.179186
v 0.164523 -0.102836 0.179186
v 0.107121 -0.102836 0.137481
v 0.085195 -0.102836 0.070000
v 0.107121 -0.102836 0.002519
v 0.164523 -0.102836 -0.039186
v 0.235477 -0.102836 -0.039186
v 0.292879 -0.102836 0.002519
v 0.412132 -0.167868 0.070000
v 0.371618 -0.167868 0.194688
v 0.265552 -0.167868 0.271750
v 0.134448 -0.167868 0.271750
v 0.028382 -0.167868 0.194688
v -0.012132 -0.167868 0.070000
v 0.028382 -0.167868 -0.054688
v 0.134448 -0.167868 -0.131750
v 0.265552 -0.167868 -0.131750
v 0.371618 -0.167868 -0.054688
v 0.477164 -0.265195 0.070000
v 0.424230 -0.265195 0.232913
v 0.285648 -0.265195 0.333598
v 0.114352 -0.265195 0.333598
v -0.024230 -0.265195 0.232913
v -0.077164 -0.265195 0.070000
v -0.024230 -0.265195 -0.092913
v 0.114352 -0.265195 -0.193598
v 0.285648 -0.265195 -0.193598
v 0.424230 -0.265195 -0.092913
v 0.500000 -0.380000 0.070000
v 0.442705 -0.380000 0.246336
v 0.292705 -0.380000 0.355317
v 0.107295 -0.380000 0.355317
v -0.042705 -0.380000 0.246336
v -0.100000 -0.380000 0.070000
v -0.042705 -0.380000 -0.106336
v 0.107295 -0.380000 -0.215317
v 0.292705 -0.380000 -0.215317
v 0.442705 -0.380000 -0.106336
v 0.477164 -0.494805 0.070000
v 0.424230 -0.494805 0.232913
v 0.285648 -0.494805 0.333598
v 0.114352 -0.494805 0.333598
v -0.024230 -0.494805 0.232913
v -0.077164 -0.494805 0.070000
v -0.024230 -0.494805 -0.092913
v 0.114352 -0.494805 -0.193598
v 0.285648 -0.494805 -0.193598
v 0.424230 -0.494805 -0.092913
v 0.412132 -0.592132 0.070000
v 0.371618 -0.592132 0.194688
v 0.265552 -0.592132 0.271750
v 0.134448 -0.592132 0.271750
v 0.028382 -0.592132 0.194688
v -0.012132 -0.592132 0.070000
v 0.028382 -0.592132 -0.054688
v 0.134448 -0.592132 -0.131750
v 0.265552 -0.592132 -0.131750
v 0.371618 -0.592132 -0.054688
v 0.314805 -0.657164 0.070000
v 0.292879 -0.657164 0.137481
v 0.235477 -0.657164 0.179186
v 0.164523 -0.657164 0.179186
v 0.107121 -0.657164 0.137481
v 0.085195 -0.657164 0.070000
v 0.107121 -0.657164 0.002519
v 0.164523 -0.657164 -0.039186
v 0.235477 -0.657164 -0.039186
v 0.292879 -0.657164 0.002519
v 0.200000 -0.680000 0.070000
v -0.550000 -0.060000 0.040000
v -0.450502 -0.079791 0.040000
v -0.469505 -0.079791 0.098483
v -0.519254 -0.079791 0.134628
v -0.580746 -0.079791 0.134628
v -0.630495 -0.079791 0.098483
v -0.649498 -0.079791 0.040000
v -0.630495 -0.079791 -0.018483
v -0.580746 -0.079791 -0.054628
v -0.519254 -0.079791 -0.054628
v -0.469505 -0.079791 -0.018483
v -0.366152 -0.136152 0.040000
v -0.401264 -0.136152 0.148063
v -0.493188 -0.136152 0.214850
v -0.606812 -0.136152 0.214850
v -0.698736 -0.136152 0.148063
v -0.733848 -0.136152 0.040000
v -0.698736 -0.136152 -0.068063
v -0.606812 -0.136152 -0.134850
v -0.493188 -0.136152 -0.134850
v -0.401264 -0.136152 -0.068063
v -0.309791 -0.220502 0.040000
v -0.355667 -0.220502 0.181191
v -0.475771 -0.220502 0.268452
v -0.624229 -0.220502 0.268452
v -0.744333 -0.220502 0.181191
v -0.790209 -0.220502 0.040000
v -0.744333 -0.220502 -0.101191
v -0.624229 -0.220502 -0.188452
v -0.475771 -0.220502 -0.188452
v -0.355667 -0.220502 -0.101191
v -0.290000 -0.320000 0.040000
v -0.339656 -0.320000 0.192824
v -0.469656 -0.320000 0.287275
v -0.630344 -0.320000 0.287275
v -0.760344 -0.320000 0.192824
v -0.810000 -0.320000 0.040000
v -0.760344 -0.320000 -0.112824
v -0.630344 -0.320000 -0.207275
v -0.469656 -0.320000 -0.207275
v -0.339656 -0.320000 -0.112824
v -0.309791 -0.419498 0.040000
v -0.355667 -0.419498 0.181191
v -0.475771 -0.419498 0.268452
v -0.624229 -0.419498 0.268452
v -0.744333 -0.419498 0.181191
v -0.790209 -0.419498 0.040000
v -0.744333 -0.419498 -0.101191
v -0.624229 -0.419498 -0.188452
v -0.475771 -0.419498 -0.188452
v -0.355667 -0.419498 -0.101191
v -0.366152 -0.503848 0.040000
v -0.401264 -0.503848 0.148063
v -0.493188 -0.503848 0.214850
v -0.606812 -0.503848 0.214850
v -0.698736 -0.503848 0.148063
v -0.733848 -0.503848 0.040000
v -0.698736 -0.503848 -0.068063
v -0.606812 -0.503848 -0.134850
v -0.493188 -0.503848 -0.134850
v -0.401264 -0.503848 -0.068063
v -0.450502 -0.560209 0.040000
v -0.469505 -0.560209 0.098483
v -0.519254 -0.560209 0.134628
v -0.580746 -0.560209 0.134628
v -0.630495 -0.560209 0.098483
v -0.649498 -0.560209 0.040000
v -0.630495 -0.560209 -0.018483
v -0.580746 -0.560209 -0.054628
v -0.519254 -0.560209 -0.054628
v -0.469505 -0.560209 -0.018483
v -0.550000 -0.580000 0.040000
f 1 2 3
f 1 3 4
f 1 4 5
f 1 5 6
f 1 6 7
f 1 7 8
f 1 8 9
f 1 9 10
f 1 10 11
f 1 11 2
f 2 3 13 12
f 3 4 14 13
f 4 5 15 14
f 5 6 16 15
f 6 7 17 16
f 7 8 18 17
f 8 9 19 18
f 9 10 20 19
f 10 11 21 20
f 11 2 12 21
f 12 13 23 22
f 13 14 24 23
f 14 15 25 24
f 15 16 26 25
f 16 17 27 26
f 17 18 28 27
f 18 19 29 28
f 19 20 30 29
f 20 21 31 30
f 21 12 22 31
f 22 23 33 32
f 23 24 34 33
f 24 25 35 34
f 25 26 36 35
f 26 27 37 36
f 27 28 38 37
f 28 29 39 38
f 29 30 40 39
f 30 31 41 40
f 31 22 32 41
f 32 33 43 42
f 33 34 44 43
f 34 35 45 44
f 35 36 46 45
f 36 37 47 46
f 37 38 48 47
f 38 39 49 48
f 39 40 50 49
f 40 41 51 50
f 41 32 42 51
f 42 43 53 52
f 43 44 54 53
f 44 45 55 54
f 45 46 56 55
f 46 47 57 56
f 47 48 58 57
f 48 49 59 58
f 49 50 60 59
f 50 51 61 60
f 51 42 52 61
f 52 53 63 62
f 53 54 64 63
f 54 55 65 64
f 55 56 66 65
f 56 57 67 66
f 57 58 68 67
f 58 59 69 68
f 59 60 70 69
f 60 61 71 70
f 61 52 62 71
f 72 63 62
f 72 64 63
f 72 65 64
f 72 66 65
f 72 67 66
f 72 68 67
f 72 69 68
f 72 70 69
f 72 71 70
f 72 62 71
f 73 74 75
f 73 75 76
f 73 76 77
f 73 77 78
f 73 78 79
f 73 79 80
f 73 80 81
f 73 81 82
f 73 82 83
f 73 83 74
f 74 75 85 84
f 75 76 86 85
f 76 77 87 86
f 77 78 88 87
f 78 79 89 88
f 79 80 90 89
f 80 81 91 90
f 81 82 92 91
f 82 83 93 92
f 83 74 84 93
f 84 85 95 94
f 85 86 96 95
f 86 87 97 96
f 87 88 98 97
f 88 89 99 98
f 89 90 100 99
f 90 91 101 100
f 91 92 102 101
f 92 93 103 102
f 93 84 94 103
f 94 95 105 104
f 95 96 106 105
f 96 97 107 106
f 97 98 108 107
f 98 99 109 108
f 99 100 110 109
f 100 101 111 110
f 101 102 112 111
f 102 103 113 112
f 103 94 104 113
f 104 105 115 114
f 105 106 116 115
f 106 107 117 116
f 107 108 118 117
f 108 109 119 118
f 109 110 120 119
f 110 111 121 120
f 111 112 122 121
f 112 113 123 122
f 113 104 114 123
f 114 115 125 124
f 115 116 126 125
f 116 117 127 126
f 117 118 128 127
f 118 119 129 128
f 119 120 130 129
f 120 121 131 130
f 121 122 132 131
f 122 123 133 132
f 123 114 124 133
f 124 125 135 134
f 125 126 136 135
f 126 127 137 136
f 127 128 138 137
f 128 129 139 138
f 129 130 140 139
f 130 131 141 140
f 131 132 142 141
f 132 133 143 142
f 133 124 134 143
f 144 135 134
f 144 136 135
f 144 137 136
f 144 138 137
f 144 139 138
f 144 140 139
f 144 141 140
f 144 142 141
f 144 143 142
f 144 134 143
f 145 146 147
f 145 147 148
f 145 148 149
f 145 149 150
f 145 150 151
f 145 151 152
f 145 152 153
f 145 153 154
f 145 154 155
f 145 155 146
f 146 147 157 156
f 147 148 158 157
f 148 149 159 158
f 149 150 160 159
f 150 151 161 160
f 151 152 162 161
f 152 153 163 162
f 153 154 164 163
f 154 155 165 164
f 155 146 156 165
f 156 157 167 166
f 157 158 168 167
f 158 159 169 168
f 159 160 170 169
f 160 161 171 170
f 161 162 172 171
f 162 163 173 172
f 163 164 174 173
f 164 165 175 174
f 165 156 166 175
f 166 167 177 176
f 167 168 178 177
f 168 169 179 178
f 169 170 180 179
f 170 171 181 180
f 171 172 182 181
f 172 173 183 182
f 173 174 184 183
f 174 175 185 184
f 175 166 176 185
f 176 177 187 186
f 177 178 188 187
f 178 179 189 188
f 179 180 190 189
f 180 181 191 190
f 181 182 192 191
f 182 183 193 192
f 183 184 194 193
f 184 185 195 194
f 185 176 186 195
f 186 187 197 196
f 187 188 198 197
f 188 189 199 198
f 189 190 200 199
f 190 191 201 200
f 191 192 202 201
f 192 193 203 202
f 193 194 204 203
f 194 195 205 204
f 195 186 196 205
f 196 197 207 206
f 197 198 208 207
f 198 199 209 208
f 199 200 210 209
f 200 201 211 210
f 201 202 212 211
f 202 203 213 212
f 203 204 214 213
f 204 205 215 214
f 205 196 206 215
f 216 207 206
f 216 208 207
f 216 209 208
f 216 210 209
f 216 211 210
f 216 212 211
f 216 213 212
f 216 214 213
f 216 215 214
f 216 206 215
f 217 218 219
f 217 219 220
f 217 220 221
f 217 221 222
f 217 222 223
f 217 223 224
f 217 224 225
f 217 225 226
f 217 226 227
f 217 227 218
f 218 219 229 228
f 219 220 230 229
f 220 221 231 230
f 221 222 232 231
f 222 223 233 232
f 223 224 234 233
f 224 225 235 234
f 225 226 236 235
f 226 227 237 236
f 227 218 228 237
f 228 229 239 238
f 229 230 240 239
f 230 231 241 240
f 231 232 242 241
f 232 233 243 242
f 233 234 244 243
f 234 235 245 244
f 235 236 246 245
f 236 237 247 246
f 237 228 238 247
f 238 239 249 248
f 239 240 250 249
f 240 241 251 250
f 241 242 252 251
f 242 243 253 252
f 243 244 254 253
f 244 245 255 254
f 245 246 256 255
f 246 247 257 256
f 247 238 248 257
f 248 249 259 258
f 249 250 260 259
f 250 251 261 260
f 251 252 262 261
f 252 253 263 262
f 253 254 264 263
f 254 255 265 264
f 255 256 266 265
f 256 257 267 266
f 257 248 258 267
f 258 259 269 268
f 259 260 270 269
f 260 261 271 270
f 261 262 272 271
f 262 263 273 272
f 263 264 274 273
f 264 265 275 274
f 265 266 276 275
f 266 267 277 276
f 267 258 268 277
f 268 269 279 278
f 269 270 280 279
f 270 271 281 280
f 271 272 282 281
f 272 273 283 282
f 273 274 284 283
f 274 275 285 284
f 275 276 286 285
f 276 277 287 286
f 277 268 278 287
f 288 279 278
f 288 280 279
f 288 281 280
f 288 282 281
f 288 283 282
f 288 284 283
f 288 285 284
f 288 286 285
f 288 287 286
f 288 278 287
f 289 290 291
f 289 291 292
f 289 292 293
f 289 293 294
f 289 294 295
f 289 295 296
f 289 296 297
f 289 297 298
f 289 298 299
f 289 299 290
f 290 291 301 300
f 291 292 302 301
f 292 293 303 302
f 293 294 304 303
f 294 295 305 304
f 295 296 306 305
f 296 297 307 306
f 297 298 308 307
f 298 299 309 308
f 299 290 300 309
f 300 301 311 310
f 301 302 312 311
f 302 303 313 312
f 303 304 314 313
f 304 305 315 314
f 305 306 316 315
f 306 307 317 316
f 307 308 318 317
f 308 309 319 318
f 309 300 310 319
f 310 311 321 320
f 311 312 322 321
f 312 313 323 322
f 313 314 324 323
f 314 315 325 324
f 315 316 326 325
f 316 317 327 326
f 317 318 328 327
f 318 319 329 328
f 319 310 320 329
f 320 321 331 330
f 321 322 332 331
f 322 323 333 332
f 323 324 334 333
f 324 325 335 334
f 325 326 336 335
f 326 327 337 336
f 327 328 338 337
f 328 329 339 338
f 329 320 330 339
f 330 331 341 340
f 331 332 342 341
f 332 333 343 342
f 333 334 344 343
f 334 335 345 344
f 335 336 346 345
f 336 337 347 346
f 337 338 348 347
f 338 339 349 348
f 339 330 340 349
f 340 341 351 350
f 341 342 352 351
f 342 343 353 352
f 343 344 354 353
f 344 345 355 354
f 345 346 356 355
f 346 347 357 356
f 347 348 358 357
f 348 349 359 358
f 349 340 350 359
f 360 351 350
f 360 352 351
f 360 353 352
f 360 354 353
f 360 355 354
f 360 356 355
f 360 357 356
f 360 358 357
f 360 359 358
f 360 350 359
