# CoinBadge_V2
o CoinBadge_V2
v 1.280000 0.140000 0.000000
v 1.280000 -0.140000 0.000000
v 1.258206 0.140000 0.235199
v 1.258206 -0.140000 0.235199
v 1.193564 0.140000 0.462389
v 1.193564 -0.140000 0.462389
v 1.088278 0.140000 0.673833
v 1.088278 -0.140000 0.673833
v 0.945931 0.140000 0.862330
v 0.945931 -0.140000 0.862330
v 0.771372 0.140000 1.021462
v 0.771372 -0.140000 1.021462
v 0.570545 0.140000 1.145809
v 0.570545 -0.140000 1.145809
v 0.350289 0.140000 1.231137
v 0.350289 -0.140000 1.231137
v 0.118104 0.140000 1.274540
v 0.118104 -0.140000 1.274540
v -0.118104 0.140000 1.274540
v -0.118104 -0.140000 1.274540
v -0.350289 0.140000 1.231137
v -0.350289 -0.140000 1.231137
v -0.570545 0.140000 1.145809
v -0.570545 -0.140000 1.145809
v -0.771372 0.140000 1.021462
v -0.771372 -0.140000 1.021462
v -0.945931 0.140000 0.862330
v -0.945931 -0.140000 0.862330
v -1.088278 0.140000 0.673833
v -1.088278 -0.140000 0.673833
v -1.193564 0.140000 0.462389
v -1.193564 -0.140000 0.462389
v -1.258206 0.140000 0.235199
v -1.258206 -0.140000 0.235199
v -1.280000 0.140000 0.000000
v -1.280000 -0.140000 0.000000
v -1.258206 0.140000 -0.235199
v -1.258206 -0.140000 -0.235199
v -1.193564 0.140000 -0.462389
v -1.193564 -0.140000 -0.462389
v -1.088278 0.140000 -0.673833
v -1.088278 -0.140000 -0.673833
v -0.945931 0.140000 -0.862330
v -0.945931 -0.140000 -0.862330
v -0.771372 0.140000 -1.021462
v -0.771372 -0.140000 -1.021462
v -0.570545 0.140000 -1.145809
v -0.570545 -0.140000 -1.145809
v -0.350289 0.140000 -1.231137
v -0.350289 -0.140000 -1.231137
v -0.118104 0.140000 -1.274540
v -0.118104 -0.140000 -1.274540
v 0.118104 0.140000 -1.274540
v 0.118104 -0.140000 -1.274540
v 0.350289 0.140000 -1.231137
v 0.350289 -0.140000 -1.231137
v 0.570545 0.140000 -1.145809
v 0.570545 -0.140000 -1.145809
v 0.771372 0.140000 -1.021462
v 0.771372 -0.140000 -1.021462
v 0.945931 0.140000 -0.862330
v 0.945931 -0.140000 -0.862330
v 1.088278 0.140000 -0.673833
v 1.088278 -0.140000 -0.673833
v 1.193564 0.140000 -0.462389
v 1.193564 -0.140000 -0.462389
v 1.258206 0.140000 -0.235199
v 1.258206 -0.140000 -0.235199
v 0.000000 0.140000 0.000000
v 0.000000 -0.140000 0.000000
v 0.920000 0.195000 0.000000
v 0.920000 0.145000 0.000000
v 0.904335 0.195000 0.169050
v 0.904335 0.145000 0.169050
v 0.857874 0.195000 0.332342
v 0.857874 0.145000 0.332342
v 0.782200 0.195000 0.484318
v 0.782200 0.145000 0.484318
v 0.679888 0.195000 0.619800
v 0.679888 0.145000 0.619800
v 0.554424 0.195000 0.734176
v 0.554424 0.145000 0.734176
v 0.410079 0.195000 0.823550
v 0.410079 0.145000 0.823550
v 0.251770 0.195000 0.884880
v 0.251770 0.145000 0.884880
v 0.084887 0.195000 0.916075
v 0.084887 0.145000 0.916075
v -0.084887 0.195000 0.916075
v -0.084887 0.145000 0.916075
v -0.251770 0.195000 0.884880
v -0.251770 0.145000 0.884880
v -0.410079 0.195000 0.823550
v -0.410079 0.145000 0.823550
v -0.554424 0.195000 0.734176
v -0.554424 0.145000 0.734176
v -0.679888 0.195000 0.619800
v -0.679888 0.145000 0.619800
v -0.782200 0.195000 0.484318
v -0.782200 0.145000 0.484318
v -0.857874 0.195000 0.332342
v -0.857874 0.145000 0.332342
v -0.904335 0.195000 0.169050
v -0.904335 0.145000 0.169050
v -0.920000 0.195000 0.000000
v -0.920000 0.145000 0.000000
v -0.904335 0.195000 -0.169050
v -0.904335 0.145000 -0.169050
v -0.857874 0.195000 -0.332342
v -0.857874 0.145000 -0.332342
v -0.782200 0.195000 -0.484318
v -0.782200 0.145000 -0.484318
v -0.679888 0.195000 -0.619800
v -0.679888 0.145000 -0.619800
v -0.554424 0.195000 -0.734176
v -0.554424 0.145000 -0.734176
v -0.410079 0.195000 -0.823550
v -0.410079 0.145000 -0.823550
v -0.251770 0.195000 -0.884880
v -0.251770 0.145000 -0.884880
v -0.084887 0.195000 -0.916075
v -0.084887 0.145000 -0.916075
v 0.084887 0.195000 -0.916075
v 0.084887 0.145000 -0.916075
v 0.251770 0.195000 -0.884880
v 0.251770 0.145000 -0.884880
v 0.410079 0.195000 -0.823550
v 0.410079 0.145000 -0.823550
v 0.554424 0.195000 -0.734176
v 0.554424 0.145000 -0.734176
v 0.679888 0.195000 -0.619800
v 0.679888 0.145000 -0.619800
v 0.782200 0.195000 -0.484318
v 0.782200 0.145000 -0.484318
v 0.857874 0.195000 -0.332342
v 0.857874 0.145000 -0.332342
v 0.904335 0.195000 -0.169050
v 0.904335 0.145000 -0.169050
v 0.000000 0.195000 0.000000
v 0.000000 0.145000 0.000000
v 0.960000 0.160000 0.000000
v 0.948541 0.195267 0.000000
v 0.918541 0.217063 0.000000
v 0.881459 0.217063 0.000000
v 0.851459 0.195267 0.000000
v 0.840000 0.160000 0.000000
v 0.851459 0.124733 0.000000
v 0.881459 0.102937 0.000000
v 0.918541 0.102937 0.000000
v 0.948541 0.124733 0.000000
v 0.927289 0.160000 0.248466
v 0.916220 0.195267 0.245500
v 0.887242 0.217063 0.237736
v 0.851424 0.217063 0.228138
v 0.822446 0.195267 0.220374
v 0.811378 0.160000 0.217408
v 0.822446 0.124733 0.220374
v 0.851424 0.102937 0.228138
v 0.887242 0.102937 0.237736
v 0.916220 0.124733 0.245500
v 0.831384 0.160000 0.480000
v 0.821461 0.195267 0.474271
v 0.795480 0.217063 0.459271
v 0.763366 0.217063 0.440729
v 0.737385 0.195267 0.425729
v 0.727461 0.160000 0.420000
v 0.737385 0.124733 0.425729
v 0.763366 0.102937 0.440729
v 0.795480 0.102937 0.459271
v 0.821461 0.124733 0.474271
v 0.678823 0.160000 0.678823
v 0.670720 0.195267 0.670720
v 0.649507 0.217063 0.649507
v 0.623286 0.217063 0.623286
v 0.602072 0.195267 0.602072
v 0.593970 0.160000 0.593970
v 0.602072 0.124733 0.602072
v 0.623286 0.102937 0.623286
v 0.649507 0.102937 0.649507
v 0.670720 0.124733 0.670720
v 0.480000 0.160000 0.831384
v 0.474271 0.195267 0.821461
v 0.459271 0.217063 0.795480
v 0.440729 0.217063 0.763366
v 0.425729 0.195267 0.737385
v 0.420000 0.160000 0.727461
v 0.425729 0.124733 0.737385
v 0.440729 0.102937 0.763366
v 0.459271 0.102937 0.795480
v 0.474271 0.124733 0.821461
v 0.248466 0.160000 0.927289
v 0.245500 0.195267 0.916220
v 0.237736 0.217063 0.887242
v 0.228138 0.217063 0.851424
v 0.220374 0.195267 0.822446
v 0.217408 0.160000 0.811378
v 0.220374 0.124733 0.822446
v 0.228138 0.102937 0.851424
v 0.237736 0.102937 0.887242
v 0.245500 0.124733 0.916220
v 0.000000 0.160000 0.960000
v 0.000000 0.195267 0.948541
v 0.000000 0.217063 0.918541
v 0.000000 0.217063 0.881459
v 0.000000 0.195267 0.851459
v 0.000000 0.160000 0.840000
v 0.000000 0.124733 0.851459
v 0.000000 0.102937 0.881459
v 0.000000 0.102937 0.918541
v 0.000000 0.124733 0.948541
v -0.248466 0.160000 0.927289
v -0.245500 0.195267 0.916220
v -0.237736 0.217063 0.887242
v -0.228138 0.217063 0.851424
v -0.220374 0.195267 0.822446
v -0.217408 0.160000 0.811378
v -0.220374 0.124733 0.822446
v -0.228138 0.102937 0.851424
v -0.237736 0.102937 0.887242
v -0.245500 0.124733 0.916220
v -0.480000 0.160000 0.831384
v -0.474271 0.195267 0.821461
v -0.459271 0.217063 0.795480
v -0.440729 0.217063 0.763366
v -0.425729 0.195267 0.737385
v -0.420000 0.160000 0.727461
v -0.425729 0.124733 0.737385
v -0.440729 0.102937 0.763366
v -0.459271 0.102937 0.795480
v -0.474271 0.124733 0.821461
v -0.678823 0.160000 0.678823
v -0.670720 0.195267 0.670720
v -0.649507 0.217063 0.649507
v -0.623286 0.217063 0.623286
v -0.602072 0.195267 0.602072
v -0.593970 0.160000 0.593970
v -0.602072 0.124733 0.602072
v -0.623286 0.102937 0.623286
v -0.649507 0.102937 0.649507
v -0.670720 0.124733 0.670720
v -0.831384 0.160000 0.480000
v -0.821461 0.195267 0.474271
v -0.795480 0.217063 0.459271
v -0.763366 0.217063 0.440729
v -0.737385 0.195267 0.425729
v -0.727461 0.160000 0.420000
v -0.737385 0.124733 0.425729
v -0.763366 0.102937 0.440729
v -0.795480 0.102937 0.459271
v -0.821461 0.124733 0.474271
v -0.927289 0.160000 0.248466
v -0.916220 0.195267 0.245500
v -0.887242 0.217063 0.237736
v -0.851424 0.217063 0.228138
v -0.822446 0.195267 0.220374
v -0.811378 0.160000 0.217408
v -0.822446 0.124733 0.220374
v -0.851424 0.102937 0.228138
v -0.887242 0.102937 0.237736
v -0.916220 0.124733 0.245500
v -0.960000 0.160000 0.000000
v -0.948541 0.195267 0.000000
v -0.918541 0.217063 0.000000
v -0.881459 0.217063 0.000000
v -0.851459 0.195267 0.000000
v -0.840000 0.160000 0.000000
v -0.851459 0.124733 0.000000
v -0.881459 0.102937 0.000000
v -0.918541 0.102937 0.000000
v -0.948541 0.124733 0.000000
v -0.927289 0.160000 -0.248466
v -0.916220 0.195267 -0.245500
v -0.887242 0.217063 -0.237736
v -0.851424 0.217063 -0.228138
v -0.822446 0.195267 -0.220374
v -0.811378 0.160000 -0.217408
v -0.822446 0.124733 -0.220374
v -0.851424 0.102937 -0.228138
v -0.887242 0.102937 -0.237736
v -0.916220 0.124733 -0.245500
v -0.831384 0.160000 -0.480000
v -0.821461 0.195267 -0.474271
v -0.795480 0.217063 -0.459271
v -0.763366 0.217063 -0.440729
v -0.737385 0.195267 -0.425729
v -0.727461 0.160000 -0.420000
v -0.737385 0.124733 -0.425729
v -0.763366 0.102937 -0.440729
v -0.795480 0.102937 -0.459271
v -0.821461 0.124733 -0.474271
v -0.678823 0.160000 -0.678823
v -0.670720 0.195267 -0.670720
v -0.649507 0.217063 -0.649507
v -0.623286 0.217063 -0.623286
v -0.602072 0.195267 -0.602072
v -0.593970 0.160000 -0.593970
v -0.602072 0.124733 -0.602072
v -0.623286 0.102937 -0.623286
v -0.649507 0.102937 -0.649507
v -0.670720 0.124733 -0.670720
v -0.480000 0.160000 -0.831384
v -0.474271 0.195267 -0.821461
v -0.459271 0.217063 -0.795480
v -0.440729 0.217063 -0.763366
v -0.425729 0.195267 -0.737385
v -0.420000 0.160000 -0.727461
v -0.425729 0.124733 -0.737385
v -0.440729 0.102937 -0.763366
v -0.459271 0.102937 -0.795480
v -0.474271 0.124733 -0.821461
v -0.248466 0.160000 -0.927289
v -0.245500 0.195267 -0.916220
v -0.237736 0.217063 -0.887242
v -0.228138 0.217063 -0.851424
v -0.220374 0.195267 -0.822446
v -0.217408 0.160000 -0.811378
v -0.220374 0.124733 -0.822446
v -0.228138 0.102937 -0.851424
v -0.237736 0.102937 -0.887242
v -0.245500 0.124733 -0.916220
v -0.000000 0.160000 -0.960000
v -0.000000 0.195267 -0.948541
v -0.000000 0.217063 -0.918541
v -0.000000 0.217063 -0.881459
v -0.000000 0.195267 -0.851459
v -0.000000 0.160000 -0.840000
v -0.000000 0.124733 -0.851459
v -0.000000 0.102937 -0.881459
v -0.000000 0.102937 -0.918541
v -0.000000 0.124733 -0.948541
v 0.248466 0.160000 -0.927289
v 0.245500 0.195267 -0.916220
v 0.237736 0.217063 -0.887242
v 0.228138 0.217063 -0.851424
v 0.220374 0.195267 -0.822446
v 0.217408 0.160000 -0.811378
v 0.220374 0.124733 -0.822446
v 0.228138 0.102937 -0.851424
v 0.237736 0.102937 -0.887242
v 0.245500 0.124733 -0.916220
v 0.480000 0.160000 -0.831384
v 0.474271 0.195267 -0.821461
v 0.459271 0.217063 -0.795480
v 0.440729 0.217063 -0.763366
v 0.425729 0.195267 -0.737385
v 0.420000 0.160000 -0.727461
v 0.425729 0.124733 -0.737385
v 0.440729 0.102937 -0.763366
v 0.459271 0.102937 -0.795480
v 0.474271 0.124733 -0.821461
v 0.678823 0.160000 -0.678823
v 0.670720 0.195267 -0.670720
v 0.649507 0.217063 -0.649507
v 0.623286 0.217063 -0.623286
v 0.602072 0.195267 -0.602072
v 0.593970 0.160000 -0.593970
v 0.602072 0.124733 -0.602072
v 0.623286 0.102937 -0.623286
v 0.649507 0.102937 -0.649507
v 0.670720 0.124733 -0.670720
v 0.831384 0.160000 -0.480000
v 0.821461 0.195267 -0.474271
v 0.795480 0.217063 -0.459271
v 0.763366 0.217063 -0.440729
v 0.737385 0.195267 -0.425729
v 0.727461 0.160000 -0.420000
v 0.737385 0.124733 -0.425729
v 0.763366 0.102937 -0.440729
v 0.795480 0.102937 -0.459271
v 0.821461 0.124733 -0.474271
v 0.927289 0.160000 -0.248466
v 0.916220 0.195267 -0.245500
v 0.887242 0.217063 -0.237736
v 0.851424 0.217063 -0.228138
v 0.822446 0.195267 -0.220374
v 0.811378 0.160000 -0.217408
v 0.822446 0.124733 -0.220374
v 0.851424 0.102937 -0.228138
v 0.887242 0.102937 -0.237736
v 0.916220 0.124733 -0.245500
f 2 4 3 1
f 69 1 3
f 70 4 2
f 4 6 5 3
f 69 3 5
f 70 6 4
f 6 8 7 5
f 69 5 7
f 70 8 6
f 8 10 9 7
f 69 7 9
f 70 10 8
f 10 12 11 9
f 69 9 11
f 70 12 10
f 12 14 13 11
f 69 11 13
f 70 14 12
f 14 16 15 13
f 69 13 15
f 70 16 14
f 16 18 17 15
f 69 15 17
f 70 18 16
f 18 20 19 17
f 69 17 19
f 70 20 18
f 20 22 21 19
f 69 19 21
f 70 22 20
f 22 24 23 21
f 69 21 23
f 70 24 22
f 24 26 25 23
f 69 23 25
f 70 26 24
f 26 28 27 25
f 69 25 27
f 70 28 26
f 28 30 29 27
f 69 27 29
f 70 30 28
f 30 32 31 29
f 69 29 31
f 70 32 30
f 32 34 33 31
f 69 31 33
f 70 34 32
f 34 36 35 33
f 69 33 35
f 70 36 34
f 36 38 37 35
f 69 35 37
f 70 38 36
f 38 40 39 37
f 69 37 39
f 70 40 38
f 40 42 41 39
f 69 39 41
f 70 42 40
f 42 44 43 41
f 69 41 43
f 70 44 42
f 44 46 45 43
f 69 43 45
f 70 46 44
f 46 48 47 45
f 69 45 47
f 70 48 46
f 48 50 49 47
f 69 47 49
f 70 50 48
f 50 52 51 49
f 69 49 51
f 70 52 50
f 52 54 53 51
f 69 51 53
f 70 54 52
f 54 56 55 53
f 69 53 55
f 70 56 54
f 56 58 57 55
f 69 55 57
f 70 58 56
f 58 60 59 57
f 69 57 59
f 70 60 58
f 60 62 61 59
f 69 59 61
f 70 62 60
f 62 64 63 61
f 69 61 63
f 70 64 62
f 64 66 65 63
f 69 63 65
f 70 66 64
f 66 68 67 65
f 69 65 67
f 70 68 66
f 68 2 1 67
f 69 67 1
f 70 2 68
f 72 74 73 71
f 139 71 73
f 140 74 72
f 74 76 75 73
f 139 73 75
f 140 76 74
f 76 78 77 75
f 139 75 77
f 140 78 76
f 78 80 79 77
f 139 77 79
f 140 80 78
f 80 82 81 79
f 139 79 81
f 140 82 80
f 82 84 83 81
f 139 81 83
f 140 84 82
f 84 86 85 83
f 139 83 85
f 140 86 84
f 86 88 87 85
f 139 85 87
f 140 88 86
f 88 90 89 87
f 139 87 89
f 140 90 88
f 90 92 91 89
f 139 89 91
f 140 92 90
f 92 94 93 91
f 139 91 93
f 140 94 92
f 94 96 95 93
f 139 93 95
f 140 96 94
f 96 98 97 95
f 139 95 97
f 140 98 96
f 98 100 99 97
f 139 97 99
f 140 100 98
f 100 102 101 99
f 139 99 101
f 140 102 100
f 102 104 103 101
f 139 101 103
f 140 104 102
f 104 106 105 103
f 139 103 105
f 140 106 104
f 106 108 107 105
f 139 105 107
f 140 108 106
f 108 110 109 107
f 139 107 109
f 140 110 108
f 110 112 111 109
f 139 109 111
f 140 112 110
f 112 114 113 111
f 139 111 113
f 140 114 112
f 114 116 115 113
f 139 113 115
f 140 116 114
f 116 118 117 115
f 139 115 117
f 140 118 116
f 118 120 119 117
f 139 117 119
f 140 120 118
f 120 122 121 119
f 139 119 121
f 140 122 120
f 122 124 123 121
f 139 121 123
f 140 124 122
f 124 126 125 123
f 139 123 125
f 140 126 124
f 126 128 127 125
f 139 125 127
f 140 128 126
f 128 130 129 127
f 139 127 129
f 140 130 128
f 130 132 131 129
f 139 129 131
f 140 132 130
f 132 134 133 131
f 139 131 133
f 140 134 132
f 134 136 135 133
f 139 133 135
f 140 136 134
f 136 138 137 135
f 139 135 137
f 140 138 136
f 138 72 71 137
f 139 137 71
f 140 72 138
f 141 142 152 151
f 142 143 153 152
f 143 144 154 153
f 144 145 155 154
f 145 146 156 155
f 146 147 157 156
f 147 148 158 157
f 148 149 159 158
f 149 150 160 159
f 150 141 151 160
f 151 152 162 161
f 152 153 163 162
f 153 154 164 163
f 154 155 165 164
f 155 156 166 165
f 156 157 167 166
f 157 158 168 167
f 158 159 169 168
f 159 160 170 169
f 160 151 161 170
f 161 162 172 171
f 162 163 173 172
f 163 164 174 173
f 164 165 175 174
f 165 166 176 175
f 166 167 177 176
f 167 168 178 177
f 168 169 179 178
f 169 170 180 179
f 170 161 171 180
f 171 172 182 181
f 172 173 183 182
f 173 174 184 183
f 174 175 185 184
f 175 176 186 185
f 176 177 187 186
f 177 178 188 187
f 178 179 189 188
f 179 180 190 189
f 180 171 181 190
f 181 182 192 191
f 182 183 193 192
f 183 184 194 193
f 184 185 195 194
f 185 186 196 195
f 186 187 197 196
f 187 188 198 197
f 188 189 199 198
f 189 190 200 199
f 190 181 191 200
f 191 192 202 201
f 192 193 203 202
f 193 194 204 203
f 194 195 205 204
f 195 196 206 205
f 196 197 207 206
f 197 198 208 207
f 198 199 209 208
f 199 200 210 209
f 200 191 201 210
f 201 202 212 211
f 202 203 213 212
f 203 204 214 213
f 204 205 215 214
f 205 206 216 215
f 206 207 217 216
f 207 208 218 217
f 208 209 219 218
f 209 210 220 219
f 210 201 211 220
f 211 212 222 221
f 212 213 223 222
f 213 214 224 223
f 214 215 225 224
f 215 216 226 225
f 216 217 227 226
f 217 218 228 227
f 218 219 229 228
f 219 220 230 229
f 220 211 221 230
f 221 222 232 231
f 222 223 233 232
f 223 224 234 233
f 224 225 235 234
f 225 226 236 235
f 226 227 237 236
f 227 228 238 237
f 228 229 239 238
f 229 230 240 239
f 230 221 231 240
f 231 232 242 241
f 232 233 243 242
f 233 234 244 243
f 234 235 245 244
f 235 236 246 245
f 236 237 247 246
f 237 238 248 247
f 238 239 249 248
f 239 240 250 249
f 240 231 241 250
f 241 242 252 251
f 242 243 253 252
f 243 244 254 253
f 244 245 255 254
f 245 246 256 255
f 246 247 257 256
f 247 248 258 257
f 248 249 259 258
f 249 250 260 259
f 250 241 251 260
f 251 252 262 261
f 252 253 263 262
f 253 254 264 263
f 254 255 265 264
f 255 256 266 265
f 256 257 267 266
f 257 258 268 267
f 258 259 269 268
f 259 260 270 269
f 260 251 261 270
f 261 262 272 271
f 262 263 273 272
f 263 264 274 273
f 264 265 275 274
f 265 266 276 275
f 266 267 277 276
f 267 268 278 277
f 268 269 279 278
f 269 270 280 279
f 270 261 271 280
f 271 272 282 281
f 272 273 283 282
f 273 274 284 283
f 274 275 285 284
f 275 276 286 285
f 276 277 287 286
f 277 278 288 287
f 278 279 289 288
f 279 280 290 289
f 280 271 281 290
f 281 282 292 291
f 282 283 293 292
f 283 284 294 293
f 284 285 295 294
f 285 286 296 295
f 286 287 297 296
f 287 288 298 297
f 288 289 299 298
f 289 290 300 299
f 290 281 291 300
f 291 292 302 301
f 292 293 303 302
f 293 294 304 303
f 294 295 305 304
f 295 296 306 305
f 296 297 307 306
f 297 298 308 307
f 298 299 309 308
f 299 300 310 309
f 300 291 301 310
f 301 302 312 311
f 302 303 313 312
f 303 304 314 313
f 304 305 315 314
f 305 306 316 315
f 306 307 317 316
f 307 308 318 317
f 308 309 319 318
f 309 310 320 319
f 310 301 311 320
f 311 312 322 321
f 312 313 323 322
f 313 314 324 323
f 314 315 325 324
f 315 316 326 325
f 316 317 327 326
f 317 318 328 327
f 318 319 329 328
f 319 320 330 329
f 320 311 321 330
f 321 322 332 331
f 322 323 333 332
f 323 324 334 333
f 324 325 335 334
f 325 326 336 335
f 326 327 337 336
f 327 328 338 337
f 328 329 339 338
f 329 330 340 339
f 330 321 331 340
f 331 332 342 341
f 332 333 343 342
f 333 334 344 343
f 334 335 345 344
f 335 336 346 345
f 336 337 347 346
f 337 338 348 347
f 338 339 349 348
f 339 340 350 349
f 340 331 341 350
f 341 342 352 351
f 342 343 353 352
f 343 344 354 353
f 344 345 355 354
f 345 346 356 355
f 346 347 357 356
f 347 348 358 357
f 348 349 359 358
f 349 350 360 359
f 350 341 351 360
f 351 352 362 361
f 352 353 363 362
f 353 354 364 363
f 354 355 365 364
f 355 356 366 365
f 356 357 367 366
f 357 358 368 367
f 358 359 369 368
f 359 360 370 369
f 360 351 361 370
f 361 362 372 371
f 362 363 373 372
f 363 364 374 373
f 364 365 375 374
f 365 366 376 375
f 366 367 377 376
f 367 368 378 377
f 368 369 379 378
f 369 370 380 379
f 370 361 371 380
f 371 372 142 141
f 372 373 143 142
f 373 374 144 143
f 374 375 145 144
f 375 376 146 145
f 376 377 147 146
f 377 378 148 147
f 378 379 149 148
f 379 380 150 149
f 380 371 141 150
