# CounterBody_V2
o CounterBody_V2
v -9.400000 -2.600000 2.300000
v 9.400000 -2.600000 2.300000
v 7.700000 2.600000 2.300000
v -7.700000 2.600000 2.300000
v -9.400000 -2.600000 -2.300000
v 9.400000 -2.600000 -2.300000
v 7.700000 2.600000 -2.300000
v -7.700000 2.600000 -2.300000
v -10.150000 -3.025000 2.675000
v 10.150000 -3.025000 2.675000
v 8.800000 -2.075000 2.675000
v -8.800000 -2.075000 2.675000
v -10.150000 -3.025000 -2.575000
v 10.150000 -3.025000 -2.575000
v 8.800000 -2.075000 -2.575000
v -8.800000 -2.075000 -2.575000
v -10.350000 2.605000 -2.600000
v 10.350000 2.605000 -2.600000
v 10.350000 3.255000 -2.600000
v -10.350000 3.255000 -2.600000
v -10.350000 2.605000 2.800000
v 10.350000 2.605000 2.800000
v 10.350000 3.255000 2.800000
v -10.350000 3.255000 2.800000
v -9.975000 -2.050000 -1.550000
v -7.725000 -2.050000 -1.550000
v -7.725000 2.050000 -1.550000
v -9.975000 2.050000 -1.550000
v -9.975000 -2.050000 1.850000
v -7.725000 -2.050000 1.850000
v -7.725000 2.050000 1.850000
v -9.975000 2.050000 1.850000
v 7.725000 -2.050000 -1.550000
v 9.975000 -2.050000 -1.550000
v 9.975000 2.050000 -1.550000
v 7.725000 2.050000 -1.550000
v 7.725000 -2.050000 1.850000
v 9.975000 -2.050000 1.850000
v 9.975000 2.050000 1.850000
v 7.725000 2.050000 1.850000
v -6.300000 -1.625000 2.630000
v 6.300000 -1.625000 2.630000
v 5.300000 1.225000 2.630000
v -5.300000 1.225000 2.630000
v -6.300000 -1.625000 1.930000
v 6.300000 -1.625000 1.930000
v 5.300000 1.225000 1.930000
v -5.300000 1.225000 1.930000
f 1 2 3 4
f 8 7 6 5
f 5 6 2 1
f 6 7 3 2
f 7 8 4 3
f 8 5 1 4
f 9 10 11 12
f 16 15 14 13
f 13 14 10 9
f 14 15 11 10
f 15 16 12 11
f 16 13 9 12
f 17 18 19 20
f 21 24 23 22
f 17 21 22 18
f 18 22 23 19
f 19 23 24 20
f 21 17 20 24
f 25 26 27 28
f 29 32 31 30
f 25 29 30 26
f 26 30 31 27
f 27 31 32 28
f 29 25 28 32
f 33 34 35 36
f 37 40 39 38
f 33 37 38 34
f 34 38 39 35
f 35 39 40 36
f 37 33 36 40
f 41 42 43 44
f 48 47 46 45
f 45 46 42 41
f 46 47 43 42
f 47 48 44 43
f 48 45 41 44
