# FrontDisplayFrame_V2
o FrontDisplayFrame_V2
v -6.400000 -1.600000 0.325000
v 6.400000 -1.600000 0.325000
v 5.000000 1.600000 0.325000
v -5.000000 1.600000 0.325000
v -6.400000 -1.600000 -0.325000
v 6.400000 -1.600000 -0.325000
v 5.000000 1.600000 -0.325000
v -5.000000 1.600000 -0.325000
v -5.550000 -1.225000 0.370000
v 5.550000 -1.225000 0.370000
v 4.300000 1.225000 0.370000
v -4.300000 1.225000 0.370000
v -5.550000 -1.225000 -0.010000
v 5.550000 -1.225000 -0.010000
v 4.300000 1.225000 -0.010000
v -4.300000 1.225000 -0.010000
v -6.500000 -1.600000 -0.095000
v -5.600000 -1.600000 -0.095000
v -5.600000 1.600000 -0.095000
v -6.500000 1.600000 -0.095000
v -6.500000 -1.600000 0.255000
v -5.600000 -1.600000 0.255000
v -5.600000 1.600000 0.255000
v -6.500000 1.600000 0.255000
v 5.600000 -1.600000 -0.095000
v 6.500000 -1.600000 -0.095000
v 6.500000 1.600000 -0.095000
v 5.600000 1.600000 -0.095000
v 5.600000 -1.600000 0.255000
v 6.500000 -1.600000 0.255000
v 6.500000 1.600000 0.255000
v 5.600000 1.600000 0.255000
f 1 2 3 4
f 8 7 6 5
f 5 6 2 1
f 6 7 3 2
f 7 8 4 3
f 8 5 1 4
f 9 10 11 12
f 16 15 14 13
f 13 14 10 9
f 14 15 11 10
f 15 16 12 11
f 16 13 9 12
f 17 18 19 20
f 21 24 23 22
f 17 21 22 18
f 18 22 23 19
f 19 23 24 20
f 21 17 20 24
f 25 26 27 28
f 29 32 31 30
f 25 29 30 26
f 26 30 31 27
f 27 31 32 28
f 29 25 28 32
