# KioskColumn_V2
o KioskColumn_V2
v -1.392737 0.285302 0.975000
v 0.702148 0.138814 0.975000
v 1.068528 10.037369 0.975000
v -0.377939 10.138515 0.975000
v -1.392737 0.285302 -0.975000
v 0.702148 0.138814 -0.975000
v 1.068528 10.037369 -0.975000
v -0.377939 10.138515 -0.975000
v -1.425000 0.000000 -1.350000
v 1.425000 0.000000 -1.350000
v 1.425000 0.800000 -1.350000
v -1.425000 0.800000 -1.350000
v -1.425000 0.000000 1.350000
v 1.425000 0.000000 1.350000
v 1.425000 0.800000 1.350000
v -1.425000 0.800000 1.350000
v 1.450000 0.370000 0.000000
v 1.450000 -0.010000 0.000000
v 1.413645 0.370000 0.322655
v 1.413645 -0.010000 0.322655
v 1.306405 0.370000 0.629131
v 1.306405 -0.010000 0.629131
v 1.133656 0.370000 0.904060
v 1.133656 -0.010000 0.904060
v 0.904060 0.370000 1.133656
v 0.904060 -0.010000 1.133656
v 0.629131 0.370000 1.306405
v 0.629131 -0.010000 1.306405
v 0.322655 0.370000 1.413645
v 0.322655 -0.010000 1.413645
v 0.000000 0.370000 1.450000
v 0.000000 -0.010000 1.450000
v -0.322655 0.370000 1.413645
v -0.322655 -0.010000 1.413645
v -0.629131 0.370000 1.306405
v -0.629131 -0.010000 1.306405
v -0.904060 0.370000 1.133656
v -0.904060 -0.010000 1.133656
v -1.133656 0.370000 0.904060
v -1.133656 -0.010000 0.904060
v -1.306405 0.370000 0.629131
v -1.306405 -0.010000 0.629131
v -1.413645 0.370000 0.322655
v -1.413645 -0.010000 0.322655
v -1.450000 0.370000 0.000000
v -1.450000 -0.010000 0.000000
v -1.413645 0.370000 -0.322655
v -1.413645 -0.010000 -0.322655
v -1.306405 0.370000 -0.629131
v -1.306405 -0.010000 -0.629131
v -1.133656 0.370000 -0.904060
v -1.133656 -0.010000 -0.904060
v -0.904060 0.370000 -1.133656
v -0.904060 -0.010000 -1.133656
v -0.629131 0.370000 -1.306405
v -0.629131 -0.010000 -1.306405
v -0.322655 0.370000 -1.413645
v -0.322655 -0.010000 -1.413645
v -0.000000 0.370000 -1.450000
v -0.000000 -0.010000 -1.450000
v 0.322655 0.370000 -1.413645
v 0.322655 -0.010000 -1.413645
v 0.629131 0.370000 -1.306405
v 0.629131 -0.010000 -1.306405
v 0.904060 0.370000 -1.133656
v 0.904060 -0.010000 -1.133656
v 1.133656 0.370000 -0.904060
v 1.133656 -0.010000 -0.904060
v 1.306405 0.370000 -0.629131
v 1.306405 -0.010000 -0.629131
v 1.413645 0.370000 -0.322655
v 1.413645 -0.010000 -0.322655
v 0.000000 0.370000 0.000000
v 0.000000 -0.010000 0.000000
v -0.900000 9.940000 -0.825000
v 0.900000 9.940000 -0.825000
v 0.900000 10.360000 -0.825000
v -0.900000 10.360000 -0.825000
v -0.900000 9.940000 0.825000
v 0.900000 9.940000 0.825000
v 0.900000 10.360000 0.825000
v -0.900000 10.360000 0.825000
v 0.820000 10.600000 0.000000
v 0.820000 10.320000 0.000000
v 0.792059 10.600000 0.212232
v 0.792059 10.320000 0.212232
v 0.710141 10.600000 0.410000
v 0.710141 10.320000 0.410000
v 0.579828 10.600000 0.579828
v 0.579828 10.320000 0.579828
v 0.410000 10.600000 0.710141
v 0.410000 10.320000 0.710141
v 0.212232 10.600000 0.792059
v 0.212232 10.320000 0.792059
v 0.000000 10.600000 0.820000
v 0.000000 10.320000 0.820000
v -0.212232 10.600000 0.792059
v -0.212232 10.320000 0.792059
v -0.410000 10.600000 0.710141
v -0.410000 10.320000 0.710141
v -0.579828 10.600000 0.579828
v -0.579828 10.320000 0.579828
v -0.710141 10.600000 0.410000
v -0.710141 10.320000 0.410000
v -0.792059 10.600000 0.212232
v -0.792059 10.320000 0.212232
v -0.820000 10.600000 0.000000
v -0.820000 10.320000 0.000000
v -0.792059 10.600000 -0.212232
v -0.792059 10.320000 -0.212232
v -0.710141 10.600000 -0.410000
v -0.710141 10.320000 -0.410000
v -0.579828 10.600000 -0.579828
v -0.579828 10.320000 -0.579828
v -0.410000 10.600000 -0.710141
v -0.410000 10.320000 -0.710141
v -0.212232 10.600000 -0.792059
v -0.212232 10.320000 -0.792059
v -0.000000 10.600000 -0.820000
v -0.000000 10.320000 -0.820000
v 0.212232 10.600000 -0.792059
v 0.212232 10.320000 -0.792059
v 0.410000 10.600000 -0.710141
v 0.410000 10.320000 -0.710141
v 0.579828 10.600000 -0.579828
v 0.579828 10.320000 -0.579828
v 0.710141 10.600000 -0.410000
v 0.710141 10.320000 -0.410000
v 0.792059 10.600000 -0.212232
v 0.792059 10.320000 -0.212232
v 0.000000 10.600000 0.000000
v 0.000000 10.320000 0.000000
f 1 2 3 4
f 8 7 6 5
f 5 6 2 1
f 6 7 3 2
f 7 8 4 3
f 8 5 1 4
f 9 10 11 12
f 13 16 15 14
f 9 13 14 10
f 10 14 15 11
f 11 15 16 12
f 13 9 12 16
f 18 20 19 17
f 73 17 19
f 74 20 18
f 20 22 21 19
f 73 19 21
f 74 22 20
f 22 24 23 21
f 73 21 23
f 74 24 22
f 24 26 25 23
f 73 23 25
f 74 26 24
f 26 28 27 25
f 73 25 27
f 74 28 26
f 28 30 29 27
f 73 27 29
f 74 30 28
f 30 32 31 29
f 73 29 31
f 74 32 30
f 32 34 33 31
f 73 31 33
f 74 34 32
f 34 36 35 33
f 73 33 35
f 74 36 34
f 36 38 37 35
f 73 35 37
f 74 38 36
f 38 40 39 37
f 73 37 39
f 74 40 38
f 40 42 41 39
f 73 39 41
f 74 42 40
f 42 44 43 41
f 73 41 43
f 74 44 42
f 44 46 45 43
f 73 43 45
f 74 46 44
f 46 48 47 45
f 73 45 47
f 74 48 46
f 48 50 49 47
f 73 47 49
f 74 50 48
f 50 52 51 49
f 73 49 51
f 74 52 50
f 52 54 53 51
f 73 51 53
f 74 54 52
f 54 56 55 53
f 73 53 55
f 74 56 54
f 56 58 57 55
f 73 55 57
f 74 58 56
f 58 60 59 57
f 73 57 59
f 74 60 58
f 60 62 61 59
f 73 59 61
f 74 62 60
f 62 64 63 61
f 73 61 63
f 74 64 62
f 64 66 65 63
f 73 63 65
f 74 66 64
f 66 68 67 65
f 73 65 67
f 74 68 66
f 68 70 69 67
f 73 67 69
f 74 70 68
f 70 72 71 69
f 73 69 71
f 74 72 70
f 72 18 17 71
f 73 71 17
f 74 18 72
f 75 76 77 78
f 79 82 81 80
f 75 79 80 76
f 76 80 81 77
f 77 81 82 78
f 79 75 78 82
f 84 86 85 83
f 131 83 85
f 132 86 84
f 86 88 87 85
f 131 85 87
f 132 88 86
f 88 90 89 87
f 131 87 89
f 132 90 88
f 90 92 91 89
f 131 89 91
f 132 92 90
f 92 94 93 91
f 131 91 93
f 132 94 92
f 94 96 95 93
f 131 93 95
f 132 96 94
f 96 98 97 95
f 131 95 97
f 132 98 96
f 98 100 99 97
f 131 97 99
f 132 100 98
f 100 102 101 99
f 131 99 101
f 132 102 100
f 102 104 103 101
f 131 101 103
f 132 104 102
f 104 106 105 103
f 131 103 105
f 132 106 104
f 106 108 107 105
f 131 105 107
f 132 108 106
f 108 110 109 107
f 131 107 109
f 132 110 108
f 110 112 111 109
f 131 109 111
f 132 112 110
f 112 114 113 111
f 131 111 113
f 132 114 112
f 114 116 115 113
f 131 113 115
f 132 116 114
f 116 118 117 115
f 131 115 117
f 132 118 116
f 118 120 119 117
f 131 117 119
f 132 120 118
f 120 122 121 119
f 131 119 121
f 132 122 120
f 122 124 123 121
f 131 121 123
f 132 124 122
f 124 126 125 123
f 131 123 125
f 132 126 124
f 126 128 127 125
f 131 125 127
f 132 128 126
f 128 130 129 127
f 131 127 129
f 132 130 128
f 130 84 83 129
f 131 129 83
f 132 84 130
