# MainSign_V2
o MainSign_V2
v 9.400000 1.700000 0.625000
v 9.392140 1.839956 0.625000
v 9.368660 1.978151 0.625000
v 9.329854 2.112849 0.625000
v 9.276211 2.242355 0.625000
v 9.208405 2.365040 0.625000
v 9.127289 2.479362 0.625000
v 9.033883 2.583883 0.625000
v 8.929362 2.677289 0.625000
v 8.815040 2.758405 0.625000
v 8.692355 2.826211 0.625000
v 8.562849 2.879854 0.625000
v 8.428151 2.918660 0.625000
v 8.289956 2.942140 0.625000
v 8.150000 2.950000 0.625000
v -8.150000 2.950000 0.625000
v -8.289956 2.942140 0.625000
v -8.428151 2.918660 0.625000
v -8.562849 2.879854 0.625000
v -8.692355 2.826211 0.625000
v -8.815040 2.758405 0.625000
v -8.929362 2.677289 0.625000
v -9.033883 2.583883 0.625000
v -9.127289 2.479362 0.625000
v -9.208405 2.365040 0.625000
v -9.276211 2.242355 0.625000
v -9.329854 2.112849 0.625000
v -9.368660 1.978151 0.625000
v -9.392140 1.839956 0.625000
v -9.400000 1.700000 0.625000
v -9.400000 -1.700000 0.625000
v -9.392140 -1.839956 0.625000
v -9.368660 -1.978151 0.625000
v -9.329854 -2.112849 0.625000
v -9.276211 -2.242355 0.625000
v -9.208405 -2.365040 0.625000
v -9.127289 -2.479362 0.625000
v -9.033883 -2.583883 0.625000
v -8.929362 -2.677289 0.625000
v -8.815040 -2.758405 0.625000
v -8.692355 -2.826211 0.625000
v -8.562849 -2.879854 0.625000
v -8.428151 -2.918660 0.625000
v -8.289956 -2.942140 0.625000
v -8.150000 -2.950000 0.625000
v 8.150000 -2.950000 0.625000
v 8.289956 -2.942140 0.625000
v 8.428151 -2.918660 0.625000
v 8.562849 -2.879854 0.625000
v 8.692355 -2.826211 0.625000
v 8.815040 -2.758405 0.625000
v 8.929362 -2.677289 0.625000
v 9.033883 -2.583883 0.625000
v 9.127289 -2.479362 0.625000
v 9.208405 -2.365040 0.625000
v 9.276211 -2.242355 0.625000
v 9.329854 -2.112849 0.625000
v 9.368660 -1.978151 0.625000
v 9.392140 -1.839956 0.625000
v 9.400000 -1.700000 0.625000
v 9.400000 1.700000 -0.625000
v 9.392140 1.839956 -0.625000
v 9.368660 1.978151 -0.625000
v 9.329854 2.112849 -0.625000
v 9.276211 2.242355 -0.625000
v 9.208405 2.365040 -0.625000
v 9.127289 2.479362 -0.625000
v 9.033883 2.583883 -0.625000
v 8.929362 2.677289 -0.625000
v 8.815040 2.758405 -0.625000
v 8.692355 2.826211 -0.625000
v 8.562849 2.879854 -0.625000
v 8.428151 2.918660 -0.625000
v 8.289956 2.942140 -0.625000
v 8.150000 2.950000 -0.625000
v -8.150000 2.950000 -0.625000
v -8.289956 2.942140 -0.625000
v -8.428151 2.918660 -0.625000
v -8.562849 2.879854 -0.625000
v -8.692355 2.826211 -0.625000
v -8.815040 2.758405 -0.625000
v -8.929362 2.677289 -0.625000
v -9.033883 2.583883 -0.625000
v -9.127289 2.479362 -0.625000
v -9.208405 2.365040 -0.625000
v -9.276211 2.242355 -0.625000
v -9.329854 2.112849 -0.625000
v -9.368660 1.978151 -0.625000
v -9.392140 1.839956 -0.625000
v -9.400000 1.700000 -0.625000
v -9.400000 -1.700000 -0.625000
v -9.392140 -1.839956 -0.625000
v -9.368660 -1.978151 -0.625000
v -9.329854 -2.112849 -0.625000
v -9.276211 -2.242355 -0.625000
v -9.208405 -2.365040 -0.625000
v -9.127289 -2.479362 -0.625000
v -9.033883 -2.583883 -0.625000
v -8.929362 -2.677289 -0.625000
v -8.815040 -2.758405 -0.625000
v -8.692355 -2.826211 -0.625000
v -8.562849 -2.879854 -0.625000
v -8.428151 -2.918660 -0.625000
v -8.289956 -2.942140 -0.625000
v -8.150000 -2.950000 -0.625000
v 8.150000 -2.950000 -0.625000
v 8.289956 -2.942140 -0.625000
v 8.428151 -2.918660 -0.625000
v 8.562849 -2.879854 -0.625000
v 8.692355 -2.826211 -0.625000
v 8.815040 -2.758405 -0.625000
v 8.929362 -2.677289 -0.625000
v 9.033883 -2.583883 -0.625000
v 9.127289 -2.479362 -0.625000
v 9.208405 -2.365040 -0.625000
v 9.276211 -2.242355 -0.625000
v 9.329854 -2.112849 -0.625000
v 9.368660 -1.978151 -0.625000
v 9.392140 -1.839956 -0.625000
v 9.400000 -1.700000 -0.625000
v -0.000000 0.000000 0.625000
v -0.000000 0.000000 -0.625000
v -8.350000 1.990000 0.795000
v 8.350000 1.990000 0.795000
v 8.950000 2.770000 0.795000
v -8.950000 2.770000 0.795000
v -8.350000 1.990000 -0.755000
v 8.350000 1.990000 -0.755000
v 8.950000 2.770000 -0.755000
v -8.950000 2.770000 -0.755000
v -7.800000 -0.475000 0.105000
v 7.800000 -0.475000 0.105000
v 7.800000 0.075000 0.105000
v -7.800000 0.075000 0.105000
v -7.800000 -0.475000 0.655000
v 7.800000 -0.475000 0.655000
v 7.800000 0.075000 0.655000
v -7.800000 0.075000 0.655000
v -7.300000 2.120000 0.630000
v -7.062736 2.072805 0.630000
v -7.108050 2.072805 0.769460
v -7.226681 2.072805 0.855651
v -7.373319 2.072805 0.855651
v -7.491950 2.072805 0.769460
v -7.537264 2.072805 0.630000
v -7.491950 2.072805 0.490540
v -7.373319 2.072805 0.404349
v -7.226681 2.072805 0.404349
v -7.108050 2.072805 0.490540
v -6.861594 1.938406 0.630000
v -6.945322 1.938406 0.887689
v -7.164525 1.938406 1.046949
v -7.435475 1.938406 1.046949
v -7.654678 1.938406 0.887689
v -7.738406 1.938406 0.630000
v -7.654678 1.938406 0.372311
v -7.435475 1.938406 0.213051
v -7.164525 1.938406 0.213051
v -6.945322 1.938406 0.372311
v -6.727195 1.737264 0.630000
v -6.836591 1.737264 0.966687
v -7.122993 1.737264 1.174770
v -7.477007 1.737264 1.174770
v -7.763409 1.737264 0.966687
v -7.872805 1.737264 0.630000
v -7.763409 1.737264 0.293313
v -7.477007 1.737264 0.085230
v -7.122993 1.737264 0.085230
v -6.836591 1.737264 0.293313
v -6.680000 1.500000 0.630000
v -6.798409 1.500000 0.994427
v -7.108409 1.500000 1.219655
v -7.491591 1.500000 1.219655
v -7.801591 1.500000 0.994427
v -7.920000 1.500000 0.630000
v -7.801591 1.500000 0.265573
v -7.491591 1.500000 0.040345
v -7.108409 1.500000 0.040345
v -6.798409 1.500000 0.265573
v -6.727195 1.262736 0.630000
v -6.836591 1.262736 0.966687
v -7.122993 1.262736 1.174770
v -7.477007 1.262736 1.174770
v -7.763409 1.262736 0.966687
v -7.872805 1.262736 0.630000
v -7.763409 1.262736 0.293313
v -7.477007 1.262736 0.085230
v -7.122993 1.262736 0.085230
v -6.836591 1.262736 0.293313
v -6.861594 1.061594 0.630000
v -6.945322 1.061594 0.887689
v -7.164525 1.061594 1.046949
v -7.435475 1.061594 1.046949
v -7.654678 1.061594 0.887689
v -7.738406 1.061594 0.630000
v -7.654678 1.061594 0.372311
v -7.435475 1.061594 0.213051
v -7.164525 1.061594 0.213051
v -6.945322 1.061594 0.372311
v -7.062736 0.927195 0.630000
v -7.108050 0.927195 0.769460
v -7.226681 0.927195 0.855651
v -7.373319 0.927195 0.855651
v -7.491950 0.927195 0.769460
v -7.537264 0.927195 0.630000
v -7.491950 0.927195 0.490540
v -7.373319 0.927195 0.404349
v -7.226681 0.927195 0.404349
v -7.108050 0.927195 0.490540
v -7.300000 0.880000 0.630000
v -8.400000 0.240000 0.630000
v -8.269888 0.214119 0.630000
v -8.294737 0.214119 0.706478
v -8.359793 0.214119 0.753744
v -8.440207 0.214119 0.753744
v -8.505263 0.214119 0.706478
v -8.530112 0.214119 0.630000
v -8.505263 0.214119 0.553522
v -8.440207 0.214119 0.506256
v -8.359793 0.214119 0.506256
v -8.294737 0.214119 0.553522
v -8.159584 0.140416 0.630000
v -8.205499 0.140416 0.771313
v -8.325707 0.140416 0.858649
v -8.474293 0.140416 0.858649
v -8.594501 0.140416 0.771313
v -8.640416 0.140416 0.630000
v -8.594501 0.140416 0.488687
v -8.474293 0.140416 0.401351
v -8.325707 0.140416 0.401351
v -8.205499 0.140416 0.488687
v -8.085881 0.030112 0.630000
v -8.145872 0.030112 0.814635
v -8.302932 0.030112 0.928745
v -8.497068 0.030112 0.928745
v -8.654128 0.030112 0.814635
v -8.714119 0.030112 0.630000
v -8.654128 0.030112 0.445365
v -8.497068 0.030112 0.331255
v -8.302932 0.030112 0.331255
v -8.145872 0.030112 0.445365
v -8.060000 -0.100000 0.630000
v -8.124934 -0.100000 0.829847
v -8.294934 -0.100000 0.953359
v -8.505066 -0.100000 0.953359
v -8.675066 -0.100000 0.829847
v -8.740000 -0.100000 0.630000
v -8.675066 -0.100000 0.430153
v -8.505066 -0.100000 0.306641
v -8.294934 -0.100000 0.306641
v -8.124934 -0.100000 0.430153
v -8.085881 -0.230112 0.630000
v -8.145872 -0.230112 0.814635
v -8.302932 -0.230112 0.928745
v -8.497068 -0.230112 0.928745
v -8.654128 -0.230112 0.814635
v -8.714119 -0.230112 0.630000
v -8.654128 -0.230112 0.445365
v -8.497068 -0.230112 0.331255
v -8.302932 -0.230112 0.331255
v -8.145872 -0.230112 0.445365
v -8.159584 -0.340416 0.630000
v -8.205499 -0.340416 0.771313
v -8.325707 -0.340416 0.858649
v -8.474293 -0.340416 0.858649
v -8.594501 -0.340416 0.771313
v -8.640416 -0.340416 0.630000
v -8.594501 -0.340416 0.488687
v -8.474293 -0.340416 0.401351
v -8.325707 -0.340416 0.401351
v -8.205499 -0.340416 0.488687
v -8.269888 -0.414119 0.630000
v -8.294737 -0.414119 0.706478
v -8.359793 -0.414119 0.753744
v -8.440207 -0.414119 0.753744
v -8.505263 -0.414119 0.706478
v -8.530112 -0.414119 0.630000
v -8.505263 -0.414119 0.553522
v -8.440207 -0.414119 0.506256
v -8.359793 -0.414119 0.506256
v -8.294737 -0.414119 0.553522
v -8.400000 -0.440000 0.630000
v 7.350000 2.000000 0.630000
v 7.587264 1.952805 0.630000
v 7.541950 1.952805 0.769460
v 7.423319 1.952805 0.855651
v 7.276681 1.952805 0.855651
v 7.158050 1.952805 0.769460
v 7.112736 1.952805 0.630000
v 7.158050 1.952805 0.490540
v 7.276681 1.952805 0.404349
v 7.423319 1.952805 0.404349
v 7.541950 1.952805 0.490540
v 7.788406 1.818406 0.630000
v 7.704678 1.818406 0.887689
v 7.485475 1.818406 1.046949
v 7.214525 1.818406 1.046949
v 6.995322 1.818406 0.887689
v 6.911594 1.818406 0.630000
v 6.995322 1.818406 0.372311
v 7.214525 1.818406 0.213051
v 7.485475 1.818406 0.213051
v 7.704678 1.818406 0.372311
v 7.922805 1.617264 0.630000
v 7.813409 1.617264 0.966687
v 7.527007 1.617264 1.174770
v 7.172993 1.617264 1.174770
v 6.886591 1.617264 0.966687
v 6.777195 1.617264 0.630000
v 6.886591 1.617264 0.293313
v 7.172993 1.617264 0.085230
v 7.527007 1.617264 0.085230
v 7.813409 1.617264 0.293313
v 7.970000 1.380000 0.630000
v 7.851591 1.380000 0.994427
v 7.541591 1.380000 1.219655
v 7.158409 1.380000 1.219655
v 6.848409 1.380000 0.994427
v 6.730000 1.380000 0.630000
v 6.848409 1.380000 0.265573
v 7.158409 1.380000 0.040345
v 7.541591 1.380000 0.040345
v 7.851591 1.380000 0.265573
v 7.922805 1.142736 0.630000
v 7.813409 1.142736 0.966687
v 7.527007 1.142736 1.174770
v 7.172993 1.142736 1.174770
v 6.886591 1.142736 0.966687
v 6.777195 1.142736 0.630000
v 6.886591 1.142736 0.293313
v 7.172993 1.142736 0.085230
v 7.527007 1.142736 0.085230
v 7.813409 1.142736 0.293313
v 7.788406 0.941594 0.630000
v 7.704678 0.941594 0.887689
v 7.485475 0.941594 1.046949
v 7.214525 0.941594 1.046949
v 6.995322 0.941594 0.887689
v 6.911594 0.941594 0.630000
v 6.995322 0.941594 0.372311
v 7.214525 0.941594 0.213051
v 7.485475 0.941594 0.213051
v 7.704678 0.941594 0.372311
v 7.587264 0.807195 0.630000
v 7.541950 0.807195 0.769460
v 7.423319 0.807195 0.855651
v 7.276681 0.807195 0.855651
v 7.158050 0.807195 0.769460
v 7.112736 0.807195 0.630000
v 7.158050 0.807195 0.490540
v 7.276681 0.807195 0.404349
v 7.423319 0.807195 0.404349
v 7.541950 0.807195 0.490540
v 7.350000 0.760000 0.630000
v 8.300000 0.190000 0.630000
v 8.430112 0.164119 0.630000
v 8.405263 0.164119 0.706478
v 8.340207 0.164119 0.753744
v 8.259793 0.164119 0.753744
v 8.194737 0.164119 0.706478
v 8.169888 0.164119 0.630000
v 8.194737 0.164119 0.553522
v 8.259793 0.164119 0.506256
v 8.340207 0.164119 0.506256
v 8.405263 0.164119 0.553522
v 8.540416 0.090416 0.630000
v 8.494501 0.090416 0.771313
v 8.374293 0.090416 0.858649
v 8.225707 0.090416 0.858649
v 8.105499 0.090416 0.771313
v 8.059584 0.090416 0.630000
v 8.105499 0.090416 0.488687
v 8.225707 0.090416 0.401351
v 8.374293 0.090416 0.401351
v 8.494501 0.090416 0.488687
v 8.614119 -0.019888 0.630000
v 8.554128 -0.019888 0.814635
v 8.397068 -0.019888 0.928745
v 8.202932 -0.019888 0.928745
v 8.045872 -0.019888 0.814635
v 7.985881 -0.019888 0.630000
v 8.045872 -0.019888 0.445365
v 8.202932 -0.019888 0.331255
v 8.397068 -0.019888 0.331255
v 8.554128 -0.019888 0.445365
v 8.640000 -0.150000 0.630000
v 8.575066 -0.150000 0.829847
v 8.405066 -0.150000 0.953359
v 8.194934 -0.150000 0.953359
v 8.024934 -0.150000 0.829847
v 7.960000 -0.150000 0.630000
v 8.024934 -0.150000 0.430153
v 8.194934 -0.150000 0.306641
v 8.405066 -0.150000 0.306641
v 8.575066 -0.150000 0.430153
v 8.614119 -0.280112 0.630000
v 8.554128 -0.280112 0.814635
v 8.397068 -0.280112 0.928745
v 8.202932 -0.280112 0.928745
v 8.045872 -0.280112 0.814635
v 7.985881 -0.280112 0.630000
v 8.045872 -0.280112 0.445365
v 8.202932 -0.280112 0.331255
v 8.397068 -0.280112 0.331255
v 8.554128 -0.280112 0.445365
v 8.540416 -0.390416 0.630000
v 8.494501 -0.390416 0.771313
v 8.374293 -0.390416 0.858649
v 8.225707 -0.390416 0.858649
v 8.105499 -0.390416 0.771313
v 8.059584 -0.390416 0.630000
v 8.105499 -0.390416 0.488687
v 8.225707 -0.390416 0.401351
v 8.374293 -0.390416 0.401351
v 8.494501 -0.390416 0.488687
v 8.430112 -0.464119 0.630000
v 8.405263 -0.464119 0.706478
v 8.340207 -0.464119 0.753744
v 8.259793 -0.464119 0.753744
v 8.194737 -0.464119 0.706478
v 8.169888 -0.464119 0.630000
v 8.194737 -0.464119 0.553522
v 8.259793 -0.464119 0.506256
v 8.340207 -0.464119 0.506256
v 8.405263 -0.464119 0.553522
v 8.300000 -0.490000 0.630000
v 6.350000 -0.710000 0.630000
v 6.441844 -0.728269 0.630000
v 6.424303 -0.728269 0.683985
v 6.378381 -0.728269 0.717349
v 6.321619 -0.728269 0.717349
v 6.275697 -0.728269 0.683985
v 6.258156 -0.728269 0.630000
v 6.275697 -0.728269 0.576015
v 6.321619 -0.728269 0.542651
v 6.378381 -0.728269 0.542651
v 6.424303 -0.728269 0.576015
v 6.519706 -0.780294 0.630000
v 6.487295 -0.780294 0.729750
v 6.402442 -0.780294 0.791400
v 6.297558 -0.780294 0.791400
v 6.212705 -0.780294 0.729750
v 6.180294 -0.780294 0.630000
v 6.212705 -0.780294 0.530250
v 6.297558 -0.780294 0.468600
v 6.402442 -0.780294 0.468600
v 6.487295 -0.780294 0.530250
v 6.571731 -0.858156 0.630000
v 6.529384 -0.858156 0.760330
v 6.418519 -0.858156 0.840879
v 6.281481 -0.858156 0.840879
v 6.170616 -0.858156 0.760330
v 6.128269 -0.858156 0.630000
v 6.170616 -0.858156 0.499670
v 6.281481 -0.858156 0.419121
v 6.418519 -0.858156 0.419121
v 6.529384 -0.858156 0.499670
v 6.590000 -0.950000 0.630000
v 6.544164 -0.950000 0.771068
v 6.424164 -0.950000 0.858254
v 6.275836 -0.950000 0.858254
v 6.155836 -0.950000 0.771068
v 6.110000 -0.950000 0.630000
v 6.155836 -0.950000 0.488932
v 6.275836 -0.950000 0.401746
v 6.424164 -0.950000 0.401746
v 6.544164 -0.950000 0.488932
v 6.571731 -1.041844 0.630000
v 6.529384 -1.041844 0.760330
v 6.418519 -1.041844 0.840879
v 6.281481 -1.041844 0.840879
v 6.170616 -1.041844 0.760330
v 6.128269 -1.041844 0.630000
v 6.170616 -1.041844 0.499670
v 6.281481 -1.041844 0.419121
v 6.418519 -1.041844 0.419121
v 6.529384 -1.041844 0.499670
v 6.519706 -1.119706 0.630000
v 6.487295 -1.119706 0.729750
v 6.402442 -1.119706 0.791400
v 6.297558 -1.119706 0.791400
v 6.212705 -1.119706 0.729750
v 6.180294 -1.119706 0.630000
v 6.212705 -1.119706 0.530250
v 6.297558 -1.119706 0.468600
v 6.402442 -1.119706 0.468600
v 6.487295 -1.119706 0.530250
v 6.441844 -1.171731 0.630000
v 6.424303 -1.171731 0.683985
v 6.378381 -1.171731 0.717349
v 6.321619 -1.171731 0.717349
v 6.275697 -1.171731 0.683985
v 6.258156 -1.171731 0.630000
v 6.275697 -1.171731 0.576015
v 6.321619 -1.171731 0.542651
v 6.378381 -1.171731 0.542651
v 6.424303 -1.171731 0.576015
v 6.350000 -1.190000 0.630000
v -6.200000 -0.760000 0.630000
v -6.108156 -0.778269 0.630000
v -6.125697 -0.778269 0.683985
v -6.171619 -0.778269 0.717349
v -6.228381 -0.778269 0.717349
v -6.274303 -0.778269 0.683985
v -6.291844 -0.778269 0.630000
v -6.274303 -0.778269 0.576015
v -6.228381 -0.778269 0.542651
v -6.171619 -0.778269 0.542651
v -6.125697 -0.778269 0.576015
v -6.030294 -0.830294 0.630000
v -6.062705 -0.830294 0.729750
v -6.147558 -0.830294 0.791400
v -6.252442 -0.830294 0.791400
v -6.337295 -0.830294 0.729750
v -6.369706 -0.830294 0.630000
v -6.337295 -0.830294 0.530250
v -6.252442 -0.830294 0.468600
v -6.147558 -0.830294 0.468600
v -6.062705 -0.830294 0.530250
v -5.978269 -0.908156 0.630000
v -6.020616 -0.908156 0.760330
v -6.131481 -0.908156 0.840879
v -6.268519 -0.908156 0.840879
v -6.379384 -0.908156 0.760330
v -6.421731 -0.908156 0.630000
v -6.379384 -0.908156 0.499670
v -6.268519 -0.908156 0.419121
v -6.131481 -0.908156 0.419121
v -6.020616 -0.908156 0.499670
v -5.960000 -1.000000 0.630000
v -6.005836 -1.000000 0.771068
v -6.125836 -1.000000 0.858254
v -6.274164 -1.000000 0.858254
v -6.394164 -1.000000 0.771068
v -6.440000 -1.000000 0.630000
v -6.394164 -1.000000 0.488932
v -6.274164 -1.000000 0.401746
v -6.125836 -1.000000 0.401746
v -6.005836 -1.000000 0.488932
v -5.978269 -1.091844 0.630000
v -6.020616 -1.091844 0.760330
v -6.131481 -1.091844 0.840879
v -6.268519 -1.091844 0.840879
v -6.379384 -1.091844 0.760330
v -6.421731 -1.091844 0.630000
v -6.379384 -1.091844 0.499670
v -6.268519 -1.091844 0.419121
v -6.131481 -1.091844 0.419121
v -6.020616 -1.091844 0.499670
v -6.030294 -1.169706 0.630000
v -6.062705 -1.169706 0.729750
v -6.147558 -1.169706 0.791400
v -6.252442 -1.169706 0.791400
v -6.337295 -1.169706 0.729750
v -6.369706 -1.169706 0.630000
v -6.337295 -1.169706 0.530250
v -6.252442 -1.169706 0.468600
v -6.147558 -1.169706 0.468600
v -6.062705 -1.169706 0.530250
v -6.108156 -1.221731 0.630000
v -6.125697 -1.221731 0.683985
v -6.171619 -1.221731 0.717349
v -6.228381 -1.221731 0.717349
v -6.274303 -1.221731 0.683985
v -6.291844 -1.221731 0.630000
v -6.274303 -1.221731 0.576015
v -6.228381 -1.221731 0.542651
v -6.171619 -1.221731 0.542651
v -6.125697 -1.221731 0.576015
v -6.200000 -1.240000 0.630000
f 121 1 2
f 122 62 61
f 61 62 2 1
f 121 2 3
f 122 63 62
f 62 63 3 2
f 121 3 4
f 122 64 63
f 63 64 4 3
f 121 4 5
f 122 65 64
f 64 65 5 4
f 121 5 6
f 122 66 65
f 65 66 6 5
f 121 6 7
f 122 67 66
f 66 67 7 6
f 121 7 8
f 122 68 67
f 67 68 8 7
f 121 8 9
f 122 69 68
f 68 69 9 8
f 121 9 10
f 122 70 69
f 69 70 10 9
f 121 10 11
f 122 71 70
f 70 71 11 10
f 121 11 12
f 122 72 71
f 71 72 12 11
f 121 12 13
f 122 73 72
f 72 73 13 12
f 121 13 14
f 122 74 73
f 73 74 14 13
f 121 14 15
f 122 75 74
f 74 75 15 14
f 121 15 16
f 122 76 75
f 75 76 16 15
f 121 16 17
f 122 77 76
f 76 77 17 16
f 121 17 18
f 122 78 77
f 77 78 18 17
f 121 18 19
f 122 79 78
f 78 79 19 18
f 121 19 20
f 122 80 79
f 79 80 20 19
f 121 20 21
f 122 81 80
f 80 81 21 20
f 121 21 22
f 122 82 81
f 81 82 22 21
f 121 22 23
f 122 83 82
f 82 83 23 22
f 121 23 24
f 122 84 83
f 83 84 24 23
f 121 24 25
f 122 85 84
f 84 85 25 24
f 121 25 26
f 122 86 85
f 85 86 26 25
f 121 26 27
f 122 87 86
f 86 87 27 26
f 121 27 28
f 122 88 87
f 87 88 28 27
f 121 28 29
f 122 89 88
f 88 89 29 28
f 121 29 30
f 122 90 89
f 89 90 30 29
f 121 30 31
f 122 91 90
f 90 91 31 30
f 121 31 32
f 122 92 91
f 91 92 32 31
f 121 32 33
f 122 93 92
f 92 93 33 32
f 121 33 34
f 122 94 93
f 93 94 34 33
f 121 34 35
f 122 95 94
f 94 95 35 34
f 121 35 36
f 122 96 95
f 95 96 36 35
f 121 36 37
f 122 97 96
f 96 97 37 36
f 121 37 38
f 122 98 97
f 97 98 38 37
f 121 38 39
f 122 99 98
f 98 99 39 38
f 121 39 40
f 122 100 99
f 99 100 40 39
f 121 40 41
f 122 101 100
f 100 101 41 40
f 121 41 42
f 122 102 101
f 101 102 42 41
f 121 42 43
f 122 103 102
f 102 103 43 42
f 121 43 44
f 122 104 103
f 103 104 44 43
f 121 44 45
f 122 105 104
f 104 105 45 44
f 121 45 46
f 122 106 105
f 105 106 46 45
f 121 46 47
f 122 107 106
f 106 107 47 46
f 121 47 48
f 122 108 107
f 107 108 48 47
f 121 48 49
f 122 109 108
f 108 109 49 48
f 121 49 50
f 122 110 109
f 109 110 50 49
f 121 50 51
f 122 111 110
f 110 111 51 50
f 121 51 52
f 122 112 111
f 111 112 52 51
f 121 52 53
f 122 113 112
f 112 113 53 52
f 121 53 54
f 122 114 113
f 113 114 54 53
f 121 54 55
f 122 115 114
f 114 115 55 54
f 121 55 56
f 122 116 115
f 115 116 56 55
f 121 56 57
f 122 117 116
f 116 117 57 56
f 121 57 58
f 122 118 117
f 117 118 58 57
f 121 58 59
f 122 119 118
f 118 119 59 58
f 121 59 60
f 122 120 119
f 119 120 60 59
f 121 60 1
f 122 61 120
f 120 61 1 60
f 123 124 125 126
f 130 129 128 127
f 127 128 124 123
f 128 129 125 124
f 129 130 126 125
f 130 127 123 126
f 131 132 133 134
f 135 138 137 136
f 131 135 136 132
f 132 136 137 133
f 133 137 138 134
f 135 131 134 138
f 139 140 141
f 139 141 142
f 139 142 143
f 139 143 144
f 139 144 145
f 139 145 146
f 139 146 147
f 139 147 148
f 139 148 149
f 139 149 140
f 140 141 151 150
f 141 142 152 151
f 142 143 153 152
f 143 144 154 153
f 144 145 155 154
f 145 146 156 155
f 146 147 157 156
f 147 148 158 157
f 148 149 159 158
f 149 140 150 159
f 150 151 161 160
f 151 152 162 161
f 152 153 163 162
f 153 154 164 163
f 154 155 165 164
f 155 156 166 165
f 156 157 167 166
f 157 158 168 167
f 158 159 169 168
f 159 150 160 169
f 160 161 171 170
f 161 162 172 171
f 162 163 173 172
f 163 164 174 173
f 164 165 175 174
f 165 166 176 175
f 166 167 177 176
f 167 168 178 177
f 168 169 179 178
f 169 160 170 179
f 170 171 181 180
f 171 172 182 181
f 172 173 183 182
f 173 174 184 183
f 174 175 185 184
f 175 176 186 185
f 176 177 187 186
f 177 178 188 187
f 178 179 189 188
f 179 170 180 189
f 180 181 191 190
f 181 182 192 191
f 182 183 193 192
f 183 184 194 193
f 184 185 195 194
f 185 186 196 195
f 186 187 197 196
f 187 188 198 197
f 188 189 199 198
f 189 180 190 199
f 190 191 201 200
f 191 192 202 201
f 192 193 203 202
f 193 194 204 203
f 194 195 205 204
f 195 196 206 205
f 196 197 207 206
f 197 198 208 207
f 198 199 209 208
f 199 190 200 209
f 210 201 200
f 210 202 201
f 210 203 202
f 210 204 203
f 210 205 204
f 210 206 205
f 210 207 206
f 210 208 207
f 210 209 208
f 210 200 209
f 211 212 213
f 211 213 214
f 211 214 215
f 211 215 216
f 211 216 217
f 211 217 218
f 211 218 219
f 211 219 220
f 211 220 221
f 211 221 212
f 212 213 223 222
f 213 214 224 223
f 214 215 225 224
f 215 216 226 225
f 216 217 227 226
f 217 218 228 227
f 218 219 229 228
f 219 220 230 229
f 220 221 231 230
f 221 212 222 231
f 222 223 233 232
f 223 224 234 233
f 224 225 235 234
f 225 226 236 235
f 226 227 237 236
f 227 228 238 237
f 228 229 239 238
f 229 230 240 239
f 230 231 241 240
f 231 222 232 241
f 232 233 243 242
f 233 234 244 243
f 234 235 245 244
f 235 236 246 245
f 236 237 247 246
f 237 238 248 247
f 238 239 249 248
f 239 240 250 249
f 240 241 251 250
f 241 232 242 251
f 242 243 253 252
f 243 244 254 253
f 244 245 255 254
f 245 246 256 255
f 246 247 257 256
f 247 248 258 257
f 248 249 259 258
f 249 250 260 259
f 250 251 261 260
f 251 242 252 261
f 252 253 263 262
f 253 254 264 263
f 254 255 265 264
f 255 256 266 265
f 256 257 267 266
f 257 258 268 267
f 258 259 269 268
f 259 260 270 269
f 260 261 271 270
f 261 252 262 271
f 262 263 273 272
f 263 264 274 273
f 264 265 275 274
f 265 266 276 275
f 266 267 277 276
f 267 268 278 277
f 268 269 279 278
f 269 270 280 279
f 270 271 281 280
f 271 262 272 281
f 282 273 272
f 282 274 273
f 282 275 274
f 282 276 275
f 282 277 276
f 282 278 277
f 282 279 278
f 282 280 279
f 282 281 280
f 282 272 281
f 283 284 285
f 283 285 286
f 283 286 287
f 283 287 288
f 283 288 289
f 283 289 290
f 283 290 291
f 283 291 292
f 283 292 293
f 283 293 284
f 284 285 295 294
f 285 286 296 295
f 286 287 297 296
f 287 288 298 297
f 288 289 299 298
f 289 290 300 299
f 290 291 301 300
f 291 292 302 301
f 292 293 303 302
f 293 284 294 303
f 294 295 305 304
f 295 296 306 305
f 296 297 307 306
f 297 298 308 307
f 298 299 309 308
f 299 300 310 309
f 300 301 311 310
f 301 302 312 311
f 302 303 313 312
f 303 294 304 313
f 304 305 315 314
f 305 306 316 315
f 306 307 317 316
f 307 308 318 317
f 308 309 319 318
f 309 310 320 319
f 310 311 321 320
f 311 312 322 321
f 312 313 323 322
f 313 304 314 323
f 314 315 325 324
f 315 316 326 325
f 316 317 327 326
f 317 318 328 327
f 318 319 329 328
f 319 320 330 329
f 320 321 331 330
f 321 322 332 331
f 322 323 333 332
f 323 314 324 333
f 324 325 335 334
f 325 326 336 335
f 326 327 337 336
f 327 328 338 337
f 328 329 339 338
f 329 330 340 339
f 330 331 341 340
f 331 332 342 341
f 332 333 343 342
f 333 324 334 343
f 334 335 345 344
f 335 336 346 345
f 336 337 347 346
f 337 338 348 347
f 338 339 349 348
f 339 340 350 349
f 340 341 351 350
f 341 342 352 351
f 342 343 353 352
f 343 334 344 353
f 354 345 344
f 354 346 345
f 354 347 346
f 354 348 347
f 354 349 348
f 354 350 349
f 354 351 350
f 354 352 351
f 354 353 352
f 354 344 353
f 355 356 357
f 355 357 358
f 355 358 359
f 355 359 360
f 355 360 361
f 355 361 362
f 355 362 363
f 355 363 364
f 355 364 365
f 355 365 356
f 356 357 367 366
f 357 358 368 367
f 358 359 369 368
f 359 360 370 369
f 360 361 371 370
f 361 362 372 371
f 362 363 373 372
f 363 364 374 373
f 364 365 375 374
f 365 356 366 375
f 366 367 377 376
f 367 368 378 377
f 368 369 379 378
f 369 370 380 379
f 370 371 381 380
f 371 372 382 381
f 372 373 383 382
f 373 374 384 383
f 374 375 385 384
f 375 366 376 385
f 376 377 387 386
f 377 378 388 387
f 378 379 389 388
f 379 380 390 389
f 380 381 391 390
f 381 382 392 391
f 382 383 393 392
f 383 384 394 393
f 384 385 395 394
f 385 376 386 395
f 386 387 397 396
f 387 388 398 397
f 388 389 399 398
f 389 390 400 399
f 390 391 401 400
f 391 392 402 401
f 392 393 403 402
f 393 394 404 403
f 394 395 405 404
f 395 386 396 405
f 396 397 407 406
f 397 398 408 407
f 398 399 409 408
f 399 400 410 409
f 400 401 411 410
f 401 402 412 411
f 402 403 413 412
f 403 404 414 413
f 404 405 415 414
f 405 396 406 415
f 406 407 417 416
f 407 408 418 417
f 408 409 419 418
f 409 410 420 419
f 410 411 421 420
f 411 412 422 421
f 412 413 423 422
f 413 414 424 423
f 414 415 425 424
f 415 406 416 425
f 426 417 416
f 426 418 417
f 426 419 418
f 426 420 419
f 426 421 420
f 426 422 421
f 426 423 422
f 426 424 423
f 426 425 424
f 426 416 425
f 427 428 429
f 427 429 430
f 427 430 431
f 427 431 432
f 427 432 433
f 427 433 434
f 427 434 435
f 427 435 436
f 427 436 437
f 427 437 428
f 428 429 439 438
f 429 430 440 439
f 430 431 441 440
f 431 432 442 441
f 432 433 443 442
f 433 434 444 443
f 434 435 445 444
f 435 436 446 445
f 436 437 447 446
f 437 428 438 447
f 438 439 449 448
f 439 440 450 449
f 440 441 451 450
f 441 442 452 451
f 442 443 453 452
f 443 444 454 453
f 444 445 455 454
f 445 446 456 455
f 446 447 457 456
f 447 438 448 457
f 448 449 459 458
f 449 450 460 459
f 450 451 461 460
f 451 452 462 461
f 452 453 463 462
f 453 454 464 463
f 454 455 465 464
f 455 456 466 465
f 456 457 467 466
f 457 448 458 467
f 458 459 469 468
f 459 460 470 469
f 460 461 471 470
f 461 462 472 471
f 462 463 473 472
f 463 464 474 473
f 464 465 475 474
f 465 466 476 475
f 466 467 477 476
f 467 458 468 477
f 468 469 479 478
f 469 470 480 479
f 470 471 481 480
f 471 472 482 481
f 472 473 483 482
f 473 474 484 483
f 474 475 485 484
f 475 476 486 485
f 476 477 487 486
f 477 468 478 487
f 478 479 489 488
f 479 480 490 489
f 480 481 491 490
f 481 482 492 491
f 482 483 493 492
f 483 484 494 493
f 484 485 495 494
f 485 486 496 495
f 486 487 497 496
f 487 478 488 497
f 498 489 488
f 498 490 489
f 498 491 490
f 498 492 491
f 498 493 492
f 498 494 493
f 498 495 494
f 498 496 495
f 498 497 496
f 498 488 497
f 499 500 501
f 499 501 502
f 499 502 503
f 499 503 504
f 499 504 505
f 499 505 506
f 499 506 507
f 499 507 508
f 499 508 509
f 499 509 500
f 500 501 511 510
f 501 502 512 511
f 502 503 513 512
f 503 504 514 513
f 504 505 515 514
f 505 506 516 515
f 506 507 517 516
f 507 508 518 517
f 508 509 519 518
f 509 500 510 519
f 510 511 521 520
f 511 512 522 521
f 512 513 523 522
f 513 514 524 523
f 514 515 525 524
f 515 516 526 525
f 516 517 527 526
f 517 518 528 527
f 518 519 529 528
f 519 510 520 529
f 520 521 531 530
f 521 522 532 531
f 522 523 533 532
f 523 524 534 533
f 524 525 535 534
f 525 526 536 535
f 526 527 537 536
f 527 528 538 537
f 528 529 539 538
f 529 520 530 539
f 530 531 541 540
f 531 532 542 541
f 532 533 543 542
f 533 534 544 543
f 534 535 545 544
f 535 536 546 545
f 536 537 547 546
f 537 538 548 547
f 538 539 549 548
f 539 530 540 549
f 540 541 551 550
f 541 542 552 551
f 542 543 553 552
f 543 544 554 553
f 544 545 555 554
f 545 546 556 555
f 546 547 557 556
f 547 548 558 557
f 548 549 559 558
f 549 540 550 559
f 550 551 561 560
f 551 552 562 561
f 552 553 563 562
f 553 554 564 563
f 554 555 565 564
f 555 556 566 565
f 556 557 567 566
f 557 558 568 567
f 558 559 569 568
f 559 550 560 569
f 570 561 560
f 570 562 561
f 570 563 562
f 570 564 563
f 570 565 564
f 570 566 565
f 570 567 566
f 570 568 567
f 570 569 568
f 570 560 569
