# RoofCanopy_V2
o RoofCanopy_V2
v 12.900000 4.700000 0.625000
v 12.886457 4.872078 0.625000
v 12.846162 5.039919 0.625000
v 12.780107 5.199390 0.625000
v 12.689919 5.346564 0.625000
v 12.577817 5.477817 0.625000
v 12.446564 5.589919 0.625000
v 12.299390 5.680107 0.625000
v 12.139919 5.746162 0.625000
v 11.972078 5.786457 0.625000
v 11.800000 5.800000 0.625000
v -11.800000 5.800000 0.625000
v -11.972078 5.786457 0.625000
v -12.139919 5.746162 0.625000
v -12.299390 5.680107 0.625000
v -12.446564 5.589919 0.625000
v -12.577817 5.477817 0.625000
v -12.689919 5.346564 0.625000
v -12.780107 5.199390 0.625000
v -12.846162 5.039919 0.625000
v -12.886457 4.872078 0.625000
v -12.900000 4.700000 0.625000
v -12.900000 -4.700000 0.625000
v -12.886457 -4.872078 0.625000
v -12.846162 -5.039919 0.625000
v -12.780107 -5.199390 0.625000
v -12.689919 -5.346564 0.625000
v -12.577817 -5.477817 0.625000
v -12.446564 -5.589919 0.625000
v -12.299390 -5.680107 0.625000
v -12.139919 -5.746162 0.625000
v -11.972078 -5.786457 0.625000
v -11.800000 -5.800000 0.625000
v 11.800000 -5.800000 0.625000
v 11.972078 -5.786457 0.625000
v 12.139919 -5.746162 0.625000
v 12.299390 -5.680107 0.625000
v 12.446564 -5.589919 0.625000
v 12.577817 -5.477817 0.625000
v 12.689919 -5.346564 0.625000
v 12.780107 -5.199390 0.625000
v 12.846162 -5.039919 0.625000
v 12.886457 -4.872078 0.625000
v 12.900000 -4.700000 0.625000
v 12.900000 4.700000 -0.625000
v 12.886457 4.872078 -0.625000
v 12.846162 5.039919 -0.625000
v 12.780107 5.199390 -0.625000
v 12.689919 5.346564 -0.625000
v 12.577817 5.477817 -0.625000
v 12.446564 5.589919 -0.625000
v 12.299390 5.680107 -0.625000
v 12.139919 5.746162 -0.625000
v 11.972078 5.786457 -0.625000
v 11.800000 5.800000 -0.625000
v -11.800000 5.800000 -0.625000
v -11.972078 5.786457 -0.625000
v -12.139919 5.746162 -0.625000
v -12.299390 5.680107 -0.625000
v -12.446564 5.589919 -0.625000
v -12.577817 5.477817 -0.625000
v -12.689919 5.346564 -0.625000
v -12.780107 5.199390 -0.625000
v -12.846162 5.039919 -0.625000
v -12.886457 4.872078 -0.625000
v -12.900000 4.700000 -0.625000
v -12.900000 -4.700000 -0.625000
v -12.886457 -4.872078 -0.625000
v -12.846162 -5.039919 -0.625000
v -12.780107 -5.199390 -0.625000
v -12.689919 -5.346564 -0.625000
v -12.577817 -5.477817 -0.625000
v -12.446564 -5.589919 -0.625000
v -12.299390 -5.680107 -0.625000
v -12.139919 -5.746162 -0.625000
v -11.972078 -5.786457 -0.625000
v -11.800000 -5.800000 -0.625000
v 11.800000 -5.800000 -0.625000
v 11.972078 -5.786457 -0.625000
v 12.139919 -5.746162 -0.625000
v 12.299390 -5.680107 -0.625000
v 12.446564 -5.589919 -0.625000
v 12.577817 -5.477817 -0.625000
v 12.689919 -5.346564 -0.625000
v 12.780107 -5.199390 -0.625000
v 12.846162 -5.039919 -0.625000
v 12.886457 -4.872078 -0.625000
v 12.900000 -4.700000 -0.625000
v -0.000000 0.000000 0.625000
v -0.000000 0.000000 -0.625000
v 12.350000 3.910000 0.260000
v 12.338920 4.050791 0.260000
v 12.305951 4.188115 0.260000
v 12.251906 4.318591 0.260000
v 12.178115 4.439007 0.260000
v 12.086396 4.546396 0.260000
v 11.979007 4.638115 0.260000
v 11.858591 4.711906 0.260000
v 11.728115 4.765951 0.260000
v 11.590791 4.798920 0.260000
v 11.450000 4.810000 0.260000
v -11.450000 4.810000 0.260000
v -11.590791 4.798920 0.260000
v -11.728115 4.765951 0.260000
v -11.858591 4.711906 0.260000
v -11.979007 4.638115 0.260000
v -12.086396 4.546396 0.260000
v -12.178115 4.439007 0.260000
v -12.251906 4.318591 0.260000
v -12.305951 4.188115 0.260000
v -12.338920 4.050791 0.260000
v -12.350000 3.910000 0.260000
v -12.350000 -4.790000 0.260000
v -12.338920 -4.930791 0.260000
v -12.305951 -5.068115 0.260000
v -12.251906 -5.198591 0.260000
v -12.178115 -5.319007 0.260000
v -12.086396 -5.426396 0.260000
v -11.979007 -5.518115 0.260000
v -11.858591 -5.591906 0.260000
v -11.728115 -5.645951 0.260000
v -11.590791 -5.678920 0.260000
v -11.450000 -5.690000 0.260000
v 11.450000 -5.690000 0.260000
v 11.590791 -5.678920 0.260000
v 11.728115 -5.645951 0.260000
v 11.858591 -5.591906 0.260000
v 11.979007 -5.518115 0.260000
v 12.086396 -5.426396 0.260000
v 12.178115 -5.319007 0.260000
v 12.251906 -5.198591 0.260000
v 12.305951 -5.068115 0.260000
v 12.338920 -4.930791 0.260000
v 12.350000 -4.790000 0.260000
v 12.350000 3.910000 -0.160000
v 12.338920 4.050791 -0.160000
v 12.305951 4.188115 -0.160000
v 12.251906 4.318591 -0.160000
v 12.178115 4.439007 -0.160000
v 12.086396 4.546396 -0.160000
v 11.979007 4.638115 -0.160000
v 11.858591 4.711906 -0.160000
v 11.728115 4.765951 -0.160000
v 11.590791 4.798920 -0.160000
v 11.450000 4.810000 -0.160000
v -11.450000 4.810000 -0.160000
v -11.590791 4.798920 -0.160000
v -11.728115 4.765951 -0.160000
v -11.858591 4.711906 -0.160000
v -11.979007 4.638115 -0.160000
v -12.086396 4.546396 -0.160000
v -12.178115 4.439007 -0.160000
v -12.251906 4.318591 -0.160000
v -12.305951 4.188115 -0.160000
v -12.338920 4.050791 -0.160000
v -12.350000 3.910000 -0.160000
v -12.350000 -4.790000 -0.160000
v -12.338920 -4.930791 -0.160000
v -12.305951 -5.068115 -0.160000
v -12.251906 -5.198591 -0.160000
v -12.178115 -5.319007 -0.160000
v -12.086396 -5.426396 -0.160000
v -11.979007 -5.518115 -0.160000
v -11.858591 -5.591906 -0.160000
v -11.728115 -5.645951 -0.160000
v -11.590791 -5.678920 -0.160000
v -11.450000 -5.690000 -0.160000
v 11.450000 -5.690000 -0.160000
v 11.590791 -5.678920 -0.160000
v 11.728115 -5.645951 -0.160000
v 11.858591 -5.591906 -0.160000
v 11.979007 -5.518115 -0.160000
v 12.086396 -5.426396 -0.160000
v 12.178115 -5.319007 -0.160000
v 12.251906 -5.198591 -0.160000
v 12.305951 -5.068115 -0.160000
v 12.338920 -4.930791 -0.160000
v 12.350000 -4.790000 -0.160000
v -0.000000 -0.440000 0.260000
v -0.000000 -0.440000 -0.160000
v 13.300000 4.270000 0.110000
v 13.285718 4.451464 0.110000
v 13.243226 4.628460 0.110000
v 13.173568 4.796629 0.110000
v 13.078460 4.951831 0.110000
v 12.960244 5.090244 0.110000
v 12.821831 5.208460 0.110000
v 12.666629 5.303568 0.110000
v 12.498460 5.373226 0.110000
v 12.321464 5.415718 0.110000
v 12.140000 5.430000 0.110000
v -12.140000 5.430000 0.110000
v -12.321464 5.415718 0.110000
v -12.498460 5.373226 0.110000
v -12.666629 5.303568 0.110000
v -12.821831 5.208460 0.110000
v -12.960244 5.090244 0.110000
v -13.078460 4.951831 0.110000
v -13.173568 4.796629 0.110000
v -13.243226 4.628460 0.110000
v -13.285718 4.451464 0.110000
v -13.300000 4.270000 0.110000
v -13.300000 -5.710000 0.110000
v -13.285718 -5.891464 0.110000
v -13.243226 -6.068460 0.110000
v -13.173568 -6.236629 0.110000
v -13.078460 -6.391831 0.110000
v -12.960244 -6.530244 0.110000
v -12.821831 -6.648460 0.110000
v -12.666629 -6.743568 0.110000
v -12.498460 -6.813226 0.110000
v -12.321464 -6.855718 0.110000
v -12.140000 -6.870000 0.110000
v 12.140000 -6.870000 0.110000
v 12.321464 -6.855718 0.110000
v 12.498460 -6.813226 0.110000
v 12.666629 -6.743568 0.110000
v 12.821831 -6.648460 0.110000
v 12.960244 -6.530244 0.110000
v 13.078460 -6.391831 0.110000
v 13.173568 -6.236629 0.110000
v 13.243226 -6.068460 0.110000
v 13.285718 -5.891464 0.110000
v 13.300000 -5.710000 0.110000
v 13.300000 4.270000 -0.110000
v 13.285718 4.451464 -0.110000
v 13.243226 4.628460 -0.110000
v 13.173568 4.796629 -0.110000
v 13.078460 4.951831 -0.110000
v 12.960244 5.090244 -0.110000
v 12.821831 5.208460 -0.110000
v 12.666629 5.303568 -0.110000
v 12.498460 5.373226 -0.110000
v 12.321464 5.415718 -0.110000
v 12.140000 5.430000 -0.110000
v -12.140000 5.430000 -0.110000
v -12.321464 5.415718 -0.110000
v -12.498460 5.373226 -0.110000
v -12.666629 5.303568 -0.110000
v -12.821831 5.208460 -0.110000
v -12.960244 5.090244 -0.110000
v -13.078460 4.951831 -0.110000
v -13.173568 4.796629 -0.110000
v -13.243226 4.628460 -0.110000
v -13.285718 4.451464 -0.110000
v -13.300000 4.270000 -0.110000
v -13.300000 -5.710000 -0.110000
v -13.285718 -5.891464 -0.110000
v -13.243226 -6.068460 -0.110000
v -13.173568 -6.236629 -0.110000
v -13.078460 -6.391831 -0.110000
v -12.960244 -6.530244 -0.110000
v -12.821831 -6.648460 -0.110000
v -12.666629 -6.743568 -0.110000
v -12.498460 -6.813226 -0.110000
v -12.321464 -6.855718 -0.110000
v -12.140000 -6.870000 -0.110000
v 12.140000 -6.870000 -0.110000
v 12.321464 -6.855718 -0.110000
v 12.498460 -6.813226 -0.110000
v 12.666629 -6.743568 -0.110000
v 12.821831 -6.648460 -0.110000
v 12.960244 -6.530244 -0.110000
v 13.078460 -6.391831 -0.110000
v 13.173568 -6.236629 -0.110000
v 13.243226 -6.068460 -0.110000
v 13.285718 -5.891464 -0.110000
v 13.300000 -5.710000 -0.110000
v -0.000000 -0.720000 0.110000
v -0.000000 -0.720000 -0.110000
v 12.950000 -0.375000 2.400000
v 12.950000 -0.375000 -2.400000
v 12.950000 0.775000 -1.100000
v 12.950000 0.775000 1.100000
v 8.950000 -0.375000 2.400000
v 8.950000 -0.375000 -2.400000
v 8.950000 0.775000 -1.100000
v 8.950000 0.775000 1.100000
v -12.950000 -0.375000 -2.400000
v -12.950000 -0.375000 2.400000
v -12.950000 0.775000 1.100000
v -12.950000 0.775000 -1.100000
v -8.950000 -0.375000 -2.400000
v -8.950000 -0.375000 2.400000
v -8.950000 0.775000 1.100000
v -8.950000 0.775000 -1.100000
v -11.500000 -0.300000 -3.950000
v 11.500000 -0.300000 -3.950000
v 10.600000 0.700000 -3.950000
v -10.600000 0.700000 -3.950000
v -11.500000 -0.300000 -5.750000
v 11.500000 -0.300000 -5.750000
v 10.600000 0.700000 -5.750000
v -10.600000 0.700000 -5.750000
f 89 1 2
f 90 46 45
f 45 46 2 1
f 89 2 3
f 90 47 46
f 46 47 3 2
f 89 3 4
f 90 48 47
f 47 48 4 3
f 89 4 5
f 90 49 48
f 48 49 5 4
f 89 5 6
f 90 50 49
f 49 50 6 5
f 89 6 7
f 90 51 50
f 50 51 7 6
f 89 7 8
f 90 52 51
f 51 52 8 7
f 89 8 9
f 90 53 52
f 52 53 9 8
f 89 9 10
f 90 54 53
f 53 54 10 9
f 89 10 11
f 90 55 54
f 54 55 11 10
f 89 11 12
f 90 56 55
f 55 56 12 11
f 89 12 13
f 90 57 56
f 56 57 13 12
f 89 13 14
f 90 58 57
f 57 58 14 13
f 89 14 15
f 90 59 58
f 58 59 15 14
f 89 15 16
f 90 60 59
f 59 60 16 15
f 89 16 17
f 90 61 60
f 60 61 17 16
f 89 17 18
f 90 62 61
f 61 62 18 17
f 89 18 19
f 90 63 62
f 62 63 19 18
f 89 19 20
f 90 64 63
f 63 64 20 19
f 89 20 21
f 90 65 64
f 64 65 21 20
f 89 21 22
f 90 66 65
f 65 66 22 21
f 89 22 23
f 90 67 66
f 66 67 23 22
f 89 23 24
f 90 68 67
f 67 68 24 23
f 89 24 25
f 90 69 68
f 68 69 25 24
f 89 25 26
f 90 70 69
f 69 70 26 25
f 89 26 27
f 90 71 70
f 70 71 27 26
f 89 27 28
f 90 72 71
f 71 72 28 27
f 89 28 29
f 90 73 72
f 72 73 29 28
f 89 29 30
f 90 74 73
f 73 74 30 29
f 89 30 31
f 90 75 74
f 74 75 31 30
f 89 31 32
f 90 76 75
f 75 76 32 31
f 89 32 33
f 90 77 76
f 76 77 33 32
f 89 33 34
f 90 78 77
f 77 78 34 33
f 89 34 35
f 90 79 78
f 78 79 35 34
f 89 35 36
f 90 80 79
f 79 80 36 35
f 89 36 37
f 90 81 80
f 80 81 37 36
f 89 37 38
f 90 82 81
f 81 82 38 37
f 89 38 39
f 90 83 82
f 82 83 39 38
f 89 39 40
f 90 84 83
f 83 84 40 39
f 89 40 41
f 90 85 84
f 84 85 41 40
f 89 41 42
f 90 86 85
f 85 86 42 41
f 89 42 43
f 90 87 86
f 86 87 43 42
f 89 43 44
f 90 88 87
f 87 88 44 43
f 89 44 1
f 90 45 88
f 88 45 1 44
f 179 91 92
f 180 136 135
f 135 136 92 91
f 179 92 93
f 180 137 136
f 136 137 93 92
f 179 93 94
f 180 138 137
f 137 138 94 93
f 179 94 95
f 180 139 138
f 138 139 95 94
f 179 95 96
f 180 140 139
f 139 140 96 95
f 179 96 97
f 180 141 140
f 140 141 97 96
f 179 97 98
f 180 142 141
f 141 142 98 97
f 179 98 99
f 180 143 142
f 142 143 99 98
f 179 99 100
f 180 144 143
f 143 144 100 99
f 179 100 101
f 180 145 144
f 144 145 101 100
f 179 101 102
f 180 146 145
f 145 146 102 101
f 179 102 103
f 180 147 146
f 146 147 103 102
f 179 103 104
f 180 148 147
f 147 148 104 103
f 179 104 105
f 180 149 148
f 148 149 105 104
f 179 105 106
f 180 150 149
f 149 150 106 105
f 179 106 107
f 180 151 150
f 150 151 107 106
f 179 107 108
f 180 152 151
f 151 152 108 107
f 179 108 109
f 180 153 152
f 152 153 109 108
f 179 109 110
f 180 154 153
f 153 154 110 109
f 179 110 111
f 180 155 154
f 154 155 111 110
f 179 111 112
f 180 156 155
f 155 156 112 111
f 179 112 113
f 180 157 156
f 156 157 113 112
f 179 113 114
f 180 158 157
f 157 158 114 113
f 179 114 115
f 180 159 158
f 158 159 115 114
f 179 115 116
f 180 160 159
f 159 160 116 115
f 179 116 117
f 180 161 160
f 160 161 117 116
f 179 117 118
f 180 162 161
f 161 162 118 117
f 179 118 119
f 180 163 162
f 162 163 119 118
f 179 119 120
f 180 164 163
f 163 164 120 119
f 179 120 121
f 180 165 164
f 164 165 121 120
f 179 121 122
f 180 166 165
f 165 166 122 121
f 179 122 123
f 180 167 166
f 166 167 123 122
f 179 123 124
f 180 168 167
f 167 168 124 123
f 179 124 125
f 180 169 168
f 168 169 125 124
f 179 125 126
f 180 170 169
f 169 170 126 125
f 179 126 127
f 180 171 170
f 170 171 127 126
f 179 127 128
f 180 172 171
f 171 172 128 127
f 179 128 129
f 180 173 172
f 172 173 129 128
f 179 129 130
f 180 174 173
f 173 174 130 129
f 179 130 131
f 180 175 174
f 174 175 131 130
f 179 131 132
f 180 176 175
f 175 176 132 131
f 179 132 133
f 180 177 176
f 176 177 133 132
f 179 133 134
f 180 178 177
f 177 178 134 133
f 179 134 91
f 180 135 178
f 178 135 91 134
f 269 181 182
f 270 226 225
f 225 226 182 181
f 269 182 183
f 270 227 226
f 226 227 183 182
f 269 183 184
f 270 228 227
f 227 228 184 183
f 269 184 185
f 270 229 228
f 228 229 185 184
f 269 185 186
f 270 230 229
f 229 230 186 185
f 269 186 187
f 270 231 230
f 230 231 187 186
f 269 187 188
f 270 232 231
f 231 232 188 187
f 269 188 189
f 270 233 232
f 232 233 189 188
f 269 189 190
f 270 234 233
f 233 234 190 189
f 269 190 191
f 270 235 234
f 234 235 191 190
f 269 191 192
f 270 236 235
f 235 236 192 191
f 269 192 193
f 270 237 236
f 236 237 193 192
f 269 193 194
f 270 238 237
f 237 238 194 193
f 269 194 195
f 270 239 238
f 238 239 195 194
f 269 195 196
f 270 240 239
f 239 240 196 195
f 269 196 197
f 270 241 240
f 240 241 197 196
f 269 197 198
f 270 242 241
f 241 242 198 197
f 269 198 199
f 270 243 242
f 242 243 199 198
f 269 199 200
f 270 244 243
f 243 244 200 199
f 269 200 201
f 270 245 244
f 244 245 201 200
f 269 201 202
f 270 246 245
f 245 246 202 201
f 269 202 203
f 270 247 246
f 246 247 203 202
f 269 203 204
f 270 248 247
f 247 248 204 203
f 269 204 205
f 270 249 248
f 248 249 205 204
f 269 205 206
f 270 250 249
f 249 250 206 205
f 269 206 207
f 270 251 250
f 250 251 207 206
f 269 207 208
f 270 252 251
f 251 252 208 207
f 269 208 209
f 270 253 252
f 252 253 209 208
f 269 209 210
f 270 254 253
f 253 254 210 209
f 269 210 211
f 270 255 254
f 254 255 211 210
f 269 211 212
f 270 256 255
f 255 256 212 211
f 269 212 213
f 270 257 256
f 256 257 213 212
f 269 213 214
f 270 258 257
f 257 258 214 213
f 269 214 215
f 270 259 258
f 258 259 215 214
f 269 215 216
f 270 260 259
f 259 260 216 215
f 269 216 217
f 270 261 260
f 260 261 217 216
f 269 217 218
f 270 262 261
f 261 262 218 217
f 269 218 219
f 270 263 262
f 262 263 219 218
f 269 219 220
f 270 264 263
f 263 264 220 219
f 269 220 221
f 270 265 264
f 264 265 221 220
f 269 221 222
f 270 266 265
f 265 266 222 221
f 269 222 223
f 270 267 266
f 266 267 223 222
f 269 223 224
f 270 268 267
f 267 268 224 223
f 269 224 181
f 270 225 268
f 268 225 181 224
f 271 272 273 274
f 278 277 276 275
f 275 276 272 271
f 276 277 273 272
f 277 278 274 273
f 278 275 271 274
f 279 280 281 282
f 286 285 284 283
f 283 284 280 279
f 284 285 281 280
f 285 286 282 281
f 286 283 279 282
f 287 288 289 290
f 294 293 292 291
f 291 292 288 287
f 292 293 289 288
f 293 294 290 289
f 294 291 287 290
