# SellPad_V2
o SellPad_V2
v 8.900000 3.600000 0.170000
v 8.892728 3.710947 0.170000
v 8.871037 3.819996 0.170000
v 8.835298 3.925281 0.170000
v 8.786122 4.025000 0.170000
v 8.724350 4.117447 0.170000
v 8.651041 4.201041 0.170000
v 8.567447 4.274350 0.170000
v 8.475000 4.336122 0.170000
v 8.375281 4.385298 0.170000
v 8.269996 4.421037 0.170000
v 8.160947 4.442728 0.170000
v 8.050000 4.450000 0.170000
v -8.050000 4.450000 0.170000
v -8.160947 4.442728 0.170000
v -8.269996 4.421037 0.170000
v -8.375281 4.385298 0.170000
v -8.475000 4.336122 0.170000
v -8.567447 4.274350 0.170000
v -8.651041 4.201041 0.170000
v -8.724350 4.117447 0.170000
v -8.786122 4.025000 0.170000
v -8.835298 3.925281 0.170000
v -8.871037 3.819996 0.170000
v -8.892728 3.710947 0.170000
v -8.900000 3.600000 0.170000
v -8.900000 -3.600000 0.170000
v -8.892728 -3.710947 0.170000
v -8.871037 -3.819996 0.170000
v -8.835298 -3.925281 0.170000
v -8.786122 -4.025000 0.170000
v -8.724350 -4.117447 0.170000
v -8.651041 -4.201041 0.170000
v -8.567447 -4.274350 0.170000
v -8.475000 -4.336122 0.170000
v -8.375281 -4.385298 0.170000
v -8.269996 -4.421037 0.170000
v -8.160947 -4.442728 0.170000
v -8.050000 -4.450000 0.170000
v 8.050000 -4.450000 0.170000
v 8.160947 -4.442728 0.170000
v 8.269996 -4.421037 0.170000
v 8.375281 -4.385298 0.170000
v 8.475000 -4.336122 0.170000
v 8.567447 -4.274350 0.170000
v 8.651041 -4.201041 0.170000
v 8.724350 -4.117447 0.170000
v 8.786122 -4.025000 0.170000
v 8.835298 -3.925281 0.170000
v 8.871037 -3.819996 0.170000
v 8.892728 -3.710947 0.170000
v 8.900000 -3.600000 0.170000
v 8.900000 3.600000 -0.170000
v 8.892728 3.710947 -0.170000
v 8.871037 3.819996 -0.170000
v 8.835298 3.925281 -0.170000
v 8.786122 4.025000 -0.170000
v 8.724350 4.117447 -0.170000
v 8.651041 4.201041 -0.170000
v 8.567447 4.274350 -0.170000
v 8.475000 4.336122 -0.170000
v 8.375281 4.385298 -0.170000
v 8.269996 4.421037 -0.170000
v 8.160947 4.442728 -0.170000
v 8.050000 4.450000 -0.170000
v -8.050000 4.450000 -0.170000
v -8.160947 4.442728 -0.170000
v -8.269996 4.421037 -0.170000
v -8.375281 4.385298 -0.170000
v -8.475000 4.336122 -0.170000
v -8.567447 4.274350 -0.170000
v -8.651041 4.201041 -0.170000
v -8.724350 4.117447 -0.170000
v -8.786122 4.025000 -0.170000
v -8.835298 3.925281 -0.170000
v -8.871037 3.819996 -0.170000
v -8.892728 3.710947 -0.170000
v -8.900000 3.600000 -0.170000
v -8.900000 -3.600000 -0.170000
v -8.892728 -3.710947 -0.170000
v -8.871037 -3.819996 -0.170000
v -8.835298 -3.925281 -0.170000
v -8.786122 -4.025000 -0.170000
v -8.724350 -4.117447 -0.170000
v -8.651041 -4.201041 -0.170000
v -8.567447 -4.274350 -0.170000
v -8.475000 -4.336122 -0.170000
v -8.375281 -4.385298 -0.170000
v -8.269996 -4.421037 -0.170000
v -8.160947 -4.442728 -0.170000
v -8.050000 -4.450000 -0.170000
v 8.050000 -4.450000 -0.170000
v 8.160947 -4.442728 -0.170000
v 8.269996 -4.421037 -0.170000
v 8.375281 -4.385298 -0.170000
v 8.475000 -4.336122 -0.170000
v 8.567447 -4.274350 -0.170000
v 8.651041 -4.201041 -0.170000
v 8.724350 -4.117447 -0.170000
v 8.786122 -4.025000 -0.170000
v 8.835298 -3.925281 -0.170000
v 8.871037 -3.819996 -0.170000
v 8.892728 -3.710947 -0.170000
v 8.900000 -3.600000 -0.170000
v -0.000000 0.000000 0.170000
v -0.000000 0.000000 -0.170000
v 7.650000 3.125000 0.080000
v 7.644696 3.205926 0.080000
v 7.628874 3.285468 0.080000
v 7.602805 3.362264 0.080000
v 7.566936 3.435000 0.080000
v 7.521879 3.502432 0.080000
v 7.468406 3.563406 0.080000
v 7.407432 3.616879 0.080000
v 7.340000 3.661936 0.080000
v 7.267264 3.697805 0.080000
v 7.190468 3.723874 0.080000
v 7.110926 3.739696 0.080000
v 7.030000 3.745000 0.080000
v -7.030000 3.745000 0.080000
v -7.110926 3.739696 0.080000
v -7.190468 3.723874 0.080000
v -7.267264 3.697805 0.080000
v -7.340000 3.661936 0.080000
v -7.407432 3.616879 0.080000
v -7.468406 3.563406 0.080000
v -7.521879 3.502432 0.080000
v -7.566936 3.435000 0.080000
v -7.602805 3.362264 0.080000
v -7.628874 3.285468 0.080000
v -7.644696 3.205926 0.080000
v -7.650000 3.125000 0.080000
v -7.650000 -2.785000 0.080000
v -7.644696 -2.865926 0.080000
v -7.628874 -2.945468 0.080000
v -7.602805 -3.022264 0.080000
v -7.566936 -3.095000 0.080000
v -7.521879 -3.162432 0.080000
v -7.468406 -3.223406 0.080000
v -7.407432 -3.276879 0.080000
v -7.340000 -3.321936 0.080000
v -7.267264 -3.357805 0.080000
v -7.190468 -3.383874 0.080000
v -7.110926 -3.399696 0.080000
v -7.030000 -3.405000 0.080000
v 7.030000 -3.405000 0.080000
v 7.110926 -3.399696 0.080000
v 7.190468 -3.383874 0.080000
v 7.267264 -3.357805 0.080000
v 7.340000 -3.321936 0.080000
v 7.407432 -3.276879 0.080000
v 7.468406 -3.223406 0.080000
v 7.521879 -3.162432 0.080000
v 7.566936 -3.095000 0.080000
v 7.602805 -3.022264 0.080000
v 7.628874 -2.945468 0.080000
v 7.644696 -2.865926 0.080000
v 7.650000 -2.785000 0.080000
v 7.650000 3.125000 -0.080000
v 7.644696 3.205926 -0.080000
v 7.628874 3.285468 -0.080000
v 7.602805 3.362264 -0.080000
v 7.566936 3.435000 -0.080000
v 7.521879 3.502432 -0.080000
v 7.468406 3.563406 -0.080000
v 7.407432 3.616879 -0.080000
v 7.340000 3.661936 -0.080000
v 7.267264 3.697805 -0.080000
v 7.190468 3.723874 -0.080000
v 7.110926 3.739696 -0.080000
v 7.030000 3.745000 -0.080000
v -7.030000 3.745000 -0.080000
v -7.110926 3.739696 -0.080000
v -7.190468 3.723874 -0.080000
v -7.267264 3.697805 -0.080000
v -7.340000 3.661936 -0.080000
v -7.407432 3.616879 -0.080000
v -7.468406 3.563406 -0.080000
v -7.521879 3.502432 -0.080000
v -7.566936 3.435000 -0.080000
v -7.602805 3.362264 -0.080000
v -7.628874 3.285468 -0.080000
v -7.644696 3.205926 -0.080000
v -7.650000 3.125000 -0.080000
v -7.650000 -2.785000 -0.080000
v -7.644696 -2.865926 -0.080000
v -7.628874 -2.945468 -0.080000
v -7.602805 -3.022264 -0.080000
v -7.566936 -3.095000 -0.080000
v -7.521879 -3.162432 -0.080000
v -7.468406 -3.223406 -0.080000
v -7.407432 -3.276879 -0.080000
v -7.340000 -3.321936 -0.080000
v -7.267264 -3.357805 -0.080000
v -7.190468 -3.383874 -0.080000
v -7.110926 -3.399696 -0.080000
v -7.030000 -3.405000 -0.080000
v 7.030000 -3.405000 -0.080000
v 7.110926 -3.399696 -0.080000
v 7.190468 -3.383874 -0.080000
v 7.267264 -3.357805 -0.080000
v 7.340000 -3.321936 -0.080000
v 7.407432 -3.276879 -0.080000
v 7.468406 -3.223406 -0.080000
v 7.521879 -3.162432 -0.080000
v 7.566936 -3.095000 -0.080000
v 7.602805 -3.022264 -0.080000
v 7.628874 -2.945468 -0.080000
v 7.644696 -2.865926 -0.080000
v 7.650000 -2.785000 -0.080000
v -0.000000 0.170000 0.080000
v -0.000000 0.170000 -0.080000
v -4.600000 0.220000 -2.690000
v 4.600000 0.220000 -2.690000
v 4.600000 0.340000 -2.690000
v -4.600000 0.340000 -2.690000
v -4.600000 0.220000 -2.410000
v 4.600000 0.220000 -2.410000
v 4.600000 0.340000 -2.410000
v -4.600000 0.340000 -2.410000
v -4.600000 0.220000 2.410000
v 4.600000 0.220000 2.410000
v 4.600000 0.340000 2.410000
v -4.600000 0.340000 2.410000
v -4.600000 0.220000 2.690000
v 4.600000 0.220000 2.690000
v 4.600000 0.340000 2.690000
v -4.600000 0.340000 2.690000
v 1.280000 0.340000 0.000000
v 1.280000 0.260000 0.000000
v 1.252029 0.340000 0.266127
v 1.252029 0.260000 0.266127
v 1.169338 0.340000 0.520623
v 1.169338 0.260000 0.520623
v 1.035542 0.340000 0.752365
v 1.035542 0.260000 0.752365
v 0.856487 0.340000 0.951225
v 0.856487 0.260000 0.951225
v 0.640000 0.340000 1.108513
v 0.640000 0.260000 1.108513
v 0.395542 0.340000 1.217352
v 0.395542 0.260000 1.217352
v 0.133796 0.340000 1.272988
v 0.133796 0.260000 1.272988
v -0.133796 0.340000 1.272988
v -0.133796 0.260000 1.272988
v -0.395542 0.340000 1.217352
v -0.395542 0.260000 1.217352
v -0.640000 0.340000 1.108513
v -0.640000 0.260000 1.108513
v -0.856487 0.340000 0.951225
v -0.856487 0.260000 0.951225
v -1.035542 0.340000 0.752365
v -1.035542 0.260000 0.752365
v -1.169338 0.340000 0.520623
v -1.169338 0.260000 0.520623
v -1.252029 0.340000 0.266127
v -1.252029 0.260000 0.266127
v -1.280000 0.340000 0.000000
v -1.280000 0.260000 0.000000
v -1.252029 0.340000 -0.266127
v -1.252029 0.260000 -0.266127
v -1.169338 0.340000 -0.520623
v -1.169338 0.260000 -0.520623
v -1.035542 0.340000 -0.752365
v -1.035542 0.260000 -0.752365
v -0.856487 0.340000 -0.951225
v -0.856487 0.260000 -0.951225
v -0.640000 0.340000 -1.108513
v -0.640000 0.260000 -1.108513
v -0.395542 0.340000 -1.217352
v -0.395542 0.260000 -1.217352
v -0.133796 0.340000 -1.272988
v -0.133796 0.260000 -1.272988
v 0.133796 0.340000 -1.272988
v 0.133796 0.260000 -1.272988
v 0.395542 0.340000 -1.217352
v 0.395542 0.260000 -1.217352
v 0.640000 0.340000 -1.108513
v 0.640000 0.260000 -1.108513
v 0.856487 0.340000 -0.951225
v 0.856487 0.260000 -0.951225
v 1.035542 0.340000 -0.752365
v 1.035542 0.260000 -0.752365
v 1.169338 0.340000 -0.520623
v 1.169338 0.260000 -0.520623
v 1.252029 0.340000 -0.266127
v 1.252029 0.260000 -0.266127
v 0.000000 0.340000 0.000000
v 0.000000 0.260000 0.000000
v 1.100000 0.360000 0.000000
v 1.080902 0.418779 0.000000
v 1.030902 0.455106 0.000000
v 0.969098 0.455106 0.000000
v 0.919098 0.418779 0.000000
v 0.900000 0.360000 0.000000
v 0.919098 0.301221 0.000000
v 0.969098 0.264894 0.000000
v 1.030902 0.264894 0.000000
v 1.080902 0.301221 0.000000
v 1.072421 0.360000 0.244773
v 1.053801 0.418779 0.240523
v 1.005055 0.455106 0.229397
v 0.944801 0.455106 0.215645
v 0.896055 0.418779 0.204519
v 0.877435 0.360000 0.200269
v 0.896055 0.301221 0.204519
v 0.944801 0.264894 0.215645
v 1.005055 0.264894 0.229397
v 1.053801 0.301221 0.240523
v 0.991066 0.360000 0.477272
v 0.973859 0.418779 0.468986
v 0.928810 0.455106 0.447291
v 0.873127 0.455106 0.420476
v 0.828079 0.418779 0.398782
v 0.810872 0.360000 0.390495
v 0.828079 0.301221 0.398782
v 0.873127 0.264894 0.420476
v 0.928810 0.264894 0.447291
v 0.973859 0.301221 0.468986
v 0.860015 0.360000 0.685839
v 0.845083 0.418779 0.673931
v 0.805991 0.455106 0.642757
v 0.757672 0.455106 0.604223
v 0.718580 0.418779 0.573048
v 0.703648 0.360000 0.561141
v 0.718580 0.301221 0.573048
v 0.757672 0.264894 0.604223
v 0.805991 0.264894 0.642757
v 0.845083 0.301221 0.673931
v 0.685839 0.360000 0.860015
v 0.673931 0.418779 0.845083
v 0.642757 0.455106 0.805991
v 0.604223 0.455106 0.757672
v 0.573048 0.418779 0.718580
v 0.561141 0.360000 0.703648
v 0.573048 0.301221 0.718580
v 0.604223 0.264894 0.757672
v 0.642757 0.264894 0.805991
v 0.673931 0.301221 0.845083
v 0.477272 0.360000 0.991066
v 0.468986 0.418779 0.973859
v 0.447291 0.455106 0.928810
v 0.420476 0.455106 0.873127
v 0.398782 0.418779 0.828079
v 0.390495 0.360000 0.810872
v 0.398782 0.301221 0.828079
v 0.420476 0.264894 0.873127
v 0.447291 0.264894 0.928810
v 0.468986 0.301221 0.973859
v 0.244773 0.360000 1.072421
v 0.240523 0.418779 1.053801
v 0.229397 0.455106 1.005055
v 0.215645 0.455106 0.944801
v 0.204519 0.418779 0.896055
v 0.200269 0.360000 0.877435
v 0.204519 0.301221 0.896055
v 0.215645 0.264894 0.944801
v 0.229397 0.264894 1.005055
v 0.240523 0.301221 1.053801
v 0.000000 0.360000 1.100000
v 0.000000 0.418779 1.080902
v 0.000000 0.455106 1.030902
v 0.000000 0.455106 0.969098
v 0.000000 0.418779 0.919098
v 0.000000 0.360000 0.900000
v 0.000000 0.301221 0.919098
v 0.000000 0.264894 0.969098
v 0.000000 0.264894 1.030902
v 0.000000 0.301221 1.080902
v -0.244773 0.360000 1.072421
v -0.240523 0.418779 1.053801
v -0.229397 0.455106 1.005055
v -0.215645 0.455106 0.944801
v -0.204519 0.418779 0.896055
v -0.200269 0.360000 0.877435
v -0.204519 0.301221 0.896055
v -0.215645 0.264894 0.944801
v -0.229397 0.264894 1.005055
v -0.240523 0.301221 1.053801
v -0.477272 0.360000 0.991066
v -0.468986 0.418779 0.973859
v -0.447291 0.455106 0.928810
v -0.420476 0.455106 0.873127
v -0.398782 0.418779 0.828079
v -0.390495 0.360000 0.810872
v -0.398782 0.301221 0.828079
v -0.420476 0.264894 0.873127
v -0.447291 0.264894 0.928810
v -0.468986 0.301221 0.973859
v -0.685839 0.360000 0.860015
v -0.673931 0.418779 0.845083
v -0.642757 0.455106 0.805991
v -0.604223 0.455106 0.757672
v -0.573048 0.418779 0.718580
v -0.561141 0.360000 0.703648
v -0.573048 0.301221 0.718580
v -0.604223 0.264894 0.757672
v -0.642757 0.264894 0.805991
v -0.673931 0.301221 0.845083
v -0.860015 0.360000 0.685839
v -0.845083 0.418779 0.673931
v -0.805991 0.455106 0.642757
v -0.757672 0.455106 0.604223
v -0.718580 0.418779 0.573048
v -0.703648 0.360000 0.561141
v -0.718580 0.301221 0.573048
v -0.757672 0.264894 0.604223
v -0.805991 0.264894 0.642757
v -0.845083 0.301221 0.673931
v -0.991066 0.360000 0.477272
v -0.973859 0.418779 0.468986
v -0.928810 0.455106 0.447291
v -0.873127 0.455106 0.420476
v -0.828079 0.418779 0.398782
v -0.810872 0.360000 0.390495
v -0.828079 0.301221 0.398782
v -0.873127 0.264894 0.420476
v -0.928810 0.264894 0.447291
v -0.973859 0.301221 0.468986
v -1.072421 0.360000 0.244773
v -1.053801 0.418779 0.240523
v -1.005055 0.455106 0.229397
v -0.944801 0.455106 0.215645
v -0.896055 0.418779 0.204519
v -0.877435 0.360000 0.200269
v -0.896055 0.301221 0.204519
v -0.944801 0.264894 0.215645
v -1.005055 0.264894 0.229397
v -1.053801 0.301221 0.240523
v -1.100000 0.360000 0.000000
v -1.080902 0.418779 0.000000
v -1.030902 0.455106 0.000000
v -0.969098 0.455106 0.000000
v -0.919098 0.418779 0.000000
v -0.900000 0.360000 0.000000
v -0.919098 0.301221 0.000000
v -0.969098 0.264894 0.000000
v -1.030902 0.264894 0.000000
v -1.080902 0.301221 0.000000
v -1.072421 0.360000 -0.244773
v -1.053801 0.418779 -0.240523
v -1.005055 0.455106 -0.229397
v -0.944801 0.455106 -0.215645
v -0.896055 0.418779 -0.204519
v -0.877435 0.360000 -0.200269
v -0.896055 0.301221 -0.204519
v -0.944801 0.264894 -0.215645
v -1.005055 0.264894 -0.229397
v -1.053801 0.301221 -0.240523
v -0.991066 0.360000 -0.477272
v -0.973859 0.418779 -0.468986
v -0.928810 0.455106 -0.447291
v -0.873127 0.455106 -0.420476
v -0.828079 0.418779 -0.398782
v -0.810872 0.360000 -0.390495
v -0.828079 0.301221 -0.398782
v -0.873127 0.264894 -0.420476
v -0.928810 0.264894 -0.447291
v -0.973859 0.301221 -0.468986
v -0.860015 0.360000 -0.685839
v -0.845083 0.418779 -0.673931
v -0.805991 0.455106 -0.642757
v -0.757672 0.455106 -0.604223
v -0.718580 0.418779 -0.573048
v -0.703648 0.360000 -0.561141
v -0.718580 0.301221 -0.573048
v -0.757672 0.264894 -0.604223
v -0.805991 0.264894 -0.642757
v -0.845083 0.301221 -0.673931
v -0.685839 0.360000 -0.860015
v -0.673931 0.418779 -0.845083
v -0.642757 0.455106 -0.805991
v -0.604223 0.455106 -0.757672
v -0.573048 0.418779 -0.718580
v -0.561141 0.360000 -0.703648
v -0.573048 0.301221 -0.718580
v -0.604223 0.264894 -0.757672
v -0.642757 0.264894 -0.805991
v -0.673931 0.301221 -0.845083
v -0.477272 0.360000 -0.991066
v -0.468986 0.418779 -0.973859
v -0.447291 0.455106 -0.928810
v -0.420476 0.455106 -0.873127
v -0.398782 0.418779 -0.828079
v -0.390495 0.360000 -0.810872
v -0.398782 0.301221 -0.828079
v -0.420476 0.264894 -0.873127
v -0.447291 0.264894 -0.928810
v -0.468986 0.301221 -0.973859
v -0.244773 0.360000 -1.072421
v -0.240523 0.418779 -1.053801
v -0.229397 0.455106 -1.005055
v -0.215645 0.455106 -0.944801
v -0.204519 0.418779 -0.896055
v -0.200269 0.360000 -0.877435
v -0.204519 0.301221 -0.896055
v -0.215645 0.264894 -0.944801
v -0.229397 0.264894 -1.005055
v -0.240523 0.301221 -1.053801
v -0.000000 0.360000 -1.100000
v -0.000000 0.418779 -1.080902
v -0.000000 0.455106 -1.030902
v -0.000000 0.455106 -0.969098
v -0.000000 0.418779 -0.919098
v -0.000000 0.360000 -0.900000
v -0.000000 0.301221 -0.919098
v -0.000000 0.264894 -0.969098
v -0.000000 0.264894 -1.030902
v -0.000000 0.301221 -1.080902
v 0.244773 0.360000 -1.072421
v 0.240523 0.418779 -1.053801
v 0.229397 0.455106 -1.005055
v 0.215645 0.455106 -0.944801
v 0.204519 0.418779 -0.896055
v 0.200269 0.360000 -0.877435
v 0.204519 0.301221 -0.896055
v 0.215645 0.264894 -0.944801
v 0.229397 0.264894 -1.005055
v 0.240523 0.301221 -1.053801
v 0.477272 0.360000 -0.991066
v 0.468986 0.418779 -0.973859
v 0.447291 0.455106 -0.928810
v 0.420476 0.455106 -0.873127
v 0.398782 0.418779 -0.828079
v 0.390495 0.360000 -0.810872
v 0.398782 0.301221 -0.828079
v 0.420476 0.264894 -0.873127
v 0.447291 0.264894 -0.928810
v 0.468986 0.301221 -0.973859
v 0.685839 0.360000 -0.860015
v 0.673931 0.418779 -0.845083
v 0.642757 0.455106 -0.805991
v 0.604223 0.455106 -0.757672
v 0.573048 0.418779 -0.718580
v 0.561141 0.360000 -0.703648
v 0.573048 0.301221 -0.718580
v 0.604223 0.264894 -0.757672
v 0.642757 0.264894 -0.805991
v 0.673931 0.301221 -0.845083
v 0.860015 0.360000 -0.685839
v 0.845083 0.418779 -0.673931
v 0.805991 0.455106 -0.642757
v 0.757672 0.455106 -0.604223
v 0.718580 0.418779 -0.573048
v 0.703648 0.360000 -0.561141
v 0.718580 0.301221 -0.573048
v 0.757672 0.264894 -0.604223
v 0.805991 0.264894 -0.642757
v 0.845083 0.301221 -0.673931
v 0.991066 0.360000 -0.477272
v 0.973859 0.418779 -0.468986
v 0.928810 0.455106 -0.447291
v 0.873127 0.455106 -0.420476
v 0.828079 0.418779 -0.398782
v 0.810872 0.360000 -0.390495
v 0.828079 0.301221 -0.398782
v 0.873127 0.264894 -0.420476
v 0.928810 0.264894 -0.447291
v 0.973859 0.301221 -0.468986
v 1.072421 0.360000 -0.244773
v 1.053801 0.418779 -0.240523
v 1.005055 0.455106 -0.229397
v 0.944801 0.455106 -0.215645
v 0.896055 0.418779 -0.204519
v 0.877435 0.360000 -0.200269
v 0.896055 0.301221 -0.204519
v 0.944801 0.264894 -0.215645
v 1.005055 0.264894 -0.229397
v 1.053801 0.301221 -0.240523
f 105 1 2
f 106 54 53
f 53 54 2 1
f 105 2 3
f 106 55 54
f 54 55 3 2
f 105 3 4
f 106 56 55
f 55 56 4 3
f 105 4 5
f 106 57 56
f 56 57 5 4
f 105 5 6
f 106 58 57
f 57 58 6 5
f 105 6 7
f 106 59 58
f 58 59 7 6
f 105 7 8
f 106 60 59
f 59 60 8 7
f 105 8 9
f 106 61 60
f 60 61 9 8
f 105 9 10
f 106 62 61
f 61 62 10 9
f 105 10 11
f 106 63 62
f 62 63 11 10
f 105 11 12
f 106 64 63
f 63 64 12 11
f 105 12 13
f 106 65 64
f 64 65 13 12
f 105 13 14
f 106 66 65
f 65 66 14 13
f 105 14 15
f 106 67 66
f 66 67 15 14
f 105 15 16
f 106 68 67
f 67 68 16 15
f 105 16 17
f 106 69 68
f 68 69 17 16
f 105 17 18
f 106 70 69
f 69 70 18 17
f 105 18 19
f 106 71 70
f 70 71 19 18
f 105 19 20
f 106 72 71
f 71 72 20 19
f 105 20 21
f 106 73 72
f 72 73 21 20
f 105 21 22
f 106 74 73
f 73 74 22 21
f 105 22 23
f 106 75 74
f 74 75 23 22
f 105 23 24
f 106 76 75
f 75 76 24 23
f 105 24 25
f 106 77 76
f 76 77 25 24
f 105 25 26
f 106 78 77
f 77 78 26 25
f 105 26 27
f 106 79 78
f 78 79 27 26
f 105 27 28
f 106 80 79
f 79 80 28 27
f 105 28 29
f 106 81 80
f 80 81 29 28
f 105 29 30
f 106 82 81
f 81 82 30 29
f 105 30 31
f 106 83 82
f 82 83 31 30
f 105 31 32
f 106 84 83
f 83 84 32 31
f 105 32 33
f 106 85 84
f 84 85 33 32
f 105 33 34
f 106 86 85
f 85 86 34 33
f 105 34 35
f 106 87 86
f 86 87 35 34
f 105 35 36
f 106 88 87
f 87 88 36 35
f 105 36 37
f 106 89 88
f 88 89 37 36
f 105 37 38
f 106 90 89
f 89 90 38 37
f 105 38 39
f 106 91 90
f 90 91 39 38
f 105 39 40
f 106 92 91
f 91 92 40 39
f 105 40 41
f 106 93 92
f 92 93 41 40
f 105 41 42
f 106 94 93
f 93 94 42 41
f 105 42 43
f 106 95 94
f 94 95 43 42
f 105 43 44
f 106 96 95
f 95 96 44 43
f 105 44 45
f 106 97 96
f 96 97 45 44
f 105 45 46
f 106 98 97
f 97 98 46 45
f 105 46 47
f 106 99 98
f 98 99 47 46
f 105 47 48
f 106 100 99
f 99 100 48 47
f 105 48 49
f 106 101 100
f 100 101 49 48
f 105 49 50
f 106 102 101
f 101 102 50 49
f 105 50 51
f 106 103 102
f 102 103 51 50
f 105 51 52
f 106 104 103
f 103 104 52 51
f 105 52 1
f 106 53 104
f 104 53 1 52
f 211 107 108
f 212 160 159
f 159 160 108 107
f 211 108 109
f 212 161 160
f 160 161 109 108
f 211 109 110
f 212 162 161
f 161 162 110 109
f 211 110 111
f 212 163 162
f 162 163 111 110
f 211 111 112
f 212 164 163
f 163 164 112 111
f 211 112 113
f 212 165 164
f 164 165 113 112
f 211 113 114
f 212 166 165
f 165 166 114 113
f 211 114 115
f 212 167 166
f 166 167 115 114
f 211 115 116
f 212 168 167
f 167 168 116 115
f 211 116 117
f 212 169 168
f 168 169 117 116
f 211 117 118
f 212 170 169
f 169 170 118 117
f 211 118 119
f 212 171 170
f 170 171 119 118
f 211 119 120
f 212 172 171
f 171 172 120 119
f 211 120 121
f 212 173 172
f 172 173 121 120
f 211 121 122
f 212 174 173
f 173 174 122 121
f 211 122 123
f 212 175 174
f 174 175 123 122
f 211 123 124
f 212 176 175
f 175 176 124 123
f 211 124 125
f 212 177 176
f 176 177 125 124
f 211 125 126
f 212 178 177
f 177 178 126 125
f 211 126 127
f 212 179 178
f 178 179 127 126
f 211 127 128
f 212 180 179
f 179 180 128 127
f 211 128 129
f 212 181 180
f 180 181 129 128
f 211 129 130
f 212 182 181
f 181 182 130 129
f 211 130 131
f 212 183 182
f 182 183 131 130
f 211 131 132
f 212 184 183
f 183 184 132 131
f 211 132 133
f 212 185 184
f 184 185 133 132
f 211 133 134
f 212 186 185
f 185 186 134 133
f 211 134 135
f 212 187 186
f 186 187 135 134
f 211 135 136
f 212 188 187
f 187 188 136 135
f 211 136 137
f 212 189 188
f 188 189 137 136
f 211 137 138
f 212 190 189
f 189 190 138 137
f 211 138 139
f 212 191 190
f 190 191 139 138
f 211 139 140
f 212 192 191
f 191 192 140 139
f 211 140 141
f 212 193 192
f 192 193 141 140
f 211 141 142
f 212 194 193
f 193 194 142 141
f 211 142 143
f 212 195 194
f 194 195 143 142
f 211 143 144
f 212 196 195
f 195 196 144 143
f 211 144 145
f 212 197 196
f 196 197 145 144
f 211 145 146
f 212 198 197
f 197 198 146 145
f 211 146 147
f 212 199 198
f 198 199 147 146
f 211 147 148
f 212 200 199
f 199 200 148 147
f 211 148 149
f 212 201 200
f 200 201 149 148
f 211 149 150
f 212 202 201
f 201 202 150 149
f 211 150 151
f 212 203 202
f 202 203 151 150
f 211 151 152
f 212 204 203
f 203 204 152 151
f 211 152 153
f 212 205 204
f 204 205 153 152
f 211 153 154
f 212 206 205
f 205 206 154 153
f 211 154 155
f 212 207 206
f 206 207 155 154
f 211 155 156
f 212 208 207
f 207 208 156 155
f 211 156 157
f 212 209 208
f 208 209 157 156
f 211 157 158
f 212 210 209
f 209 210 158 157
f 211 158 107
f 212 159 210
f 210 159 107 158
f 213 214 215 216
f 217 220 219 218
f 213 217 218 214
f 214 218 219 215
f 215 219 220 216
f 217 213 216 220
f 221 222 223 224
f 225 228 227 226
f 221 225 226 222
f 222 226 227 223
f 223 227 228 224
f 225 221 224 228
f 230 232 231 229
f 289 229 231
f 290 232 230
f 232 234 233 231
f 289 231 233
f 290 234 232
f 234 236 235 233
f 289 233 235
f 290 236 234
f 236 238 237 235
f 289 235 237
f 290 238 236
f 238 240 239 237
f 289 237 239
f 290 240 238
f 240 242 241 239
f 289 239 241
f 290 242 240
f 242 244 243 241
f 289 241 243
f 290 244 242
f 244 246 245 243
f 289 243 245
f 290 246 244
f 246 248 247 245
f 289 245 247
f 290 248 246
f 248 250 249 247
f 289 247 249
f 290 250 248
f 250 252 251 249
f 289 249 251
f 290 252 250
f 252 254 253 251
f 289 251 253
f 290 254 252
f 254 256 255 253
f 289 253 255
f 290 256 254
f 256 258 257 255
f 289 255 257
f 290 258 256
f 258 260 259 257
f 289 257 259
f 290 260 258
f 260 262 261 259
f 289 259 261
f 290 262 260
f 262 264 263 261
f 289 261 263
f 290 264 262
f 264 266 265 263
f 289 263 265
f 290 266 264
f 266 268 267 265
f 289 265 267
f 290 268 266
f 268 270 269 267
f 289 267 269
f 290 270 268
f 270 272 271 269
f 289 269 271
f 290 272 270
f 272 274 273 271
f 289 271 273
f 290 274 272
f 274 276 275 273
f 289 273 275
f 290 276 274
f 276 278 277 275
f 289 275 277
f 290 278 276
f 278 280 279 277
f 289 277 279
f 290 280 278
f 280 282 281 279
f 289 279 281
f 290 282 280
f 282 284 283 281
f 289 281 283
f 290 284 282
f 284 286 285 283
f 289 283 285
f 290 286 284
f 286 288 287 285
f 289 285 287
f 290 288 286
f 288 230 229 287
f 289 287 229
f 290 230 288
f 291 292 302 301
f 292 293 303 302
f 293 294 304 303
f 294 295 305 304
f 295 296 306 305
f 296 297 307 306
f 297 298 308 307
f 298 299 309 308
f 299 300 310 309
f 300 291 301 310
f 301 302 312 311
f 302 303 313 312
f 303 304 314 313
f 304 305 315 314
f 305 306 316 315
f 306 307 317 316
f 307 308 318 317
f 308 309 319 318
f 309 310 320 319
f 310 301 311 320
f 311 312 322 321
f 312 313 323 322
f 313 314 324 323
f 314 315 325 324
f 315 316 326 325
f 316 317 327 326
f 317 318 328 327
f 318 319 329 328
f 319 320 330 329
f 320 311 321 330
f 321 322 332 331
f 322 323 333 332
f 323 324 334 333
f 324 325 335 334
f 325 326 336 335
f 326 327 337 336
f 327 328 338 337
f 328 329 339 338
f 329 330 340 339
f 330 321 331 340
f 331 332 342 341
f 332 333 343 342
f 333 334 344 343
f 334 335 345 344
f 335 336 346 345
f 336 337 347 346
f 337 338 348 347
f 338 339 349 348
f 339 340 350 349
f 340 331 341 350
f 341 342 352 351
f 342 343 353 352
f 343 344 354 353
f 344 345 355 354
f 345 346 356 355
f 346 347 357 356
f 347 348 358 357
f 348 349 359 358
f 349 350 360 359
f 350 341 351 360
f 351 352 362 361
f 352 353 363 362
f 353 354 364 363
f 354 355 365 364
f 355 356 366 365
f 356 357 367 366
f 357 358 368 367
f 358 359 369 368
f 359 360 370 369
f 360 351 361 370
f 361 362 372 371
f 362 363 373 372
f 363 364 374 373
f 364 365 375 374
f 365 366 376 375
f 366 367 377 376
f 367 368 378 377
f 368 369 379 378
f 369 370 380 379
f 370 361 371 380
f 371 372 382 381
f 372 373 383 382
f 373 374 384 383
f 374 375 385 384
f 375 376 386 385
f 376 377 387 386
f 377 378 388 387
f 378 379 389 388
f 379 380 390 389
f 380 371 381 390
f 381 382 392 391
f 382 383 393 392
f 383 384 394 393
f 384 385 395 394
f 385 386 396 395
f 386 387 397 396
f 387 388 398 397
f 388 389 399 398
f 389 390 400 399
f 390 381 391 400
f 391 392 402 401
f 392 393 403 402
f 393 394 404 403
f 394 395 405 404
f 395 396 406 405
f 396 397 407 406
f 397 398 408 407
f 398 399 409 408
f 399 400 410 409
f 400 391 401 410
f 401 402 412 411
f 402 403 413 412
f 403 404 414 413
f 404 405 415 414
f 405 406 416 415
f 406 407 417 416
f 407 408 418 417
f 408 409 419 418
f 409 410 420 419
f 410 401 411 420
f 411 412 422 421
f 412 413 423 422
f 413 414 424 423
f 414 415 425 424
f 415 416 426 425
f 416 417 427 426
f 417 418 428 427
f 418 419 429 428
f 419 420 430 429
f 420 411 421 430
f 421 422 432 431
f 422 423 433 432
f 423 424 434 433
f 424 425 435 434
f 425 426 436 435
f 426 427 437 436
f 427 428 438 437
f 428 429 439 438
f 429 430 440 439
f 430 421 431 440
f 431 432 442 441
f 432 433 443 442
f 433 434 444 443
f 434 435 445 444
f 435 436 446 445
f 436 437 447 446
f 437 438 448 447
f 438 439 449 448
f 439 440 450 449
f 440 431 441 450
f 441 442 452 451
f 442 443 453 452
f 443 444 454 453
f 444 445 455 454
f 445 446 456 455
f 446 447 457 456
f 447 448 458 457
f 448 449 459 458
f 449 450 460 459
f 450 441 451 460
f 451 452 462 461
f 452 453 463 462
f 453 454 464 463
f 454 455 465 464
f 455 456 466 465
f 456 457 467 466
f 457 458 468 467
f 458 459 469 468
f 459 460 470 469
f 460 451 461 470
f 461 462 472 471
f 462 463 473 472
f 463 464 474 473
f 464 465 475 474
f 465 466 476 475
f 466 467 477 476
f 467 468 478 477
f 468 469 479 478
f 469 470 480 479
f 470 461 471 480
f 471 472 482 481
f 472 473 483 482
f 473 474 484 483
f 474 475 485 484
f 475 476 486 485
f 476 477 487 486
f 477 478 488 487
f 478 479 489 488
f 479 480 490 489
f 480 471 481 490
f 481 482 492 491
f 482 483 493 492
f 483 484 494 493
f 484 485 495 494
f 485 486 496 495
f 486 487 497 496
f 487 488 498 497
f 488 489 499 498
f 489 490 500 499
f 490 481 491 500
f 491 492 502 501
f 492 493 503 502
f 493 494 504 503
f 494 495 505 504
f 495 496 506 505
f 496 497 507 506
f 497 498 508 507
f 498 499 509 508
f 499 500 510 509
f 500 491 501 510
f 501 502 512 511
f 502 503 513 512
f 503 504 514 513
f 504 505 515 514
f 505 506 516 515
f 506 507 517 516
f 507 508 518 517
f 508 509 519 518
f 509 510 520 519
f 510 501 511 520
f 511 512 522 521
f 512 513 523 522
f 513 514 524 523
f 514 515 525 524
f 515 516 526 525
f 516 517 527 526
f 517 518 528 527
f 518 519 529 528
f 519 520 530 529
f 520 511 521 530
f 521 522 532 531
f 522 523 533 532
f 523 524 534 533
f 524 525 535 534
f 525 526 536 535
f 526 527 537 536
f 527 528 538 537
f 528 529 539 538
f 529 530 540 539
f 530 521 531 540
f 531 532 542 541
f 532 533 543 542
f 533 534 544 543
f 534 535 545 544
f 535 536 546 545
f 536 537 547 546
f 537 538 548 547
f 538 539 549 548
f 539 540 550 549
f 540 531 541 550
f 541 542 552 551
f 542 543 553 552
f 543 544 554 553
f 544 545 555 554
f 545 546 556 555
f 546 547 557 556
f 547 548 558 557
f 548 549 559 558
f 549 550 560 559
f 550 541 551 560
f 551 552 562 561
f 552 553 563 562
f 553 554 564 563
f 554 555 565 564
f 555 556 566 565
f 556 557 567 566
f 557 558 568 567
f 558 559 569 568
f 559 560 570 569
f 560 551 561 570
f 561 562 292 291
f 562 563 293 292
f 563 564 294 293
f 564 565 295 294
f 565 566 296 295
f 566 567 297 296
f 567 568 298 297
f 568 569 299 298
f 569 570 300 299
f 570 561 291 300
