# TerminalFrame_V2
o TerminalFrame_V2
v -2.350000 -2.425000 0.540000
v 2.350000 -2.425000 0.540000
v 1.900000 5.925000 0.540000
v -1.900000 5.925000 0.540000
v -2.350000 -2.425000 -0.540000
v 2.350000 -2.425000 -0.540000
v 1.900000 5.925000 -0.540000
v -1.900000 5.925000 -0.540000
v -2.550000 -2.450000 -0.750000
v 2.550000 -2.450000 -0.750000
v 2.550000 -2.050000 -0.750000
v -2.550000 -2.050000 -0.750000
v -2.550000 -2.450000 1.650000
v 2.550000 -2.450000 1.650000
v 2.550000 -2.050000 1.650000
v -2.550000 -2.050000 1.650000
v -1.850000 -2.675000 -0.150000
v 1.850000 -2.675000 -0.150000
v 1.850000 -2.425000 -0.150000
v -1.850000 -2.425000 -0.150000
v -1.850000 -2.675000 1.550000
v 1.850000 -2.675000 1.550000
v 1.850000 -2.425000 1.550000
v -1.850000 -2.425000 1.550000
v -1.725000 -1.000000 0.580000
v 1.725000 -1.000000 0.580000
v 1.325000 4.800000 0.580000
v -1.325000 4.800000 0.580000
v -1.725000 -1.000000 0.260000
v 1.725000 -1.000000 0.260000
v 1.325000 4.800000 0.260000
v -1.325000 4.800000 0.260000
v 0.320000 -1.990000 1.180000
v 0.320000 -2.150000 1.180000
v 0.300702 -1.990000 1.289446
v 0.300702 -2.150000 1.289446
v 0.245134 -1.990000 1.385692
v 0.245134 -2.150000 1.385692
v 0.160000 -1.990000 1.457128
v 0.160000 -2.150000 1.457128
v 0.055567 -1.990000 1.495138
v 0.055567 -2.150000 1.495138
v -0.055567 -1.990000 1.495138
v -0.055567 -2.150000 1.495138
v -0.160000 -1.990000 1.457128
v -0.160000 -2.150000 1.457128
v -0.245134 -1.990000 1.385692
v -0.245134 -2.150000 1.385692
v -0.300702 -1.990000 1.289446
v -0.300702 -2.150000 1.289446
v -0.320000 -1.990000 1.180000
v -0.320000 -2.150000 1.180000
v -0.300702 -1.990000 1.070554
v -0.300702 -2.150000 1.070554
v -0.245134 -1.990000 0.974308
v -0.245134 -2.150000 0.974308
v -0.160000 -1.990000 0.902872
v -0.160000 -2.150000 0.902872
v -0.055567 -1.990000 0.864862
v -0.055567 -2.150000 0.864862
v 0.055567 -1.990000 0.864862
v 0.055567 -2.150000 0.864862
v 0.160000 -1.990000 0.902872
v 0.160000 -2.150000 0.902872
v 0.245134 -1.990000 0.974308
v 0.245134 -2.150000 0.974308
v 0.300702 -1.990000 1.070554
v 0.300702 -2.150000 1.070554
v 0.000000 -1.990000 1.180000
v 0.000000 -2.150000 1.180000
f 1 2 3 4
f 8 7 6 5
f 5 6 2 1
f 6 7 3 2
f 7 8 4 3
f 8 5 1 4
f 9 10 11 12
f 13 16 15 14
f 9 13 14 10
f 10 14 15 11
f 11 15 16 12
f 13 9 12 16
f 17 18 19 20
f 21 24 23 22
f 17 21 22 18
f 18 22 23 19
f 19 23 24 20
f 21 17 20 24
f 25 26 27 28
f 32 31 30 29
f 29 30 26 25
f 30 31 27 26
f 31 32 28 27
f 32 29 25 28
f 34 36 35 33
f 69 33 35
f 70 36 34
f 36 38 37 35
f 69 35 37
f 70 38 36
f 38 40 39 37
f 69 37 39
f 70 40 38
f 40 42 41 39
f 69 39 41
f 70 42 40
f 42 44 43 41
f 69 41 43
f 70 44 42
f 44 46 45 43
f 69 43 45
f 70 46 44
f 46 48 47 45
f 69 45 47
f 70 48 46
f 48 50 49 47
f 69 47 49
f 70 50 48
f 50 52 51 49
f 69 49 51
f 70 52 50
f 52 54 53 51
f 69 51 53
f 70 54 52
f 54 56 55 53
f 69 53 55
f 70 56 54
f 56 58 57 55
f 69 55 57
f 70 58 56
f 58 60 59 57
f 69 57 59
f 70 60 58
f 60 62 61 59
f 69 59 61
f 70 62 60
f 62 64 63 61
f 69 61 63
f 70 64 62
f 64 66 65 63
f 69 63 65
f 70 66 64
f 66 68 67 65
f 69 65 67
f 70 68 66
f 68 34 33 67
f 69 67 33
f 70 34 68
