# Bubble Shop - kiosque neon 'VENDRE LES BULLES'
# Genere par script Python (sans Blender)
mtllib bubble_shop.mtl

v -4.82000 5.00000 4.00000
v -4.82000 0.00000 4.00000
v -4.83370 5.00000 3.93112
v -4.83370 0.00000 3.93112
v -4.87272 5.00000 3.87272
v -4.87272 0.00000 3.87272
v -4.93112 5.00000 3.83370
v -4.93112 0.00000 3.83370
v -5.00000 5.00000 3.82000
v -5.00000 0.00000 3.82000
v -5.06888 5.00000 3.83370
v -5.06888 0.00000 3.83370
v -5.12728 5.00000 3.87272
v -5.12728 0.00000 3.87272
v -5.16630 5.00000 3.93112
v -5.16630 0.00000 3.93112
v -5.18000 5.00000 4.00000
v -5.18000 0.00000 4.00000
v -5.16630 5.00000 4.06888
v -5.16630 0.00000 4.06888
v -5.12728 5.00000 4.12728
v -5.12728 0.00000 4.12728
v -5.06888 5.00000 4.16630
v -5.06888 0.00000 4.16630
v -5.00000 5.00000 4.18000
v -5.00000 0.00000 4.18000
v -4.93112 5.00000 4.16630
v -4.93112 0.00000 4.16630
v -4.87272 5.00000 4.12728
v -4.87272 0.00000 4.12728
v -4.83370 5.00000 4.06888
v -4.83370 0.00000 4.06888
v -5.00000 5.00000 4.00000
v -5.00000 0.00000 4.00000
v 5.18000 5.00000 4.00000
v 5.18000 0.00000 4.00000
v 5.16630 5.00000 3.93112
v 5.16630 0.00000 3.93112
v 5.12728 5.00000 3.87272
v 5.12728 0.00000 3.87272
v 5.06888 5.00000 3.83370
v 5.06888 0.00000 3.83370
v 5.00000 5.00000 3.82000
v 5.00000 0.00000 3.82000
v 4.93112 5.00000 3.83370
v 4.93112 0.00000 3.83370
v 4.87272 5.00000 3.87272
v 4.87272 0.00000 3.87272
v 4.83370 5.00000 3.93112
v 4.83370 0.00000 3.93112
v 4.82000 5.00000 4.00000
v 4.82000 0.00000 4.00000
v 4.83370 5.00000 4.06888
v 4.83370 0.00000 4.06888
v 4.87272 5.00000 4.12728
v 4.87272 0.00000 4.12728
v 4.93112 5.00000 4.16630
v 4.93112 0.00000 4.16630
v 5.00000 5.00000 4.18000
v 5.00000 0.00000 4.18000
v 5.06888 5.00000 4.16630
v 5.06888 0.00000 4.16630
v 5.12728 5.00000 4.12728
v 5.12728 0.00000 4.12728
v 5.16630 5.00000 4.06888
v 5.16630 0.00000 4.06888
v 5.00000 5.00000 4.00000
v 5.00000 0.00000 4.00000
v -4.82000 5.00000 -4.00000
v -4.82000 0.00000 -4.00000
v -4.83370 5.00000 -4.06888
v -4.83370 0.00000 -4.06888
v -4.87272 5.00000 -4.12728
v -4.87272 0.00000 -4.12728
v -4.93112 5.00000 -4.16630
v -4.93112 0.00000 -4.16630
v -5.00000 5.00000 -4.18000
v -5.00000 0.00000 -4.18000
v -5.06888 5.00000 -4.16630
v -5.06888 0.00000 -4.16630
v -5.12728 5.00000 -4.12728
v -5.12728 0.00000 -4.12728
v -5.16630 5.00000 -4.06888
v -5.16630 0.00000 -4.06888
v -5.18000 5.00000 -4.00000
v -5.18000 0.00000 -4.00000
v -5.16630 5.00000 -3.93112
v -5.16630 0.00000 -3.93112
v -5.12728 5.00000 -3.87272
v -5.12728 0.00000 -3.87272
v -5.06888 5.00000 -3.83370
v -5.06888 0.00000 -3.83370
v -5.00000 5.00000 -3.82000
v -5.00000 0.00000 -3.82000
v -4.93112 5.00000 -3.83370
v -4.93112 0.00000 -3.83370
v -4.87272 5.00000 -3.87272
v -4.87272 0.00000 -3.87272
v -4.83370 5.00000 -3.93112
v -4.83370 0.00000 -3.93112
v -5.00000 5.00000 -4.00000
v -5.00000 0.00000 -4.00000
v 5.18000 5.00000 -4.00000
v 5.18000 0.00000 -4.00000
v 5.16630 5.00000 -4.06888
v 5.16630 0.00000 -4.06888
v 5.12728 5.00000 -4.12728
v 5.12728 0.00000 -4.12728
v 5.06888 5.00000 -4.16630
v 5.06888 0.00000 -4.16630
v 5.00000 5.00000 -4.18000
v 5.00000 0.00000 -4.18000
v 4.93112 5.00000 -4.16630
v 4.93112 0.00000 -4.16630
v 4.87272 5.00000 -4.12728
v 4.87272 0.00000 -4.12728
v 4.83370 5.00000 -4.06888
v 4.83370 0.00000 -4.06888
v 4.82000 5.00000 -4.00000
v 4.82000 0.00000 -4.00000
v 4.83370 5.00000 -3.93112
v 4.83370 0.00000 -3.93112
v 4.87272 5.00000 -3.87272
v 4.87272 0.00000 -3.87272
v 4.93112 5.00000 -3.83370
v 4.93112 0.00000 -3.83370
v 5.00000 5.00000 -3.82000
v 5.00000 0.00000 -3.82000
v 5.06888 5.00000 -3.83370
v 5.06888 0.00000 -3.83370
v 5.12728 5.00000 -3.87272
v 5.12728 0.00000 -3.87272
v 5.16630 5.00000 -3.93112
v 5.16630 0.00000 -3.93112
v 5.00000 5.00000 -4.00000
v 5.00000 0.00000 -4.00000
v -5.40000 5.05000 4.40000
v 5.40000 5.05000 4.40000
v 5.40000 5.05000 -4.40000
v -5.40000 5.05000 -4.40000
v -5.40000 5.35000 4.40000
v 5.40000 5.35000 4.40000
v 5.40000 5.35000 -4.40000
v -5.40000 5.35000 -4.40000
v -5.45000 4.95000 4.45000
v 5.45000 4.95000 4.45000
v 5.45000 4.95000 -4.45000
v -5.45000 4.95000 -4.45000
v -5.45000 5.03000 4.45000
v 5.45000 5.03000 4.45000
v 5.45000 5.03000 -4.45000
v -5.45000 5.03000 -4.45000
v -4.30000 5.85000 4.47500
v 4.30000 5.85000 4.47500
v 4.30000 5.85000 4.32500
v -4.30000 5.85000 4.32500
v -4.30000 7.15000 4.47500
v 4.30000 7.15000 4.47500
v 4.30000 7.15000 4.32500
v -4.30000 7.15000 4.32500
v -4.37500 5.80000 4.44500
v 4.37500 5.80000 4.44500
v 4.37500 5.80000 4.39500
v -4.37500 5.80000 4.39500
v -4.37500 7.20000 4.44500
v 4.37500 7.20000 4.44500
v 4.37500 7.20000 4.39500
v -4.37500 7.20000 4.39500
v -3.60000 7.48000 4.40000
v -3.60000 7.48000 4.40000
v -3.60000 7.48000 4.40000
v -3.60000 7.48000 4.40000
v -3.60000 7.48000 4.40000
v -3.60000 7.48000 4.40000
v -3.60000 7.48000 4.40000
v -3.60000 7.48000 4.40000
v -3.60000 7.48000 4.40000
v -3.60000 7.48000 4.40000
v -3.53112 7.46630 4.40000
v -3.54427 7.46630 4.35951
v -3.57871 7.46630 4.33449
v -3.62129 7.46630 4.33449
v -3.65573 7.46630 4.35951
v -3.66888 7.46630 4.40000
v -3.65573 7.46630 4.44049
v -3.62129 7.46630 4.46551
v -3.57871 7.46630 4.46551
v -3.54427 7.46630 4.44049
v -3.47272 7.42728 4.40000
v -3.49703 7.42728 4.32519
v -3.56067 7.42728 4.27895
v -3.63933 7.42728 4.27895
v -3.70297 7.42728 4.32519
v -3.72728 7.42728 4.40000
v -3.70297 7.42728 4.47481
v -3.63933 7.42728 4.52105
v -3.56067 7.42728 4.52105
v -3.49703 7.42728 4.47481
v -3.43370 7.36888 4.40000
v -3.46546 7.36888 4.30225
v -3.54861 7.36888 4.24184
v -3.65139 7.36888 4.24184
v -3.73454 7.36888 4.30225
v -3.76630 7.36888 4.40000
v -3.73454 7.36888 4.49775
v -3.65139 7.36888 4.55816
v -3.54861 7.36888 4.55816
v -3.46546 7.36888 4.49775
v -3.42000 7.30000 4.40000
v -3.45438 7.30000 4.29420
v -3.54438 7.30000 4.22881
v -3.65562 7.30000 4.22881
v -3.74562 7.30000 4.29420
v -3.78000 7.30000 4.40000
v -3.74562 7.30000 4.50580
v -3.65562 7.30000 4.57119
v -3.54438 7.30000 4.57119
v -3.45438 7.30000 4.50580
v -3.43370 7.23112 4.40000
v -3.46546 7.23112 4.30225
v -3.54861 7.23112 4.24184
v -3.65139 7.23112 4.24184
v -3.73454 7.23112 4.30225
v -3.76630 7.23112 4.40000
v -3.73454 7.23112 4.49775
v -3.65139 7.23112 4.55816
v -3.54861 7.23112 4.55816
v -3.46546 7.23112 4.49775
v -3.47272 7.17272 4.40000
v -3.49703 7.17272 4.32519
v -3.56067 7.17272 4.27895
v -3.63933 7.17272 4.27895
v -3.70297 7.17272 4.32519
v -3.72728 7.17272 4.40000
v -3.70297 7.17272 4.47481
v -3.63933 7.17272 4.52105
v -3.56067 7.17272 4.52105
v -3.49703 7.17272 4.47481
v -3.53112 7.13370 4.40000
v -3.54427 7.13370 4.35951
v -3.57871 7.13370 4.33449
v -3.62129 7.13370 4.33449
v -3.65573 7.13370 4.35951
v -3.66888 7.13370 4.40000
v -3.65573 7.13370 4.44049
v -3.62129 7.13370 4.46551
v -3.57871 7.13370 4.46551
v -3.54427 7.13370 4.44049
v -3.60000 7.12000 4.40000
v -3.60000 7.12000 4.40000
v -3.60000 7.12000 4.40000
v -3.60000 7.12000 4.40000
v -3.60000 7.12000 4.40000
v -3.60000 7.12000 4.40000
v -3.60000 7.12000 4.40000
v -3.60000 7.12000 4.40000
v -3.60000 7.12000 4.40000
v -3.60000 7.12000 4.40000
v 3.60000 7.48000 4.40000
v 3.60000 7.48000 4.40000
v 3.60000 7.48000 4.40000
v 3.60000 7.48000 4.40000
v 3.60000 7.48000 4.40000
v 3.60000 7.48000 4.40000
v 3.60000 7.48000 4.40000
v 3.60000 7.48000 4.40000
v 3.60000 7.48000 4.40000
v 3.60000 7.48000 4.40000
v 3.66888 7.46630 4.40000
v 3.65573 7.46630 4.35951
v 3.62129 7.46630 4.33449
v 3.57871 7.46630 4.33449
v 3.54427 7.46630 4.35951
v 3.53112 7.46630 4.40000
v 3.54427 7.46630 4.44049
v 3.57871 7.46630 4.46551
v 3.62129 7.46630 4.46551
v 3.65573 7.46630 4.44049
v 3.72728 7.42728 4.40000
v 3.70297 7.42728 4.32519
v 3.63933 7.42728 4.27895
v 3.56067 7.42728 4.27895
v 3.49703 7.42728 4.32519
v 3.47272 7.42728 4.40000
v 3.49703 7.42728 4.47481
v 3.56067 7.42728 4.52105
v 3.63933 7.42728 4.52105
v 3.70297 7.42728 4.47481
v 3.76630 7.36888 4.40000
v 3.73454 7.36888 4.30225
v 3.65139 7.36888 4.24184
v 3.54861 7.36888 4.24184
v 3.46546 7.36888 4.30225
v 3.43370 7.36888 4.40000
v 3.46546 7.36888 4.49775
v 3.54861 7.36888 4.55816
v 3.65139 7.36888 4.55816
v 3.73454 7.36888 4.49775
v 3.78000 7.30000 4.40000
v 3.74562 7.30000 4.29420
v 3.65562 7.30000 4.22881
v 3.54438 7.30000 4.22881
v 3.45438 7.30000 4.29420
v 3.42000 7.30000 4.40000
v 3.45438 7.30000 4.50580
v 3.54438 7.30000 4.57119
v 3.65562 7.30000 4.57119
v 3.74562 7.30000 4.50580
v 3.76630 7.23112 4.40000
v 3.73454 7.23112 4.30225
v 3.65139 7.23112 4.24184
v 3.54861 7.23112 4.24184
v 3.46546 7.23112 4.30225
v 3.43370 7.23112 4.40000
v 3.46546 7.23112 4.49775
v 3.54861 7.23112 4.55816
v 3.65139 7.23112 4.55816
v 3.73454 7.23112 4.49775
v 3.72728 7.17272 4.40000
v 3.70297 7.17272 4.32519
v 3.63933 7.17272 4.27895
v 3.56067 7.17272 4.27895
v 3.49703 7.17272 4.32519
v 3.47272 7.17272 4.40000
v 3.49703 7.17272 4.47481
v 3.56067 7.17272 4.52105
v 3.63933 7.17272 4.52105
v 3.70297 7.17272 4.47481
v 3.66888 7.13370 4.40000
v 3.65573 7.13370 4.35951
v 3.62129 7.13370 4.33449
v 3.57871 7.13370 4.33449
v 3.54427 7.13370 4.35951
v 3.53112 7.13370 4.40000
v 3.54427 7.13370 4.44049
v 3.57871 7.13370 4.46551
v 3.62129 7.13370 4.46551
v 3.65573 7.13370 4.44049
v 3.60000 7.12000 4.40000
v 3.60000 7.12000 4.40000
v 3.60000 7.12000 4.40000
v 3.60000 7.12000 4.40000
v 3.60000 7.12000 4.40000
v 3.60000 7.12000 4.40000
v 3.60000 7.12000 4.40000
v 3.60000 7.12000 4.40000
v 3.60000 7.12000 4.40000
v 3.60000 7.12000 4.40000
v -3.20000 5.88000 4.40000
v -3.20000 5.88000 4.40000
v -3.20000 5.88000 4.40000
v -3.20000 5.88000 4.40000
v -3.20000 5.88000 4.40000
v -3.20000 5.88000 4.40000
v -3.20000 5.88000 4.40000
v -3.20000 5.88000 4.40000
v -3.20000 5.88000 4.40000
v -3.20000 5.88000 4.40000
v -3.13112 5.86630 4.40000
v -3.14427 5.86630 4.35951
v -3.17871 5.86630 4.33449
v -3.22129 5.86630 4.33449
v -3.25573 5.86630 4.35951
v -3.26888 5.86630 4.40000
v -3.25573 5.86630 4.44049
v -3.22129 5.86630 4.46551
v -3.17871 5.86630 4.46551
v -3.14427 5.86630 4.44049
v -3.07272 5.82728 4.40000
v -3.09703 5.82728 4.32519
v -3.16067 5.82728 4.27895
v -3.23933 5.82728 4.27895
v -3.30297 5.82728 4.32519
v -3.32728 5.82728 4.40000
v -3.30297 5.82728 4.47481
v -3.23933 5.82728 4.52105
v -3.16067 5.82728 4.52105
v -3.09703 5.82728 4.47481
v -3.03370 5.76888 4.40000
v -3.06546 5.76888 4.30225
v -3.14861 5.76888 4.24184
v -3.25139 5.76888 4.24184
v -3.33454 5.76888 4.30225
v -3.36630 5.76888 4.40000
v -3.33454 5.76888 4.49775
v -3.25139 5.76888 4.55816
v -3.14861 5.76888 4.55816
v -3.06546 5.76888 4.49775
v -3.02000 5.70000 4.40000
v -3.05438 5.70000 4.29420
v -3.14438 5.70000 4.22881
v -3.25562 5.70000 4.22881
v -3.34562 5.70000 4.29420
v -3.38000 5.70000 4.40000
v -3.34562 5.70000 4.50580
v -3.25562 5.70000 4.57119
v -3.14438 5.70000 4.57119
v -3.05438 5.70000 4.50580
v -3.03370 5.63112 4.40000
v -3.06546 5.63112 4.30225
v -3.14861 5.63112 4.24184
v -3.25139 5.63112 4.24184
v -3.33454 5.63112 4.30225
v -3.36630 5.63112 4.40000
v -3.33454 5.63112 4.49775
v -3.25139 5.63112 4.55816
v -3.14861 5.63112 4.55816
v -3.06546 5.63112 4.49775
v -3.07272 5.57272 4.40000
v -3.09703 5.57272 4.32519
v -3.16067 5.57272 4.27895
v -3.23933 5.57272 4.27895
v -3.30297 5.57272 4.32519
v -3.32728 5.57272 4.40000
v -3.30297 5.57272 4.47481
v -3.23933 5.57272 4.52105
v -3.16067 5.57272 4.52105
v -3.09703 5.57272 4.47481
v -3.13112 5.53370 4.40000
v -3.14427 5.53370 4.35951
v -3.17871 5.53370 4.33449
v -3.22129 5.53370 4.33449
v -3.25573 5.53370 4.35951
v -3.26888 5.53370 4.40000
v -3.25573 5.53370 4.44049
v -3.22129 5.53370 4.46551
v -3.17871 5.53370 4.46551
v -3.14427 5.53370 4.44049
v -3.20000 5.52000 4.40000
v -3.20000 5.52000 4.40000
v -3.20000 5.52000 4.40000
v -3.20000 5.52000 4.40000
v -3.20000 5.52000 4.40000
v -3.20000 5.52000 4.40000
v -3.20000 5.52000 4.40000
v -3.20000 5.52000 4.40000
v -3.20000 5.52000 4.40000
v -3.20000 5.52000 4.40000
v 3.20000 5.88000 4.40000
v 3.20000 5.88000 4.40000
v 3.20000 5.88000 4.40000
v 3.20000 5.88000 4.40000
v 3.20000 5.88000 4.40000
v 3.20000 5.88000 4.40000
v 3.20000 5.88000 4.40000
v 3.20000 5.88000 4.40000
v 3.20000 5.88000 4.40000
v 3.20000 5.88000 4.40000
v 3.26888 5.86630 4.40000
v 3.25573 5.86630 4.35951
v 3.22129 5.86630 4.33449
v 3.17871 5.86630 4.33449
v 3.14427 5.86630 4.35951
v 3.13112 5.86630 4.40000
v 3.14427 5.86630 4.44049
v 3.17871 5.86630 4.46551
v 3.22129 5.86630 4.46551
v 3.25573 5.86630 4.44049
v 3.32728 5.82728 4.40000
v 3.30297 5.82728 4.32519
v 3.23933 5.82728 4.27895
v 3.16067 5.82728 4.27895
v 3.09703 5.82728 4.32519
v 3.07272 5.82728 4.40000
v 3.09703 5.82728 4.47481
v 3.16067 5.82728 4.52105
v 3.23933 5.82728 4.52105
v 3.30297 5.82728 4.47481
v 3.36630 5.76888 4.40000
v 3.33454 5.76888 4.30225
v 3.25139 5.76888 4.24184
v 3.14861 5.76888 4.24184
v 3.06546 5.76888 4.30225
v 3.03370 5.76888 4.40000
v 3.06546 5.76888 4.49775
v 3.14861 5.76888 4.55816
v 3.25139 5.76888 4.55816
v 3.33454 5.76888 4.49775
v 3.38000 5.70000 4.40000
v 3.34562 5.70000 4.29420
v 3.25562 5.70000 4.22881
v 3.14438 5.70000 4.22881
v 3.05438 5.70000 4.29420
v 3.02000 5.70000 4.40000
v 3.05438 5.70000 4.50580
v 3.14438 5.70000 4.57119
v 3.25562 5.70000 4.57119
v 3.34562 5.70000 4.50580
v 3.36630 5.63112 4.40000
v 3.33454 5.63112 4.30225
v 3.25139 5.63112 4.24184
v 3.14861 5.63112 4.24184
v 3.06546 5.63112 4.30225
v 3.03370 5.63112 4.40000
v 3.06546 5.63112 4.49775
v 3.14861 5.63112 4.55816
v 3.25139 5.63112 4.55816
v 3.33454 5.63112 4.49775
v 3.32728 5.57272 4.40000
v 3.30297 5.57272 4.32519
v 3.23933 5.57272 4.27895
v 3.16067 5.57272 4.27895
v 3.09703 5.57272 4.32519
v 3.07272 5.57272 4.40000
v 3.09703 5.57272 4.47481
v 3.16067 5.57272 4.52105
v 3.23933 5.57272 4.52105
v 3.30297 5.57272 4.47481
v 3.26888 5.53370 4.40000
v 3.25573 5.53370 4.35951
v 3.22129 5.53370 4.33449
v 3.17871 5.53370 4.33449
v 3.14427 5.53370 4.35951
v 3.13112 5.53370 4.40000
v 3.14427 5.53370 4.44049
v 3.17871 5.53370 4.46551
v 3.22129 5.53370 4.46551
v 3.25573 5.53370 4.44049
v 3.20000 5.52000 4.40000
v 3.20000 5.52000 4.40000
v 3.20000 5.52000 4.40000
v 3.20000 5.52000 4.40000
v 3.20000 5.52000 4.40000
v 3.20000 5.52000 4.40000
v 3.20000 5.52000 4.40000
v 3.20000 5.52000 4.40000
v 3.20000 5.52000 4.40000
v 3.20000 5.52000 4.40000
v -4.00000 6.48000 4.40000
v -4.00000 6.48000 4.40000
v -4.00000 6.48000 4.40000
v -4.00000 6.48000 4.40000
v -4.00000 6.48000 4.40000
v -4.00000 6.48000 4.40000
v -4.00000 6.48000 4.40000
v -4.00000 6.48000 4.40000
v -4.00000 6.48000 4.40000
v -4.00000 6.48000 4.40000
v -3.93112 6.46630 4.40000
v -3.94427 6.46630 4.35951
v -3.97871 6.46630 4.33449
v -4.02129 6.46630 4.33449
v -4.05573 6.46630 4.35951
v -4.06888 6.46630 4.40000
v -4.05573 6.46630 4.44049
v -4.02129 6.46630 4.46551
v -3.97871 6.46630 4.46551
v -3.94427 6.46630 4.44049
v -3.87272 6.42728 4.40000
v -3.89703 6.42728 4.32519
v -3.96067 6.42728 4.27895
v -4.03933 6.42728 4.27895
v -4.10297 6.42728 4.32519
v -4.12728 6.42728 4.40000
v -4.10297 6.42728 4.47481
v -4.03933 6.42728 4.52105
v -3.96067 6.42728 4.52105
v -3.89703 6.42728 4.47481
v -3.83370 6.36888 4.40000
v -3.86546 6.36888 4.30225
v -3.94861 6.36888 4.24184
v -4.05139 6.36888 4.24184
v -4.13454 6.36888 4.30225
v -4.16630 6.36888 4.40000
v -4.13454 6.36888 4.49775
v -4.05139 6.36888 4.55816
v -3.94861 6.36888 4.55816
v -3.86546 6.36888 4.49775
v -3.82000 6.30000 4.40000
v -3.85438 6.30000 4.29420
v -3.94438 6.30000 4.22881
v -4.05562 6.30000 4.22881
v -4.14562 6.30000 4.29420
v -4.18000 6.30000 4.40000
v -4.14562 6.30000 4.50580
v -4.05562 6.30000 4.57119
v -3.94438 6.30000 4.57119
v -3.85438 6.30000 4.50580
v -3.83370 6.23112 4.40000
v -3.86546 6.23112 4.30225
v -3.94861 6.23112 4.24184
v -4.05139 6.23112 4.24184
v -4.13454 6.23112 4.30225
v -4.16630 6.23112 4.40000
v -4.13454 6.23112 4.49775
v -4.05139 6.23112 4.55816
v -3.94861 6.23112 4.55816
v -3.86546 6.23112 4.49775
v -3.87272 6.17272 4.40000
v -3.89703 6.17272 4.32519
v -3.96067 6.17272 4.27895
v -4.03933 6.17272 4.27895
v -4.10297 6.17272 4.32519
v -4.12728 6.17272 4.40000
v -4.10297 6.17272 4.47481
v -4.03933 6.17272 4.52105
v -3.96067 6.17272 4.52105
v -3.89703 6.17272 4.47481
v -3.93112 6.13370 4.40000
v -3.94427 6.13370 4.35951
v -3.97871 6.13370 4.33449
v -4.02129 6.13370 4.33449
v -4.05573 6.13370 4.35951
v -4.06888 6.13370 4.40000
v -4.05573 6.13370 4.44049
v -4.02129 6.13370 4.46551
v -3.97871 6.13370 4.46551
v -3.94427 6.13370 4.44049
v -4.00000 6.12000 4.40000
v -4.00000 6.12000 4.40000
v -4.00000 6.12000 4.40000
v -4.00000 6.12000 4.40000
v -4.00000 6.12000 4.40000
v -4.00000 6.12000 4.40000
v -4.00000 6.12000 4.40000
v -4.00000 6.12000 4.40000
v -4.00000 6.12000 4.40000
v -4.00000 6.12000 4.40000
v 1.10000 3.70000 -0.00000
v 1.10000 0.70000 -0.00000
v 1.01627 3.70000 -0.42095
v 1.01627 0.70000 -0.42095
v 0.77782 3.70000 -0.77782
v 0.77782 0.70000 -0.77782
v 0.42095 3.70000 -1.01627
v 0.42095 0.70000 -1.01627
v 0.00000 3.70000 -1.10000
v 0.00000 0.70000 -1.10000
v -0.42095 3.70000 -1.01627
v -0.42095 0.70000 -1.01627
v -0.77782 3.70000 -0.77782
v -0.77782 0.70000 -0.77782
v -1.01627 3.70000 -0.42095
v -1.01627 0.70000 -0.42095
v -1.10000 3.70000 -0.00000
v -1.10000 0.70000 -0.00000
v -1.01627 3.70000 0.42095
v -1.01627 0.70000 0.42095
v -0.77782 3.70000 0.77782
v -0.77782 0.70000 0.77782
v -0.42095 3.70000 1.01627
v -0.42095 0.70000 1.01627
v -0.00000 3.70000 1.10000
v -0.00000 0.70000 1.10000
v 0.42095 3.70000 1.01627
v 0.42095 0.70000 1.01627
v 0.77782 3.70000 0.77782
v 0.77782 0.70000 0.77782
v 1.01627 3.70000 0.42095
v 1.01627 0.70000 0.42095
v 0.00000 3.70000 0.00000
v 0.00000 0.70000 0.00000
v 1.45000 0.77500 -0.00000
v 1.45000 0.62500 -0.00000
v 1.33963 0.77500 -0.55489
v 1.33963 0.62500 -0.55489
v 1.02530 0.77500 -1.02530
v 1.02530 0.62500 -1.02530
v 0.55489 0.77500 -1.33963
v 0.55489 0.62500 -1.33963
v 0.00000 0.77500 -1.45000
v 0.00000 0.62500 -1.45000
v -0.55489 0.77500 -1.33963
v -0.55489 0.62500 -1.33963
v -1.02530 0.77500 -1.02530
v -1.02530 0.62500 -1.02530
v -1.33963 0.77500 -0.55489
v -1.33963 0.62500 -0.55489
v -1.45000 0.77500 -0.00000
v -1.45000 0.62500 -0.00000
v -1.33963 0.77500 0.55489
v -1.33963 0.62500 0.55489
v -1.02530 0.77500 1.02530
v -1.02530 0.62500 1.02530
v -0.55489 0.77500 1.33963
v -0.55489 0.62500 1.33963
v -0.00000 0.77500 1.45000
v -0.00000 0.62500 1.45000
v 0.55489 0.77500 1.33963
v 0.55489 0.62500 1.33963
v 1.02530 0.77500 1.02530
v 1.02530 0.62500 1.02530
v 1.33963 0.77500 0.55489
v 1.33963 0.62500 0.55489
v 0.00000 0.77500 0.00000
v 0.00000 0.62500 0.00000
v 0.30000 3.22000 -0.20000
v 0.30000 3.22000 -0.20000
v 0.30000 3.22000 -0.20000
v 0.30000 3.22000 -0.20000
v 0.30000 3.22000 -0.20000
v 0.30000 3.22000 -0.20000
v 0.30000 3.22000 -0.20000
v 0.30000 3.22000 -0.20000
v 0.30000 3.22000 -0.20000
v 0.30000 3.22000 -0.20000
v 0.34592 3.21087 -0.20000
v 0.33715 3.21087 -0.22699
v 0.31419 3.21087 -0.24367
v 0.28581 3.21087 -0.24367
v 0.26285 3.21087 -0.22699
v 0.25408 3.21087 -0.20000
v 0.26285 3.21087 -0.17301
v 0.28581 3.21087 -0.15633
v 0.31419 3.21087 -0.15633
v 0.33715 3.21087 -0.17301
v 0.38485 3.18485 -0.20000
v 0.36865 3.18485 -0.24988
v 0.32622 3.18485 -0.28070
v 0.27378 3.18485 -0.28070
v 0.23135 3.18485 -0.24988
v 0.21515 3.18485 -0.20000
v 0.23135 3.18485 -0.15012
v 0.27378 3.18485 -0.11930
v 0.32622 3.18485 -0.11930
v 0.36865 3.18485 -0.15012
v 0.41087 3.14592 -0.20000
v 0.38969 3.14592 -0.26517
v 0.33426 3.14592 -0.30544
v 0.26574 3.14592 -0.30544
v 0.21031 3.14592 -0.26517
v 0.18913 3.14592 -0.20000
v 0.21031 3.14592 -0.13483
v 0.26574 3.14592 -0.09456
v 0.33426 3.14592 -0.09456
v 0.38969 3.14592 -0.13483
v 0.42000 3.10000 -0.20000
v 0.39708 3.10000 -0.27053
v 0.33708 3.10000 -0.31413
v 0.26292 3.10000 -0.31413
v 0.20292 3.10000 -0.27053
v 0.18000 3.10000 -0.20000
v 0.20292 3.10000 -0.12947
v 0.26292 3.10000 -0.08587
v 0.33708 3.10000 -0.08587
v 0.39708 3.10000 -0.12947
v 0.41087 3.05408 -0.20000
v 0.38969 3.05408 -0.26517
v 0.33426 3.05408 -0.30544
v 0.26574 3.05408 -0.30544
v 0.21031 3.05408 -0.26517
v 0.18913 3.05408 -0.20000
v 0.21031 3.05408 -0.13483
v 0.26574 3.05408 -0.09456
v 0.33426 3.05408 -0.09456
v 0.38969 3.05408 -0.13483
v 0.38485 3.01515 -0.20000
v 0.36865 3.01515 -0.24988
v 0.32622 3.01515 -0.28070
v 0.27378 3.01515 -0.28070
v 0.23135 3.01515 -0.24988
v 0.21515 3.01515 -0.20000
v 0.23135 3.01515 -0.15012
v 0.27378 3.01515 -0.11930
v 0.32622 3.01515 -0.11930
v 0.36865 3.01515 -0.15012
v 0.34592 2.98913 -0.20000
v 0.33715 2.98913 -0.22699
v 0.31419 2.98913 -0.24367
v 0.28581 2.98913 -0.24367
v 0.26285 2.98913 -0.22699
v 0.25408 2.98913 -0.20000
v 0.26285 2.98913 -0.17301
v 0.28581 2.98913 -0.15633
v 0.31419 2.98913 -0.15633
v 0.33715 2.98913 -0.17301
v 0.30000 2.98000 -0.20000
v 0.30000 2.98000 -0.20000
v 0.30000 2.98000 -0.20000
v 0.30000 2.98000 -0.20000
v 0.30000 2.98000 -0.20000
v 0.30000 2.98000 -0.20000
v 0.30000 2.98000 -0.20000
v 0.30000 2.98000 -0.20000
v 0.30000 2.98000 -0.20000
v 0.30000 2.98000 -0.20000
v -0.40000 2.85000 -0.10000
v -0.40000 2.85000 -0.10000
v -0.40000 2.85000 -0.10000
v -0.40000 2.85000 -0.10000
v -0.40000 2.85000 -0.10000
v -0.40000 2.85000 -0.10000
v -0.40000 2.85000 -0.10000
v -0.40000 2.85000 -0.10000
v -0.40000 2.85000 -0.10000
v -0.40000 2.85000 -0.10000
v -0.34260 2.83858 -0.10000
v -0.35356 2.83858 -0.13374
v -0.38226 2.83858 -0.15459
v -0.41774 2.83858 -0.15459
v -0.44644 2.83858 -0.13374
v -0.45740 2.83858 -0.10000
v -0.44644 2.83858 -0.06626
v -0.41774 2.83858 -0.04541
v -0.38226 2.83858 -0.04541
v -0.35356 2.83858 -0.06626
v -0.29393 2.80607 -0.10000
v -0.31419 2.80607 -0.16234
v -0.36722 2.80607 -0.20087
v -0.43278 2.80607 -0.20087
v -0.48581 2.80607 -0.16234
v -0.50607 2.80607 -0.10000
v -0.48581 2.80607 -0.03766
v -0.43278 2.80607 0.00087
v -0.36722 2.80607 0.00087
v -0.31419 2.80607 -0.03766
v -0.26142 2.75740 -0.10000
v -0.28788 2.75740 -0.18146
v -0.35718 2.75740 -0.23180
v -0.44282 2.75740 -0.23180
v -0.51212 2.75740 -0.18146
v -0.53858 2.75740 -0.10000
v -0.51212 2.75740 -0.01854
v -0.44282 2.75740 0.03180
v -0.35718 2.75740 0.03180
v -0.28788 2.75740 -0.01854
v -0.25000 2.70000 -0.10000
v -0.27865 2.70000 -0.18817
v -0.35365 2.70000 -0.24266
v -0.44635 2.70000 -0.24266
v -0.52135 2.70000 -0.18817
v -0.55000 2.70000 -0.10000
v -0.52135 2.70000 -0.01183
v -0.44635 2.70000 0.04266
v -0.35365 2.70000 0.04266
v -0.27865 2.70000 -0.01183
v -0.26142 2.64260 -0.10000
v -0.28788 2.64260 -0.18146
v -0.35718 2.64260 -0.23180
v -0.44282 2.64260 -0.23180
v -0.51212 2.64260 -0.18146
v -0.53858 2.64260 -0.10000
v -0.51212 2.64260 -0.01854
v -0.44282 2.64260 0.03180
v -0.35718 2.64260 0.03180
v -0.28788 2.64260 -0.01854
v -0.29393 2.59393 -0.10000
v -0.31419 2.59393 -0.16234
v -0.36722 2.59393 -0.20087
v -0.43278 2.59393 -0.20087
v -0.48581 2.59393 -0.16234
v -0.50607 2.59393 -0.10000
v -0.48581 2.59393 -0.03766
v -0.43278 2.59393 0.00087
v -0.36722 2.59393 0.00087
v -0.31419 2.59393 -0.03766
v -0.34260 2.56142 -0.10000
v -0.35356 2.56142 -0.13374
v -0.38226 2.56142 -0.15459
v -0.41774 2.56142 -0.15459
v -0.44644 2.56142 -0.13374
v -0.45740 2.56142 -0.10000
v -0.44644 2.56142 -0.06626
v -0.41774 2.56142 -0.04541
v -0.38226 2.56142 -0.04541
v -0.35356 2.56142 -0.06626
v -0.40000 2.55000 -0.10000
v -0.40000 2.55000 -0.10000
v -0.40000 2.55000 -0.10000
v -0.40000 2.55000 -0.10000
v -0.40000 2.55000 -0.10000
v -0.40000 2.55000 -0.10000
v -0.40000 2.55000 -0.10000
v -0.40000 2.55000 -0.10000
v -0.40000 2.55000 -0.10000
v -0.40000 2.55000 -0.10000
v 0.10000 3.58000 0.40000
v 0.10000 3.58000 0.40000
v 0.10000 3.58000 0.40000
v 0.10000 3.58000 0.40000
v 0.10000 3.58000 0.40000
v 0.10000 3.58000 0.40000
v 0.10000 3.58000 0.40000
v 0.10000 3.58000 0.40000
v 0.10000 3.58000 0.40000
v 0.10000 3.58000 0.40000
v 0.16888 3.56630 0.40000
v 0.15573 3.56630 0.35951
v 0.12129 3.56630 0.33449
v 0.07871 3.56630 0.33449
v 0.04427 3.56630 0.35951
v 0.03112 3.56630 0.40000
v 0.04427 3.56630 0.44049
v 0.07871 3.56630 0.46551
v 0.12129 3.56630 0.46551
v 0.15573 3.56630 0.44049
v 0.22728 3.52728 0.40000
v 0.20297 3.52728 0.32519
v 0.13933 3.52728 0.27895
v 0.06067 3.52728 0.27895
v -0.00297 3.52728 0.32519
v -0.02728 3.52728 0.40000
v -0.00297 3.52728 0.47481
v 0.06067 3.52728 0.52105
v 0.13933 3.52728 0.52105
v 0.20297 3.52728 0.47481
v 0.26630 3.46888 0.40000
v 0.23454 3.46888 0.30225
v 0.15139 3.46888 0.24184
v 0.04861 3.46888 0.24184
v -0.03454 3.46888 0.30225
v -0.06630 3.46888 0.40000
v -0.03454 3.46888 0.49775
v 0.04861 3.46888 0.55816
v 0.15139 3.46888 0.55816
v 0.23454 3.46888 0.49775
v 0.28000 3.40000 0.40000
v 0.24562 3.40000 0.29420
v 0.15562 3.40000 0.22881
v 0.04438 3.40000 0.22881
v -0.04562 3.40000 0.29420
v -0.08000 3.40000 0.40000
v -0.04562 3.40000 0.50580
v 0.04438 3.40000 0.57119
v 0.15562 3.40000 0.57119
v 0.24562 3.40000 0.50580
v 0.26630 3.33112 0.40000
v 0.23454 3.33112 0.30225
v 0.15139 3.33112 0.24184
v 0.04861 3.33112 0.24184
v -0.03454 3.33112 0.30225
v -0.06630 3.33112 0.40000
v -0.03454 3.33112 0.49775
v 0.04861 3.33112 0.55816
v 0.15139 3.33112 0.55816
v 0.23454 3.33112 0.49775
v 0.22728 3.27272 0.40000
v 0.20297 3.27272 0.32519
v 0.13933 3.27272 0.27895
v 0.06067 3.27272 0.27895
v -0.00297 3.27272 0.32519
v -0.02728 3.27272 0.40000
v -0.00297 3.27272 0.47481
v 0.06067 3.27272 0.52105
v 0.13933 3.27272 0.52105
v 0.20297 3.27272 0.47481
v 0.16888 3.23370 0.40000
v 0.15573 3.23370 0.35951
v 0.12129 3.23370 0.33449
v 0.07871 3.23370 0.33449
v 0.04427 3.23370 0.35951
v 0.03112 3.23370 0.40000
v 0.04427 3.23370 0.44049
v 0.07871 3.23370 0.46551
v 0.12129 3.23370 0.46551
v 0.15573 3.23370 0.44049
v 0.10000 3.22000 0.40000
v 0.10000 3.22000 0.40000
v 0.10000 3.22000 0.40000
v 0.10000 3.22000 0.40000
v 0.10000 3.22000 0.40000
v 0.10000 3.22000 0.40000
v 0.10000 3.22000 0.40000
v 0.10000 3.22000 0.40000
v 0.10000 3.22000 0.40000
v 0.10000 3.22000 0.40000
v -0.30000 2.12000 0.30000
v -0.30000 2.12000 0.30000
v -0.30000 2.12000 0.30000
v -0.30000 2.12000 0.30000
v -0.30000 2.12000 0.30000
v -0.30000 2.12000 0.30000
v -0.30000 2.12000 0.30000
v -0.30000 2.12000 0.30000
v -0.30000 2.12000 0.30000
v -0.30000 2.12000 0.30000
v -0.25408 2.11087 0.30000
v -0.26285 2.11087 0.27301
v -0.28581 2.11087 0.25633
v -0.31419 2.11087 0.25633
v -0.33715 2.11087 0.27301
v -0.34592 2.11087 0.30000
v -0.33715 2.11087 0.32699
v -0.31419 2.11087 0.34367
v -0.28581 2.11087 0.34367
v -0.26285 2.11087 0.32699
v -0.21515 2.08485 0.30000
v -0.23135 2.08485 0.25012
v -0.27378 2.08485 0.21930
v -0.32622 2.08485 0.21930
v -0.36865 2.08485 0.25012
v -0.38485 2.08485 0.30000
v -0.36865 2.08485 0.34988
v -0.32622 2.08485 0.38070
v -0.27378 2.08485 0.38070
v -0.23135 2.08485 0.34988
v -0.18913 2.04592 0.30000
v -0.21031 2.04592 0.23483
v -0.26574 2.04592 0.19456
v -0.33426 2.04592 0.19456
v -0.38969 2.04592 0.23483
v -0.41087 2.04592 0.30000
v -0.38969 2.04592 0.36517
v -0.33426 2.04592 0.40544
v -0.26574 2.04592 0.40544
v -0.21031 2.04592 0.36517
v -0.18000 2.00000 0.30000
v -0.20292 2.00000 0.22947
v -0.26292 2.00000 0.18587
v -0.33708 2.00000 0.18587
v -0.39708 2.00000 0.22947
v -0.42000 2.00000 0.30000
v -0.39708 2.00000 0.37053
v -0.33708 2.00000 0.41413
v -0.26292 2.00000 0.41413
v -0.20292 2.00000 0.37053
v -0.18913 1.95408 0.30000
v -0.21031 1.95408 0.23483
v -0.26574 1.95408 0.19456
v -0.33426 1.95408 0.19456
v -0.38969 1.95408 0.23483
v -0.41087 1.95408 0.30000
v -0.38969 1.95408 0.36517
v -0.33426 1.95408 0.40544
v -0.26574 1.95408 0.40544
v -0.21031 1.95408 0.36517
v -0.21515 1.91515 0.30000
v -0.23135 1.91515 0.25012
v -0.27378 1.91515 0.21930
v -0.32622 1.91515 0.21930
v -0.36865 1.91515 0.25012
v -0.38485 1.91515 0.30000
v -0.36865 1.91515 0.34988
v -0.32622 1.91515 0.38070
v -0.27378 1.91515 0.38070
v -0.23135 1.91515 0.34988
v -0.25408 1.88913 0.30000
v -0.26285 1.88913 0.27301
v -0.28581 1.88913 0.25633
v -0.31419 1.88913 0.25633
v -0.33715 1.88913 0.27301
v -0.34592 1.88913 0.30000
v -0.33715 1.88913 0.32699
v -0.31419 1.88913 0.34367
v -0.28581 1.88913 0.34367
v -0.26285 1.88913 0.32699
v -0.30000 1.88000 0.30000
v -0.30000 1.88000 0.30000
v -0.30000 1.88000 0.30000
v -0.30000 1.88000 0.30000
v -0.30000 1.88000 0.30000
v -0.30000 1.88000 0.30000
v -0.30000 1.88000 0.30000
v -0.30000 1.88000 0.30000
v -0.30000 1.88000 0.30000
v -0.30000 1.88000 0.30000
v 0.50000 1.75000 0.10000
v 0.50000 1.75000 0.10000
v 0.50000 1.75000 0.10000
v 0.50000 1.75000 0.10000
v 0.50000 1.75000 0.10000
v 0.50000 1.75000 0.10000
v 0.50000 1.75000 0.10000
v 0.50000 1.75000 0.10000
v 0.50000 1.75000 0.10000
v 0.50000 1.75000 0.10000
v 0.55740 1.73858 0.10000
v 0.54644 1.73858 0.06626
v 0.51774 1.73858 0.04541
v 0.48226 1.73858 0.04541
v 0.45356 1.73858 0.06626
v 0.44260 1.73858 0.10000
v 0.45356 1.73858 0.13374
v 0.48226 1.73858 0.15459
v 0.51774 1.73858 0.15459
v 0.54644 1.73858 0.13374
v 0.60607 1.70607 0.10000
v 0.58581 1.70607 0.03766
v 0.53278 1.70607 -0.00087
v 0.46722 1.70607 -0.00087
v 0.41419 1.70607 0.03766
v 0.39393 1.70607 0.10000
v 0.41419 1.70607 0.16234
v 0.46722 1.70607 0.20087
v 0.53278 1.70607 0.20087
v 0.58581 1.70607 0.16234
v 0.63858 1.65740 0.10000
v 0.61212 1.65740 0.01854
v 0.54282 1.65740 -0.03180
v 0.45718 1.65740 -0.03180
v 0.38788 1.65740 0.01854
v 0.36142 1.65740 0.10000
v 0.38788 1.65740 0.18146
v 0.45718 1.65740 0.23180
v 0.54282 1.65740 0.23180
v 0.61212 1.65740 0.18146
v 0.65000 1.60000 0.10000
v 0.62135 1.60000 0.01183
v 0.54635 1.60000 -0.04266
v 0.45365 1.60000 -0.04266
v 0.37865 1.60000 0.01183
v 0.35000 1.60000 0.10000
v 0.37865 1.60000 0.18817
v 0.45365 1.60000 0.24266
v 0.54635 1.60000 0.24266
v 0.62135 1.60000 0.18817
v 0.63858 1.54260 0.10000
v 0.61212 1.54260 0.01854
v 0.54282 1.54260 -0.03180
v 0.45718 1.54260 -0.03180
v 0.38788 1.54260 0.01854
v 0.36142 1.54260 0.10000
v 0.38788 1.54260 0.18146
v 0.45718 1.54260 0.23180
v 0.54282 1.54260 0.23180
v 0.61212 1.54260 0.18146
v 0.60607 1.49393 0.10000
v 0.58581 1.49393 0.03766
v 0.53278 1.49393 -0.00087
v 0.46722 1.49393 -0.00087
v 0.41419 1.49393 0.03766
v 0.39393 1.49393 0.10000
v 0.41419 1.49393 0.16234
v 0.46722 1.49393 0.20087
v 0.53278 1.49393 0.20087
v 0.58581 1.49393 0.16234
v 0.55740 1.46142 0.10000
v 0.54644 1.46142 0.06626
v 0.51774 1.46142 0.04541
v 0.48226 1.46142 0.04541
v 0.45356 1.46142 0.06626
v 0.44260 1.46142 0.10000
v 0.45356 1.46142 0.13374
v 0.48226 1.46142 0.15459
v 0.51774 1.46142 0.15459
v 0.54644 1.46142 0.13374
v 0.50000 1.45000 0.10000
v 0.50000 1.45000 0.10000
v 0.50000 1.45000 0.10000
v 0.50000 1.45000 0.10000
v 0.50000 1.45000 0.10000
v 0.50000 1.45000 0.10000
v 0.50000 1.45000 0.10000
v 0.50000 1.45000 0.10000
v 0.50000 1.45000 0.10000
v 0.50000 1.45000 0.10000
v -0.50000 1.38000 -0.30000
v -0.50000 1.38000 -0.30000
v -0.50000 1.38000 -0.30000
v -0.50000 1.38000 -0.30000
v -0.50000 1.38000 -0.30000
v -0.50000 1.38000 -0.30000
v -0.50000 1.38000 -0.30000
v -0.50000 1.38000 -0.30000
v -0.50000 1.38000 -0.30000
v -0.50000 1.38000 -0.30000
v -0.43112 1.36630 -0.30000
v -0.44427 1.36630 -0.34049
v -0.47871 1.36630 -0.36551
v -0.52129 1.36630 -0.36551
v -0.55573 1.36630 -0.34049
v -0.56888 1.36630 -0.30000
v -0.55573 1.36630 -0.25951
v -0.52129 1.36630 -0.23449
v -0.47871 1.36630 -0.23449
v -0.44427 1.36630 -0.25951
v -0.37272 1.32728 -0.30000
v -0.39703 1.32728 -0.37481
v -0.46067 1.32728 -0.42105
v -0.53933 1.32728 -0.42105
v -0.60297 1.32728 -0.37481
v -0.62728 1.32728 -0.30000
v -0.60297 1.32728 -0.22519
v -0.53933 1.32728 -0.17895
v -0.46067 1.32728 -0.17895
v -0.39703 1.32728 -0.22519
v -0.33370 1.26888 -0.30000
v -0.36546 1.26888 -0.39775
v -0.44861 1.26888 -0.45816
v -0.55139 1.26888 -0.45816
v -0.63454 1.26888 -0.39775
v -0.66630 1.26888 -0.30000
v -0.63454 1.26888 -0.20225
v -0.55139 1.26888 -0.14184
v -0.44861 1.26888 -0.14184
v -0.36546 1.26888 -0.20225
v -0.32000 1.20000 -0.30000
v -0.35438 1.20000 -0.40580
v -0.44438 1.20000 -0.47119
v -0.55562 1.20000 -0.47119
v -0.64562 1.20000 -0.40580
v -0.68000 1.20000 -0.30000
v -0.64562 1.20000 -0.19420
v -0.55562 1.20000 -0.12881
v -0.44438 1.20000 -0.12881
v -0.35438 1.20000 -0.19420
v -0.33370 1.13112 -0.30000
v -0.36546 1.13112 -0.39775
v -0.44861 1.13112 -0.45816
v -0.55139 1.13112 -0.45816
v -0.63454 1.13112 -0.39775
v -0.66630 1.13112 -0.30000
v -0.63454 1.13112 -0.20225
v -0.55139 1.13112 -0.14184
v -0.44861 1.13112 -0.14184
v -0.36546 1.13112 -0.20225
v -0.37272 1.07272 -0.30000
v -0.39703 1.07272 -0.37481
v -0.46067 1.07272 -0.42105
v -0.53933 1.07272 -0.42105
v -0.60297 1.07272 -0.37481
v -0.62728 1.07272 -0.30000
v -0.60297 1.07272 -0.22519
v -0.53933 1.07272 -0.17895
v -0.46067 1.07272 -0.17895
v -0.39703 1.07272 -0.22519
v -0.43112 1.03370 -0.30000
v -0.44427 1.03370 -0.34049
v -0.47871 1.03370 -0.36551
v -0.52129 1.03370 -0.36551
v -0.55573 1.03370 -0.34049
v -0.56888 1.03370 -0.30000
v -0.55573 1.03370 -0.25951
v -0.52129 1.03370 -0.23449
v -0.47871 1.03370 -0.23449
v -0.44427 1.03370 -0.25951
v -0.50000 1.02000 -0.30000
v -0.50000 1.02000 -0.30000
v -0.50000 1.02000 -0.30000
v -0.50000 1.02000 -0.30000
v -0.50000 1.02000 -0.30000
v -0.50000 1.02000 -0.30000
v -0.50000 1.02000 -0.30000
v -0.50000 1.02000 -0.30000
v -0.50000 1.02000 -0.30000
v -0.50000 1.02000 -0.30000
v 0.00000 2.52000 -0.50000
v 0.00000 2.52000 -0.50000
v 0.00000 2.52000 -0.50000
v 0.00000 2.52000 -0.50000
v 0.00000 2.52000 -0.50000
v 0.00000 2.52000 -0.50000
v 0.00000 2.52000 -0.50000
v 0.00000 2.52000 -0.50000
v 0.00000 2.52000 -0.50000
v 0.00000 2.52000 -0.50000
v 0.04592 2.51087 -0.50000
v 0.03715 2.51087 -0.52699
v 0.01419 2.51087 -0.54367
v -0.01419 2.51087 -0.54367
v -0.03715 2.51087 -0.52699
v -0.04592 2.51087 -0.50000
v -0.03715 2.51087 -0.47301
v -0.01419 2.51087 -0.45633
v 0.01419 2.51087 -0.45633
v 0.03715 2.51087 -0.47301
v 0.08485 2.48485 -0.50000
v 0.06865 2.48485 -0.54988
v 0.02622 2.48485 -0.58070
v -0.02622 2.48485 -0.58070
v -0.06865 2.48485 -0.54988
v -0.08485 2.48485 -0.50000
v -0.06865 2.48485 -0.45012
v -0.02622 2.48485 -0.41930
v 0.02622 2.48485 -0.41930
v 0.06865 2.48485 -0.45012
v 0.11087 2.44592 -0.50000
v 0.08969 2.44592 -0.56517
v 0.03426 2.44592 -0.60544
v -0.03426 2.44592 -0.60544
v -0.08969 2.44592 -0.56517
v -0.11087 2.44592 -0.50000
v -0.08969 2.44592 -0.43483
v -0.03426 2.44592 -0.39456
v 0.03426 2.44592 -0.39456
v 0.08969 2.44592 -0.43483
v 0.12000 2.40000 -0.50000
v 0.09708 2.40000 -0.57053
v 0.03708 2.40000 -0.61413
v -0.03708 2.40000 -0.61413
v -0.09708 2.40000 -0.57053
v -0.12000 2.40000 -0.50000
v -0.09708 2.40000 -0.42947
v -0.03708 2.40000 -0.38587
v 0.03708 2.40000 -0.38587
v 0.09708 2.40000 -0.42947
v 0.11087 2.35408 -0.50000
v 0.08969 2.35408 -0.56517
v 0.03426 2.35408 -0.60544
v -0.03426 2.35408 -0.60544
v -0.08969 2.35408 -0.56517
v -0.11087 2.35408 -0.50000
v -0.08969 2.35408 -0.43483
v -0.03426 2.35408 -0.39456
v 0.03426 2.35408 -0.39456
v 0.08969 2.35408 -0.43483
v 0.08485 2.31515 -0.50000
v 0.06865 2.31515 -0.54988
v 0.02622 2.31515 -0.58070
v -0.02622 2.31515 -0.58070
v -0.06865 2.31515 -0.54988
v -0.08485 2.31515 -0.50000
v -0.06865 2.31515 -0.45012
v -0.02622 2.31515 -0.41930
v 0.02622 2.31515 -0.41930
v 0.06865 2.31515 -0.45012
v 0.04592 2.28913 -0.50000
v 0.03715 2.28913 -0.52699
v 0.01419 2.28913 -0.54367
v -0.01419 2.28913 -0.54367
v -0.03715 2.28913 -0.52699
v -0.04592 2.28913 -0.50000
v -0.03715 2.28913 -0.47301
v -0.01419 2.28913 -0.45633
v 0.01419 2.28913 -0.45633
v 0.03715 2.28913 -0.47301
v 0.00000 2.28000 -0.50000
v 0.00000 2.28000 -0.50000
v 0.00000 2.28000 -0.50000
v -0.00000 2.28000 -0.50000
v -0.00000 2.28000 -0.50000
v -0.00000 2.28000 -0.50000
v -0.00000 2.28000 -0.50000
v -0.00000 2.28000 -0.50000
v 0.00000 2.28000 -0.50000
v 0.00000 2.28000 -0.50000
v 0.20000 1.15000 0.50000
v 0.20000 1.15000 0.50000
v 0.20000 1.15000 0.50000
v 0.20000 1.15000 0.50000
v 0.20000 1.15000 0.50000
v 0.20000 1.15000 0.50000
v 0.20000 1.15000 0.50000
v 0.20000 1.15000 0.50000
v 0.20000 1.15000 0.50000
v 0.20000 1.15000 0.50000
v 0.25740 1.13858 0.50000
v 0.24644 1.13858 0.46626
v 0.21774 1.13858 0.44541
v 0.18226 1.13858 0.44541
v 0.15356 1.13858 0.46626
v 0.14260 1.13858 0.50000
v 0.15356 1.13858 0.53374
v 0.18226 1.13858 0.55459
v 0.21774 1.13858 0.55459
v 0.24644 1.13858 0.53374
v 0.30607 1.10607 0.50000
v 0.28581 1.10607 0.43766
v 0.23278 1.10607 0.39913
v 0.16722 1.10607 0.39913
v 0.11419 1.10607 0.43766
v 0.09393 1.10607 0.50000
v 0.11419 1.10607 0.56234
v 0.16722 1.10607 0.60087
v 0.23278 1.10607 0.60087
v 0.28581 1.10607 0.56234
v 0.33858 1.05740 0.50000
v 0.31212 1.05740 0.41854
v 0.24282 1.05740 0.36820
v 0.15718 1.05740 0.36820
v 0.08788 1.05740 0.41854
v 0.06142 1.05740 0.50000
v 0.08788 1.05740 0.58146
v 0.15718 1.05740 0.63180
v 0.24282 1.05740 0.63180
v 0.31212 1.05740 0.58146
v 0.35000 1.00000 0.50000
v 0.32135 1.00000 0.41183
v 0.24635 1.00000 0.35734
v 0.15365 1.00000 0.35734
v 0.07865 1.00000 0.41183
v 0.05000 1.00000 0.50000
v 0.07865 1.00000 0.58817
v 0.15365 1.00000 0.64266
v 0.24635 1.00000 0.64266
v 0.32135 1.00000 0.58817
v 0.33858 0.94260 0.50000
v 0.31212 0.94260 0.41854
v 0.24282 0.94260 0.36820
v 0.15718 0.94260 0.36820
v 0.08788 0.94260 0.41854
v 0.06142 0.94260 0.50000
v 0.08788 0.94260 0.58146
v 0.15718 0.94260 0.63180
v 0.24282 0.94260 0.63180
v 0.31212 0.94260 0.58146
v 0.30607 0.89393 0.50000
v 0.28581 0.89393 0.43766
v 0.23278 0.89393 0.39913
v 0.16722 0.89393 0.39913
v 0.11419 0.89393 0.43766
v 0.09393 0.89393 0.50000
v 0.11419 0.89393 0.56234
v 0.16722 0.89393 0.60087
v 0.23278 0.89393 0.60087
v 0.28581 0.89393 0.56234
v 0.25740 0.86142 0.50000
v 0.24644 0.86142 0.46626
v 0.21774 0.86142 0.44541
v 0.18226 0.86142 0.44541
v 0.15356 0.86142 0.46626
v 0.14260 0.86142 0.50000
v 0.15356 0.86142 0.53374
v 0.18226 0.86142 0.55459
v 0.21774 0.86142 0.55459
v 0.24644 0.86142 0.53374
v 0.20000 0.85000 0.50000
v 0.20000 0.85000 0.50000
v 0.20000 0.85000 0.50000
v 0.20000 0.85000 0.50000
v 0.20000 0.85000 0.50000
v 0.20000 0.85000 0.50000
v 0.20000 0.85000 0.50000
v 0.20000 0.85000 0.50000
v 0.20000 0.85000 0.50000
v 0.20000 0.85000 0.50000
v -0.20000 3.38000 0.20000
v -0.20000 3.38000 0.20000
v -0.20000 3.38000 0.20000
v -0.20000 3.38000 0.20000
v -0.20000 3.38000 0.20000
v -0.20000 3.38000 0.20000
v -0.20000 3.38000 0.20000
v -0.20000 3.38000 0.20000
v -0.20000 3.38000 0.20000
v -0.20000 3.38000 0.20000
v -0.13112 3.36630 0.20000
v -0.14427 3.36630 0.15951
v -0.17871 3.36630 0.13449
v -0.22129 3.36630 0.13449
v -0.25573 3.36630 0.15951
v -0.26888 3.36630 0.20000
v -0.25573 3.36630 0.24049
v -0.22129 3.36630 0.26551
v -0.17871 3.36630 0.26551
v -0.14427 3.36630 0.24049
v -0.07272 3.32728 0.20000
v -0.09703 3.32728 0.12519
v -0.16067 3.32728 0.07895
v -0.23933 3.32728 0.07895
v -0.30297 3.32728 0.12519
v -0.32728 3.32728 0.20000
v -0.30297 3.32728 0.27481
v -0.23933 3.32728 0.32105
v -0.16067 3.32728 0.32105
v -0.09703 3.32728 0.27481
v -0.03370 3.26888 0.20000
v -0.06546 3.26888 0.10225
v -0.14861 3.26888 0.04184
v -0.25139 3.26888 0.04184
v -0.33454 3.26888 0.10225
v -0.36630 3.26888 0.20000
v -0.33454 3.26888 0.29775
v -0.25139 3.26888 0.35816
v -0.14861 3.26888 0.35816
v -0.06546 3.26888 0.29775
v -0.02000 3.20000 0.20000
v -0.05438 3.20000 0.09420
v -0.14438 3.20000 0.02881
v -0.25562 3.20000 0.02881
v -0.34562 3.20000 0.09420
v -0.38000 3.20000 0.20000
v -0.34562 3.20000 0.30580
v -0.25562 3.20000 0.37119
v -0.14438 3.20000 0.37119
v -0.05438 3.20000 0.30580
v -0.03370 3.13112 0.20000
v -0.06546 3.13112 0.10225
v -0.14861 3.13112 0.04184
v -0.25139 3.13112 0.04184
v -0.33454 3.13112 0.10225
v -0.36630 3.13112 0.20000
v -0.33454 3.13112 0.29775
v -0.25139 3.13112 0.35816
v -0.14861 3.13112 0.35816
v -0.06546 3.13112 0.29775
v -0.07272 3.07272 0.20000
v -0.09703 3.07272 0.12519
v -0.16067 3.07272 0.07895
v -0.23933 3.07272 0.07895
v -0.30297 3.07272 0.12519
v -0.32728 3.07272 0.20000
v -0.30297 3.07272 0.27481
v -0.23933 3.07272 0.32105
v -0.16067 3.07272 0.32105
v -0.09703 3.07272 0.27481
v -0.13112 3.03370 0.20000
v -0.14427 3.03370 0.15951
v -0.17871 3.03370 0.13449
v -0.22129 3.03370 0.13449
v -0.25573 3.03370 0.15951
v -0.26888 3.03370 0.20000
v -0.25573 3.03370 0.24049
v -0.22129 3.03370 0.26551
v -0.17871 3.03370 0.26551
v -0.14427 3.03370 0.24049
v -0.20000 3.02000 0.20000
v -0.20000 3.02000 0.20000
v -0.20000 3.02000 0.20000
v -0.20000 3.02000 0.20000
v -0.20000 3.02000 0.20000
v -0.20000 3.02000 0.20000
v -0.20000 3.02000 0.20000
v -0.20000 3.02000 0.20000
v -0.20000 3.02000 0.20000
v -0.20000 3.02000 0.20000
v 0.40000 1.92000 -0.40000
v 0.40000 1.92000 -0.40000
v 0.40000 1.92000 -0.40000
v 0.40000 1.92000 -0.40000
v 0.40000 1.92000 -0.40000
v 0.40000 1.92000 -0.40000
v 0.40000 1.92000 -0.40000
v 0.40000 1.92000 -0.40000
v 0.40000 1.92000 -0.40000
v 0.40000 1.92000 -0.40000
v 0.44592 1.91087 -0.40000
v 0.43715 1.91087 -0.42699
v 0.41419 1.91087 -0.44367
v 0.38581 1.91087 -0.44367
v 0.36285 1.91087 -0.42699
v 0.35408 1.91087 -0.40000
v 0.36285 1.91087 -0.37301
v 0.38581 1.91087 -0.35633
v 0.41419 1.91087 -0.35633
v 0.43715 1.91087 -0.37301
v 0.48485 1.88485 -0.40000
v 0.46865 1.88485 -0.44988
v 0.42622 1.88485 -0.48070
v 0.37378 1.88485 -0.48070
v 0.33135 1.88485 -0.44988
v 0.31515 1.88485 -0.40000
v 0.33135 1.88485 -0.35012
v 0.37378 1.88485 -0.31930
v 0.42622 1.88485 -0.31930
v 0.46865 1.88485 -0.35012
v 0.51087 1.84592 -0.40000
v 0.48969 1.84592 -0.46517
v 0.43426 1.84592 -0.50544
v 0.36574 1.84592 -0.50544
v 0.31031 1.84592 -0.46517
v 0.28913 1.84592 -0.40000
v 0.31031 1.84592 -0.33483
v 0.36574 1.84592 -0.29456
v 0.43426 1.84592 -0.29456
v 0.48969 1.84592 -0.33483
v 0.52000 1.80000 -0.40000
v 0.49708 1.80000 -0.47053
v 0.43708 1.80000 -0.51413
v 0.36292 1.80000 -0.51413
v 0.30292 1.80000 -0.47053
v 0.28000 1.80000 -0.40000
v 0.30292 1.80000 -0.32947
v 0.36292 1.80000 -0.28587
v 0.43708 1.80000 -0.28587
v 0.49708 1.80000 -0.32947
v 0.51087 1.75408 -0.40000
v 0.48969 1.75408 -0.46517
v 0.43426 1.75408 -0.50544
v 0.36574 1.75408 -0.50544
v 0.31031 1.75408 -0.46517
v 0.28913 1.75408 -0.40000
v 0.31031 1.75408 -0.33483
v 0.36574 1.75408 -0.29456
v 0.43426 1.75408 -0.29456
v 0.48969 1.75408 -0.33483
v 0.48485 1.71515 -0.40000
v 0.46865 1.71515 -0.44988
v 0.42622 1.71515 -0.48070
v 0.37378 1.71515 -0.48070
v 0.33135 1.71515 -0.44988
v 0.31515 1.71515 -0.40000
v 0.33135 1.71515 -0.35012
v 0.37378 1.71515 -0.31930
v 0.42622 1.71515 -0.31930
v 0.46865 1.71515 -0.35012
v 0.44592 1.68913 -0.40000
v 0.43715 1.68913 -0.42699
v 0.41419 1.68913 -0.44367
v 0.38581 1.68913 -0.44367
v 0.36285 1.68913 -0.42699
v 0.35408 1.68913 -0.40000
v 0.36285 1.68913 -0.37301
v 0.38581 1.68913 -0.35633
v 0.41419 1.68913 -0.35633
v 0.43715 1.68913 -0.37301
v 0.40000 1.68000 -0.40000
v 0.40000 1.68000 -0.40000
v 0.40000 1.68000 -0.40000
v 0.40000 1.68000 -0.40000
v 0.40000 1.68000 -0.40000
v 0.40000 1.68000 -0.40000
v 0.40000 1.68000 -0.40000
v 0.40000 1.68000 -0.40000
v 0.40000 1.68000 -0.40000
v 0.40000 1.68000 -0.40000
v -0.10000 2.95000 0.40000
v -0.10000 2.95000 0.40000
v -0.10000 2.95000 0.40000
v -0.10000 2.95000 0.40000
v -0.10000 2.95000 0.40000
v -0.10000 2.95000 0.40000
v -0.10000 2.95000 0.40000
v -0.10000 2.95000 0.40000
v -0.10000 2.95000 0.40000
v -0.10000 2.95000 0.40000
v -0.04260 2.93858 0.40000
v -0.05356 2.93858 0.36626
v -0.08226 2.93858 0.34541
v -0.11774 2.93858 0.34541
v -0.14644 2.93858 0.36626
v -0.15740 2.93858 0.40000
v -0.14644 2.93858 0.43374
v -0.11774 2.93858 0.45459
v -0.08226 2.93858 0.45459
v -0.05356 2.93858 0.43374
v 0.00607 2.90607 0.40000
v -0.01419 2.90607 0.33766
v -0.06722 2.90607 0.29913
v -0.13278 2.90607 0.29913
v -0.18581 2.90607 0.33766
v -0.20607 2.90607 0.40000
v -0.18581 2.90607 0.46234
v -0.13278 2.90607 0.50087
v -0.06722 2.90607 0.50087
v -0.01419 2.90607 0.46234
v 0.03858 2.85740 0.40000
v 0.01212 2.85740 0.31854
v -0.05718 2.85740 0.26820
v -0.14282 2.85740 0.26820
v -0.21212 2.85740 0.31854
v -0.23858 2.85740 0.40000
v -0.21212 2.85740 0.48146
v -0.14282 2.85740 0.53180
v -0.05718 2.85740 0.53180
v 0.01212 2.85740 0.48146
v 0.05000 2.80000 0.40000
v 0.02135 2.80000 0.31183
v -0.05365 2.80000 0.25734
v -0.14635 2.80000 0.25734
v -0.22135 2.80000 0.31183
v -0.25000 2.80000 0.40000
v -0.22135 2.80000 0.48817
v -0.14635 2.80000 0.54266
v -0.05365 2.80000 0.54266
v 0.02135 2.80000 0.48817
v 0.03858 2.74260 0.40000
v 0.01212 2.74260 0.31854
v -0.05718 2.74260 0.26820
v -0.14282 2.74260 0.26820
v -0.21212 2.74260 0.31854
v -0.23858 2.74260 0.40000
v -0.21212 2.74260 0.48146
v -0.14282 2.74260 0.53180
v -0.05718 2.74260 0.53180
v 0.01212 2.74260 0.48146
v 0.00607 2.69393 0.40000
v -0.01419 2.69393 0.33766
v -0.06722 2.69393 0.29913
v -0.13278 2.69393 0.29913
v -0.18581 2.69393 0.33766
v -0.20607 2.69393 0.40000
v -0.18581 2.69393 0.46234
v -0.13278 2.69393 0.50087
v -0.06722 2.69393 0.50087
v -0.01419 2.69393 0.46234
v -0.04260 2.66142 0.40000
v -0.05356 2.66142 0.36626
v -0.08226 2.66142 0.34541
v -0.11774 2.66142 0.34541
v -0.14644 2.66142 0.36626
v -0.15740 2.66142 0.40000
v -0.14644 2.66142 0.43374
v -0.11774 2.66142 0.45459
v -0.08226 2.66142 0.45459
v -0.05356 2.66142 0.43374
v -0.10000 2.65000 0.40000
v -0.10000 2.65000 0.40000
v -0.10000 2.65000 0.40000
v -0.10000 2.65000 0.40000
v -0.10000 2.65000 0.40000
v -0.10000 2.65000 0.40000
v -0.10000 2.65000 0.40000
v -0.10000 2.65000 0.40000
v -0.10000 2.65000 0.40000
v -0.10000 2.65000 0.40000
v 0.30000 1.48000 -0.10000
v 0.30000 1.48000 -0.10000
v 0.30000 1.48000 -0.10000
v 0.30000 1.48000 -0.10000
v 0.30000 1.48000 -0.10000
v 0.30000 1.48000 -0.10000
v 0.30000 1.48000 -0.10000
v 0.30000 1.48000 -0.10000
v 0.30000 1.48000 -0.10000
v 0.30000 1.48000 -0.10000
v 0.36888 1.46630 -0.10000
v 0.35573 1.46630 -0.14049
v 0.32129 1.46630 -0.16551
v 0.27871 1.46630 -0.16551
v 0.24427 1.46630 -0.14049
v 0.23112 1.46630 -0.10000
v 0.24427 1.46630 -0.05951
v 0.27871 1.46630 -0.03449
v 0.32129 1.46630 -0.03449
v 0.35573 1.46630 -0.05951
v 0.42728 1.42728 -0.10000
v 0.40297 1.42728 -0.17481
v 0.33933 1.42728 -0.22105
v 0.26067 1.42728 -0.22105
v 0.19703 1.42728 -0.17481
v 0.17272 1.42728 -0.10000
v 0.19703 1.42728 -0.02519
v 0.26067 1.42728 0.02105
v 0.33933 1.42728 0.02105
v 0.40297 1.42728 -0.02519
v 0.46630 1.36888 -0.10000
v 0.43454 1.36888 -0.19775
v 0.35139 1.36888 -0.25816
v 0.24861 1.36888 -0.25816
v 0.16546 1.36888 -0.19775
v 0.13370 1.36888 -0.10000
v 0.16546 1.36888 -0.00225
v 0.24861 1.36888 0.05816
v 0.35139 1.36888 0.05816
v 0.43454 1.36888 -0.00225
v 0.48000 1.30000 -0.10000
v 0.44562 1.30000 -0.20580
v 0.35562 1.30000 -0.27119
v 0.24438 1.30000 -0.27119
v 0.15438 1.30000 -0.20580
v 0.12000 1.30000 -0.10000
v 0.15438 1.30000 0.00580
v 0.24438 1.30000 0.07119
v 0.35562 1.30000 0.07119
v 0.44562 1.30000 0.00580
v 0.46630 1.23112 -0.10000
v 0.43454 1.23112 -0.19775
v 0.35139 1.23112 -0.25816
v 0.24861 1.23112 -0.25816
v 0.16546 1.23112 -0.19775
v 0.13370 1.23112 -0.10000
v 0.16546 1.23112 -0.00225
v 0.24861 1.23112 0.05816
v 0.35139 1.23112 0.05816
v 0.43454 1.23112 -0.00225
v 0.42728 1.17272 -0.10000
v 0.40297 1.17272 -0.17481
v 0.33933 1.17272 -0.22105
v 0.26067 1.17272 -0.22105
v 0.19703 1.17272 -0.17481
v 0.17272 1.17272 -0.10000
v 0.19703 1.17272 -0.02519
v 0.26067 1.17272 0.02105
v 0.33933 1.17272 0.02105
v 0.40297 1.17272 -0.02519
v 0.36888 1.13370 -0.10000
v 0.35573 1.13370 -0.14049
v 0.32129 1.13370 -0.16551
v 0.27871 1.13370 -0.16551
v 0.24427 1.13370 -0.14049
v 0.23112 1.13370 -0.10000
v 0.24427 1.13370 -0.05951
v 0.27871 1.13370 -0.03449
v 0.32129 1.13370 -0.03449
v 0.35573 1.13370 -0.05951
v 0.30000 1.12000 -0.10000
v 0.30000 1.12000 -0.10000
v 0.30000 1.12000 -0.10000
v 0.30000 1.12000 -0.10000
v 0.30000 1.12000 -0.10000
v 0.30000 1.12000 -0.10000
v 0.30000 1.12000 -0.10000
v 0.30000 1.12000 -0.10000
v 0.30000 1.12000 -0.10000
v 0.30000 1.12000 -0.10000
v 2.55000 1.75000 0.25000
v 2.65000 1.75000 0.25000
v 2.65000 1.75000 -0.85000
v 2.55000 1.75000 -0.85000
v 2.55000 3.45000 0.25000
v 2.65000 3.45000 0.25000
v 2.65000 3.45000 -0.85000
v 2.55000 3.45000 -0.85000
v 2.64500 1.72500 0.27500
v 2.67500 1.72500 0.27500
v 2.67500 1.72500 -0.87500
v 2.64500 1.72500 -0.87500
v 2.64500 3.47500 0.27500
v 2.67500 3.47500 0.27500
v 2.67500 3.47500 -0.87500
v 2.64500 3.47500 -0.87500
v 2.72000 2.22000 -0.30000
v 2.72000 2.22000 -0.30000
v 2.72000 2.22000 -0.30000
v 2.72000 2.22000 -0.30000
v 2.72000 2.22000 -0.30000
v 2.72000 2.22000 -0.30000
v 2.72000 2.22000 -0.30000
v 2.72000 2.22000 -0.30000
v 2.72000 2.22000 -0.30000
v 2.72000 2.22000 -0.30000
v 2.80419 2.20325 -0.30000
v 2.78811 2.20325 -0.34949
v 2.74602 2.20325 -0.38007
v 2.69398 2.20325 -0.38007
v 2.65189 2.20325 -0.34949
v 2.63581 2.20325 -0.30000
v 2.65189 2.20325 -0.25051
v 2.69398 2.20325 -0.21993
v 2.74602 2.20325 -0.21993
v 2.78811 2.20325 -0.25051
v 2.87556 2.15556 -0.30000
v 2.84585 2.15556 -0.39144
v 2.76807 2.15556 -0.44795
v 2.67193 2.15556 -0.44795
v 2.59415 2.15556 -0.39144
v 2.56444 2.15556 -0.30000
v 2.59415 2.15556 -0.20856
v 2.67193 2.15556 -0.15205
v 2.76807 2.15556 -0.15205
v 2.84585 2.15556 -0.20856
v 2.92325 2.08419 -0.30000
v 2.88444 2.08419 -0.41947
v 2.78281 2.08419 -0.49331
v 2.65719 2.08419 -0.49331
v 2.55556 2.08419 -0.41947
v 2.51675 2.08419 -0.30000
v 2.55556 2.08419 -0.18053
v 2.65719 2.08419 -0.10669
v 2.78281 2.08419 -0.10669
v 2.88444 2.08419 -0.18053
v 2.94000 2.00000 -0.30000
v 2.89798 2.00000 -0.42931
v 2.78798 2.00000 -0.50923
v 2.65202 2.00000 -0.50923
v 2.54202 2.00000 -0.42931
v 2.50000 2.00000 -0.30000
v 2.54202 2.00000 -0.17069
v 2.65202 2.00000 -0.09077
v 2.78798 2.00000 -0.09077
v 2.89798 2.00000 -0.17069
v 2.92325 1.91581 -0.30000
v 2.88444 1.91581 -0.41947
v 2.78281 1.91581 -0.49331
v 2.65719 1.91581 -0.49331
v 2.55556 1.91581 -0.41947
v 2.51675 1.91581 -0.30000
v 2.55556 1.91581 -0.18053
v 2.65719 1.91581 -0.10669
v 2.78281 1.91581 -0.10669
v 2.88444 1.91581 -0.18053
v 2.87556 1.84444 -0.30000
v 2.84585 1.84444 -0.39144
v 2.76807 1.84444 -0.44795
v 2.67193 1.84444 -0.44795
v 2.59415 1.84444 -0.39144
v 2.56444 1.84444 -0.30000
v 2.59415 1.84444 -0.20856
v 2.67193 1.84444 -0.15205
v 2.76807 1.84444 -0.15205
v 2.84585 1.84444 -0.20856
v 2.80419 1.79675 -0.30000
v 2.78811 1.79675 -0.34949
v 2.74602 1.79675 -0.38007
v 2.69398 1.79675 -0.38007
v 2.65189 1.79675 -0.34949
v 2.63581 1.79675 -0.30000
v 2.65189 1.79675 -0.25051
v 2.69398 1.79675 -0.21993
v 2.74602 1.79675 -0.21993
v 2.78811 1.79675 -0.25051
v 2.72000 1.78000 -0.30000
v 2.72000 1.78000 -0.30000
v 2.72000 1.78000 -0.30000
v 2.72000 1.78000 -0.30000
v 2.72000 1.78000 -0.30000
v 2.72000 1.78000 -0.30000
v 2.72000 1.78000 -0.30000
v 2.72000 1.78000 -0.30000
v 2.72000 1.78000 -0.30000
v 2.72000 1.78000 -0.30000
v -4.25000 0.50000 3.77500
v 4.25000 0.50000 3.77500
v 4.25000 0.50000 3.62500
v -4.25000 0.50000 3.62500
v -4.25000 1.30000 3.77500
v 4.25000 1.30000 3.77500
v 4.25000 1.30000 3.62500
v -4.25000 1.30000 3.62500
v -4.30000 0.45000 3.81500
v 4.30000 0.45000 3.81500
v 4.30000 0.45000 3.76500
v -4.30000 0.45000 3.76500
v -4.30000 1.35000 3.81500
v 4.30000 1.35000 3.81500
v 4.30000 1.35000 3.76500
v -4.30000 1.35000 3.76500
v -4.65000 2.44000 2.00000
v -4.65000 2.36000 2.00000
v -4.67664 2.44000 1.86606
v -4.67664 2.36000 1.86606
v -4.75251 2.44000 1.75251
v -4.75251 2.36000 1.75251
v -4.86606 2.44000 1.67664
v -4.86606 2.36000 1.67664
v -5.00000 2.44000 1.65000
v -5.00000 2.36000 1.65000
v -5.13394 2.44000 1.67664
v -5.13394 2.36000 1.67664
v -5.24749 2.44000 1.75251
v -5.24749 2.36000 1.75251
v -5.32336 2.44000 1.86606
v -5.32336 2.36000 1.86606
v -5.35000 2.44000 2.00000
v -5.35000 2.36000 2.00000
v -5.32336 2.44000 2.13394
v -5.32336 2.36000 2.13394
v -5.24749 2.44000 2.24749
v -5.24749 2.36000 2.24749
v -5.13394 2.44000 2.32336
v -5.13394 2.36000 2.32336
v -5.00000 2.44000 2.35000
v -5.00000 2.36000 2.35000
v -4.86606 2.44000 2.32336
v -4.86606 2.36000 2.32336
v -4.75251 2.44000 2.24749
v -4.75251 2.36000 2.24749
v -4.67664 2.44000 2.13394
v -4.67664 2.36000 2.13394
v -5.00000 2.44000 2.00000
v -5.00000 2.36000 2.00000
v -1.70000 0.01000 6.90000
v 1.70000 0.01000 6.90000
v 1.70000 0.01000 4.30000
v -1.70000 0.01000 4.30000
v -1.70000 0.09000 6.90000
v 1.70000 0.09000 6.90000
v 1.70000 0.09000 4.30000
v -1.70000 0.09000 4.30000
v -1.65000 0.08500 6.85000
v 1.65000 0.08500 6.85000
v 1.65000 0.08500 4.35000
v -1.65000 0.08500 4.35000
v -1.65000 0.11500 6.85000
v 1.65000 0.11500 6.85000
v 1.65000 0.11500 4.35000
v -1.65000 0.11500 4.35000
v 0.63000 0.15000 5.60000
v 0.62427 0.16763 5.60000
v 0.60927 0.17853 5.60000
v 0.59073 0.17853 5.60000
v 0.57573 0.16763 5.60000
v 0.57000 0.15000 5.60000
v 0.57573 0.13237 5.60000
v 0.59073 0.12147 5.60000
v 0.60927 0.12147 5.60000
v 0.62427 0.13237 5.60000
v 0.60853 0.15000 5.43694
v 0.60300 0.16763 5.43843
v 0.58851 0.17853 5.44231
v 0.57060 0.17853 5.44711
v 0.55611 0.16763 5.45099
v 0.55058 0.15000 5.45247
v 0.55611 0.13237 5.45099
v 0.57060 0.12147 5.44711
v 0.58851 0.12147 5.44231
v 0.60300 0.13237 5.43843
v 0.54560 0.15000 5.28500
v 0.54063 0.16763 5.28786
v 0.52764 0.17853 5.29536
v 0.51159 0.17853 5.30464
v 0.49860 0.16763 5.31214
v 0.49363 0.15000 5.31500
v 0.49860 0.13237 5.31214
v 0.51159 0.12147 5.30464
v 0.52764 0.12147 5.29536
v 0.54063 0.13237 5.28786
v 0.44548 0.15000 5.15452
v 0.44143 0.16763 5.15857
v 0.43082 0.17853 5.16918
v 0.41771 0.17853 5.18229
v 0.40710 0.16763 5.19290
v 0.40305 0.15000 5.19695
v 0.40710 0.13237 5.19290
v 0.41771 0.12147 5.18229
v 0.43082 0.12147 5.16918
v 0.44143 0.13237 5.15857
v 0.31500 0.15000 5.05440
v 0.31214 0.16763 5.05937
v 0.30464 0.17853 5.07236
v 0.29536 0.17853 5.08841
v 0.28786 0.16763 5.10140
v 0.28500 0.15000 5.10637
v 0.28786 0.13237 5.10140
v 0.29536 0.12147 5.08841
v 0.30464 0.12147 5.07236
v 0.31214 0.13237 5.05937
v 0.16306 0.15000 4.99147
v 0.16157 0.16763 4.99700
v 0.15769 0.17853 5.01149
v 0.15289 0.17853 5.02940
v 0.14901 0.16763 5.04389
v 0.14753 0.15000 5.04942
v 0.14901 0.13237 5.04389
v 0.15289 0.12147 5.02940
v 0.15769 0.12147 5.01149
v 0.16157 0.13237 4.99700
v 0.00000 0.15000 4.97000
v 0.00000 0.16763 4.97573
v 0.00000 0.17853 4.99073
v 0.00000 0.17853 5.00927
v 0.00000 0.16763 5.02427
v 0.00000 0.15000 5.03000
v 0.00000 0.13237 5.02427
v 0.00000 0.12147 5.00927
v 0.00000 0.12147 4.99073
v 0.00000 0.13237 4.97573
v -0.16306 0.15000 4.99147
v -0.16157 0.16763 4.99700
v -0.15769 0.17853 5.01149
v -0.15289 0.17853 5.02940
v -0.14901 0.16763 5.04389
v -0.14753 0.15000 5.04942
v -0.14901 0.13237 5.04389
v -0.15289 0.12147 5.02940
v -0.15769 0.12147 5.01149
v -0.16157 0.13237 4.99700
v -0.31500 0.15000 5.05440
v -0.31214 0.16763 5.05937
v -0.30464 0.17853 5.07236
v -0.29536 0.17853 5.08841
v -0.28786 0.16763 5.10140
v -0.28500 0.15000 5.10637
v -0.28786 0.13237 5.10140
v -0.29536 0.12147 5.08841
v -0.30464 0.12147 5.07236
v -0.31214 0.13237 5.05937
v -0.44548 0.15000 5.15452
v -0.44143 0.16763 5.15857
v -0.43082 0.17853 5.16918
v -0.41771 0.17853 5.18229
v -0.40710 0.16763 5.19290
v -0.40305 0.15000 5.19695
v -0.40710 0.13237 5.19290
v -0.41771 0.12147 5.18229
v -0.43082 0.12147 5.16918
v -0.44143 0.13237 5.15857
v -0.54560 0.15000 5.28500
v -0.54063 0.16763 5.28786
v -0.52764 0.17853 5.29536
v -0.51159 0.17853 5.30464
v -0.49860 0.16763 5.31214
v -0.49363 0.15000 5.31500
v -0.49860 0.13237 5.31214
v -0.51159 0.12147 5.30464
v -0.52764 0.12147 5.29536
v -0.54063 0.13237 5.28786
v -0.60853 0.15000 5.43694
v -0.60300 0.16763 5.43843
v -0.58851 0.17853 5.44231
v -0.57060 0.17853 5.44711
v -0.55611 0.16763 5.45099
v -0.55058 0.15000 5.45247
v -0.55611 0.13237 5.45099
v -0.57060 0.12147 5.44711
v -0.58851 0.12147 5.44231
v -0.60300 0.13237 5.43843
v -0.63000 0.15000 5.60000
v -0.62427 0.16763 5.60000
v -0.60927 0.17853 5.60000
v -0.59073 0.17853 5.60000
v -0.57573 0.16763 5.60000
v -0.57000 0.15000 5.60000
v -0.57573 0.13237 5.60000
v -0.59073 0.12147 5.60000
v -0.60927 0.12147 5.60000
v -0.62427 0.13237 5.60000
v -0.60853 0.15000 5.76306
v -0.60300 0.16763 5.76157
v -0.58851 0.17853 5.75769
v -0.57060 0.17853 5.75289
v -0.55611 0.16763 5.74901
v -0.55058 0.15000 5.74753
v -0.55611 0.13237 5.74901
v -0.57060 0.12147 5.75289
v -0.58851 0.12147 5.75769
v -0.60300 0.13237 5.76157
v -0.54560 0.15000 5.91500
v -0.54063 0.16763 5.91214
v -0.52764 0.17853 5.90464
v -0.51159 0.17853 5.89536
v -0.49860 0.16763 5.88786
v -0.49363 0.15000 5.88500
v -0.49860 0.13237 5.88786
v -0.51159 0.12147 5.89536
v -0.52764 0.12147 5.90464
v -0.54063 0.13237 5.91214
v -0.44548 0.15000 6.04548
v -0.44143 0.16763 6.04143
v -0.43082 0.17853 6.03082
v -0.41771 0.17853 6.01771
v -0.40710 0.16763 6.00710
v -0.40305 0.15000 6.00305
v -0.40710 0.13237 6.00710
v -0.41771 0.12147 6.01771
v -0.43082 0.12147 6.03082
v -0.44143 0.13237 6.04143
v -0.31500 0.15000 6.14560
v -0.31214 0.16763 6.14063
v -0.30464 0.17853 6.12764
v -0.29536 0.17853 6.11159
v -0.28786 0.16763 6.09860
v -0.28500 0.15000 6.09363
v -0.28786 0.13237 6.09860
v -0.29536 0.12147 6.11159
v -0.30464 0.12147 6.12764
v -0.31214 0.13237 6.14063
v -0.16306 0.15000 6.20853
v -0.16157 0.16763 6.20300
v -0.15769 0.17853 6.18851
v -0.15289 0.17853 6.17060
v -0.14901 0.16763 6.15611
v -0.14753 0.15000 6.15058
v -0.14901 0.13237 6.15611
v -0.15289 0.12147 6.17060
v -0.15769 0.12147 6.18851
v -0.16157 0.13237 6.20300
v -0.00000 0.15000 6.23000
v -0.00000 0.16763 6.22427
v -0.00000 0.17853 6.20927
v -0.00000 0.17853 6.19073
v -0.00000 0.16763 6.17573
v -0.00000 0.15000 6.17000
v -0.00000 0.13237 6.17573
v -0.00000 0.12147 6.19073
v -0.00000 0.12147 6.20927
v -0.00000 0.13237 6.22427
v 0.16306 0.15000 6.20853
v 0.16157 0.16763 6.20300
v 0.15769 0.17853 6.18851
v 0.15289 0.17853 6.17060
v 0.14901 0.16763 6.15611
v 0.14753 0.15000 6.15058
v 0.14901 0.13237 6.15611
v 0.15289 0.12147 6.17060
v 0.15769 0.12147 6.18851
v 0.16157 0.13237 6.20300
v 0.31500 0.15000 6.14560
v 0.31214 0.16763 6.14063
v 0.30464 0.17853 6.12764
v 0.29536 0.17853 6.11159
v 0.28786 0.16763 6.09860
v 0.28500 0.15000 6.09363
v 0.28786 0.13237 6.09860
v 0.29536 0.12147 6.11159
v 0.30464 0.12147 6.12764
v 0.31214 0.13237 6.14063
v 0.44548 0.15000 6.04548
v 0.44143 0.16763 6.04143
v 0.43082 0.17853 6.03082
v 0.41771 0.17853 6.01771
v 0.40710 0.16763 6.00710
v 0.40305 0.15000 6.00305
v 0.40710 0.13237 6.00710
v 0.41771 0.12147 6.01771
v 0.43082 0.12147 6.03082
v 0.44143 0.13237 6.04143
v 0.54560 0.15000 5.91500
v 0.54063 0.16763 5.91214
v 0.52764 0.17853 5.90464
v 0.51159 0.17853 5.89536
v 0.49860 0.16763 5.88786
v 0.49363 0.15000 5.88500
v 0.49860 0.13237 5.88786
v 0.51159 0.12147 5.89536
v 0.52764 0.12147 5.90464
v 0.54063 0.13237 5.91214
v 0.60853 0.15000 5.76306
v 0.60300 0.16763 5.76157
v 0.58851 0.17853 5.75769
v 0.57060 0.17853 5.75289
v 0.55611 0.16763 5.74901
v 0.55058 0.15000 5.74753
v 0.55611 0.13237 5.74901
v 0.57060 0.12147 5.75289
v 0.58851 0.12147 5.75769
v 0.60300 0.13237 5.76157

usemtl neon_cyan
f 2 4 3 1
f 33 1 3
f 34 4 2
f 4 6 5 3
f 33 3 5
f 34 6 4
f 6 8 7 5
f 33 5 7
f 34 8 6
f 8 10 9 7
f 33 7 9
f 34 10 8
f 10 12 11 9
f 33 9 11
f 34 12 10
f 12 14 13 11
f 33 11 13
f 34 14 12
f 14 16 15 13
f 33 13 15
f 34 16 14
f 16 18 17 15
f 33 15 17
f 34 18 16
f 18 20 19 17
f 33 17 19
f 34 20 18
f 20 22 21 19
f 33 19 21
f 34 22 20
f 22 24 23 21
f 33 21 23
f 34 24 22
f 24 26 25 23
f 33 23 25
f 34 26 24
f 26 28 27 25
f 33 25 27
f 34 28 26
f 28 30 29 27
f 33 27 29
f 34 30 28
f 30 32 31 29
f 33 29 31
f 34 32 30
f 32 2 1 31
f 33 31 1
f 34 2 32
f 36 38 37 35
f 67 35 37
f 68 38 36
f 38 40 39 37
f 67 37 39
f 68 40 38
f 40 42 41 39
f 67 39 41
f 68 42 40
f 42 44 43 41
f 67 41 43
f 68 44 42
f 44 46 45 43
f 67 43 45
f 68 46 44
f 46 48 47 45
f 67 45 47
f 68 48 46
f 48 50 49 47
f 67 47 49
f 68 50 48
f 50 52 51 49
f 67 49 51
f 68 52 50
f 52 54 53 51
f 67 51 53
f 68 54 52
f 54 56 55 53
f 67 53 55
f 68 56 54
f 56 58 57 55
f 67 55 57
f 68 58 56
f 58 60 59 57
f 67 57 59
f 68 60 58
f 60 62 61 59
f 67 59 61
f 68 62 60
f 62 64 63 61
f 67 61 63
f 68 64 62
f 64 66 65 63
f 67 63 65
f 68 66 64
f 66 36 35 65
f 67 65 35
f 68 36 66
f 70 72 71 69
f 101 69 71
f 102 72 70
f 72 74 73 71
f 101 71 73
f 102 74 72
f 74 76 75 73
f 101 73 75
f 102 76 74
f 76 78 77 75
f 101 75 77
f 102 78 76
f 78 80 79 77
f 101 77 79
f 102 80 78
f 80 82 81 79
f 101 79 81
f 102 82 80
f 82 84 83 81
f 101 81 83
f 102 84 82
f 84 86 85 83
f 101 83 85
f 102 86 84
f 86 88 87 85
f 101 85 87
f 102 88 86
f 88 90 89 87
f 101 87 89
f 102 90 88
f 90 92 91 89
f 101 89 91
f 102 92 90
f 92 94 93 91
f 101 91 93
f 102 94 92
f 94 96 95 93
f 101 93 95
f 102 96 94
f 96 98 97 95
f 101 95 97
f 102 98 96
f 98 100 99 97
f 101 97 99
f 102 100 98
f 100 70 69 99
f 101 99 69
f 102 70 100
f 104 106 105 103
f 135 103 105
f 136 106 104
f 106 108 107 105
f 135 105 107
f 136 108 106
f 108 110 109 107
f 135 107 109
f 136 110 108
f 110 112 111 109
f 135 109 111
f 136 112 110
f 112 114 113 111
f 135 111 113
f 136 114 112
f 114 116 115 113
f 135 113 115
f 136 116 114
f 116 118 117 115
f 135 115 117
f 136 118 116
f 118 120 119 117
f 135 117 119
f 136 120 118
f 120 122 121 119
f 135 119 121
f 136 122 120
f 122 124 123 121
f 135 121 123
f 136 124 122
f 124 126 125 123
f 135 123 125
f 136 126 124
f 126 128 127 125
f 135 125 127
f 136 128 126
f 128 130 129 127
f 135 127 129
f 136 130 128
f 130 132 131 129
f 135 129 131
f 136 132 130
f 132 134 133 131
f 135 131 133
f 136 134 132
f 134 104 103 133
f 135 133 103
f 136 104 134
usemtl dark
f 137 138 139 140
f 141 142 143 144
f 137 138 142 141
f 139 140 144 143
f 138 139 143 142
f 140 137 141 144
usemtl neon_purple
f 145 146 147 148
f 149 150 151 152
f 145 146 150 149
f 147 148 152 151
f 146 147 151 150
f 148 145 149 152
usemtl dark
f 153 154 155 156
f 157 158 159 160
f 153 154 158 157
f 155 156 160 159
f 154 155 159 158
f 156 153 157 160
usemtl neon_purple
f 161 162 163 164
f 165 166 167 168
f 161 162 166 165
f 163 164 168 167
f 162 163 167 166
f 164 161 165 168
usemtl glass
f 169 180 179
f 170 181 180
f 171 182 181
f 172 183 182
f 173 184 183
f 174 185 184
f 175 186 185
f 176 187 186
f 177 188 187
f 178 179 188
f 179 180 190 189
f 180 181 191 190
f 181 182 192 191
f 182 183 193 192
f 183 184 194 193
f 184 185 195 194
f 185 186 196 195
f 186 187 197 196
f 187 188 198 197
f 188 179 189 198
f 189 190 200 199
f 190 191 201 200
f 191 192 202 201
f 192 193 203 202
f 193 194 204 203
f 194 195 205 204
f 195 196 206 205
f 196 197 207 206
f 197 198 208 207
f 198 189 199 208
f 199 200 210 209
f 200 201 211 210
f 201 202 212 211
f 202 203 213 212
f 203 204 214 213
f 204 205 215 214
f 205 206 216 215
f 206 207 217 216
f 207 208 218 217
f 208 199 209 218
f 209 210 220 219
f 210 211 221 220
f 211 212 222 221
f 212 213 223 222
f 213 214 224 223
f 214 215 225 224
f 215 216 226 225
f 216 217 227 226
f 217 218 228 227
f 218 209 219 228
f 219 220 230 229
f 220 221 231 230
f 221 222 232 231
f 222 223 233 232
f 223 224 234 233
f 224 225 235 234
f 225 226 236 235
f 226 227 237 236
f 227 228 238 237
f 228 219 229 238
f 229 230 240 239
f 230 231 241 240
f 231 232 242 241
f 232 233 243 242
f 233 234 244 243
f 234 235 245 244
f 235 236 246 245
f 236 237 247 246
f 237 238 248 247
f 238 229 239 248
f 239 240 250
f 240 241 251
f 241 242 252
f 242 243 253
f 243 244 254
f 244 245 255
f 245 246 256
f 246 247 257
f 247 248 258
f 248 239 249
f 259 270 269
f 260 271 270
f 261 272 271
f 262 273 272
f 263 274 273
f 264 275 274
f 265 276 275
f 266 277 276
f 267 278 277
f 268 269 278
f 269 270 280 279
f 270 271 281 280
f 271 272 282 281
f 272 273 283 282
f 273 274 284 283
f 274 275 285 284
f 275 276 286 285
f 276 277 287 286
f 277 278 288 287
f 278 269 279 288
f 279 280 290 289
f 280 281 291 290
f 281 282 292 291
f 282 283 293 292
f 283 284 294 293
f 284 285 295 294
f 285 286 296 295
f 286 287 297 296
f 287 288 298 297
f 288 279 289 298
f 289 290 300 299
f 290 291 301 300
f 291 292 302 301
f 292 293 303 302
f 293 294 304 303
f 294 295 305 304
f 295 296 306 305
f 296 297 307 306
f 297 298 308 307
f 298 289 299 308
f 299 300 310 309
f 300 301 311 310
f 301 302 312 311
f 302 303 313 312
f 303 304 314 313
f 304 305 315 314
f 305 306 316 315
f 306 307 317 316
f 307 308 318 317
f 308 299 309 318
f 309 310 320 319
f 310 311 321 320
f 311 312 322 321
f 312 313 323 322
f 313 314 324 323
f 314 315 325 324
f 315 316 326 325
f 316 317 327 326
f 317 318 328 327
f 318 309 319 328
f 319 320 330 329
f 320 321 331 330
f 321 322 332 331
f 322 323 333 332
f 323 324 334 333
f 324 325 335 334
f 325 326 336 335
f 326 327 337 336
f 327 328 338 337
f 328 319 329 338
f 329 330 340
f 330 331 341
f 331 332 342
f 332 333 343
f 333 334 344
f 334 335 345
f 335 336 346
f 336 337 347
f 337 338 348
f 338 329 339
f 349 360 359
f 350 361 360
f 351 362 361
f 352 363 362
f 353 364 363
f 354 365 364
f 355 366 365
f 356 367 366
f 357 368 367
f 358 359 368
f 359 360 370 369
f 360 361 371 370
f 361 362 372 371
f 362 363 373 372
f 363 364 374 373
f 364 365 375 374
f 365 366 376 375
f 366 367 377 376
f 367 368 378 377
f 368 359 369 378
f 369 370 380 379
f 370 371 381 380
f 371 372 382 381
f 372 373 383 382
f 373 374 384 383
f 374 375 385 384
f 375 376 386 385
f 376 377 387 386
f 377 378 388 387
f 378 369 379 388
f 379 380 390 389
f 380 381 391 390
f 381 382 392 391
f 382 383 393 392
f 383 384 394 393
f 384 385 395 394
f 385 386 396 395
f 386 387 397 396
f 387 388 398 397
f 388 379 389 398
f 389 390 400 399
f 390 391 401 400
f 391 392 402 401
f 392 393 403 402
f 393 394 404 403
f 394 395 405 404
f 395 396 406 405
f 396 397 407 406
f 397 398 408 407
f 398 389 399 408
f 399 400 410 409
f 400 401 411 410
f 401 402 412 411
f 402 403 413 412
f 403 404 414 413
f 404 405 415 414
f 405 406 416 415
f 406 407 417 416
f 407 408 418 417
f 408 399 409 418
f 409 410 420 419
f 410 411 421 420
f 411 412 422 421
f 412 413 423 422
f 413 414 424 423
f 414 415 425 424
f 415 416 426 425
f 416 417 427 426
f 417 418 428 427
f 418 409 419 428
f 419 420 430
f 420 421 431
f 421 422 432
f 422 423 433
f 423 424 434
f 424 425 435
f 425 426 436
f 426 427 437
f 427 428 438
f 428 419 429
f 439 450 449
f 440 451 450
f 441 452 451
f 442 453 452
f 443 454 453
f 444 455 454
f 445 456 455
f 446 457 456
f 447 458 457
f 448 449 458
f 449 450 460 459
f 450 451 461 460
f 451 452 462 461
f 452 453 463 462
f 453 454 464 463
f 454 455 465 464
f 455 456 466 465
f 456 457 467 466
f 457 458 468 467
f 458 449 459 468
f 459 460 470 469
f 460 461 471 470
f 461 462 472 471
f 462 463 473 472
f 463 464 474 473
f 464 465 475 474
f 465 466 476 475
f 466 467 477 476
f 467 468 478 477
f 468 459 469 478
f 469 470 480 479
f 470 471 481 480
f 471 472 482 481
f 472 473 483 482
f 473 474 484 483
f 474 475 485 484
f 475 476 486 485
f 476 477 487 486
f 477 478 488 487
f 478 469 479 488
f 479 480 490 489
f 480 481 491 490
f 481 482 492 491
f 482 483 493 492
f 483 484 494 493
f 484 485 495 494
f 485 486 496 495
f 486 487 497 496
f 487 488 498 497
f 488 479 489 498
f 489 490 500 499
f 490 491 501 500
f 491 492 502 501
f 492 493 503 502
f 493 494 504 503
f 494 495 505 504
f 495 496 506 505
f 496 497 507 506
f 497 498 508 507
f 498 489 499 508
f 499 500 510 509
f 500 501 511 510
f 501 502 512 511
f 502 503 513 512
f 503 504 514 513
f 504 505 515 514
f 505 506 516 515
f 506 507 517 516
f 507 508 518 517
f 508 499 509 518
f 509 510 520
f 510 511 521
f 511 512 522
f 512 513 523
f 513 514 524
f 514 515 525
f 515 516 526
f 516 517 527
f 517 518 528
f 518 509 519
f 529 540 539
f 530 541 540
f 531 542 541
f 532 543 542
f 533 544 543
f 534 545 544
f 535 546 545
f 536 547 546
f 537 548 547
f 538 539 548
f 539 540 550 549
f 540 541 551 550
f 541 542 552 551
f 542 543 553 552
f 543 544 554 553
f 544 545 555 554
f 545 546 556 555
f 546 547 557 556
f 547 548 558 557
f 548 539 549 558
f 549 550 560 559
f 550 551 561 560
f 551 552 562 561
f 552 553 563 562
f 553 554 564 563
f 554 555 565 564
f 555 556 566 565
f 556 557 567 566
f 557 558 568 567
f 558 549 559 568
f 559 560 570 569
f 560 561 571 570
f 561 562 572 571
f 562 563 573 572
f 563 564 574 573
f 564 565 575 574
f 565 566 576 575
f 566 567 577 576
f 567 568 578 577
f 568 559 569 578
f 569 570 580 579
f 570 571 581 580
f 571 572 582 581
f 572 573 583 582
f 573 574 584 583
f 574 575 585 584
f 575 576 586 585
f 576 577 587 586
f 577 578 588 587
f 578 569 579 588
f 579 580 590 589
f 580 581 591 590
f 581 582 592 591
f 582 583 593 592
f 583 584 594 593
f 584 585 595 594
f 585 586 596 595
f 586 587 597 596
f 587 588 598 597
f 588 579 589 598
f 589 590 600 599
f 590 591 601 600
f 591 592 602 601
f 592 593 603 602
f 593 594 604 603
f 594 595 605 604
f 595 596 606 605
f 596 597 607 606
f 597 598 608 607
f 598 589 599 608
f 599 600 610
f 600 601 611
f 601 602 612
f 602 603 613
f 603 604 614
f 604 605 615
f 605 606 616
f 606 607 617
f 607 608 618
f 608 599 609
f 620 622 621 619
f 651 619 621
f 652 622 620
f 622 624 623 621
f 651 621 623
f 652 624 622
f 624 626 625 623
f 651 623 625
f 652 626 624
f 626 628 627 625
f 651 625 627
f 652 628 626
f 628 630 629 627
f 651 627 629
f 652 630 628
f 630 632 631 629
f 651 629 631
f 652 632 630
f 632 634 633 631
f 651 631 633
f 652 634 632
f 634 636 635 633
f 651 633 635
f 652 636 634
f 636 638 637 635
f 651 635 637
f 652 638 636
f 638 640 639 637
f 651 637 639
f 652 640 638
f 640 642 641 639
f 651 639 641
f 652 642 640
f 642 644 643 641
f 651 641 643
f 652 644 642
f 644 646 645 643
f 651 643 645
f 652 646 644
f 646 648 647 645
f 651 645 647
f 652 648 646
f 648 650 649 647
f 651 647 649
f 652 650 648
f 650 620 619 649
f 651 649 619
f 652 620 650
usemtl neon_cyan
f 654 656 655 653
f 685 653 655
f 686 656 654
f 656 658 657 655
f 685 655 657
f 686 658 656
f 658 660 659 657
f 685 657 659
f 686 660 658
f 660 662 661 659
f 685 659 661
f 686 662 660
f 662 664 663 661
f 685 661 663
f 686 664 662
f 664 666 665 663
f 685 663 665
f 686 666 664
f 666 668 667 665
f 685 665 667
f 686 668 666
f 668 670 669 667
f 685 667 669
f 686 670 668
f 670 672 671 669
f 685 669 671
f 686 672 670
f 672 674 673 671
f 685 671 673
f 686 674 672
f 674 676 675 673
f 685 673 675
f 686 676 674
f 676 678 677 675
f 685 675 677
f 686 678 676
f 678 680 679 677
f 685 677 679
f 686 680 678
f 680 682 681 679
f 685 679 681
f 686 682 680
f 682 684 683 681
f 685 681 683
f 686 684 682
f 684 654 653 683
f 685 683 653
f 686 654 684
usemtl neon_purple
f 687 698 697
f 688 699 698
f 689 700 699
f 690 701 700
f 691 702 701
f 692 703 702
f 693 704 703
f 694 705 704
f 695 706 705
f 696 697 706
f 697 698 708 707
f 698 699 709 708
f 699 700 710 709
f 700 701 711 710
f 701 702 712 711
f 702 703 713 712
f 703 704 714 713
f 704 705 715 714
f 705 706 716 715
f 706 697 707 716
f 707 708 718 717
f 708 709 719 718
f 709 710 720 719
f 710 711 721 720
f 711 712 722 721
f 712 713 723 722
f 713 714 724 723
f 714 715 725 724
f 715 716 726 725
f 716 707 717 726
f 717 718 728 727
f 718 719 729 728
f 719 720 730 729
f 720 721 731 730
f 721 722 732 731
f 722 723 733 732
f 723 724 734 733
f 724 725 735 734
f 725 726 736 735
f 726 717 727 736
f 727 728 738 737
f 728 729 739 738
f 729 730 740 739
f 730 731 741 740
f 731 732 742 741
f 732 733 743 742
f 733 734 744 743
f 734 735 745 744
f 735 736 746 745
f 736 727 737 746
f 737 738 748 747
f 738 739 749 748
f 739 740 750 749
f 740 741 751 750
f 741 742 752 751
f 742 743 753 752
f 743 744 754 753
f 744 745 755 754
f 745 746 756 755
f 746 737 747 756
f 747 748 758 757
f 748 749 759 758
f 749 750 760 759
f 750 751 761 760
f 751 752 762 761
f 752 753 763 762
f 753 754 764 763
f 754 755 765 764
f 755 756 766 765
f 756 747 757 766
f 757 758 768
f 758 759 769
f 759 760 770
f 760 761 771
f 761 762 772
f 762 763 773
f 763 764 774
f 764 765 775
f 765 766 776
f 766 757 767
usemtl glass
f 777 788 787
f 778 789 788
f 779 790 789
f 780 791 790
f 781 792 791
f 782 793 792
f 783 794 793
f 784 795 794
f 785 796 795
f 786 787 796
f 787 788 798 797
f 788 789 799 798
f 789 790 800 799
f 790 791 801 800
f 791 792 802 801
f 792 793 803 802
f 793 794 804 803
f 794 795 805 804
f 795 796 806 805
f 796 787 797 806
f 797 798 808 807
f 798 799 809 808
f 799 800 810 809
f 800 801 811 810
f 801 802 812 811
f 802 803 813 812
f 803 804 814 813
f 804 805 815 814
f 805 806 816 815
f 806 797 807 816
f 807 808 818 817
f 808 809 819 818
f 809 810 820 819
f 810 811 821 820
f 811 812 822 821
f 812 813 823 822
f 813 814 824 823
f 814 815 825 824
f 815 816 826 825
f 816 807 817 826
f 817 818 828 827
f 818 819 829 828
f 819 820 830 829
f 820 821 831 830
f 821 822 832 831
f 822 823 833 832
f 823 824 834 833
f 824 825 835 834
f 825 826 836 835
f 826 817 827 836
f 827 828 838 837
f 828 829 839 838
f 829 830 840 839
f 830 831 841 840
f 831 832 842 841
f 832 833 843 842
f 833 834 844 843
f 834 835 845 844
f 835 836 846 845
f 836 827 837 846
f 837 838 848 847
f 838 839 849 848
f 839 840 850 849
f 840 841 851 850
f 841 842 852 851
f 842 843 853 852
f 843 844 854 853
f 844 845 855 854
f 845 846 856 855
f 846 837 847 856
f 847 848 858
f 848 849 859
f 849 850 860
f 850 851 861
f 851 852 862
f 852 853 863
f 853 854 864
f 854 855 865
f 855 856 866
f 856 847 857
f 867 878 877
f 868 879 878
f 869 880 879
f 870 881 880
f 871 882 881
f 872 883 882
f 873 884 883
f 874 885 884
f 875 886 885
f 876 877 886
f 877 878 888 887
f 878 879 889 888
f 879 880 890 889
f 880 881 891 890
f 881 882 892 891
f 882 883 893 892
f 883 884 894 893
f 884 885 895 894
f 885 886 896 895
f 886 877 887 896
f 887 888 898 897
f 888 889 899 898
f 889 890 900 899
f 890 891 901 900
f 891 892 902 901
f 892 893 903 902
f 893 894 904 903
f 894 895 905 904
f 895 896 906 905
f 896 887 897 906
f 897 898 908 907
f 898 899 909 908
f 899 900 910 909
f 900 901 911 910
f 901 902 912 911
f 902 903 913 912
f 903 904 914 913
f 904 905 915 914
f 905 906 916 915
f 906 897 907 916
f 907 908 918 917
f 908 909 919 918
f 909 910 920 919
f 910 911 921 920
f 911 912 922 921
f 912 913 923 922
f 913 914 924 923
f 914 915 925 924
f 915 916 926 925
f 916 907 917 926
f 917 918 928 927
f 918 919 929 928
f 919 920 930 929
f 920 921 931 930
f 921 922 932 931
f 922 923 933 932
f 923 924 934 933
f 924 925 935 934
f 925 926 936 935
f 926 917 927 936
f 927 928 938 937
f 928 929 939 938
f 929 930 940 939
f 930 931 941 940
f 931 932 942 941
f 932 933 943 942
f 933 934 944 943
f 934 935 945 944
f 935 936 946 945
f 936 927 937 946
f 937 938 948
f 938 939 949
f 939 940 950
f 940 941 951
f 941 942 952
f 942 943 953
f 943 944 954
f 944 945 955
f 945 946 956
f 946 937 947
usemtl neon_purple
f 957 968 967
f 958 969 968
f 959 970 969
f 960 971 970
f 961 972 971
f 962 973 972
f 963 974 973
f 964 975 974
f 965 976 975
f 966 967 976
f 967 968 978 977
f 968 969 979 978
f 969 970 980 979
f 970 971 981 980
f 971 972 982 981
f 972 973 983 982
f 973 974 984 983
f 974 975 985 984
f 975 976 986 985
f 976 967 977 986
f 977 978 988 987
f 978 979 989 988
f 979 980 990 989
f 980 981 991 990
f 981 982 992 991
f 982 983 993 992
f 983 984 994 993
f 984 985 995 994
f 985 986 996 995
f 986 977 987 996
f 987 988 998 997
f 988 989 999 998
f 989 990 1000 999
f 990 991 1001 1000
f 991 992 1002 1001
f 992 993 1003 1002
f 993 994 1004 1003
f 994 995 1005 1004
f 995 996 1006 1005
f 996 987 997 1006
f 997 998 1008 1007
f 998 999 1009 1008
f 999 1000 1010 1009
f 1000 1001 1011 1010
f 1001 1002 1012 1011
f 1002 1003 1013 1012
f 1003 1004 1014 1013
f 1004 1005 1015 1014
f 1005 1006 1016 1015
f 1006 997 1007 1016
f 1007 1008 1018 1017
f 1008 1009 1019 1018
f 1009 1010 1020 1019
f 1010 1011 1021 1020
f 1011 1012 1022 1021
f 1012 1013 1023 1022
f 1013 1014 1024 1023
f 1014 1015 1025 1024
f 1015 1016 1026 1025
f 1016 1007 1017 1026
f 1017 1018 1028 1027
f 1018 1019 1029 1028
f 1019 1020 1030 1029
f 1020 1021 1031 1030
f 1021 1022 1032 1031
f 1022 1023 1033 1032
f 1023 1024 1034 1033
f 1024 1025 1035 1034
f 1025 1026 1036 1035
f 1026 1017 1027 1036
f 1027 1028 1038
f 1028 1029 1039
f 1029 1030 1040
f 1030 1031 1041
f 1031 1032 1042
f 1032 1033 1043
f 1033 1034 1044
f 1034 1035 1045
f 1035 1036 1046
f 1036 1027 1037
usemtl glass
f 1047 1058 1057
f 1048 1059 1058
f 1049 1060 1059
f 1050 1061 1060
f 1051 1062 1061
f 1052 1063 1062
f 1053 1064 1063
f 1054 1065 1064
f 1055 1066 1065
f 1056 1057 1066
f 1057 1058 1068 1067
f 1058 1059 1069 1068
f 1059 1060 1070 1069
f 1060 1061 1071 1070
f 1061 1062 1072 1071
f 1062 1063 1073 1072
f 1063 1064 1074 1073
f 1064 1065 1075 1074
f 1065 1066 1076 1075
f 1066 1057 1067 1076
f 1067 1068 1078 1077
f 1068 1069 1079 1078
f 1069 1070 1080 1079
f 1070 1071 1081 1080
f 1071 1072 1082 1081
f 1072 1073 1083 1082
f 1073 1074 1084 1083
f 1074 1075 1085 1084
f 1075 1076 1086 1085
f 1076 1067 1077 1086
f 1077 1078 1088 1087
f 1078 1079 1089 1088
f 1079 1080 1090 1089
f 1080 1081 1091 1090
f 1081 1082 1092 1091
f 1082 1083 1093 1092
f 1083 1084 1094 1093
f 1084 1085 1095 1094
f 1085 1086 1096 1095
f 1086 1077 1087 1096
f 1087 1088 1098 1097
f 1088 1089 1099 1098
f 1089 1090 1100 1099
f 1090 1091 1101 1100
f 1091 1092 1102 1101
f 1092 1093 1103 1102
f 1093 1094 1104 1103
f 1094 1095 1105 1104
f 1095 1096 1106 1105
f 1096 1087 1097 1106
f 1097 1098 1108 1107
f 1098 1099 1109 1108
f 1099 1100 1110 1109
f 1100 1101 1111 1110
f 1101 1102 1112 1111
f 1102 1103 1113 1112
f 1103 1104 1114 1113
f 1104 1105 1115 1114
f 1105 1106 1116 1115
f 1106 1097 1107 1116
f 1107 1108 1118 1117
f 1108 1109 1119 1118
f 1109 1110 1120 1119
f 1110 1111 1121 1120
f 1111 1112 1122 1121
f 1112 1113 1123 1122
f 1113 1114 1124 1123
f 1114 1115 1125 1124
f 1115 1116 1126 1125
f 1116 1107 1117 1126
f 1117 1118 1128
f 1118 1119 1129
f 1119 1120 1130
f 1120 1121 1131
f 1121 1122 1132
f 1122 1123 1133
f 1123 1124 1134
f 1124 1125 1135
f 1125 1126 1136
f 1126 1117 1127
f 1137 1148 1147
f 1138 1149 1148
f 1139 1150 1149
f 1140 1151 1150
f 1141 1152 1151
f 1142 1153 1152
f 1143 1154 1153
f 1144 1155 1154
f 1145 1156 1155
f 1146 1147 1156
f 1147 1148 1158 1157
f 1148 1149 1159 1158
f 1149 1150 1160 1159
f 1150 1151 1161 1160
f 1151 1152 1162 1161
f 1152 1153 1163 1162
f 1153 1154 1164 1163
f 1154 1155 1165 1164
f 1155 1156 1166 1165
f 1156 1147 1157 1166
f 1157 1158 1168 1167
f 1158 1159 1169 1168
f 1159 1160 1170 1169
f 1160 1161 1171 1170
f 1161 1162 1172 1171
f 1162 1163 1173 1172
f 1163 1164 1174 1173
f 1164 1165 1175 1174
f 1165 1166 1176 1175
f 1166 1157 1167 1176
f 1167 1168 1178 1177
f 1168 1169 1179 1178
f 1169 1170 1180 1179
f 1170 1171 1181 1180
f 1171 1172 1182 1181
f 1172 1173 1183 1182
f 1173 1174 1184 1183
f 1174 1175 1185 1184
f 1175 1176 1186 1185
f 1176 1167 1177 1186
f 1177 1178 1188 1187
f 1178 1179 1189 1188
f 1179 1180 1190 1189
f 1180 1181 1191 1190
f 1181 1182 1192 1191
f 1182 1183 1193 1192
f 1183 1184 1194 1193
f 1184 1185 1195 1194
f 1185 1186 1196 1195
f 1186 1177 1187 1196
f 1187 1188 1198 1197
f 1188 1189 1199 1198
f 1189 1190 1200 1199
f 1190 1191 1201 1200
f 1191 1192 1202 1201
f 1192 1193 1203 1202
f 1193 1194 1204 1203
f 1194 1195 1205 1204
f 1195 1196 1206 1205
f 1196 1187 1197 1206
f 1197 1198 1208 1207
f 1198 1199 1209 1208
f 1199 1200 1210 1209
f 1200 1201 1211 1210
f 1201 1202 1212 1211
f 1202 1203 1213 1212
f 1203 1204 1214 1213
f 1204 1205 1215 1214
f 1205 1206 1216 1215
f 1206 1197 1207 1216
f 1207 1208 1218
f 1208 1209 1219
f 1209 1210 1220
f 1210 1211 1221
f 1211 1212 1222
f 1212 1213 1223
f 1213 1214 1224
f 1214 1215 1225
f 1215 1216 1226
f 1216 1207 1217
usemtl neon_purple
f 1227 1238 1237
f 1228 1239 1238
f 1229 1240 1239
f 1230 1241 1240
f 1231 1242 1241
f 1232 1243 1242
f 1233 1244 1243
f 1234 1245 1244
f 1235 1246 1245
f 1236 1237 1246
f 1237 1238 1248 1247
f 1238 1239 1249 1248
f 1239 1240 1250 1249
f 1240 1241 1251 1250
f 1241 1242 1252 1251
f 1242 1243 1253 1252
f 1243 1244 1254 1253
f 1244 1245 1255 1254
f 1245 1246 1256 1255
f 1246 1237 1247 1256
f 1247 1248 1258 1257
f 1248 1249 1259 1258
f 1249 1250 1260 1259
f 1250 1251 1261 1260
f 1251 1252 1262 1261
f 1252 1253 1263 1262
f 1253 1254 1264 1263
f 1254 1255 1265 1264
f 1255 1256 1266 1265
f 1256 1247 1257 1266
f 1257 1258 1268 1267
f 1258 1259 1269 1268
f 1259 1260 1270 1269
f 1260 1261 1271 1270
f 1261 1262 1272 1271
f 1262 1263 1273 1272
f 1263 1264 1274 1273
f 1264 1265 1275 1274
f 1265 1266 1276 1275
f 1266 1257 1267 1276
f 1267 1268 1278 1277
f 1268 1269 1279 1278
f 1269 1270 1280 1279
f 1270 1271 1281 1280
f 1271 1272 1282 1281
f 1272 1273 1283 1282
f 1273 1274 1284 1283
f 1274 1275 1285 1284
f 1275 1276 1286 1285
f 1276 1267 1277 1286
f 1277 1278 1288 1287
f 1278 1279 1289 1288
f 1279 1280 1290 1289
f 1280 1281 1291 1290
f 1281 1282 1292 1291
f 1282 1283 1293 1292
f 1283 1284 1294 1293
f 1284 1285 1295 1294
f 1285 1286 1296 1295
f 1286 1277 1287 1296
f 1287 1288 1298 1297
f 1288 1289 1299 1298
f 1289 1290 1300 1299
f 1290 1291 1301 1300
f 1291 1292 1302 1301
f 1292 1293 1303 1302
f 1293 1294 1304 1303
f 1294 1295 1305 1304
f 1295 1296 1306 1305
f 1296 1287 1297 1306
f 1297 1298 1308
f 1298 1299 1309
f 1299 1300 1310
f 1300 1301 1311
f 1301 1302 1312
f 1302 1303 1313
f 1303 1304 1314
f 1304 1305 1315
f 1305 1306 1316
f 1306 1297 1307
usemtl glass
f 1317 1328 1327
f 1318 1329 1328
f 1319 1330 1329
f 1320 1331 1330
f 1321 1332 1331
f 1322 1333 1332
f 1323 1334 1333
f 1324 1335 1334
f 1325 1336 1335
f 1326 1327 1336
f 1327 1328 1338 1337
f 1328 1329 1339 1338
f 1329 1330 1340 1339
f 1330 1331 1341 1340
f 1331 1332 1342 1341
f 1332 1333 1343 1342
f 1333 1334 1344 1343
f 1334 1335 1345 1344
f 1335 1336 1346 1345
f 1336 1327 1337 1346
f 1337 1338 1348 1347
f 1338 1339 1349 1348
f 1339 1340 1350 1349
f 1340 1341 1351 1350
f 1341 1342 1352 1351
f 1342 1343 1353 1352
f 1343 1344 1354 1353
f 1344 1345 1355 1354
f 1345 1346 1356 1355
f 1346 1337 1347 1356
f 1347 1348 1358 1357
f 1348 1349 1359 1358
f 1349 1350 1360 1359
f 1350 1351 1361 1360
f 1351 1352 1362 1361
f 1352 1353 1363 1362
f 1353 1354 1364 1363
f 1354 1355 1365 1364
f 1355 1356 1366 1365
f 1356 1347 1357 1366
f 1357 1358 1368 1367
f 1358 1359 1369 1368
f 1359 1360 1370 1369
f 1360 1361 1371 1370
f 1361 1362 1372 1371
f 1362 1363 1373 1372
f 1363 1364 1374 1373
f 1364 1365 1375 1374
f 1365 1366 1376 1375
f 1366 1357 1367 1376
f 1367 1368 1378 1377
f 1368 1369 1379 1378
f 1369 1370 1380 1379
f 1370 1371 1381 1380
f 1371 1372 1382 1381
f 1372 1373 1383 1382
f 1373 1374 1384 1383
f 1374 1375 1385 1384
f 1375 1376 1386 1385
f 1376 1367 1377 1386
f 1377 1378 1388 1387
f 1378 1379 1389 1388
f 1379 1380 1390 1389
f 1380 1381 1391 1390
f 1381 1382 1392 1391
f 1382 1383 1393 1392
f 1383 1384 1394 1393
f 1384 1385 1395 1394
f 1385 1386 1396 1395
f 1386 1377 1387 1396
f 1387 1388 1398
f 1388 1389 1399
f 1389 1390 1400
f 1390 1391 1401
f 1391 1392 1402
f 1392 1393 1403
f 1393 1394 1404
f 1394 1395 1405
f 1395 1396 1406
f 1396 1387 1397
f 1407 1418 1417
f 1408 1419 1418
f 1409 1420 1419
f 1410 1421 1420
f 1411 1422 1421
f 1412 1423 1422
f 1413 1424 1423
f 1414 1425 1424
f 1415 1426 1425
f 1416 1417 1426
f 1417 1418 1428 1427
f 1418 1419 1429 1428
f 1419 1420 1430 1429
f 1420 1421 1431 1430
f 1421 1422 1432 1431
f 1422 1423 1433 1432
f 1423 1424 1434 1433
f 1424 1425 1435 1434
f 1425 1426 1436 1435
f 1426 1417 1427 1436
f 1427 1428 1438 1437
f 1428 1429 1439 1438
f 1429 1430 1440 1439
f 1430 1431 1441 1440
f 1431 1432 1442 1441
f 1432 1433 1443 1442
f 1433 1434 1444 1443
f 1434 1435 1445 1444
f 1435 1436 1446 1445
f 1436 1427 1437 1446
f 1437 1438 1448 1447
f 1438 1439 1449 1448
f 1439 1440 1450 1449
f 1440 1441 1451 1450
f 1441 1442 1452 1451
f 1442 1443 1453 1452
f 1443 1444 1454 1453
f 1444 1445 1455 1454
f 1445 1446 1456 1455
f 1446 1437 1447 1456
f 1447 1448 1458 1457
f 1448 1449 1459 1458
f 1449 1450 1460 1459
f 1450 1451 1461 1460
f 1451 1452 1462 1461
f 1452 1453 1463 1462
f 1453 1454 1464 1463
f 1454 1455 1465 1464
f 1455 1456 1466 1465
f 1456 1447 1457 1466
f 1457 1458 1468 1467
f 1458 1459 1469 1468
f 1459 1460 1470 1469
f 1460 1461 1471 1470
f 1461 1462 1472 1471
f 1462 1463 1473 1472
f 1463 1464 1474 1473
f 1464 1465 1475 1474
f 1465 1466 1476 1475
f 1466 1457 1467 1476
f 1467 1468 1478 1477
f 1468 1469 1479 1478
f 1469 1470 1480 1479
f 1470 1471 1481 1480
f 1471 1472 1482 1481
f 1472 1473 1483 1482
f 1473 1474 1484 1483
f 1474 1475 1485 1484
f 1475 1476 1486 1485
f 1476 1467 1477 1486
f 1477 1478 1488
f 1478 1479 1489
f 1479 1480 1490
f 1480 1481 1491
f 1481 1482 1492
f 1482 1483 1493
f 1483 1484 1494
f 1484 1485 1495
f 1485 1486 1496
f 1486 1477 1487
usemtl neon_purple
f 1497 1508 1507
f 1498 1509 1508
f 1499 1510 1509
f 1500 1511 1510
f 1501 1512 1511
f 1502 1513 1512
f 1503 1514 1513
f 1504 1515 1514
f 1505 1516 1515
f 1506 1507 1516
f 1507 1508 1518 1517
f 1508 1509 1519 1518
f 1509 1510 1520 1519
f 1510 1511 1521 1520
f 1511 1512 1522 1521
f 1512 1513 1523 1522
f 1513 1514 1524 1523
f 1514 1515 1525 1524
f 1515 1516 1526 1525
f 1516 1507 1517 1526
f 1517 1518 1528 1527
f 1518 1519 1529 1528
f 1519 1520 1530 1529
f 1520 1521 1531 1530
f 1521 1522 1532 1531
f 1522 1523 1533 1532
f 1523 1524 1534 1533
f 1524 1525 1535 1534
f 1525 1526 1536 1535
f 1526 1517 1527 1536
f 1527 1528 1538 1537
f 1528 1529 1539 1538
f 1529 1530 1540 1539
f 1530 1531 1541 1540
f 1531 1532 1542 1541
f 1532 1533 1543 1542
f 1533 1534 1544 1543
f 1534 1535 1545 1544
f 1535 1536 1546 1545
f 1536 1527 1537 1546
f 1537 1538 1548 1547
f 1538 1539 1549 1548
f 1539 1540 1550 1549
f 1540 1541 1551 1550
f 1541 1542 1552 1551
f 1542 1543 1553 1552
f 1543 1544 1554 1553
f 1544 1545 1555 1554
f 1545 1546 1556 1555
f 1546 1537 1547 1556
f 1547 1548 1558 1557
f 1548 1549 1559 1558
f 1549 1550 1560 1559
f 1550 1551 1561 1560
f 1551 1552 1562 1561
f 1552 1553 1563 1562
f 1553 1554 1564 1563
f 1554 1555 1565 1564
f 1555 1556 1566 1565
f 1556 1547 1557 1566
f 1557 1558 1568 1567
f 1558 1559 1569 1568
f 1559 1560 1570 1569
f 1560 1561 1571 1570
f 1561 1562 1572 1571
f 1562 1563 1573 1572
f 1563 1564 1574 1573
f 1564 1565 1575 1574
f 1565 1566 1576 1575
f 1566 1557 1567 1576
f 1567 1568 1578
f 1568 1569 1579
f 1569 1570 1580
f 1570 1571 1581
f 1571 1572 1582
f 1572 1573 1583
f 1573 1574 1584
f 1574 1575 1585
f 1575 1576 1586
f 1576 1567 1577
usemtl glass
f 1587 1598 1597
f 1588 1599 1598
f 1589 1600 1599
f 1590 1601 1600
f 1591 1602 1601
f 1592 1603 1602
f 1593 1604 1603
f 1594 1605 1604
f 1595 1606 1605
f 1596 1597 1606
f 1597 1598 1608 1607
f 1598 1599 1609 1608
f 1599 1600 1610 1609
f 1600 1601 1611 1610
f 1601 1602 1612 1611
f 1602 1603 1613 1612
f 1603 1604 1614 1613
f 1604 1605 1615 1614
f 1605 1606 1616 1615
f 1606 1597 1607 1616
f 1607 1608 1618 1617
f 1608 1609 1619 1618
f 1609 1610 1620 1619
f 1610 1611 1621 1620
f 1611 1612 1622 1621
f 1612 1613 1623 1622
f 1613 1614 1624 1623
f 1614 1615 1625 1624
f 1615 1616 1626 1625
f 1616 1607 1617 1626
f 1617 1618 1628 1627
f 1618 1619 1629 1628
f 1619 1620 1630 1629
f 1620 1621 1631 1630
f 1621 1622 1632 1631
f 1622 1623 1633 1632
f 1623 1624 1634 1633
f 1624 1625 1635 1634
f 1625 1626 1636 1635
f 1626 1617 1627 1636
f 1627 1628 1638 1637
f 1628 1629 1639 1638
f 1629 1630 1640 1639
f 1630 1631 1641 1640
f 1631 1632 1642 1641
f 1632 1633 1643 1642
f 1633 1634 1644 1643
f 1634 1635 1645 1644
f 1635 1636 1646 1645
f 1636 1627 1637 1646
f 1637 1638 1648 1647
f 1638 1639 1649 1648
f 1639 1640 1650 1649
f 1640 1641 1651 1650
f 1641 1642 1652 1651
f 1642 1643 1653 1652
f 1643 1644 1654 1653
f 1644 1645 1655 1654
f 1645 1646 1656 1655
f 1646 1637 1647 1656
f 1647 1648 1658 1657
f 1648 1649 1659 1658
f 1649 1650 1660 1659
f 1650 1651 1661 1660
f 1651 1652 1662 1661
f 1652 1653 1663 1662
f 1653 1654 1664 1663
f 1654 1655 1665 1664
f 1655 1656 1666 1665
f 1656 1647 1657 1666
f 1657 1658 1668
f 1658 1659 1669
f 1659 1660 1670
f 1660 1661 1671
f 1661 1662 1672
f 1662 1663 1673
f 1663 1664 1674
f 1664 1665 1675
f 1665 1666 1676
f 1666 1657 1667
f 1677 1688 1687
f 1678 1689 1688
f 1679 1690 1689
f 1680 1691 1690
f 1681 1692 1691
f 1682 1693 1692
f 1683 1694 1693
f 1684 1695 1694
f 1685 1696 1695
f 1686 1687 1696
f 1687 1688 1698 1697
f 1688 1689 1699 1698
f 1689 1690 1700 1699
f 1690 1691 1701 1700
f 1691 1692 1702 1701
f 1692 1693 1703 1702
f 1693 1694 1704 1703
f 1694 1695 1705 1704
f 1695 1696 1706 1705
f 1696 1687 1697 1706
f 1697 1698 1708 1707
f 1698 1699 1709 1708
f 1699 1700 1710 1709
f 1700 1701 1711 1710
f 1701 1702 1712 1711
f 1702 1703 1713 1712
f 1703 1704 1714 1713
f 1704 1705 1715 1714
f 1705 1706 1716 1715
f 1706 1697 1707 1716
f 1707 1708 1718 1717
f 1708 1709 1719 1718
f 1709 1710 1720 1719
f 1710 1711 1721 1720
f 1711 1712 1722 1721
f 1712 1713 1723 1722
f 1713 1714 1724 1723
f 1714 1715 1725 1724
f 1715 1716 1726 1725
f 1716 1707 1717 1726
f 1717 1718 1728 1727
f 1718 1719 1729 1728
f 1719 1720 1730 1729
f 1720 1721 1731 1730
f 1721 1722 1732 1731
f 1722 1723 1733 1732
f 1723 1724 1734 1733
f 1724 1725 1735 1734
f 1725 1726 1736 1735
f 1726 1717 1727 1736
f 1727 1728 1738 1737
f 1728 1729 1739 1738
f 1729 1730 1740 1739
f 1730 1731 1741 1740
f 1731 1732 1742 1741
f 1732 1733 1743 1742
f 1733 1734 1744 1743
f 1734 1735 1745 1744
f 1735 1736 1746 1745
f 1736 1727 1737 1746
f 1737 1738 1748 1747
f 1738 1739 1749 1748
f 1739 1740 1750 1749
f 1740 1741 1751 1750
f 1741 1742 1752 1751
f 1742 1743 1753 1752
f 1743 1744 1754 1753
f 1744 1745 1755 1754
f 1745 1746 1756 1755
f 1746 1737 1747 1756
f 1747 1748 1758
f 1748 1749 1759
f 1749 1750 1760
f 1750 1751 1761
f 1751 1752 1762
f 1752 1753 1763
f 1753 1754 1764
f 1754 1755 1765
f 1755 1756 1766
f 1756 1747 1757
usemtl dark
f 1767 1768 1769 1770
f 1771 1772 1773 1774
f 1767 1768 1772 1771
f 1769 1770 1774 1773
f 1768 1769 1773 1772
f 1770 1767 1771 1774
usemtl neon_cyan
f 1775 1776 1777 1778
f 1779 1780 1781 1782
f 1775 1776 1780 1779
f 1777 1778 1782 1781
f 1776 1777 1781 1780
f 1778 1775 1779 1782
usemtl neon_gold
f 1783 1794 1793
f 1784 1795 1794
f 1785 1796 1795
f 1786 1797 1796
f 1787 1798 1797
f 1788 1799 1798
f 1789 1800 1799
f 1790 1801 1800
f 1791 1802 1801
f 1792 1793 1802
f 1793 1794 1804 1803
f 1794 1795 1805 1804
f 1795 1796 1806 1805
f 1796 1797 1807 1806
f 1797 1798 1808 1807
f 1798 1799 1809 1808
f 1799 1800 1810 1809
f 1800 1801 1811 1810
f 1801 1802 1812 1811
f 1802 1793 1803 1812
f 1803 1804 1814 1813
f 1804 1805 1815 1814
f 1805 1806 1816 1815
f 1806 1807 1817 1816
f 1807 1808 1818 1817
f 1808 1809 1819 1818
f 1809 1810 1820 1819
f 1810 1811 1821 1820
f 1811 1812 1822 1821
f 1812 1803 1813 1822
f 1813 1814 1824 1823
f 1814 1815 1825 1824
f 1815 1816 1826 1825
f 1816 1817 1827 1826
f 1817 1818 1828 1827
f 1818 1819 1829 1828
f 1819 1820 1830 1829
f 1820 1821 1831 1830
f 1821 1822 1832 1831
f 1822 1813 1823 1832
f 1823 1824 1834 1833
f 1824 1825 1835 1834
f 1825 1826 1836 1835
f 1826 1827 1837 1836
f 1827 1828 1838 1837
f 1828 1829 1839 1838
f 1829 1830 1840 1839
f 1830 1831 1841 1840
f 1831 1832 1842 1841
f 1832 1823 1833 1842
f 1833 1834 1844 1843
f 1834 1835 1845 1844
f 1835 1836 1846 1845
f 1836 1837 1847 1846
f 1837 1838 1848 1847
f 1838 1839 1849 1848
f 1839 1840 1850 1849
f 1840 1841 1851 1850
f 1841 1842 1852 1851
f 1842 1833 1843 1852
f 1843 1844 1854 1853
f 1844 1845 1855 1854
f 1845 1846 1856 1855
f 1846 1847 1857 1856
f 1847 1848 1858 1857
f 1848 1849 1859 1858
f 1849 1850 1860 1859
f 1850 1851 1861 1860
f 1851 1852 1862 1861
f 1852 1843 1853 1862
f 1853 1854 1864
f 1854 1855 1865
f 1855 1856 1866
f 1856 1857 1867
f 1857 1858 1868
f 1858 1859 1869
f 1859 1860 1870
f 1860 1861 1871
f 1861 1862 1872
f 1862 1853 1863
usemtl dark
f 1873 1874 1875 1876
f 1877 1878 1879 1880
f 1873 1874 1878 1877
f 1875 1876 1880 1879
f 1874 1875 1879 1878
f 1876 1873 1877 1880
usemtl neon_cyan
f 1881 1882 1883 1884
f 1885 1886 1887 1888
f 1881 1882 1886 1885
f 1883 1884 1888 1887
f 1882 1883 1887 1886
f 1884 1881 1885 1888
usemtl neon_gold
f 1890 1892 1891 1889
f 1921 1889 1891
f 1922 1892 1890
f 1892 1894 1893 1891
f 1921 1891 1893
f 1922 1894 1892
f 1894 1896 1895 1893
f 1921 1893 1895
f 1922 1896 1894
f 1896 1898 1897 1895
f 1921 1895 1897
f 1922 1898 1896
f 1898 1900 1899 1897
f 1921 1897 1899
f 1922 1900 1898
f 1900 1902 1901 1899
f 1921 1899 1901
f 1922 1902 1900
f 1902 1904 1903 1901
f 1921 1901 1903
f 1922 1904 1902
f 1904 1906 1905 1903
f 1921 1903 1905
f 1922 1906 1904
f 1906 1908 1907 1905
f 1921 1905 1907
f 1922 1908 1906
f 1908 1910 1909 1907
f 1921 1907 1909
f 1922 1910 1908
f 1910 1912 1911 1909
f 1921 1909 1911
f 1922 1912 1910
f 1912 1914 1913 1911
f 1921 1911 1913
f 1922 1914 1912
f 1914 1916 1915 1913
f 1921 1913 1915
f 1922 1916 1914
f 1916 1918 1917 1915
f 1921 1915 1917
f 1922 1918 1916
f 1918 1920 1919 1917
f 1921 1917 1919
f 1922 1920 1918
f 1920 1890 1889 1919
f 1921 1919 1889
f 1922 1890 1920
usemtl dark
f 1923 1924 1925 1926
f 1927 1928 1929 1930
f 1923 1924 1928 1927
f 1925 1926 1930 1929
f 1924 1925 1929 1928
f 1926 1923 1927 1930
usemtl neon_cyan
f 1931 1932 1933 1934
f 1935 1936 1937 1938
f 1931 1932 1936 1935
f 1933 1934 1938 1937
f 1932 1933 1937 1936
f 1934 1931 1935 1938
f 1939 1949 1950 1940
f 1940 1950 1951 1941
f 1941 1951 1952 1942
f 1942 1952 1953 1943
f 1943 1953 1954 1944
f 1944 1954 1955 1945
f 1945 1955 1956 1946
f 1946 1956 1957 1947
f 1947 1957 1958 1948
f 1948 1958 1949 1939
f 1949 1959 1960 1950
f 1950 1960 1961 1951
f 1951 1961 1962 1952
f 1952 1962 1963 1953
f 1953 1963 1964 1954
f 1954 1964 1965 1955
f 1955 1965 1966 1956
f 1956 1966 1967 1957
f 1957 1967 1968 1958
f 1958 1968 1959 1949
f 1959 1969 1970 1960
f 1960 1970 1971 1961
f 1961 1971 1972 1962
f 1962 1972 1973 1963
f 1963 1973 1974 1964
f 1964 1974 1975 1965
f 1965 1975 1976 1966
f 1966 1976 1977 1967
f 1967 1977 1978 1968
f 1968 1978 1969 1959
f 1969 1979 1980 1970
f 1970 1980 1981 1971
f 1971 1981 1982 1972
f 1972 1982 1983 1973
f 1973 1983 1984 1974
f 1974 1984 1985 1975
f 1975 1985 1986 1976
f 1976 1986 1987 1977
f 1977 1987 1988 1978
f 1978 1988 1979 1969
f 1979 1989 1990 1980
f 1980 1990 1991 1981
f 1981 1991 1992 1982
f 1982 1992 1993 1983
f 1983 1993 1994 1984
f 1984 1994 1995 1985
f 1985 1995 1996 1986
f 1986 1996 1997 1987
f 1987 1997 1998 1988
f 1988 1998 1989 1979
f 1989 1999 2000 1990
f 1990 2000 2001 1991
f 1991 2001 2002 1992
f 1992 2002 2003 1993
f 1993 2003 2004 1994
f 1994 2004 2005 1995
f 1995 2005 2006 1996
f 1996 2006 2007 1997
f 1997 2007 2008 1998
f 1998 2008 1999 1989
f 1999 2009 2010 2000
f 2000 2010 2011 2001
f 2001 2011 2012 2002
f 2002 2012 2013 2003
f 2003 2013 2014 2004
f 2004 2014 2015 2005
f 2005 2015 2016 2006
f 2006 2016 2017 2007
f 2007 2017 2018 2008
f 2008 2018 2009 1999
f 2009 2019 2020 2010
f 2010 2020 2021 2011
f 2011 2021 2022 2012
f 2012 2022 2023 2013
f 2013 2023 2024 2014
f 2014 2024 2025 2015
f 2015 2025 2026 2016
f 2016 2026 2027 2017
f 2017 2027 2028 2018
f 2018 2028 2019 2009
f 2019 2029 2030 2020
f 2020 2030 2031 2021
f 2021 2031 2032 2022
f 2022 2032 2033 2023
f 2023 2033 2034 2024
f 2024 2034 2035 2025
f 2025 2035 2036 2026
f 2026 2036 2037 2027
f 2027 2037 2038 2028
f 2028 2038 2029 2019
f 2029 2039 2040 2030
f 2030 2040 2041 2031
f 2031 2041 2042 2032
f 2032 2042 2043 2033
f 2033 2043 2044 2034
f 2034 2044 2045 2035
f 2035 2045 2046 2036
f 2036 2046 2047 2037
f 2037 2047 2048 2038
f 2038 2048 2039 2029
f 2039 2049 2050 2040
f 2040 2050 2051 2041
f 2041 2051 2052 2042
f 2042 2052 2053 2043
f 2043 2053 2054 2044
f 2044 2054 2055 2045
f 2045 2055 2056 2046
f 2046 2056 2057 2047
f 2047 2057 2058 2048
f 2048 2058 2049 2039
f 2049 2059 2060 2050
f 2050 2060 2061 2051
f 2051 2061 2062 2052
f 2052 2062 2063 2053
f 2053 2063 2064 2054
f 2054 2064 2065 2055
f 2055 2065 2066 2056
f 2056 2066 2067 2057
f 2057 2067 2068 2058
f 2058 2068 2059 2049
f 2059 2069 2070 2060
f 2060 2070 2071 2061
f 2061 2071 2072 2062
f 2062 2072 2073 2063
f 2063 2073 2074 2064
f 2064 2074 2075 2065
f 2065 2075 2076 2066
f 2066 2076 2077 2067
f 2067 2077 2078 2068
f 2068 2078 2069 2059
f 2069 2079 2080 2070
f 2070 2080 2081 2071
f 2071 2081 2082 2072
f 2072 2082 2083 2073
f 2073 2083 2084 2074
f 2074 2084 2085 2075
f 2075 2085 2086 2076
f 2076 2086 2087 2077
f 2077 2087 2088 2078
f 2078 2088 2079 2069
f 2079 2089 2090 2080
f 2080 2090 2091 2081
f 2081 2091 2092 2082
f 2082 2092 2093 2083
f 2083 2093 2094 2084
f 2084 2094 2095 2085
f 2085 2095 2096 2086
f 2086 2096 2097 2087
f 2087 2097 2098 2088
f 2088 2098 2089 2079
f 2089 2099 2100 2090
f 2090 2100 2101 2091
f 2091 2101 2102 2092
f 2092 2102 2103 2093
f 2093 2103 2104 2094
f 2094 2104 2105 2095
f 2095 2105 2106 2096
f 2096 2106 2107 2097
f 2097 2107 2108 2098
f 2098 2108 2099 2089
f 2099 2109 2110 2100
f 2100 2110 2111 2101
f 2101 2111 2112 2102
f 2102 2112 2113 2103
f 2103 2113 2114 2104
f 2104 2114 2115 2105
f 2105 2115 2116 2106
f 2106 2116 2117 2107
f 2107 2117 2118 2108
f 2108 2118 2109 2099
f 2109 2119 2120 2110
f 2110 2120 2121 2111
f 2111 2121 2122 2112
f 2112 2122 2123 2113
f 2113 2123 2124 2114
f 2114 2124 2125 2115
f 2115 2125 2126 2116
f 2116 2126 2127 2117
f 2117 2127 2128 2118
f 2118 2128 2119 2109
f 2119 2129 2130 2120
f 2120 2130 2131 2121
f 2121 2131 2132 2122
f 2122 2132 2133 2123
f 2123 2133 2134 2124
f 2124 2134 2135 2125
f 2125 2135 2136 2126
f 2126 2136 2137 2127
f 2127 2137 2138 2128
f 2128 2138 2129 2119
f 2129 2139 2140 2130
f 2130 2140 2141 2131
f 2131 2141 2142 2132
f 2132 2142 2143 2133
f 2133 2143 2144 2134
f 2134 2144 2145 2135
f 2135 2145 2146 2136
f 2136 2146 2147 2137
f 2137 2147 2148 2138
f 2138 2148 2139 2129
f 2139 2149 2150 2140
f 2140 2150 2151 2141
f 2141 2151 2152 2142
f 2142 2152 2153 2143
f 2143 2153 2154 2144
f 2144 2154 2155 2145
f 2145 2155 2156 2146
f 2146 2156 2157 2147
f 2147 2157 2158 2148
f 2148 2158 2149 2139
f 2149 2159 2160 2150
f 2150 2160 2161 2151
f 2151 2161 2162 2152
f 2152 2162 2163 2153
f 2153 2163 2164 2154
f 2154 2164 2165 2155
f 2155 2165 2166 2156
f 2156 2166 2167 2157
f 2157 2167 2168 2158
f 2158 2168 2159 2149
f 2159 2169 2170 2160
f 2160 2170 2171 2161
f 2161 2171 2172 2162
f 2162 2172 2173 2163
f 2163 2173 2174 2164
f 2164 2174 2175 2165
f 2165 2175 2176 2166
f 2166 2176 2177 2167
f 2167 2177 2178 2168
f 2168 2178 2169 2159
f 2169 1939 1940 2170
f 2170 1940 1941 2171
f 2171 1941 1942 2172
f 2172 1942 1943 2173
f 2173 1943 1944 2174
f 2174 1944 1945 2175
f 2175 1945 1946 2176
f 2176 1946 1947 2177
f 2177 1947 1948 2178
f 2178 1948 1939 2169
