# BubblePopWorld - Main Sell Kiosk Sign
# Rounded, beveled sign panel with decorative bubble reliefs
o BubbleSell_MainSign
v 9.000000 1.800000 -0.600000
v 8.985226 1.987721 -0.600000
v 8.941268 2.170820 -0.600000
v 8.869208 2.344789 -0.600000
v 8.770820 2.505342 -0.600000
v 8.648528 2.648528 -0.600000
v 8.505342 2.770820 -0.600000
v 8.344789 2.869208 -0.600000
v 8.170820 2.941268 -0.600000
v 7.987721 2.985226 -0.600000
v 7.800000 3.000000 -0.600000
v -7.800000 3.000000 -0.600000
v -7.987721 2.985226 -0.600000
v -8.170820 2.941268 -0.600000
v -8.344789 2.869208 -0.600000
v -8.505342 2.770820 -0.600000
v -8.648528 2.648528 -0.600000
v -8.770820 2.505342 -0.600000
v -8.869208 2.344789 -0.600000
v -8.941268 2.170820 -0.600000
v -8.985226 1.987721 -0.600000
v -9.000000 1.800000 -0.600000
v -9.000000 -1.800000 -0.600000
v -8.985226 -1.987721 -0.600000
v -8.941268 -2.170820 -0.600000
v -8.869208 -2.344789 -0.600000
v -8.770820 -2.505342 -0.600000
v -8.648528 -2.648528 -0.600000
v -8.505342 -2.770820 -0.600000
v -8.344789 -2.869208 -0.600000
v -8.170820 -2.941268 -0.600000
v -7.987721 -2.985226 -0.600000
v -7.800000 -3.000000 -0.600000
v 7.800000 -3.000000 -0.600000
v 7.987721 -2.985226 -0.600000
v 8.170820 -2.941268 -0.600000
v 8.344789 -2.869208 -0.600000
v 8.505342 -2.770820 -0.600000
v 8.648528 -2.648528 -0.600000
v 8.770820 -2.505342 -0.600000
v 8.869208 -2.344789 -0.600000
v 8.941268 -2.170820 -0.600000
v 8.985226 -1.987721 -0.600000
v 9.000000 -1.800000 -0.600000
v 9.000000 1.800000 -0.320000
v 8.985226 1.987721 -0.320000
v 8.941268 2.170820 -0.320000
v 8.869208 2.344789 -0.320000
v 8.770820 2.505342 -0.320000
v 8.648528 2.648528 -0.320000
v 8.505342 2.770820 -0.320000
v 8.344789 2.869208 -0.320000
v 8.170820 2.941268 -0.320000
v 7.987721 2.985226 -0.320000
v 7.800000 3.000000 -0.320000
v -7.800000 3.000000 -0.320000
v -7.987721 2.985226 -0.320000
v -8.170820 2.941268 -0.320000
v -8.344789 2.869208 -0.320000
v -8.505342 2.770820 -0.320000
v -8.648528 2.648528 -0.320000
v -8.770820 2.505342 -0.320000
v -8.869208 2.344789 -0.320000
v -8.941268 2.170820 -0.320000
v -8.985226 1.987721 -0.320000
v -9.000000 1.800000 -0.320000
v -9.000000 -1.800000 -0.320000
v -8.985226 -1.987721 -0.320000
v -8.941268 -2.170820 -0.320000
v -8.869208 -2.344789 -0.320000
v -8.770820 -2.505342 -0.320000
v -8.648528 -2.648528 -0.320000
v -8.505342 -2.770820 -0.320000
v -8.344789 -2.869208 -0.320000
v -8.170820 -2.941268 -0.320000
v -7.987721 -2.985226 -0.320000
v -7.800000 -3.000000 -0.320000
v 7.800000 -3.000000 -0.320000
v 7.987721 -2.985226 -0.320000
v 8.170820 -2.941268 -0.320000
v 8.344789 -2.869208 -0.320000
v 8.505342 -2.770820 -0.320000
v 8.648528 -2.648528 -0.320000
v 8.770820 -2.505342 -0.320000
v 8.869208 -2.344789 -0.320000
v 8.941268 -2.170820 -0.320000
v 8.985226 -1.987721 -0.320000
v 9.000000 -1.800000 -0.320000
v 9.000000 1.800000 0.320000
v 8.985226 1.987721 0.320000
v 8.941268 2.170820 0.320000
v 8.869208 2.344789 0.320000
v 8.770820 2.505342 0.320000
v 8.648528 2.648528 0.320000
v 8.505342 2.770820 0.320000
v 8.344789 2.869208 0.320000
v 8.170820 2.941268 0.320000
v 7.987721 2.985226 0.320000
v 7.800000 3.000000 0.320000
v -7.800000 3.000000 0.320000
v -7.987721 2.985226 0.320000
v -8.170820 2.941268 0.320000
v -8.344789 2.869208 0.320000
v -8.505342 2.770820 0.320000
v -8.648528 2.648528 0.320000
v -8.770820 2.505342 0.320000
v -8.869208 2.344789 0.320000
v -8.941268 2.170820 0.320000
v -8.985226 1.987721 0.320000
v -9.000000 1.800000 0.320000
v -9.000000 -1.800000 0.320000
v -8.985226 -1.987721 0.320000
v -8.941268 -2.170820 0.320000
v -8.869208 -2.344789 0.320000
v -8.770820 -2.505342 0.320000
v -8.648528 -2.648528 0.320000
v -8.505342 -2.770820 0.320000
v -8.344789 -2.869208 0.320000
v -8.170820 -2.941268 0.320000
v -7.987721 -2.985226 0.320000
v -7.800000 -3.000000 0.320000
v 7.800000 -3.000000 0.320000
v 7.987721 -2.985226 0.320000
v 8.170820 -2.941268 0.320000
v 8.344789 -2.869208 0.320000
v 8.505342 -2.770820 0.320000
v 8.648528 -2.648528 0.320000
v 8.770820 -2.505342 0.320000
v 8.869208 -2.344789 0.320000
v 8.941268 -2.170820 0.320000
v 8.985226 -1.987721 0.320000
v 9.000000 -1.800000 0.320000
v 9.000000 1.800000 0.600000
v 8.985226 1.987721 0.600000
v 8.941268 2.170820 0.600000
v 8.869208 2.344789 0.600000
v 8.770820 2.505342 0.600000
v 8.648528 2.648528 0.600000
v 8.505342 2.770820 0.600000
v 8.344789 2.869208 0.600000
v 8.170820 2.941268 0.600000
v 7.987721 2.985226 0.600000
v 7.800000 3.000000 0.600000
v -7.800000 3.000000 0.600000
v -7.987721 2.985226 0.600000
v -8.170820 2.941268 0.600000
v -8.344789 2.869208 0.600000
v -8.505342 2.770820 0.600000
v -8.648528 2.648528 0.600000
v -8.770820 2.505342 0.600000
v -8.869208 2.344789 0.600000
v -8.941268 2.170820 0.600000
v -8.985226 1.987721 0.600000
v -9.000000 1.800000 0.600000
v -9.000000 -1.800000 0.600000
v -8.985226 -1.987721 0.600000
v -8.941268 -2.170820 0.600000
v -8.869208 -2.344789 0.600000
v -8.770820 -2.505342 0.600000
v -8.648528 -2.648528 0.600000
v -8.505342 -2.770820 0.600000
v -8.344789 -2.869208 0.600000
v -8.170820 -2.941268 0.600000
v -7.987721 -2.985226 0.600000
v -7.800000 -3.000000 0.600000
v 7.800000 -3.000000 0.600000
v 7.987721 -2.985226 0.600000
v 8.170820 -2.941268 0.600000
v 8.344789 -2.869208 0.600000
v 8.505342 -2.770820 0.600000
v 8.648528 -2.648528 0.600000
v 8.770820 -2.505342 0.600000
v 8.869208 -2.344789 0.600000
v 8.941268 -2.170820 0.600000
v 8.985226 -1.987721 0.600000
v 9.000000 -1.800000 0.600000
v 8.720000 1.800000 -0.320000
v 8.708673 1.943920 -0.320000
v 8.674972 2.084296 -0.320000
v 8.619726 2.217671 -0.320000
v 8.544296 2.340762 -0.320000
v 8.450538 2.450538 -0.320000
v 8.340762 2.544296 -0.320000
v 8.217671 2.619726 -0.320000
v 8.084296 2.674972 -0.320000
v 7.943920 2.708673 -0.320000
v 7.800000 2.720000 -0.320000
v -7.800000 2.720000 -0.320000
v -7.943920 2.708673 -0.320000
v -8.084296 2.674972 -0.320000
v -8.217671 2.619726 -0.320000
v -8.340762 2.544296 -0.320000
v -8.450538 2.450538 -0.320000
v -8.544296 2.340762 -0.320000
v -8.619726 2.217671 -0.320000
v -8.674972 2.084296 -0.320000
v -8.708673 1.943920 -0.320000
v -8.720000 1.800000 -0.320000
v -8.720000 -1.800000 -0.320000
v -8.708673 -1.943920 -0.320000
v -8.674972 -2.084296 -0.320000
v -8.619726 -2.217671 -0.320000
v -8.544296 -2.340762 -0.320000
v -8.450538 -2.450538 -0.320000
v -8.340762 -2.544296 -0.320000
v -8.217671 -2.619726 -0.320000
v -8.084296 -2.674972 -0.320000
v -7.943920 -2.708673 -0.320000
v -7.800000 -2.720000 -0.320000
v 7.800000 -2.720000 -0.320000
v 7.943920 -2.708673 -0.320000
v 8.084296 -2.674972 -0.320000
v 8.217671 -2.619726 -0.320000
v 8.340762 -2.544296 -0.320000
v 8.450538 -2.450538 -0.320000
v 8.544296 -2.340762 -0.320000
v 8.619726 -2.217671 -0.320000
v 8.674972 -2.084296 -0.320000
v 8.708673 -1.943920 -0.320000
v 8.720000 -1.800000 -0.320000
v 8.720000 1.800000 0.320000
v 8.708673 1.943920 0.320000
v 8.674972 2.084296 0.320000
v 8.619726 2.217671 0.320000
v 8.544296 2.340762 0.320000
v 8.450538 2.450538 0.320000
v 8.340762 2.544296 0.320000
v 8.217671 2.619726 0.320000
v 8.084296 2.674972 0.320000
v 7.943920 2.708673 0.320000
v 7.800000 2.720000 0.320000
v -7.800000 2.720000 0.320000
v -7.943920 2.708673 0.320000
v -8.084296 2.674972 0.320000
v -8.217671 2.619726 0.320000
v -8.340762 2.544296 0.320000
v -8.450538 2.450538 0.320000
v -8.544296 2.340762 0.320000
v -8.619726 2.217671 0.320000
v -8.674972 2.084296 0.320000
v -8.708673 1.943920 0.320000
v -8.720000 1.800000 0.320000
v -8.720000 -1.800000 0.320000
v -8.708673 -1.943920 0.320000
v -8.674972 -2.084296 0.320000
v -8.619726 -2.217671 0.320000
v -8.544296 -2.340762 0.320000
v -8.450538 -2.450538 0.320000
v -8.340762 -2.544296 0.320000
v -8.217671 -2.619726 0.320000
v -8.084296 -2.674972 0.320000
v -7.943920 -2.708673 0.320000
v -7.800000 -2.720000 0.320000
v 7.800000 -2.720000 0.320000
v 7.943920 -2.708673 0.320000
v 8.084296 -2.674972 0.320000
v 8.217671 -2.619726 0.320000
v 8.340762 -2.544296 0.320000
v 8.450538 -2.450538 0.320000
v 8.544296 -2.340762 0.320000
v 8.619726 -2.217671 0.320000
v 8.674972 -2.084296 0.320000
v 8.708673 -1.943920 0.320000
v 8.720000 -1.800000 0.320000
v 0.000000 0.000000 -0.600000
v 0.000000 0.000000 0.600000
v -6.800000 1.500000 1.342500
v -6.627792 1.500000 1.308246
v -6.650864 1.586104 1.308246
v -6.713896 1.649136 1.308246
v -6.800000 1.672208 1.308246
v -6.886104 1.649136 1.308246
v -6.949136 1.586104 1.308246
v -6.972208 1.500000 1.308246
v -6.949136 1.413896 1.308246
v -6.886104 1.350864 1.308246
v -6.800000 1.327792 1.308246
v -6.713896 1.350864 1.308246
v -6.650864 1.413896 1.308246
v -6.481802 1.500000 1.210698
v -6.524432 1.659099 1.210698
v -6.640901 1.775568 1.210698
v -6.800000 1.818198 1.210698
v -6.959099 1.775568 1.210698
v -7.075568 1.659099 1.210698
v -7.118198 1.500000 1.210698
v -7.075568 1.340901 1.210698
v -6.959099 1.224432 1.210698
v -6.800000 1.181802 1.210698
v -6.640901 1.224432 1.210698
v -6.524432 1.340901 1.210698
v -6.384254 1.500000 1.064708
v -6.439954 1.707873 1.064708
v -6.592127 1.860046 1.064708
v -6.800000 1.915746 1.064708
v -7.007873 1.860046 1.064708
v -7.160046 1.707873 1.064708
v -7.215746 1.500000 1.064708
v -7.160046 1.292127 1.064708
v -7.007873 1.139954 1.064708
v -6.800000 1.084254 1.064708
v -6.592127 1.139954 1.064708
v -6.439954 1.292127 1.064708
v -6.350000 1.500000 0.892500
v -6.410289 1.725000 0.892500
v -6.575000 1.889711 0.892500
v -6.800000 1.950000 0.892500
v -7.025000 1.889711 0.892500
v -7.189711 1.725000 0.892500
v -7.250000 1.500000 0.892500
v -7.189711 1.275000 0.892500
v -7.025000 1.110289 0.892500
v -6.800000 1.050000 0.892500
v -6.575000 1.110289 0.892500
v -6.410289 1.275000 0.892500
v -6.384254 1.500000 0.720292
v -6.439954 1.707873 0.720292
v -6.592127 1.860046 0.720292
v -6.800000 1.915746 0.720292
v -7.007873 1.860046 0.720292
v -7.160046 1.707873 0.720292
v -7.215746 1.500000 0.720292
v -7.160046 1.292127 0.720292
v -7.007873 1.139954 0.720292
v -6.800000 1.084254 0.720292
v -6.592127 1.139954 0.720292
v -6.439954 1.292127 0.720292
v -6.481802 1.500000 0.574302
v -6.524432 1.659099 0.574302
v -6.640901 1.775568 0.574302
v -6.800000 1.818198 0.574302
v -6.959099 1.775568 0.574302
v -7.075568 1.659099 0.574302
v -7.118198 1.500000 0.574302
v -7.075568 1.340901 0.574302
v -6.959099 1.224432 0.574302
v -6.800000 1.181802 0.574302
v -6.640901 1.224432 0.574302
v -6.524432 1.340901 0.574302
v -6.627792 1.500000 0.476754
v -6.650864 1.586104 0.476754
v -6.713896 1.649136 0.476754
v -6.800000 1.672208 0.476754
v -6.886104 1.649136 0.476754
v -6.949136 1.586104 0.476754
v -6.972208 1.500000 0.476754
v -6.949136 1.413896 0.476754
v -6.886104 1.350864 0.476754
v -6.800000 1.327792 0.476754
v -6.713896 1.350864 0.476754
v -6.650864 1.413896 0.476754
v -6.800000 1.500000 0.442500
v -5.800000 0.400000 1.095000
v -5.685195 0.400000 1.072164
v -5.700576 0.457403 1.072164
v -5.742597 0.499424 1.072164
v -5.800000 0.514805 1.072164
v -5.857403 0.499424 1.072164
v -5.899424 0.457403 1.072164
v -5.914805 0.400000 1.072164
v -5.899424 0.342597 1.072164
v -5.857403 0.300576 1.072164
v -5.800000 0.285195 1.072164
v -5.742597 0.300576 1.072164
v -5.700576 0.342597 1.072164
v -5.587868 0.400000 1.007132
v -5.616288 0.506066 1.007132
v -5.693934 0.583712 1.007132
v -5.800000 0.612132 1.007132
v -5.906066 0.583712 1.007132
v -5.983712 0.506066 1.007132
v -6.012132 0.400000 1.007132
v -5.983712 0.293934 1.007132
v -5.906066 0.216288 1.007132
v -5.800000 0.187868 1.007132
v -5.693934 0.216288 1.007132
v -5.616288 0.293934 1.007132
v -5.522836 0.400000 0.909805
v -5.559969 0.538582 0.909805
v -5.661418 0.640031 0.909805
v -5.800000 0.677164 0.909805
v -5.938582 0.640031 0.909805
v -6.040031 0.538582 0.909805
v -6.077164 0.400000 0.909805
v -6.040031 0.261418 0.909805
v -5.938582 0.159969 0.909805
v -5.800000 0.122836 0.909805
v -5.661418 0.159969 0.909805
v -5.559969 0.261418 0.909805
v -5.500000 0.400000 0.795000
v -5.540192 0.550000 0.795000
v -5.650000 0.659808 0.795000
v -5.800000 0.700000 0.795000
v -5.950000 0.659808 0.795000
v -6.059808 0.550000 0.795000
v -6.100000 0.400000 0.795000
v -6.059808 0.250000 0.795000
v -5.950000 0.140192 0.795000
v -5.800000 0.100000 0.795000
v -5.650000 0.140192 0.795000
v -5.540192 0.250000 0.795000
v -5.522836 0.400000 0.680195
v -5.559969 0.538582 0.680195
v -5.661418 0.640031 0.680195
v -5.800000 0.677164 0.680195
v -5.938582 0.640031 0.680195
v -6.040031 0.538582 0.680195
v -6.077164 0.400000 0.680195
v -6.040031 0.261418 0.680195
v -5.938582 0.159969 0.680195
v -5.800000 0.122836 0.680195
v -5.661418 0.159969 0.680195
v -5.559969 0.261418 0.680195
v -5.587868 0.400000 0.582868
v -5.616288 0.506066 0.582868
v -5.693934 0.583712 0.582868
v -5.800000 0.612132 0.582868
v -5.906066 0.583712 0.582868
v -5.983712 0.506066 0.582868
v -6.012132 0.400000 0.582868
v -5.983712 0.293934 0.582868
v -5.906066 0.216288 0.582868
v -5.800000 0.187868 0.582868
v -5.693934 0.216288 0.582868
v -5.616288 0.293934 0.582868
v -5.685195 0.400000 0.517836
v -5.700576 0.457403 0.517836
v -5.742597 0.499424 0.517836
v -5.800000 0.514805 0.517836
v -5.857403 0.499424 0.517836
v -5.899424 0.457403 0.517836
v -5.914805 0.400000 0.517836
v -5.899424 0.342597 0.517836
v -5.857403 0.300576 0.517836
v -5.800000 0.285195 0.517836
v -5.742597 0.300576 0.517836
v -5.700576 0.342597 0.517836
v -5.800000 0.400000 0.495000
v 6.500000 1.400000 1.425000
v 6.691342 1.400000 1.386940
v 6.665707 1.495671 1.386940
v 6.595671 1.565707 1.386940
v 6.500000 1.591342 1.386940
v 6.404329 1.565707 1.386940
v 6.334293 1.495671 1.386940
v 6.308658 1.400000 1.386940
v 6.334293 1.304329 1.386940
v 6.404329 1.234293 1.386940
v 6.500000 1.208658 1.386940
v 6.595671 1.234293 1.386940
v 6.665707 1.304329 1.386940
v 6.853553 1.400000 1.278553
v 6.806186 1.576777 1.278553
v 6.676777 1.706186 1.278553
v 6.500000 1.753553 1.278553
v 6.323223 1.706186 1.278553
v 6.193814 1.576777 1.278553
v 6.146447 1.400000 1.278553
v 6.193814 1.223223 1.278553
v 6.323223 1.093814 1.278553
v 6.500000 1.046447 1.278553
v 6.676777 1.093814 1.278553
v 6.806186 1.223223 1.278553
v 6.961940 1.400000 1.116342
v 6.900052 1.630970 1.116342
v 6.730970 1.800052 1.116342
v 6.500000 1.861940 1.116342
v 6.269030 1.800052 1.116342
v 6.099948 1.630970 1.116342
v 6.038060 1.400000 1.116342
v 6.099948 1.169030 1.116342
v 6.269030 0.999948 1.116342
v 6.500000 0.938060 1.116342
v 6.730970 0.999948 1.116342
v 6.900052 1.169030 1.116342
v 7.000000 1.400000 0.925000
v 6.933013 1.650000 0.925000
v 6.750000 1.833013 0.925000
v 6.500000 1.900000 0.925000
v 6.250000 1.833013 0.925000
v 6.066987 1.650000 0.925000
v 6.000000 1.400000 0.925000
v 6.066987 1.150000 0.925000
v 6.250000 0.966987 0.925000
v 6.500000 0.900000 0.925000
v 6.750000 0.966987 0.925000
v 6.933013 1.150000 0.925000
v 6.961940 1.400000 0.733658
v 6.900052 1.630970 0.733658
v 6.730970 1.800052 0.733658
v 6.500000 1.861940 0.733658
v 6.269030 1.800052 0.733658
v 6.099948 1.630970 0.733658
v 6.038060 1.400000 0.733658
v 6.099948 1.169030 0.733658
v 6.269030 0.999948 0.733658
v 6.500000 0.938060 0.733658
v 6.730970 0.999948 0.733658
v 6.900052 1.169030 0.733658
v 6.853553 1.400000 0.571447
v 6.806186 1.576777 0.571447
v 6.676777 1.706186 0.571447
v 6.500000 1.753553 0.571447
v 6.323223 1.706186 0.571447
v 6.193814 1.576777 0.571447
v 6.146447 1.400000 0.571447
v 6.193814 1.223223 0.571447
v 6.323223 1.093814 0.571447
v 6.500000 1.046447 0.571447
v 6.676777 1.093814 0.571447
v 6.806186 1.223223 0.571447
v 6.691342 1.400000 0.463060
v 6.665707 1.495671 0.463060
v 6.595671 1.565707 0.463060
v 6.500000 1.591342 0.463060
v 6.404329 1.565707 0.463060
v 6.334293 1.495671 0.463060
v 6.308658 1.400000 0.463060
v 6.334293 1.304329 0.463060
v 6.404329 1.234293 0.463060
v 6.500000 1.208658 0.463060
v 6.595671 1.234293 0.463060
v 6.665707 1.304329 0.463060
v 6.500000 1.400000 0.425000
v 5.600000 -0.100000 1.062000
v 5.707151 -0.100000 1.040686
v 5.692796 -0.046424 1.040686
v 5.653576 -0.007204 1.040686
v 5.600000 0.007151 1.040686
v 5.546424 -0.007204 1.040686
v 5.507204 -0.046424 1.040686
v 5.492849 -0.100000 1.040686
v 5.507204 -0.153576 1.040686
v 5.546424 -0.192796 1.040686
v 5.600000 -0.207151 1.040686
v 5.653576 -0.192796 1.040686
v 5.692796 -0.153576 1.040686
v 5.797990 -0.100000 0.979990
v 5.771464 -0.001005 0.979990
v 5.698995 0.071464 0.979990
v 5.600000 0.097990 0.979990
v 5.501005 0.071464 0.979990
v 5.428536 -0.001005 0.979990
v 5.402010 -0.100000 0.979990
v 5.428536 -0.198995 0.979990
v 5.501005 -0.271464 0.979990
v 5.600000 -0.297990 0.979990
v 5.698995 -0.271464 0.979990
v 5.771464 -0.198995 0.979990
v 5.858686 -0.100000 0.889151
v 5.824029 0.029343 0.889151
v 5.729343 0.124029 0.889151
v 5.600000 0.158686 0.889151
v 5.470657 0.124029 0.889151
v 5.375971 0.029343 0.889151
v 5.341314 -0.100000 0.889151
v 5.375971 -0.229343 0.889151
v 5.470657 -0.324029 0.889151
v 5.600000 -0.358686 0.889151
v 5.729343 -0.324029 0.889151
v 5.824029 -0.229343 0.889151
v 5.880000 -0.100000 0.782000
v 5.842487 0.040000 0.782000
v 5.740000 0.142487 0.782000
v 5.600000 0.180000 0.782000
v 5.460000 0.142487 0.782000
v 5.357513 0.040000 0.782000
v 5.320000 -0.100000 0.782000
v 5.357513 -0.240000 0.782000
v 5.460000 -0.342487 0.782000
v 5.600000 -0.380000 0.782000
v 5.740000 -0.342487 0.782000
v 5.842487 -0.240000 0.782000
v 5.858686 -0.100000 0.674849
v 5.824029 0.029343 0.674849
v 5.729343 0.124029 0.674849
v 5.600000 0.158686 0.674849
v 5.470657 0.124029 0.674849
v 5.375971 0.029343 0.674849
v 5.341314 -0.100000 0.674849
v 5.375971 -0.229343 0.674849
v 5.470657 -0.324029 0.674849
v 5.600000 -0.358686 0.674849
v 5.729343 -0.324029 0.674849
v 5.824029 -0.229343 0.674849
v 5.797990 -0.100000 0.584010
v 5.771464 -0.001005 0.584010
v 5.698995 0.071464 0.584010
v 5.600000 0.097990 0.584010
v 5.501005 0.071464 0.584010
v 5.428536 -0.001005 0.584010
v 5.402010 -0.100000 0.584010
v 5.428536 -0.198995 0.584010
v 5.501005 -0.271464 0.584010
v 5.600000 -0.297990 0.584010
v 5.698995 -0.271464 0.584010
v 5.771464 -0.198995 0.584010
v 5.707151 -0.100000 0.523314
v 5.692796 -0.046424 0.523314
v 5.653576 -0.007204 0.523314
v 5.600000 0.007151 0.523314
v 5.546424 -0.007204 0.523314
v 5.507204 -0.046424 0.523314
v 5.492849 -0.100000 0.523314
v 5.507204 -0.153576 0.523314
v 5.546424 -0.192796 0.523314
v 5.600000 -0.207151 0.523314
v 5.653576 -0.192796 0.523314
v 5.692796 -0.153576 0.523314
v 5.600000 -0.100000 0.502000
f 265 2 1
f 265 3 2
f 265 4 3
f 265 5 4
f 265 6 5
f 265 7 6
f 265 8 7
f 265 9 8
f 265 10 9
f 265 11 10
f 265 12 11
f 265 13 12
f 265 14 13
f 265 15 14
f 265 16 15
f 265 17 16
f 265 18 17
f 265 19 18
f 265 20 19
f 265 21 20
f 265 22 21
f 265 23 22
f 265 24 23
f 265 25 24
f 265 26 25
f 265 27 26
f 265 28 27
f 265 29 28
f 265 30 29
f 265 31 30
f 265 32 31
f 265 33 32
f 265 34 33
f 265 35 34
f 265 36 35
f 265 37 36
f 265 38 37
f 265 39 38
f 265 40 39
f 265 41 40
f 265 42 41
f 265 43 42
f 265 44 43
f 265 1 44
f 266 221 222
f 266 222 223
f 266 223 224
f 266 224 225
f 266 225 226
f 266 226 227
f 266 227 228
f 266 228 229
f 266 229 230
f 266 230 231
f 266 231 232
f 266 232 233
f 266 233 234
f 266 234 235
f 266 235 236
f 266 236 237
f 266 237 238
f 266 238 239
f 266 239 240
f 266 240 241
f 266 241 242
f 266 242 243
f 266 243 244
f 266 244 245
f 266 245 246
f 266 246 247
f 266 247 248
f 266 248 249
f 266 249 250
f 266 250 251
f 266 251 252
f 266 252 253
f 266 253 254
f 266 254 255
f 266 255 256
f 266 256 257
f 266 257 258
f 266 258 259
f 266 259 260
f 266 260 261
f 266 261 262
f 266 262 263
f 266 263 264
f 266 264 221
f 1 2 134 133
f 2 3 135 134
f 3 4 136 135
f 4 5 137 136
f 5 6 138 137
f 6 7 139 138
f 7 8 140 139
f 8 9 141 140
f 9 10 142 141
f 10 11 143 142
f 11 12 144 143
f 12 13 145 144
f 13 14 146 145
f 14 15 147 146
f 15 16 148 147
f 16 17 149 148
f 17 18 150 149
f 18 19 151 150
f 19 20 152 151
f 20 21 153 152
f 21 22 154 153
f 22 23 155 154
f 23 24 156 155
f 24 25 157 156
f 25 26 158 157
f 26 27 159 158
f 27 28 160 159
f 28 29 161 160
f 29 30 162 161
f 30 31 163 162
f 31 32 164 163
f 32 33 165 164
f 33 34 166 165
f 34 35 167 166
f 35 36 168 167
f 36 37 169 168
f 37 38 170 169
f 38 39 171 170
f 39 40 172 171
f 40 41 173 172
f 41 42 174 173
f 42 43 175 174
f 43 44 176 175
f 44 1 133 176
f 45 177 178 46
f 46 178 179 47
f 47 179 180 48
f 48 180 181 49
f 49 181 182 50
f 50 182 183 51
f 51 183 184 52
f 52 184 185 53
f 53 185 186 54
f 54 186 187 55
f 55 187 188 56
f 56 188 189 57
f 57 189 190 58
f 58 190 191 59
f 59 191 192 60
f 60 192 193 61
f 61 193 194 62
f 62 194 195 63
f 63 195 196 64
f 64 196 197 65
f 65 197 198 66
f 66 198 199 67
f 67 199 200 68
f 68 200 201 69
f 69 201 202 70
f 70 202 203 71
f 71 203 204 72
f 72 204 205 73
f 73 205 206 74
f 74 206 207 75
f 75 207 208 76
f 76 208 209 77
f 77 209 210 78
f 78 210 211 79
f 79 211 212 80
f 80 212 213 81
f 81 213 214 82
f 82 214 215 83
f 83 215 216 84
f 84 216 217 85
f 85 217 218 86
f 86 218 219 87
f 87 219 220 88
f 88 220 177 45
f 221 89 90 222
f 222 90 91 223
f 223 91 92 224
f 224 92 93 225
f 225 93 94 226
f 226 94 95 227
f 227 95 96 228
f 228 96 97 229
f 229 97 98 230
f 230 98 99 231
f 231 99 100 232
f 232 100 101 233
f 233 101 102 234
f 234 102 103 235
f 235 103 104 236
f 236 104 105 237
f 237 105 106 238
f 238 106 107 239
f 239 107 108 240
f 240 108 109 241
f 241 109 110 242
f 242 110 111 243
f 243 111 112 244
f 244 112 113 245
f 245 113 114 246
f 246 114 115 247
f 247 115 116 248
f 248 116 117 249
f 249 117 118 250
f 250 118 119 251
f 251 119 120 252
f 252 120 121 253
f 253 121 122 254
f 254 122 123 255
f 255 123 124 256
f 256 124 125 257
f 257 125 126 258
f 258 126 127 259
f 259 127 128 260
f 260 128 129 261
f 261 129 130 262
f 262 130 131 263
f 263 131 132 264
f 264 132 89 221
f 1 45 46 2
f 45 89 90 46
f 89 133 134 90
f 2 46 47 3
f 46 90 91 47
f 90 134 135 91
f 3 47 48 4
f 47 91 92 48
f 91 135 136 92
f 4 48 49 5
f 48 92 93 49
f 92 136 137 93
f 5 49 50 6
f 49 93 94 50
f 93 137 138 94
f 6 50 51 7
f 50 94 95 51
f 94 138 139 95
f 7 51 52 8
f 51 95 96 52
f 95 139 140 96
f 8 52 53 9
f 52 96 97 53
f 96 140 141 97
f 9 53 54 10
f 53 97 98 54
f 97 141 142 98
f 10 54 55 11
f 54 98 99 55
f 98 142 143 99
f 11 55 56 12
f 55 99 100 56
f 99 143 144 100
f 12 56 57 13
f 56 100 101 57
f 100 144 145 101
f 13 57 58 14
f 57 101 102 58
f 101 145 146 102
f 14 58 59 15
f 58 102 103 59
f 102 146 147 103
f 15 59 60 16
f 59 103 104 60
f 103 147 148 104
f 16 60 61 17
f 60 104 105 61
f 104 148 149 105
f 17 61 62 18
f 61 105 106 62
f 105 149 150 106
f 18 62 63 19
f 62 106 107 63
f 106 150 151 107
f 19 63 64 20
f 63 107 108 64
f 107 151 152 108
f 20 64 65 21
f 64 108 109 65
f 108 152 153 109
f 21 65 66 22
f 65 109 110 66
f 109 153 154 110
f 22 66 67 23
f 66 110 111 67
f 110 154 155 111
f 23 67 68 24
f 67 111 112 68
f 111 155 156 112
f 24 68 69 25
f 68 112 113 69
f 112 156 157 113
f 25 69 70 26
f 69 113 114 70
f 113 157 158 114
f 26 70 71 27
f 70 114 115 71
f 114 158 159 115
f 27 71 72 28
f 71 115 116 72
f 115 159 160 116
f 28 72 73 29
f 72 116 117 73
f 116 160 161 117
f 29 73 74 30
f 73 117 118 74
f 117 161 162 118
f 30 74 75 31
f 74 118 119 75
f 118 162 163 119
f 31 75 76 32
f 75 119 120 76
f 119 163 164 120
f 32 76 77 33
f 76 120 121 77
f 120 164 165 121
f 33 77 78 34
f 77 121 122 78
f 121 165 166 122
f 34 78 79 35
f 78 122 123 79
f 122 166 167 123
f 35 79 80 36
f 79 123 124 80
f 123 167 168 124
f 36 80 81 37
f 80 124 125 81
f 124 168 169 125
f 37 81 82 38
f 81 125 126 82
f 125 169 170 126
f 38 82 83 39
f 82 126 127 83
f 126 170 171 127
f 39 83 84 40
f 83 127 128 84
f 127 171 172 128
f 40 84 85 41
f 84 128 129 85
f 128 172 173 129
f 41 85 86 42
f 85 129 130 86
f 129 173 174 130
f 42 86 87 43
f 86 130 131 87
f 130 174 175 131
f 43 87 88 44
f 87 131 132 88
f 131 175 176 132
f 44 88 45 1
f 88 132 89 45
f 132 176 133 89
f 177 221 222 178
f 178 222 223 179
f 179 223 224 180
f 180 224 225 181
f 181 225 226 182
f 182 226 227 183
f 183 227 228 184
f 184 228 229 185
f 185 229 230 186
f 186 230 231 187
f 187 231 232 188
f 188 232 233 189
f 189 233 234 190
f 190 234 235 191
f 191 235 236 192
f 192 236 237 193
f 193 237 238 194
f 194 238 239 195
f 195 239 240 196
f 196 240 241 197
f 197 241 242 198
f 198 242 243 199
f 199 243 244 200
f 200 244 245 201
f 201 245 246 202
f 202 246 247 203
f 203 247 248 204
f 204 248 249 205
f 205 249 250 206
f 206 250 251 207
f 207 251 252 208
f 208 252 253 209
f 209 253 254 210
f 210 254 255 211
f 211 255 256 212
f 212 256 257 213
f 213 257 258 214
f 214 258 259 215
f 215 259 260 216
f 216 260 261 217
f 217 261 262 218
f 218 262 263 219
f 219 263 264 220
f 220 264 221 177
f 267 268 269
f 267 269 270
f 267 270 271
f 267 271 272
f 267 272 273
f 267 273 274
f 267 274 275
f 267 275 276
f 267 276 277
f 267 277 278
f 267 278 279
f 267 279 268
f 268 280 281 269
f 269 281 282 270
f 270 282 283 271
f 271 283 284 272
f 272 284 285 273
f 273 285 286 274
f 274 286 287 275
f 275 287 288 276
f 276 288 289 277
f 277 289 290 278
f 278 290 291 279
f 279 291 280 268
f 280 292 293 281
f 281 293 294 282
f 282 294 295 283
f 283 295 296 284
f 284 296 297 285
f 285 297 298 286
f 286 298 299 287
f 287 299 300 288
f 288 300 301 289
f 289 301 302 290
f 290 302 303 291
f 291 303 292 280
f 292 304 305 293
f 293 305 306 294
f 294 306 307 295
f 295 307 308 296
f 296 308 309 297
f 297 309 310 298
f 298 310 311 299
f 299 311 312 300
f 300 312 313 301
f 301 313 314 302
f 302 314 315 303
f 303 315 304 292
f 304 316 317 305
f 305 317 318 306
f 306 318 319 307
f 307 319 320 308
f 308 320 321 309
f 309 321 322 310
f 310 322 323 311
f 311 323 324 312
f 312 324 325 313
f 313 325 326 314
f 314 326 327 315
f 315 327 316 304
f 316 328 329 317
f 317 329 330 318
f 318 330 331 319
f 319 331 332 320
f 320 332 333 321
f 321 333 334 322
f 322 334 335 323
f 323 335 336 324
f 324 336 337 325
f 325 337 338 326
f 326 338 339 327
f 327 339 328 316
f 328 340 341 329
f 329 341 342 330
f 330 342 343 331
f 331 343 344 332
f 332 344 345 333
f 333 345 346 334
f 334 346 347 335
f 335 347 348 336
f 336 348 349 337
f 337 349 350 338
f 338 350 351 339
f 339 351 340 328
f 352 341 340
f 352 342 341
f 352 343 342
f 352 344 343
f 352 345 344
f 352 346 345
f 352 347 346
f 352 348 347
f 352 349 348
f 352 350 349
f 352 351 350
f 352 340 351
f 353 354 355
f 353 355 356
f 353 356 357
f 353 357 358
f 353 358 359
f 353 359 360
f 353 360 361
f 353 361 362
f 353 362 363
f 353 363 364
f 353 364 365
f 353 365 354
f 354 366 367 355
f 355 367 368 356
f 356 368 369 357
f 357 369 370 358
f 358 370 371 359
f 359 371 372 360
f 360 372 373 361
f 361 373 374 362
f 362 374 375 363
f 363 375 376 364
f 364 376 377 365
f 365 377 366 354
f 366 378 379 367
f 367 379 380 368
f 368 380 381 369
f 369 381 382 370
f 370 382 383 371
f 371 383 384 372
f 372 384 385 373
f 373 385 386 374
f 374 386 387 375
f 375 387 388 376
f 376 388 389 377
f 377 389 378 366
f 378 390 391 379
f 379 391 392 380
f 380 392 393 381
f 381 393 394 382
f 382 394 395 383
f 383 395 396 384
f 384 396 397 385
f 385 397 398 386
f 386 398 399 387
f 387 399 400 388
f 388 400 401 389
f 389 401 390 378
f 390 402 403 391
f 391 403 404 392
f 392 404 405 393
f 393 405 406 394
f 394 406 407 395
f 395 407 408 396
f 396 408 409 397
f 397 409 410 398
f 398 410 411 399
f 399 411 412 400
f 400 412 413 401
f 401 413 402 390
f 402 414 415 403
f 403 415 416 404
f 404 416 417 405
f 405 417 418 406
f 406 418 419 407
f 407 419 420 408
f 408 420 421 409
f 409 421 422 410
f 410 422 423 411
f 411 423 424 412
f 412 424 425 413
f 413 425 414 402
f 414 426 427 415
f 415 427 428 416
f 416 428 429 417
f 417 429 430 418
f 418 430 431 419
f 419 431 432 420
f 420 432 433 421
f 421 433 434 422
f 422 434 435 423
f 423 435 436 424
f 424 436 437 425
f 425 437 426 414
f 438 427 426
f 438 428 427
f 438 429 428
f 438 430 429
f 438 431 430
f 438 432 431
f 438 433 432
f 438 434 433
f 438 435 434
f 438 436 435
f 438 437 436
f 438 426 437
f 439 440 441
f 439 441 442
f 439 442 443
f 439 443 444
f 439 444 445
f 439 445 446
f 439 446 447
f 439 447 448
f 439 448 449
f 439 449 450
f 439 450 451
f 439 451 440
f 440 452 453 441
f 441 453 454 442
f 442 454 455 443
f 443 455 456 444
f 444 456 457 445
f 445 457 458 446
f 446 458 459 447
f 447 459 460 448
f 448 460 461 449
f 449 461 462 450
f 450 462 463 451
f 451 463 452 440
f 452 464 465 453
f 453 465 466 454
f 454 466 467 455
f 455 467 468 456
f 456 468 469 457
f 457 469 470 458
f 458 470 471 459
f 459 471 472 460
f 460 472 473 461
f 461 473 474 462
f 462 474 475 463
f 463 475 464 452
f 464 476 477 465
f 465 477 478 466
f 466 478 479 467
f 467 479 480 468
f 468 480 481 469
f 469 481 482 470
f 470 482 483 471
f 471 483 484 472
f 472 484 485 473
f 473 485 486 474
f 474 486 487 475
f 475 487 476 464
f 476 488 489 477
f 477 489 490 478
f 478 490 491 479
f 479 491 492 480
f 480 492 493 481
f 481 493 494 482
f 482 494 495 483
f 483 495 496 484
f 484 496 497 485
f 485 497 498 486
f 486 498 499 487
f 487 499 488 476
f 488 500 501 489
f 489 501 502 490
f 490 502 503 491
f 491 503 504 492
f 492 504 505 493
f 493 505 506 494
f 494 506 507 495
f 495 507 508 496
f 496 508 509 497
f 497 509 510 498
f 498 510 511 499
f 499 511 500 488
f 500 512 513 501
f 501 513 514 502
f 502 514 515 503
f 503 515 516 504
f 504 516 517 505
f 505 517 518 506
f 506 518 519 507
f 507 519 520 508
f 508 520 521 509
f 509 521 522 510
f 510 522 523 511
f 511 523 512 500
f 524 513 512
f 524 514 513
f 524 515 514
f 524 516 515
f 524 517 516
f 524 518 517
f 524 519 518
f 524 520 519
f 524 521 520
f 524 522 521
f 524 523 522
f 524 512 523
f 525 526 527
f 525 527 528
f 525 528 529
f 525 529 530
f 525 530 531
f 525 531 532
f 525 532 533
f 525 533 534
f 525 534 535
f 525 535 536
f 525 536 537
f 525 537 526
f 526 538 539 527
f 527 539 540 528
f 528 540 541 529
f 529 541 542 530
f 530 542 543 531
f 531 543 544 532
f 532 544 545 533
f 533 545 546 534
f 534 546 547 535
f 535 547 548 536
f 536 548 549 537
f 537 549 538 526
f 538 550 551 539
f 539 551 552 540
f 540 552 553 541
f 541 553 554 542
f 542 554 555 543
f 543 555 556 544
f 544 556 557 545
f 545 557 558 546
f 546 558 559 547
f 547 559 560 548
f 548 560 561 549
f 549 561 550 538
f 550 562 563 551
f 551 563 564 552
f 552 564 565 553
f 553 565 566 554
f 554 566 567 555
f 555 567 568 556
f 556 568 569 557
f 557 569 570 558
f 558 570 571 559
f 559 571 572 560
f 560 572 573 561
f 561 573 562 550
f 562 574 575 563
f 563 575 576 564
f 564 576 577 565
f 565 577 578 566
f 566 578 579 567
f 567 579 580 568
f 568 580 581 569
f 569 581 582 570
f 570 582 583 571
f 571 583 584 572
f 572 584 585 573
f 573 585 574 562
f 574 586 587 575
f 575 587 588 576
f 576 588 589 577
f 577 589 590 578
f 578 590 591 579
f 579 591 592 580
f 580 592 593 581
f 581 593 594 582
f 582 594 595 583
f 583 595 596 584
f 584 596 597 585
f 585 597 586 574
f 586 598 599 587
f 587 599 600 588
f 588 600 601 589
f 589 601 602 590
f 590 602 603 591
f 591 603 604 592
f 592 604 605 593
f 593 605 606 594
f 594 606 607 595
f 595 607 608 596
f 596 608 609 597
f 597 609 598 586
f 610 599 598
f 610 600 599
f 610 601 600
f 610 602 601
f 610 603 602
f 610 604 603
f 610 605 604
f 610 606 605
f 610 607 606
f 610 608 607
f 610 609 608
f 610 598 609
